<svg width="256" height="48" fill="none" xmlns="http://www.w3.org/2000/svg"><g clip-path="url('#clip0_117_394')" fill="#FFBD00"><path d="M50.036 9.922c-1.08 2.326-3.784 4.407-5.88 6.549-2.39 2.443-4.83 4.875-7.414 7.274a165.678 165.678 0 0 1-8.016 6.967c-2.682 2.175-5.423 4.332-7.771 6.594-2.657 2.56-4.835 5.263-5.798 8.085-.212.618.879.663 1.867.49 1.518-.265 3.063-.895 3.896-1.544 2.643-2.054 4.501-4.306 6.892-6.425 2.338-2.073 4.85-4.072 7.473-6.074 5.388-4.108 11.17-8.072 17.132-11.999 1.606-1.058 3.239-2.11 4.788-3.188.743-.517 1.46-1.04 2.219-1.552.152-.103.309-.204.46-.306.481-.323-.255.13.32-.203.166-.095.332-.191.502-.286.13-.072.916-.474.259-.155l-4.512.304c-.563.915-1.721 1.582-2.748 2.423a360.035 360.035 0 0 0-3.847 3.197c-2.35 1.98-4.677 3.976-7.086 5.926a172.535 172.535 0 0 1-15.38 11.11 166.23 166.23 0 0 0-3.977 2.642 51.64 51.64 0 0 1-1.425.94c.356-.224.039-.027-.152.084a23.67 23.67 0 0 1-1.08.588c.952-.489-1.261.48-.088.035l3.71.048c.42-.73 1.467-1.627 2.197-2.187 1.093-.838 2.276-1.648 3.334-2.496 2.585-2.072 4.866-4.236 7.25-6.36a2210.9 2210.9 0 0 0 5.928-5.296c1.977-1.768 3.335-2.959 5.65-4.6a49.193 49.193 0 0 1 1.847-1.242c.101-.065.496-.3-.022.011.181-.108.36-.217.544-.325.327-.19.66-.381 1.002-.566.169-.092 1.17-.498 1.15-.6 0 .01-.623.293-.242.121.202-.09.398-.186.6-.277.368-.165.948-.33 1.232-.525-.07.048-.825.306-.16.069.258-.093.514-.187.775-.278l-3.784-.048c-.255.946-1.124 1.77-1.956 2.628-.936.965-1.83 1.94-2.745 2.91-1.84 1.954-3.62 3.923-5.568 5.854C37.76 31.87 33 35.313 31.1 39.28c-.303.643 1.034.763 2.04.535 4.05-.917 6.349-2.523 8.765-4.22 2.22-1.56 4.275-3.17 6.318-4.78 4.098-3.233 8.165-6.485 12.592-9.62 1.158-.821 2.328-1.638 3.495-2.457.252-.177.506-.353.766-.527.149-.1.304-.199.453-.297.208-.135.303-.175.03-.02.287-.161.586-.32.865-.482.43-.25-.567.235-.054.027.168-.069.854-.355.048-.042l-3.812-.047c-1.536 2.901-5.276 5.583-8.39 8.226-3.554 3.015-6.697 6.142-10.123 9.19a262.662 262.662 0 0 1-6.277 5.402c-.247.205-.517.658-.096.87.376.191 1.008.12 1.463.066 1.761-.21 3.696-.997 4.6-1.72 4.903-3.925 9.9-7.823 14.713-11.772 4.54-3.727 8.156-7.358 13.647-10.75l-6.043.795c-4.288 3.722-8.565 7.451-12.73 11.206a174.586 174.586 0 0 1-6.015 5.164c-2.056 1.695-4.05 3.41-5.501 5.243-.331.417-.634.973.682 1.009 1.4.039 2.936-.566 3.887-.972 5.449-2.33 8.564-5.561 11.75-8.618 1.578-1.514 3.357-2.976 5.026-4.467 1.906-1.702 3.759-3.418 5.683-5.116 2.239-1.974 4.202-3.612 6.87-5.51l-6.193.81c-3.196 3.878-7.536 7.51-11.606 11.192-4.22 3.82-8.023 7.742-12.029 11.612-1.075 1.038-2.151 2.073-3.335 3.085-1.204 1.029-2.342 2.08-2.91 3.233-.29.585.683.737 1.72.612 1.591-.19 3.112-.805 4.15-1.38 4.91-2.733 7.998-6.043 10.953-9.308 2.952-3.255 6.135-6.472 9.34-9.674a57.17 57.17 0 0 1 3.154-2.948c.101-.085.202-.17.297-.254.088-.075.462-.379.197-.165a37.55 37.55 0 0 1 2.836-2.087l-6.414.845c-2.717 3.487-5.996 6.866-9.212 10.255-3.26 3.436-6.378 6.901-9.785 10.305-1.78 1.778-3.94 3.579-4.372 5.568-.286 1.319 3.198.457 4.265.053 3.822-1.446 6.491-3.27 8.88-5.261a194.087 194.087 0 0 0 5.942-5.154c4.026-3.646 7.74-7.362 11.678-11.027a72.33 72.33 0 0 1 1.594-1.441c.287-.252.583-.502.877-.752.06-.052.404-.334.047-.042l.405-.327a41.673 41.673 0 0 1 3.263-2.359c.152-.098.877-.55.174-.119l-6.117.43c-2.813 3.5-6.276 6.871-9.368 10.316-1.561 1.738-3.124 3.476-4.648 5.223-1.288 1.479-2.43 2.988-3.82 4.445-.678.711-1.316 1.431-1.813 2.176-.405.62-.81 1.41-.315 2.038 1.03 1.31 5.74-.706 6.591-1.205 6.095-3.58 11.114-7.482 15.894-11.47 2.26-1.884 4.478-3.78 6.747-5.662.338-.28-.33.269.014-.01l.484-.395.781-.631c.587-.473 1.182-.943 1.784-1.41a112.935 112.935 0 0 1 3.721-2.768 73.753 73.753 0 0 1 4.464-2.964c-.102.06-.658.398-.085.056.202-.119.396-.239.597-.357a79.634 79.634 0 0 1 3.88-2.152l-6.277.443c-7.305 6.22-15.364 12.291-20.956 18.918-1.626 1.924-3.057 3.889-4.177 5.892-.368.659.815.85 1.966.699 1.886-.249 3.427-.917 4.73-1.575 5.617-2.836 8.91-6.502 12.233-9.997 1.543-1.623 3.248-3.198 4.946-4.787 1.924-1.799 3.767-3.615 5.77-5.392.566-.503 1.15-1 1.738-1.497.342-.29-.34.267.021-.017.171-.134.336-.27.506-.405a48.682 48.682 0 0 1 2.893-2.12c.336-.227.684-.449 1.028-.674.15-.095.518-.382-.101.059.211-.15.484-.289.725-.43l-6.723.88c-.203.521-.631 1.013-.97 1.516.126-.188.329-.43.102-.13l-.196.253c-.16.203-.322.406-.486.609-.361.445-.73.89-1.104 1.336-1.886 2.24-3.875 4.461-5.83 6.687-4.043 4.6-8.379 9.226-11.326 14.015-.448.73-.879 1.474-1.028 2.232-.13.66-.234 1.404 1.282 1.708 1.161.232 3.167-.434 3.977-.727 4.004-1.455 6.798-3.389 9.462-5.381 2.413-1.804 4.647-3.66 6.837-5.526 3.876-3.302 7.545-6.647 11.31-9.974a85.637 85.637 0 0 1 1.539-1.322c-.512.432.243-.19.385-.304a38.587 38.587 0 0 1 3.01-2.163c.114-.074.772-.496.262-.17-.446.287-.052.034.039-.019.242-.139.482-.278.727-.416l-7.21.943c-1.113 1.956-2.621 3.64-4.636 5.613-1.963 1.922-4.133 3.795-6.216 5.689-2.126 1.93-4.166 3.88-6.269 5.815-2.146 1.976-4.244 3.965-6.052 6.016-.477.541-.79 1.269.888 1.315 1.834.05 3.814-.74 5.062-1.266 5.986-2.519 9.314-6.049 12.391-9.461 3.375-3.746 7.057-7.43 10.467-11.17 2.096-2.3 4.132-4.61 6.11-6.932.247-.292.708-.818.123-1.113-.559-.282-1.76-.134-2.364-.02-2.407.46-4.931 1.507-6.005 2.64-3.222 3.403-6.113 6.872-9.046 10.332-1.452 1.711-2.887 3.428-4.455 5.117-1.507 1.623-3.184 3.212-4.733 4.827-1.816 1.895-3.484 3.843-4.528 5.867-.444.862 1.352.927 2.614.687 2.106-.402 4.302-1.234 5.456-2.162 4.465-3.587 7.943-7.388 11.427-11.2 3.537-3.872 7.416-7.669 11.167-11.494 2.003-2.043 4.624-4.12 4.842-6.414.064-.668-2.097-.42-2.727-.31-1.784.31-3.518.979-4.702 1.668-6.153 3.584-10.554 7.693-14.636 11.859-3.99 4.07-7.99 8.144-12.115 12.185-1.83 1.793-4.177 3.788-3.939 5.84.093.805 2.728.352 3.451.186 1.976-.45 4.137-1.27 5.242-2.176 4.116-3.376 7.446-6.912 10.659-10.494 3.077-3.428 6.479-6.785 9.598-10.204 1.848-2.028 3.526-4.098 4.81-6.222.363-.6-.506-.918-1.687-.853-3.544.195-6.545 1.617-8.546 2.897a42.251 42.251 0 0 0-2.964 2.108 100.472 100.472 0 0 0-3.349 2.72c-.457.382-.911.766-1.37 1.149-.212.176-.422.352-.636.528.506-.415-.304.238-.435.346-3.97 3.16-8.302 6.217-12.351 9.353-2.447 1.899-4.823 3.822-6.985 5.796-.655.597-.555 1.44 1.29 1.297 2.228-.174 4.247-1.02 5.677-1.789 1.71-.92 2.902-1.974 4.081-3.054.97-.888 1.996-1.765 2.972-2.65a192.891 192.891 0 0 0 5.909-5.597c3.766-3.708 7.39-7.456 10.7-11.262.899-1.033 1.721-2.08 2.632-3.111.926-1.054 1.931-2.142 2.115-3.293.043-.26.102-.72-.744-.757-2.503-.108-4.859.785-6.56 1.55a18.793 18.793 0 0 0-3.927 2.37c-2.046 1.613-3.732 3.315-5.297 5.042a89.125 89.125 0 0 0-3.313 3.888c-1.666 2.061-3.786 4.046-5.653 6.068-3.24 3.51-6.256 7.11-7.936 10.87-.26.582.405.793 1.538.776 3.226-.047 6.423-1.431 8.296-2.548a19.581 19.581 0 0 0 2.505-1.789c.181-.15.368-.298.542-.45-.746.653.269-.18.466-.334a52.902 52.902 0 0 0 7.452-6.945c2.406-2.712 5.157-5.427 6.661-8.287.578-1.098 1.587-3.057-.597-3.932-1.554-.62-4.618.58-5.593 1.023-5.92 2.682-10.724 5.816-14.83 9.157-1.987 1.617-3.87 3.26-5.73 4.911-.898.796-1.794 1.593-2.705 2.386a172.238 172.238 0 0 1-1.87 1.603l-.363.303c-.423.355.217-.173-.06.05-2.126 1.72-4.374 3.403-6.935 4.988l7.614-1.744a1.745 1.745 0 0 1-.095-.402c-.009-.084.036-.436-.016-.191a3.46 3.46 0 0 1 .39-.98c.09-.162.203-.319.305-.478.045-.072.253-.31-.017.015.058-.07.113-.14.17-.21.296-.357.623-.707.968-1.054 1.242-1.25 2.763-2.433 4.031-3.674 1.62-1.59 3.092-3.219 4.657-4.82 1.708-1.747 3.37-3.505 4.758-5.313 1.614-2.095 2.936-4.23 3.41-6.456.088-.407.035-.58-.748-.764-1.563-.363-3.494-.038-4.946.293-2.353.537-4.338 1.343-6.141 2.225-3.038 1.486-5.467 3.226-7.654 5.005-1.709 1.393-3.296 2.812-4.849 4.243-2.623 2.42-5.52 4.777-8.177 7.19-1.807 1.64-3.53 3.303-5.39 4.932-1.828 1.6-3.645 3.233-4.483 5.021-.53 1.131 2.364.692 3.473.401 3.117-.818 5.336-2.087 7.33-3.446a155.329 155.329 0 0 0 4.33-3.039c2.845-2.083 5.537-4.21 8.243-6.333 5.549-4.354 11.424-8.613 17.016-12.955 1.274-.99 2.572-1.975 3.824-2.971 1.215-.967 2.835-2.13 2.993-3.286.038-.28.13-.525-.473-.684-.575-.152-1.368-.06-1.942.047-2.025.386-3.829 1.151-5.042 1.998-6.715 4.684-12.676 9.607-18.107 14.646-2.615 2.425-5.618 4.772-7.795 7.296-.626.727-1.276 1.485-1.572 2.263-.185.487-.42 1.272.507 1.651 1.831.747 5.442-.978 6.417-1.479 11.957-6.14 22.001-13.075 32.671-19.705 1.639-1.02 3.543-2.016 4.758-3.163-.462.437.112-.191.357-.225l-.188.117c-.26.16-.251.158.027-.003l.223-.117-.528.261c.664-.303-.258.108-.353.123.122-.02.985-.31.259-.108-.615.172-.101.03.019 0 .297-.079.59-.155.893-.227l-3.408-.393c-1.019 2.004-2.466 3.697-4.231 5.608-1.701 1.843-3.366 3.693-5.062 5.535-3.296 3.589-7.35 7.28-7.1 11.295.02.359.95.417 1.488.387 1.06-.06 2.126-.382 2.948-.675 6.58-2.325 11.432-5.475 15.678-8.752 1.861-1.437 3.634-2.9 5.546-4.321 2.26-1.682 4.705-3.307 7.049-4.963 2.84-2.008 5.655-4.011 8.169-6.115.608-.513.405-1.148-1.059-1.064-1.851.105-3.442.87-4.656 1.466-5.385 2.646-8.98 6.033-12.225 9.326-3.376 3.425-6.893 6.815-10.288 10.235a200.04 200.04 0 0 0-6.455 6.807l2.279-1.395c-2.91 1.412-6.479 3.441-3.867 5.44.576.44 2.585-.064 3.138-.211a13.461 13.461 0 0 0 3.875-1.703c5.192-3.321 9.341-6.956 13.497-10.576.992-.864 1.984-1.728 2.995-2.587.467-.398.94-.795 1.417-1.193.405-.339.177-.147.087-.073.137-.112.274-.224.412-.334.245-.2.486-.4.732-.6-.224.182.063-.047.133-.104 2.386-1.888 4.817-3.763 7.241-5.64 2.743-2.124 5.498-4.245 8.187-6.384.628-.5 1.704-1.677-.564-1.547-2.1.12-4.556 1.167-5.591 1.986a141.047 141.047 0 0 0-18.329 17.302c-.333.375-.715.855.153 1.116.842.255 2.279-.072 2.998-.286 7.133-2.14 12.269-5.201 16.526-8.598 1.796-1.431 3.486-2.893 5.348-4.306a51.815 51.815 0 0 1 2.907-2.036c.327-.205.256-.163-.213.127a43.303 43.303 0 0 1 1.207-.704c.272-.152.557-.302.843-.45 1.038-.533-.589.275.101-.052l-5.298-.043c-3.61 4.044-7.731 7.977-11.656 11.954-.834.845-1.615 1.703-2.48 2.54-.231.225-.474.447-.719.669-.126.114-.304.23-.393.352l.172-.14a114.8 114.8 0 0 1-.433.357c-.102.09-.203.183-.304.274-1.377 1.25-2.733 2.51-3.796 3.828-1.068 1.327-2.509 3.069-1.486 4.496.473.662 2.073.4 3.09.168a14.69 14.69 0 0 0 4.694-1.95c9.314-5.915 16.11-12.527 23.108-19.078.574-.538.507-1.297-1.16-1.167-1.997.156-3.825.916-5.104 1.608-3.587 1.943-6.373 4.168-8.878 6.446-1.167 1.06-2.268 2.136-3.374 3.21l-.667.646c-.117.113-.554.74-.827.793l.253-.195-.626.515c-.142.125-.267.255-.4.381a28.16 28.16 0 0 1-.759.708c-.16.143-.326.282-.494.421-.203.172-.766.628.167-.136l-.449.368c-.865.71-1.733 1.421-2.574 2.139-1.548 1.319-3.063 2.661-4.223 4.067-.599.728-1.234 1.492-1.431 2.273-.142.556-.243 1.312.77 1.728.993.406 2.614.007 3.537-.239 1.782-.473 3.148-1.162 4.369-1.92 7.204-4.475 12.221-9.86 15.812-15.193.47-.698-.931-.89-2.076-.738-1.913.252-3.746.954-4.996 1.663-5.453 3.11-8.793 6.78-12.588 10.355-.392.37-.786.739-1.207 1.101-.655.563.377-.292-.093.08-.19.149-.375.299-.563.448-1.032.819-2.084 1.634-2.996 2.485-1.563 1.458-3.138 3.29-2.227 4.948.741 1.345 5.554-.472 6.365-.82 6.184-2.658 10.919-5.91 15.309-9.241 1.984-1.506 3.932-3.024 6.036-4.494.549-.382 1.109-.761 1.68-1.137a56.594 56.594 0 0 1 1.087-.695c-.505.31-.572.353-.202.129a65.293 65.293 0 0 1 1.851-1.065c.318-.174.641-.346.968-.516.271-.14 1.5-.74.159-.09l-6.222.802c-.059.674-.607 1.707-1.179 2.482.262-.358-.258.306-.31.368-.188.222-.384.442-.583.662-.379.415-.774.827-1.17 1.238-1.71 1.781-3.497 3.614-4.032 5.57-.07.256-.084.803.804.817 3.59.054 6.747-1.023 9.267-2.134 2.328-1.024 4.267-2.229 6.063-3.462.583-.4 1.159-.802 1.745-1.2.253-.173.795-.508-.382.225.387-.239.786-.478 1.165-.722.338-.218.656-.441.976-.665.352-.246.7-.494 1.061-.738.154-.104.309-.207.468-.31.721-.467-.405.227-.065.039l.617-.34c.413-.23-1.135.518-.202.111.346-.146.143-.065-.608.243-.742.218-.934.277-.577.176.314-.085.151-.05-.49.104.162-.033.327-.062.496-.085l-2.594-.295c.072.404-.062.764-.134 1.179-.047.266-.129.563-.068.834.076.342.292.473.892.625 1.187.299 2.493.318 3.82.251 3.009-.153 5.947-.807 8.664-1.4 1.308-.286 2.605-.584 3.925-.859a50.56 50.56 0 0 1 1.669-.322c.063-.01.771-.143.798-.126-.022-.015-1.034.11-.066.023.482-.044.976-.074 1.465-.095.196-.009 1.013-.025.84-.027-.236 0 .506.022.651.032.327.022.65.058.963.108.127.02.247.048.372.068.33.06-.345-.108-.062-.018.175.054.344.112.506.175.364.15.691.317.976.5 1.563.967 2.806 1.85 5.136 2.458 3.21.837 6.843.916 10.436.74 3.593-.178 7.103-.63 10.598-1.05 3.731-.447 7.457-.723 11.277-.944 10.61-.613 21.289-.944 31.877-1.648 2.531-.168 5.103-1.297 6.411-2.279.749-.562 1.981-1.949-.647-1.774-9.239.615-18.544.96-27.815 1.448-4.119.217-8.301.399-12.351.83-3.412.363-6.766.841-10.202 1.157-3.369.309-6.21.497-9.44.09-2.651-.334-4.501-1.08-6.094-2.133-1.282-.849-2.66-1.563-5.013-1.674-3.103-.147-6.081.26-8.876.855-1.468.312-2.911.652-4.372.97a91.18 91.18 0 0 1-2.278.47c-.35.068-.709.124-1.056.195-.624.128.068.012.183-.007-.434.07-.911.095-1.334.183-.423.087.349-.05.327-.04-.096.041-.603.07-.732.082-.309.031-.621.058-.936.075-.314.018-.977.005-.303.03-.3-.006-.599-.022-.894-.047-.232-.023-.615-.048-.799-.124.371.15.261.061.325-.096.251-.608.34-1.23.263-1.848-.092-.635-1.868-.403-2.595-.295-3.512.522-6.522 1.924-8.731 3.26-.978.593-1.89 1.201-2.792 1.82-.297.202-.627.4-.911.606 1.106-.811-.085.048-.429.264-.124.077-.247.155-.369.234-.555.358-1.079.728-1.62 1.092-.338.228-.677.457-1.023.683-.172.112-.389.227-.54.346l.494-.304c-.124.076-.25.152-.379.226-.345.202-.727.39-1.072.591-.457.266 1.097-.498.382-.19-.202.087-.416.172-.612.264 1.3-.604.771-.33.375-.173.82-.245 1.043-.318.67-.217-.334.087-.134.043.6-.132-.28.058-1.006.136.164-.006-.217.026-.866.016-.012.03l.803.815c.126-.46.318-.916.575-1.365.13-.227.279-.45.431-.675.087-.127.169-.227.024-.042.087-.111.177-.222.268-.334.765-.927 1.668-1.826 2.531-2.733 1.831-1.915 3.396-3.844 3.601-5.961.054-.547-1.541-.456-2.183-.371-1.491.196-2.96.653-4.039 1.173-5.863 2.828-10.392 6.08-14.805 9.424-1.991 1.507-3.991 3.013-6.194 4.453-.286.188-.581.373-.87.56-.368.23-.294.185.219-.133-.15.091-.304.182-.451.273a53.236 53.236 0 0 1-2.601 1.452c-.325.168-1.586.657-.139.082-.741.295-1.397.652-2.118.96l6.365-.82a1.787 1.787 0 0 1-.232-.949c-.017.309.092-.255.117-.316.058-.147.13-.292.212-.437.052-.09.526-.715.151-.261.124-.15.248-.298.382-.444.32-.35.676-.691 1.051-1.028.214-.193.434-.384.66-.573.114-.096.298-.356.506-.42-.381.299-.434.338-.161.118.108-.089.217-.178.327-.266l.476-.387a42.04 42.04 0 0 0 2.66-2.339c1.579-1.531 3.037-3.091 4.652-4.614a39.108 39.108 0 0 1 1.91-1.698c-.567.473.145-.108.264-.201.463-.36.944-.713 1.45-1.058.237-.162.472-.375.777-.51-1.077.476.088-.041.319-.174l-6.731.475c-.303.384-.583.77-.874 1.156.222-.294-.197.254-.197.253a64.233 64.233 0 0 1-1.869 2.31 56.603 56.603 0 0 1-3.35 3.622 53.203 53.203 0 0 1-2.898 2.656c-.06.051-.616.511-.289.245s-.304.242-.304.239a48.78 48.78 0 0 1-4.657 3.274l7.905-2.157c-.082-.034-.268-.104-.292-.159.062.137.101.24.058.025-.016-.076-.045-.155-.067-.231-.015-.053.016-.11 0-.162-.045-.11-.141.398 0 .104.101-.23.17-.46.304-.69.078-.136.166-.271.259-.406.366-.532-.222.246.086-.115 1.132-1.332 2.501-2.609 3.963-3.866.346-.298.697-.594 1.052-.89l.443-.368c.585-.485-.564.463 0 0 .674-.55 1.36-1.097 2.01-1.655 1.923-1.645 3.409-3.41 5.111-5.109a55.685 55.685 0 0 1 3.475-3.207c-.442.372-.114.092-.016.016.194-.15.384-.303.581-.454.325-.248.659-.494 1.003-.737.372-.263.768-.516 1.155-.774.405-.272-.584.34-.138.084.266-.151.524-.306.792-.456l-6.264.441a178.496 178.496 0 0 1-10.428 9.493c-.243.205-.489.41-.734.614-.467.392.254-.203-.269.223-.498.405-1.001.81-1.508 1.213a105.404 105.404 0 0 1-9.36 6.63l7.785-1.784a1.465 1.465 0 0 1-.256-.637c-.01-.082.032-.514-.033-.149a2.87 2.87 0 0 1 .116-.445c.101-.281.233-.56.397-.834a7.56 7.56 0 0 1 .323-.5c.044-.064.095-.127.137-.19.133-.213-.265.315.01-.008 1.113-1.302 2.41-2.555 3.78-3.8 3.393-3.085 6.212-6.322 9.275-9.482 2.126-2.192 4.252-4.386 6.242-6.606.432-.48.698-1.13-.791-1.17-1.574-.043-3.482.645-4.508 1.127-5.355 2.513-9.061 5.512-12.822 8.567a82.946 82.946 0 0 1-2.55 2.005c-.464.347-.941.691-1.431 1.031-.434.3-1.246.659-1.51.992.477-.292.548-.337.212-.134a35.653 35.653 0 0 1-1.022.582c-.276.153-.564.3-.847.45-.659.348 1.004-.466-.101.044-.302.139-.61.275-.924.409-1.148.486.69-.239-.097.044-.337.122-.669.246-1.012.363-.173.059-.348.116-.524.173.661-.203.76-.235.297-.096l3.151.828c2.531-2.837 5.133-5.664 7.934-8.446a126.241 126.241 0 0 1 4.252-4.025 112.861 112.861 0 0 1 3.532-3.051c-.327.27.318-.257.333-.27.221-.177.446-.354.671-.531l-6.155.44c-.417.33-.82.667-1.237.997.052-.042.207-.172-.037.021l-.467.371c-.583.463-1.168.926-1.755 1.387l-3.645 2.864a4083.172 4083.172 0 0 0-7.175 5.63c-2.301 1.818-4.576 3.64-6.768 5.488-1.069.902-2.131 1.806-3.201 2.708-.485.407-.972.814-1.46 1.221-.088.073-.714.587-.398.329-.318.26-.637.519-.957.777-2.43 1.953-4.96 3.882-7.79 5.711l7.014-1.914a1.204 1.204 0 0 1-.405-.43c-.024-.048-.102-.508-.077-.365-.041-.209-.019-.146-.032-.026l.142-.147-.192.155c.135-.276.236-.12-.045.019-.518.241-.476.217.126-.072.471-.213.89-.45 1.248-.708 1.401-1.05 2.237-2.333 3.294-3.47a203.103 203.103 0 0 1 6.268-6.452c1.815-1.787 3.667-3.563 5.384-5.372 1.65-1.738 3.291-3.483 5.156-5.172.279-.255.565-.508.856-.758.115-.1.233-.2.349-.299.366-.315-.134.101.101-.088.569-.456 1.15-.906 1.769-1.35.286-.204.579-.407.879-.607.133-.088.266-.174.405-.261.531-.341.226-.01-.01 0 .225-.01.882-.512 1.054-.606a29.33 29.33 0 0 1 1.092-.566l-5.715.402c-.139.118-.278.236-.42.353a50.473 50.473 0 0 1-.783.627c-.518.408-1.046.813-1.584 1.214-1.114.835-2.274 1.659-3.448 2.477-2.318 1.614-4.727 3.198-7.015 4.82-3.799 2.694-7.025 5.564-11.077 8.18-.144.092-.293.183-.434.277-.405.263.522-.312.101-.058-.299.178-.595.358-.9.533a47.2 47.2 0 0 1-1.878 1.02c-.135.068-.677.342-.13.068.546-.275-.026.008-.14.06-.334.156-.671.308-1.013.456l-.39.165c-.873.376.684-.25.14-.047-.406.15-.81.303-1.23.448l4.435-.287c-.03-.91.26-1.803.704-2.688a14.22 14.22 0 0 1 1.62-2.464c1.401-1.748 3.118-3.436 4.665-5.154 3.388-3.77 7.462-7.5 9.501-11.5.577-1.131-2.364-.64-3.408-.394a29.146 29.146 0 0 0-6.517 2.403c-.791.403-1.509.837-2.144 1.298-.397.286-.729.594-1.1.889-.041.033-.359.23-.101.077.324-.19-.424.23-.49.272a1515.659 1515.659 0 0 0-8.552 5.32c-2.71 1.698-5.397 3.404-8.099 5.106a621.6 621.6 0 0 1-4.456 2.783c-.353.217-.708.433-1.064.65-.711.431-1.427.86-2.148 1.288a180.748 180.748 0 0 1-9.843 5.463l6.417-1.479c-.336-.138 0-.14-.036.071.009-.06-.102-.139-.102-.203 0-.01-.03-.25-.017-.25.269.017-.12.35-.012.163.045-.078.052-.165.083-.245.111-.26.255-.516.431-.768.04-.06.086-.119.126-.179.188-.284-.106.148-.112.143-.056-.028.404-.491.435-.531 1.158-1.354 2.574-2.659 4.027-3.947 3.658-3.245 7.188-6.522 11.035-9.72.412-.344-.514.416.197-.163l.665-.54a156.184 156.184 0 0 1 8.914-6.689l-7.457 1.364c-.033.15-.083.299-.15.447-.101.281.01.017.063-.048-.07.088-.148.176-.228.263a8.918 8.918 0 0 1-.56.546c-.101.093-.211.185-.318.278-.544.475.495-.378-.1.08-1.02.781-2.031 1.564-3.032 2.349a492.033 492.033 0 0 1-8.099 6.16c-5.277 3.955-10.326 7.974-15.563 11.941a148.29 148.29 0 0 1-4.502 3.293c-.71.5-1.447.993-2.174 1.489l-.392.27c-.099.068-.2.136-.303.204-.223.146-.131.093.276-.16-.066.09-.364.177-.455.255.264-.225 2.819-.986 1.612-.668l3.473.4c.614-1.304 1.962-2.516 3.455-3.827 1.494-1.31 2.9-2.63 4.336-3.948 2.977-2.733 6.109-5.423 9.207-8.125 1.102-.962 2.109-1.948 3.218-2.91.182-.16.366-.317.552-.473.177-.15 1.044-.84.239-.206.46-.363.906-.73 1.377-1.091a43.153 43.153 0 0 1 2.148-1.544c.298-.2 1.583-.874.303-.214a37.101 37.101 0 0 0 1.685-.941c-1.307.763-.458.23-.035.04.372-.17.97-.28-.568.217a6.33 6.33 0 0 0 .48-.172c.436-.18-1.278.375-.635.197.62-.172.506.03-.381.072a3.13 3.13 0 0 0 .328-.061c.68-.116-.931.098-.353.047.815-.07-.481-.095.1-.015.285.04.55.061.822.124l-.75-.763c-.84 3.904-3.919 7.21-7.357 10.732-1.591 1.63-3.118 3.277-4.737 4.901-1.255 1.26-2.804 2.45-4.067 3.708-1.494 1.487-3.106 3.267-2.521 4.951.238.687 2.245.341 3.023.164 1.888-.43 3.335-1.13 4.592-1.909 4.555-2.815 8.182-5.936 11.71-9.053 1.745-1.54 3.466-3.087 5.28-4.61.09-.077.181-.152.272-.228.07-.058.458-.382.166-.14-.27.226.036-.029.077-.062l.37-.3c.467-.376.939-.749 1.418-1.12a64.053 64.053 0 0 1 3.008-2.178c.558-.381 1.14-.75 1.721-1.122.424-.275-.596.357-.15.09.189-.112.376-.227.566-.34a54.253 54.253 0 0 1 2.867-1.581c.166-.085.336-.17.506-.255.709-.363-.642.3-.128.064.397-.184.789-.37 1.191-.552l-5.593 1.023c.126.054.246.112.356.174.226.117.182.223.068.01.119.222.251.424.285.655.019.115 0 .23.017.345.027.217.084-.277-.02.106a6.23 6.23 0 0 1-.303.882 11.627 11.627 0 0 1-1.114 1.9c-.111.159-.228.317-.343.477-.219.302.027-.035.063-.08-.062.078-.122.157-.184.238-.273.35-.556.697-.85 1.042-2.41 2.85-4.906 5.73-7.896 8.452-.326.297-.66.592-1.001.885-.137.118-.276.234-.413.35.318-.27.009-.006-.15.121-.715.573-1.47 1.132-2.167 1.71l-.257.213c-.085.072-.446.416-.115.099.303-.297.031-.027-.07.047-.129.096-.265.191-.389.287-.431.336.266-.154.317-.183-.285.156-.236.137.15-.057.32-.167.68-.317 1.072-.446a8.867 8.867 0 0 1 1.323-.357c.517-.089.511-.05-.037-.042l1.537.777c1.335-3.023 3.376-5.676 5.843-8.468 2.13-2.412 4.632-4.76 6.669-7.189 2.067-2.466 4.032-4.948 6.556-7.323.42-.395.951-.778 1.329-1.182-.642.683-.101.085.128-.087.19-.143.385-.286.59-.43.094-.064.194-.127.288-.19.435-.3-1.012.561-.333.208a4.14 4.14 0 0 0 .185-.102c.624-.372-1.099.509-.561.273.537-.236-1.338.498-.77.3.507-.175-1.324.383-.772.24-.865.225-1.417.292-1.964.269l-.744-.757a3.33 3.33 0 0 1-.506 1.265c-.242.382-.405.542-.797.997-.759.87-1.496 1.745-2.263 2.615a156.576 156.576 0 0 1-5.148 5.535c-3.556 3.663-7.256 7.296-11.202 10.87a194.859 194.859 0 0 1-3.308 2.928 98.92 98.92 0 0 0-1.563 1.372c-.12.11-.251.216-.367.327-.309.297.435-.307.045-.034-.109.075-.211.154-.312.231-.683.519.786-.423-.053.022l6.967-.491a95.346 95.346 0 0 1 1.658-1.452l.859-.721a141.749 141.749 0 0 1 .458-.376c1.1-.893 2.227-1.779 3.38-2.657 2.378-1.82 4.831-3.616 7.253-5.422 2.553-1.904 5.034-3.821 7.39-5.78.496-.414.99-.828 1.491-1.241-.57.469.339-.273.439-.353.291-.233.586-.465.885-.696.597-.46 1.214-.916 1.855-1.363.294-.203.608-.401.887-.61.354-.24.239-.177-.344.188-4.803 1.06-6.169 1.522-4.097 1.388l-1.687-.853a26.198 26.198 0 0 1-1.236 1.846 8.182 8.182 0 0 1-.213.289c.147-.196-.022.024-.079.095a52.07 52.07 0 0 1-2.177 2.57c-1.51 1.671-3.149 3.318-4.767 4.968-3.24 3.302-6.105 6.678-9.296 9.989-.877.909-1.78 1.813-2.727 2.705a64.282 64.282 0 0 1-2.337 2.1c-.142.12-.962.797-.415.352l8.693-1.99c-.008-.076 0-.157-.013-.232.054.3-.036.143 0 .04.069-.179.12-.357.202-.533.093-.191.203-.377.327-.563.064-.095.138-.19.203-.286-.318.487.015-.01.08-.089.608-.73 1.317-1.437 2.025-2.144 1.919-1.895 3.713-3.818 5.614-5.717 3.786-3.78 7.234-7.649 11.325-11.357a61.535 61.535 0 0 1 1.778-1.552c.11-.093.437-.395-.056.044.152-.136.329-.266.494-.397.299-.236.603-.471.911-.704a42.42 42.42 0 0 1 3.015-2.089c.379-.24-.019-.183-.203.121.079-.135.523-.31.702-.415l-7.43 1.359c.013-.134-.11.312-.138.379-.089.207-.213.408-.334.611-.032.052-.257.345-.029.056-.069.087-.143.174-.216.26-.197.229-.405.455-.624.68-.81.835-1.64 1.664-2.452 2.497-1.831 1.883-3.699 3.757-5.547 5.636-3.483 3.541-6.63 7.148-10.022 10.708a80.957 80.957 0 0 1-2.88 2.885 62.937 62.937 0 0 1-2.428 2.187l-.303.257c-.676.57.488-.392-.209.17l8.07-1.475a14.054 14.054 0 0 1 1.073-1.774c.056-.081.432-.58.277-.382a35.284 35.284 0 0 1 2.097-2.416c1.488-1.57 3.127-3.132 4.626-4.72 3.151-3.337 5.826-6.776 8.722-10.165a132.163 132.163 0 0 1 5.169-5.726l-8.245 1.508c-3.394 3.93-6.993 7.82-10.695 11.687-1.743 1.822-3.561 3.627-5.264 5.457-1.326 1.422-2.582 2.858-4.038 4.252-.411.394-.84.784-1.285 1.17-.11.095-.224.19-.334.286-.325.279.636-.5.042-.04-.232.179-.46.36-.703.536-.242.177-.483.344-.735.513-.122.08-.265.16-.378.245.1-.074.81-.472.311-.197-.297.164-.607.326-.903.492-.417.235.636-.349.6-.295-.048.07-.524.233-.64.282l5.951.047c5.52-6.326 13.235-12.174 19.246-18.39 1.754-1.814 3.288-3.688 4.372-5.615.398-.71-.88-.916-2.117-.753a14.687 14.687 0 0 0-5.093 1.695c-5.179 2.93-8.742 6.337-12.396 9.712-1.75 1.617-3.625 3.203-5.46 4.798a309.932 309.932 0 0 1-3.058 2.639 168.689 168.689 0 0 1-1.724 1.446c.392-.324.018-.015-.053.043-.296.239-.59.477-.89.716a88.103 88.103 0 0 1-3.593 2.727c-.581.417-1.19.825-1.789 1.236-.422.29.62-.34.124-.077-.17.09-.346.184-.506.28-.392.238.378-.18.382-.181-.978.44 1.056-.37-.013.02l3.977-.727c.158.031.572.214.267.032-.139-.083.11.345.084.069-.007-.085-.058-.172-.067-.258-.006-.048 0-.095 0-.143-.041-.294-.086.334-.023.148.206-.66.49-1.312.851-1.957.533-.913 1.162-1.813 1.823-2.71.087-.119.176-.238.266-.358.1-.134.527-.603.047-.066.235-.262.413-.54.62-.806.44-.564.889-1.127 1.345-1.689 3.794-4.68 7.987-9.285 11.92-13.94.777-.92 1.55-1.84 2.264-2.773.528-.687 1.143-1.397 1.428-2.12.257-.656-.72-.868-1.974-.702-1.806.238-3.588.904-4.75 1.581-5.776 3.367-9.875 7.224-13.935 11.084-1.727 1.64-3.578 3.254-5.204 4.918-1.61 1.648-3.11 3.32-4.803 4.95-.48.46-.977.918-1.492 1.372-.134.117-.894.758-.377.334-.263.215-.533.429-.81.64-.545.414-1.136.808-1.721 1.207-.393.267.628-.368.202-.118-.173.1-.342.202-.517.302-.345.196-.709.386-1.072.573l6.697-.876a30.729 30.729 0 0 1 3.195-4.667c1.344-1.635 2.853-3.24 4.463-4.82 3.248-3.186 6.908-6.273 10.603-9.347 2.042-1.698 4.102-3.393 6.107-5.1.63-.537.475-1.297-1.161-1.17-2.025.159-3.79.924-5.114 1.611-6.356 3.303-11.582 7.042-16.336 10.885-2.439 1.972-4.786 3.968-7.151 5.96a293.509 293.509 0 0 1-2.385 1.991l-.385.318c.462-.382-.107.088-.202.168-1.162.947-2.34 1.89-3.559 2.821a95.992 95.992 0 0 1-4.199 3.048 85.159 85.159 0 0 1-2.693 1.77c-.086.054-.752.464-.304.19.488-.297-.29.175-.313.191a56.08 56.08 0 0 1-.72.427l6.57-1.21c-.153-.194-.22-.401-.196-.608-.025.253.076-.123.11-.202.07-.155.157-.308.254-.46.075-.12.304-.401.074-.126.11-.135.22-.27.335-.404.239-.276.495-.548.752-.82 1.336-1.411 2.442-2.871 3.68-4.302a312.33 312.33 0 0 1 9.005-9.966c1.783-1.9 3.536-3.808 5.09-5.754.444-.556.577-1.236-1.133-1.139-1.846.106-3.9.903-4.984 1.57-5.234 3.224-8.958 6.839-12.672 10.482-3.818 3.746-7.814 7.464-12.08 11.1-.436.371-.863.744-1.297 1.116l-.247.21s-.526.437-.244.207c.267-.22-.11.087-.175.138a24.862 24.862 0 0 1-1.236.927c-.13.09-.84.438-.818.544-.03-.14.55-.308.109-.077-.188.099-.376.2-.557.301-.367.207.371-.18.368-.18-.174.049-1.268.503.083-.012l4.265.053c.336-1.63 1.864-2.936 3.374-4.426 1.665-1.643 3.204-3.318 4.772-4.982 3.177-3.374 6.324-6.755 9.442-10.143 1.73-1.888 3.39-3.791 4.877-5.726.193-.252.607-.683.1-.935-.404-.204-1.082-.13-1.571-.071-2.002.238-3.804 1.08-4.945 1.85-4.74 3.197-7.946 6.812-11.372 10.343-1.444 1.487-2.968 2.953-4.335 4.456-1.41 1.55-2.777 3.108-4.315 4.629a38.233 38.233 0 0 1-2.065 1.909c-.086.073-.175.146-.261.22-.218.186.266-.202-.116.091-.483.371-.965.742-1.487 1.101-.128.088-.256.175-.388.262-.079.052-.641.42-.241.163.346-.224.015-.01-.052.029-.203.118-.411.238-.622.354l5.872-.768c.405-.823 1.316-1.606 2.235-2.398a67.848 67.848 0 0 0 2.917-2.68c2.017-1.947 3.994-3.904 5.982-5.858 3.817-3.756 7.918-7.43 11.945-11.135 2.234-2.051 4.353-4.131 6.122-6.283.525-.64.282-1.174-1.417-.97-1.898.227-3.724 1.038-4.771 1.784-4.522 3.222-8.244 6.669-12.017 10.091-1.721 1.56-3.56 3.091-5.272 4.652-1.464 1.337-2.783 2.703-4.26 4.035-.22.199-.444.397-.67.593-.116.1-.71.591-.377.324-.465.375-.947.746-1.46 1.108-.248.175-.506.346-.765.518-.058.038-.4.25-.052.036.36-.221-.086.048-.157.088-.266.153-.55.298-.823.448-.335.185.315-.161.33-.16-.043-.003-.607.27-.65.29l4.569.037c1.423-1.8 3.367-3.486 5.378-5.153.37-.307 1.12-.92 1.686-1.384.487-.402.972-.804 1.448-1.209 1.027-.874 1.987-1.765 2.968-2.653 4.15-3.753 8.415-7.478 12.69-11.2.243-.21.53-.663.102-.88-.38-.191-1.02-.122-1.482-.067-1.939.232-3.498 1.025-4.657 1.742-5.475 3.388-9.397 7.27-13.869 10.956-4.613 3.804-9.635 7.719-14.424 11.561l5.968-.785c3.816-3.17 7.405-6.398 10.941-9.64 1.66-1.52 3.254-3.061 5-4.562 1.62-1.395 3.352-2.763 4.934-4.17 1.845-1.643 3.512-3.354 4.474-5.163.646-1.213-3.13-.311-3.811-.047-3.29 1.276-5.721 2.813-8.056 4.476-2.07 1.476-4.182 2.936-6.17 4.438-4.115 3.106-8.007 6.276-12.102 9.387a123.637 123.637 0 0 1-3.606 2.625c-.384.27-.748.547-1.134.817-.093.065-.203.128-.286.194-.183.12-.125.089.172-.095l-.211.123c.053.006-.647.276-.017.022.594-.239.94-.38 1.73-.56l2.04.536c1.816-3.822 6.625-7.136 10.06-10.654 1.91-1.956 3.725-3.936 5.574-5.906.889-.948 1.765-1.898 2.68-2.84.931-.955 1.877-1.95 2.156-3 .317-1.194-2.875-.366-3.783-.049-7.449 2.606-12.446 6.383-16.79 10.171-4.536 3.956-8.831 7.97-13.378 11.925-.02.018-.424.362-.203.181.165-.136-.324.255-.393.307-.29.224-.588.446-.888.668-.698.516-1.406 1.027-2.08 1.55-1.456 1.127-2.807 2.283-3.544 3.565-.68 1.187 3.079.286 3.71.048 3.925-1.492 6.587-3.398 9.45-5.32 2.793-1.875 5.71-3.703 8.402-5.613 5.747-4.077 10.86-8.33 15.905-12.606 1.371-1.162 2.746-2.329 4.151-3.48 1.45-1.192 3.115-2.325 3.93-3.661.261-.425-.355-.649-1.19-.603-1.191.065-2.518.515-3.321.907-3.685 1.796-6.404 3.95-9.464 5.978-3 1.992-6.035 3.972-8.982 5.98-6.017 4.105-11.663 8.356-16.785 12.72-1.417 1.21-2.808 2.43-4.05 3.682-1.113 1.119-2.21 2.393-3.47 3.388l5.765-1.054c1.559-4.824 6.85-9.074 11.807-13.273 5.426-4.596 10.268-9.329 14.71-14.153 2.244-2.438 5.223-4.845 6.289-7.481.234-.58-1.193-.373-1.81-.21-1.037.277-2.301.816-2.57 1.394v-.001Z"/><path d="M56.32 6.413c-5.423 5.414-11.367 10.706-17.513 15.945l-1.17.995c-.102.083-.19.168-.294.249l.117-.096c.263-.217.155-.129-.322.264l-.665.576a774.221 774.221 0 0 1-6.878 5.834 946.457 946.457 0 0 1-4.714 3.952l-1.092.903-.298.246.287-.239a7.62 7.62 0 0 1-.202.164l-.599.489c-.798.652-1.603 1.303-2.414 1.952-1.602 1.28-3.203 2.556-4.716 3.86-.163.14-.33.28-.496.42.777-.657.12-.1-.079.053a15.15 15.15 0 0 1-1.035.736l-.083.053c-.27.169-.113.072.473-.291-.116.066-.228.134-.347.2l-.177.095c-.637.334.98-.455.464-.224l-.28.124c-.52.228 1.272-.477.537-.215l-.101.035c-.364.12-.128.048.708-.219-.135.038-.268.076-.404.11l3.22.04c-.013-.213 0-.428.026-.641l-.042.328c.146-.948.7-1.867 1.371-2.759l-.298.395c.928-1.217 2.11-2.383 3.154-3.58a145.922 145.922 0 0 1 3.765-4.166 138.172 138.172 0 0 1 8.595-8.322 176.428 176.428 0 0 1 4.634-3.975l.142-.117-.31.255.334-.274.624-.507 1.215-.972c.815-.646 1.641-1.29 2.478-1.931a182.234 182.234 0 0 1 10.67-7.551 201.868 201.868 0 0 1 1.73-1.123c.045-.028.091-.056.135-.085.114-.072-.8.49-.506.314.202-.125.413-.25.623-.374.85-.503 1.729-.995 2.583-1.496 2.112-1.238 4.239-2.534 5.602-3.999.349-.376.645-.762.89-1.156.161-.258-.016-.614-.664-.674-.832-.077-1.734.137-2.43.317C56.546 1.897 53.233 4.81 49.57 7.41c-4.02 2.853-7.764 5.79-11.503 8.726-3.74 2.935-7.525 5.869-11.416 8.764a495.142 495.142 0 0 1-12.06 8.7c-.81.561-1.646 1.114-2.394 1.694-.62.482-1.21.973-1.815 1.459a39.43 39.43 0 0 1-2.15 1.633c-.173.12-.35.24-.53.36l-.29.187c-.28.182.677-.414.545-.334l-.167.102a16.647 16.647 0 0 1-.845.476c-.618.32.911-.43.518-.252-.101.048-.202.092-.303.137l-.13.056c-.304.131-.785.275.788-.308-.203.073-.396.143-.608.211l4.296.054c.091-.285.24-.564.443-.835l-.304.4c.709-.932 1.86-1.765 2.852-2.633 1.114-.975 2.19-1.96 3.288-2.938 2.24-1.994 4.487-3.985 6.742-5.974 2.196-1.94 4.382-3.884 6.617-5.815a339.759 339.759 0 0 1 5.114-4.332l.385-.319.194-.159-.349.287.096-.08.926-.756a236.385 236.385 0 0 1 8.141-6.319c.557-.41 1.765-1.56-.214-1.567-.77-.003-1.566.157-2.216.338-1.153.32-2.185.727-3.05 1.207-4.948 2.78-8.94 5.875-13.091 8.92a138.711 138.711 0 0 1-6.348 4.37 240.996 240.996 0 0 1-5.322 3.375c-.101.061.81-.496.491-.302-.079.047-.159.097-.238.146l-.418.256c-.318.196-.638.39-.96.584-1.305.792-2.653 1.568-3.959 2.36-.565.342-1.113.69-1.72 1.018-.159.087-.325.17-.486.254-.16.085 1.114-.531.725-.356-.094.042-.185.086-.28.127-.075.033-.154.063-.23.096-.094.041 1.29-.486.76-.304-.075.026-.166.053-.237.082.066-.027 1.325-.39.613-.2l3.13.823c1.067-1.129 2.285-2.22 3.566-3.296-.8.673-.21.173-.012.013a63.282 63.282 0 0 1 1.553-1.214 93.866 93.866 0 0 1 2.126-1.57c1.432-1.033 2.906-2.052 4.379-3.073 1.438-.995 2.97-1.956 4.481-2.927 1.88-1.208 3.657-2.46 5.044-3.811.232-.226.703-.841.12-1.077-.632-.255-1.598-.157-2.287-.018-5.077 1.017-9.362 2.668-13.513 4.346-.79.32-1.576.642-2.365.962-.391.158-.784.314-1.176.47-.134.055 1.36-.533.789-.31l-.242.095c-.55.215-1.101.43-1.644.648-1.469.592-2.82 1.246-4.252 1.855-.22.093-.441.185-.665.276l-.304.123.911-.36-.247.096c-.405.154-.822.303-1.25.444l-.126.041c-.424.134-.169.055.764-.239-.129.037-.254.076-.384.113-.211.06-.428.115-.645.17-.54.137.785-.173.692-.156-.133.025-.261.057-.393.083-.26.051-.523.095-.79.135l2.524.663c.06-.305.2-.605.42-.893l-.337.444c.183-.234.399-.462.647-.682.063-.056.132-.11.193-.167 0-.004-.713.577-.36.298.129-.102.26-.202.395-.302.584-.43 1.215-.85 1.8-1.28 1.587-1.167 2.936-2.396 2.913-3.812l-.262-.271c-.676-.181-1.215-.3-1.99-.315a17.355 17.355 0 0 0-2.531.117 36.598 36.598 0 0 0-5.15 1.007C3.244 17.93 1.65 18.65.638 19.476c-.325.268-.597.537-.638.848-.038.296.157.469.774.583.692.128 1.484-.024 2.138-.11l-.93.122c.132-.018.265-.031.4-.04 1.092-.077 2.22-.406 3.082-.706 1.077-.376 2.22-.895 2.936-1.434l.577-.475c.278-.24.407-.513.371-.787-.22-.348-.788-.459-1.557-.404-.202.014-.398.044-.607.05l.763.003a.88.88 0 0 1-.22-.031l-4.214 3.453c.196-.052.396-.1.595-.149.434-.105-1.19.264-.631.143l.381-.08c.49-.098.994-.181 1.508-.249l-.944.125c.585-.078 1.19-.119 1.797-.122l-.777-.003c.454.002.903.05 1.316.14l-.556-.144c.07.017.137.036.202.056l-.26-.27c0 .041-.006.083-.01.126l.048-.37a2.15 2.15 0 0 1-.435.97l.336-.444c-.166.215-.359.425-.578.63a6.8 6.8 0 0 1-.287.25c-.184.157-.04.039.432-.354-.117.092-.233.185-.353.276-.549.415-1.147.815-1.715 1.225-1.38.997-2.859 2.148-3.077 3.364-.051.289-.13.555.495.715.641.164 1.374.048 2.031-.052 2.5-.375 4.828-1.118 6.838-1.899 1.905-.74 3.672-1.538 5.482-2.329.321-.143.646-.28.977-.416l.214-.087c.543-.22-1.002.394-.837.33.572-.218 1.134-.444 1.698-.667.795-.315 1.58-.636 2.365-.955.786-.319 1.597-.653 2.405-.974l.132-.053-.31.122-.442.175.268-.105.608-.234a67.817 67.817 0 0 1 3.524-1.242c.586-.187-.81.25-.715.222.145-.041.284-.086.426-.128.516-.153 1.041-.3 1.576-.435.24-.06.482-.118.724-.176.635-.15-1.05.233-.561.13l.512-.107-2.167-1.098a15.31 15.31 0 0 1-.845.771l-.044.037c-.224.186-.115.097.328-.269-.078.06-.15.121-.226.181-.17.133-.342.264-.517.395-.676.503-1.398.994-2.137 1.479-1.465.96-2.993 1.898-4.396 2.878-2.936 2.052-5.896 4.106-8.523 6.254-1.635 1.336-3.19 2.69-4.508 4.104-.317.34-.736.882.153 1.109.92.235 2.17-.07 2.977-.287 4.135-1.111 6.866-3.018 9.736-4.747a298.504 298.504 0 0 0 7.912-4.932c2.27-1.469 4.502-2.951 6.6-4.476 2.024-1.473 3.97-2.972 5.987-4.447a97.963 97.963 0 0 1 3.486-2.448 66.757 66.757 0 0 1 1.802-1.161c.41-.256-.478.293-.436.268.092-.055.182-.111.273-.167l.496-.296c.332-.197.67-.392 1.013-.584l-5.481-.022c-5.342 3.95-10.298 8.016-15.067 12.124-4.703 4.053-9.27 8.144-13.853 12.228-1.253 1.117-2.453 2.25-3.77 3.35-1.293 1.082-2.721 2.208-3.107 3.456-.125.408.101.708 1.056.712 1.224.005 2.265-.353 3.24-.659 1.587-.497 3.016-1.184 4.225-1.875a28.865 28.865 0 0 0 2.914-1.901c1.31-.976 2.434-2.005 3.757-2.976 1.877-1.382 3.885-2.727 5.797-4.099A485.655 485.655 0 0 0 41.938 17.36c3.705-2.918 7.362-5.852 11.242-8.72 1.585-1.172 3.19-2.339 4.77-3.51a37.417 37.417 0 0 1 2.328-1.606c.272-.173-.602.364-.487.3.063-.036.122-.075.184-.111a19.195 19.195 0 0 1 .995-.557l.294-.15c.359-.182-.973.468-.599.293l.15-.07c.23-.107.47-.208.709-.308l-.78.308.1-.04.157-.056c.123-.044.247-.085.372-.127.497-.17-1.08.316-.553.174.145-.04.288-.08.434-.117l-3.09-.357c-.06.092-.124.183-.19.274l.287-.382a6.98 6.98 0 0 1-.854.91c-.085.079-.186.155-.267.234-.051.05.529-.426.315-.259l-.123.099c-.212.166-.432.33-.66.49-.42.297-.87.582-1.316.868-.102.062.762-.466.47-.29l-.156.095-.366.219c-.246.145-.494.29-.744.433-2.183 1.255-4.34 2.509-6.36 3.824-4.1 2.669-7.973 5.41-11.617 8.225-3.814 2.936-7.428 5.93-10.741 8.998a129.133 129.133 0 0 0-8.894 9.058c-1.204 1.355-2.405 2.71-3.602 4.067-1.232 1.391-2.486 2.857-2.806 4.37a3.634 3.634 0 0 0-.083 1.213l.232.239c.107.052.24.09.387.113.146.022.302.027.454.014.762.003 1.491-.157 2.148-.328 3.202-.834 5.755-2.225 7.58-3.701a44.417 44.417 0 0 0 2.062-1.779c.24-.219.479-.438.726-.655.114-.1.23-.198.348-.296-.837.707-.101.085.101-.08 3.328-2.7 6.52-5.44 9.667-8.187 3.004-2.625 6.074-5.236 8.946-7.893 2.842-2.63 5.674-5.26 8.403-7.916a358.12 358.12 0 0 0 8.98-9.047c.138-.143.352-.42.063-.566-.29-.146-.895-.068-1.203-.01-1.246.239-2.477.766-3.055 1.344l.024.009Z"/></g><defs><clipPath id="clip0_117_394"><path fill="#fff" d="M0 0h256v48H0z"/></clipPath></defs></svg>