<svg width="149" height="146" fill="none" xmlns="http://www.w3.org/2000/svg"><ellipse cx="47.044" cy="70.593" rx="39.725" ry="36.099" fill="#FFBD00" fill-opacity=".6"/><path d="M69.822 2.747c-6.187 1.156-11.71 4.828-15.208 10.205-2.544 3.875-3.585 7.46-3.585 12.49s1.041 8.587 3.614 12.519c5.812 8.934 16.827 12.75 26.83 9.31 2.573-.868 3.528-1.33 3.528-1.677 0-.174-.463-1.099-1.012-2.11l-1.012-1.822-1.677.751c-8.76 3.875-19.487-.028-23.737-8.586-3.643-7.402-2.313-15.7 3.412-21.395C64.358 9.078 68 7.402 72.713 7.054c8.616-.665 16.885 5.176 19.082 13.473.723 2.718.867 2.602-2.602 2.602-2.862 0-3.094.058-3.759.723-1.33 1.301-1.098 1.88 3.643 8.182 4.453 5.956 4.944 6.39 6.447 6.014.463-.116 2.082-2.053 5.06-6.014 4.626-6.158 4.886-6.736 3.816-8.066-.52-.636-.809-.694-3.961-.839l-3.44-.144-.231-1.446C94.773 9.05 82.37.405 69.822 2.747Zm26.743 26.945c-.838 1.099-1.59 1.966-1.734 1.966-.145 0-.897-.867-1.735-1.966l-1.475-1.937H98.04l-1.475 1.937Z" fill="#03045E"/><path d="M71.701 20.21v6.302l-2.746 1.822c-1.533 1.011-2.834 1.936-2.92 2.052-.26.434 2.197 3.788 2.63 3.614.983-.376 7.315-4.8 7.488-5.233.087-.26.174-3.73.174-7.69v-7.2H71.7v6.332ZM35.417 63.172l-.723.694v71.18l.723.694.694.723h7.546c6.158 0 7.517.058 7.517.405 0 .202.462 1.301 1.011 2.4 4.25 8.5 16.278 8.528 20.528.028.549-1.127 1.012-2.226 1.012-2.428 0-.347 3.093-.405 18.792-.405 15.699 0 18.793.058 18.793.405 0 .202.462 1.301 1.012 2.4 4.25 8.5 16.277 8.528 20.527.028.549-1.127 1.012-2.226 1.012-2.428 0-.318 1.012-.405 5.204-.405 5.175 0 5.233 0 5.927-.723l.723-.694V98.647l-8.269-10.64c-4.539-5.869-8.529-10.9-8.847-11.189-.549-.462-1.561-.491-12.548-.491h-11.969V70.11c0-6.245 0-6.245-.723-6.939l-.694-.723H36.11l-.693.723Zm64.039 27.032v23.13H39.32V67.075h60.136v23.13Zm16.191.434v9.714l.722.694.694.723h24.026V113.334H104.082V80.953H115.647v9.685Zm16.392-2.024c3.239 4.135 6.014 7.749 6.188 8.009.26.491-.232.52-8.847.52h-9.108V80.924l2.949.086 2.949.087 5.869 7.517Zm9.05 36.284v6.939h-3.614c-2.862 0-3.614-.087-3.614-.405 0-.202-.463-1.301-1.012-2.428-3.469-6.91-12.461-8.5-18.185-3.238-1.244 1.156-3.354 4.741-3.354 5.666 0 .347-3.094.405-18.793.405s-18.792-.058-18.792-.405c0-.202-.463-1.301-1.012-2.428-3.47-6.91-12.461-8.5-18.186-3.238-1.243 1.156-3.354 4.741-3.354 5.666 0 .318-1.098.405-5.926.405H39.32V117.96h101.769v6.938Zm-76.5 2.66c2.486.752 4.799 3.932 4.799 6.592 0 3.585-3.354 6.939-6.939 6.939s-6.939-3.354-6.939-6.939c0-1.821.665-3.296 2.169-4.77 2.023-2.053 4.192-2.602 6.91-1.822Zm60.136 0c2.486.752 4.799 3.932 4.799 6.592 0 3.585-3.354 6.939-6.939 6.939s-6.938-3.354-6.938-6.939c0-1.821.665-3.296 2.168-4.77 2.024-2.053 4.192-2.602 6.91-1.822Z" fill="#03045E"/><path d="M64.849 72.28c-1.128.664-1.706 1.56-1.966 2.89-.145.839-.434 1.157-1.59 1.764-1.215.665-1.475.694-2.082.376-.925-.52-2.4-.492-3.585.058-.723.347-1.417 1.185-2.63 3.122-2.545 4.106-2.69 5.464-.724 7.373.897.896 1.041 1.243 1.099 2.428.029 1.215-.087 1.446-.81 1.966-1.156.839-1.763 2.14-1.59 3.47.203 1.503 3.267 6.505 4.424 7.227 1.04.637 2.833.694 3.816.145.607-.318.867-.289 2.11.376 1.186.636 1.417.896 1.562 1.821.231 1.272 1.04 2.4 2.168 2.978 1.186.607 7.488.607 8.674 0 1.127-.578 1.937-1.706 2.168-2.978.145-.925.376-1.185 1.561-1.821 1.244-.665 1.504-.694 2.111-.376.925.52 2.4.492 3.585-.058.723-.347 1.417-1.185 2.631-3.122 2.573-4.135 2.689-5.522.694-7.402-.983-.867-1.099-1.185-1.099-2.313 0-1.127.116-1.445 1.099-2.313 1.995-1.879 1.88-3.267-.694-7.4-1.214-1.938-1.908-2.776-2.631-3.123-1.185-.55-2.66-.579-3.585-.058-.607.318-.867.289-2.11-.376-1.186-.636-1.417-.896-1.562-1.822-.115-.607-.462-1.416-.78-1.82-1.041-1.36-1.938-1.591-5.783-1.591-3.007 0-3.7.087-4.481.578Zm6.563 4.74c0 1.533 1.85 3.152 5.782 4.974.954.433 2.371.433 3.498-.03.348-.115.694.203 1.36 1.244l.896 1.445-.752.665c-1.156 1.128-1.359 1.706-1.417 4.684-.087 3.18.087 3.932 1.243 5.002l.781.723-.752 1.358c-.549.926-.954 1.33-1.3 1.273-2.545-.405-2.863-.376-4.135.346a51.97 51.97 0 0 1-2.486 1.301c-1.504.694-2.718 2.14-2.718 3.239v.838H67.45l-.202-1.099c-.174-1.214-1.215-2.341-2.776-3.064-.55-.26-1.59-.81-2.313-1.215-1.272-.722-2.746-.838-4.076-.289-.347.145-.694-.173-1.36-1.243-.867-1.359-.867-1.474-.375-1.821 1.243-.897 1.59-1.937 1.648-4.973.058-3.21-.26-4.424-1.475-5.204l-.694-.463.897-1.445c.665-1.07 1.04-1.417 1.359-1.273 1.33.55 2.804.434 4.076-.289a52.312 52.312 0 0 1 2.487-1.3c1.503-.694 2.717-2.14 2.717-3.239v-.838h2.024c1.937 0 2.024.029 2.024.694Z" fill="#03045E"/><path d="M67.104 82.427c-3.296.954-5.811 4.308-5.811 7.806 0 3.325 2.515 6.737 5.638 7.662 6.36 1.821 11.97-3.787 10.148-10.148-.665-2.284-2.891-4.51-5.089-5.175-1.706-.52-3.411-.55-4.886-.145Zm4.713 5.436c.752.78.896 1.127.896 2.341 0 1.244-.144 1.562-.954 2.371-.81.81-1.128.954-2.37.954-1.244 0-1.562-.144-2.371-.954-.81-.81-.955-1.127-.955-2.342 0-1.503.723-2.66 2.024-3.238 1.07-.462 2.776-.087 3.73.868ZM9.252 87.891v2.313h18.503V85.58H9.252v2.313ZM2.313 104.082v2.313h18.504v-4.626H2.313v2.313ZM9.252 120.273v2.312h18.503v-4.625H9.252v2.313Z" fill="#03045E"/></svg>