<svg width="139" height="117" viewBox="0 0 139 117" fill="none" xmlns="http://www.w3.org/2000/svg">
<ellipse cx="36.8674" cy="44.5355" rx="36.8674" ry="33.9677" fill="#FFBD00" fill-opacity="0.6"></ellipse>
<g clip-path="url('#clip0_116_197')">
<path d="M96.4769 0.365601C93.3005 0.93689 89.8271 2.39938 87.2905 4.20466C85.5767 5.43864 82.9487 8.13513 81.7605 9.87185L80.6864 11.4258H78.4013C73.1911 11.4486 67.1126 12.7054 61.7653 14.8992L59.5487 15.7904L58.1319 14.625C55.4812 12.4084 52.8075 11.4258 49.4712 11.4258C45.7464 11.4258 42.7757 12.6369 40.1935 15.1963C35.6917 19.698 34.9833 26.4621 38.5024 31.8551L39.5308 33.4547L37.6798 37.1109C34.869 42.7095 33.3608 47.8512 32.7438 53.8611L32.4696 56.6719H30.0931C27.4651 56.6719 26.5054 57.0146 25.5913 58.2258C25.1343 58.8199 25.1343 59.2541 25.0657 78.4265L25.02 98.0103L24.106 98.2617C22.9862 98.5588 21.8437 99.4957 21.4552 100.478C21.2495 100.958 21.1353 102.146 21.1353 103.815C21.1353 107.037 21.5694 108.134 23.1919 108.933C24.1517 109.436 24.4716 109.459 28.9276 109.459H33.6579L34.7319 111.059C39.9192 118.851 51.4593 118.942 56.4638 111.196L57.5835 109.482H68.3466L79.0868 109.459L79.4524 110.19C80.6179 112.635 84.0456 115.423 87.0163 116.36C89.1644 117.046 92.8435 117.091 94.7173 116.452C97.8708 115.4 100.979 112.955 102.258 110.556L102.807 109.482L106.029 109.413C109.159 109.345 109.297 109.322 110.096 108.705C111.513 107.631 111.627 107.174 111.627 103.129C111.627 99.9756 111.559 99.1986 111.01 96.9592L110.393 94.3998L113.021 91.7033C114.461 90.2179 116.129 88.367 116.746 87.59L117.866 86.1504L121.385 90.8578C123.327 93.44 124.996 95.4738 125.11 95.3824C126.321 94.0342 136.399 80.1861 136.856 79.2035C139.232 74.1761 138.181 68.3033 134.159 64.3043C132.377 62.5219 130.137 61.2422 127.966 60.7623L126.709 60.4881V57.5631C126.709 50.6619 124.95 43.6922 121.568 37.0881L120.128 34.2773L121.042 32.1978C122.528 28.7244 122.916 26.7363 122.916 22.623C122.893 18.7154 122.573 17.1158 121.202 13.8252C117.226 4.25037 106.692 -1.48538 96.4769 0.365601ZM104.909 4.34177C111.353 5.96423 116.495 10.9002 118.529 17.3672C118.986 18.8525 119.054 19.5381 119.054 22.623C119.054 29.547 118.643 30.3468 108.314 43.5322C104.041 48.9709 100.476 53.4269 100.384 53.4041C100.27 53.3584 88.8673 38.939 85.531 34.5972C79.8409 27.1933 80.298 16.6131 86.5593 9.8947C89.2786 6.99255 92.1122 5.30154 95.9741 4.31892C98.2821 3.74763 102.533 3.74763 104.909 4.34177ZM53.2417 15.9504C54.9099 16.7502 56.738 18.3269 57.5606 19.7437C58.9774 22.166 59.2288 25.6166 58.1319 28.1074C57.8349 28.7929 55.7554 31.8093 53.5159 34.8029L49.4483 40.2644L45.2665 34.6658C42.8671 31.4666 40.9019 28.6101 40.6505 27.9703C40.3306 27.1248 40.2163 26.2564 40.2163 24.4511C40.2163 22.1888 40.262 21.9375 40.9704 20.5207C41.7931 18.8297 43.2556 17.2072 44.7638 16.3388C47.2317 14.8992 50.6138 14.7392 53.2417 15.9504ZM78.8583 15.5847C76.9388 22.0289 77.6472 28.8615 80.8235 34.323C81.4634 35.4199 95.1515 53.1756 100.316 59.5969C100.362 59.6426 104.155 54.8666 108.771 48.9709C113.387 43.098 117.317 38.1392 117.477 37.9564C117.729 37.6593 117.934 37.9564 118.849 39.8988C121.522 45.6345 123.053 52.3986 123.053 58.4771V60.5109L121.865 60.7851C112.701 62.9103 108.725 74.1076 114.484 81.6258C114.918 82.2199 115.284 82.8369 115.284 82.9968C115.284 83.4082 112.724 86.6074 110.85 88.5955C109.799 89.7152 109.342 90.058 109.251 89.8066C109.182 89.6238 108.108 85.3506 106.851 80.3461C104.292 70.1314 104.224 69.9258 102.007 68.6918L100.773 67.9834L91.1296 67.9148L81.4634 67.8463V63.5502C81.4634 59.4597 81.4405 59.2084 80.9378 58.4771C80.6636 58.0658 80.0694 57.4717 79.6581 57.1974L78.8812 56.6719H57.6749C46.0206 56.6719 36.4229 56.6033 36.3772 56.489C36.2173 56.192 36.6515 52.2843 37.1542 49.8164C37.9312 45.8859 39.7821 40.7672 41.5188 37.7508L42.0901 36.7681L45.7007 41.5898C47.6888 44.2406 49.4026 46.3658 49.494 46.3429C49.8825 46.2058 60.4856 31.8322 61.1255 30.5982C62.6794 27.559 63.045 23.7885 62.0624 20.7949C61.811 19.9722 61.5825 19.241 61.5825 19.1496C61.5825 18.8982 66.1528 17.1843 68.438 16.5674C71.2259 15.8361 75.2021 15.2191 78.0128 15.1277C78.9497 15.082 78.9954 15.1049 78.8583 15.5847ZM43.804 67.5263L43.8726 74.7246L48.5114 72.3709L53.1274 70.04L57.812 72.3937C60.3942 73.6734 62.5423 74.7246 62.6108 74.7246C62.6794 74.7246 62.7251 71.4797 62.7251 67.5263V60.3281H70.2661H77.8071V79.1806V98.0332H67.7067H57.5835L56.8065 96.7763C53.1731 90.9949 45.7921 88.984 39.645 92.0918C38.9595 92.4345 37.9083 93.1201 37.3142 93.6228C36.1487 94.5597 34.2749 96.8678 34.0464 97.599C33.9093 97.9875 33.6808 98.0332 31.2813 98.0332H28.6763V79.1806V60.3281H36.2173H43.7583L43.804 67.5263ZM58.8403 64.4414C58.8403 66.7037 58.7946 68.5547 58.7261 68.5547C58.6575 68.5547 57.4007 67.9605 55.9153 67.2064L53.2417 65.8582L50.6138 67.2064C49.1741 67.9377 47.9173 68.5318 47.8259 68.5318C47.7116 68.5547 47.6431 66.7037 47.6431 64.4414V60.3281H53.2417H58.8403V64.4414ZM129.063 65.1955C131.051 66.1781 132.514 67.6406 133.496 69.6515C134.091 70.8627 134.136 71.1597 134.136 73.582C134.136 75.7529 134.045 76.3927 133.656 77.2383C133.085 78.4722 125.133 89.1668 124.859 89.0754C124.744 89.0297 122.87 86.5845 120.654 83.6367C116.289 77.7867 115.764 76.7812 115.558 74.1076C115.307 70.3371 117.546 66.6123 120.997 65.0584C122.573 64.35 123.236 64.2357 125.384 64.2814C127.144 64.35 127.555 64.4414 129.063 65.1955ZM100.522 72.2566C100.864 72.5765 101.23 73.2849 101.436 74.0847L101.756 75.4101H97.0481C91.1296 75.4101 90.3069 75.7072 89.3472 77.9924C88.9587 78.9521 88.8673 82.8369 89.2329 84.0709C89.4614 84.8707 90.3526 85.9904 91.1753 86.4474C91.4724 86.6302 93.8032 86.7674 98.1222 86.8359L104.635 86.9502L105.96 92.206C106.669 95.0853 107.286 97.599 107.286 97.7361C107.286 97.9646 106.692 98.0332 105.069 98.0332H102.83L102.144 96.8678C100.613 94.2855 97.528 91.9775 94.3517 91.0406C92.455 90.4693 89.1187 90.515 87.1763 91.1549C85.5767 91.6576 83.3144 92.9144 82.3546 93.8285C82.0347 94.1256 81.7147 94.3769 81.6233 94.3769C81.5319 94.3769 81.4634 89.281 81.4634 83.0654V71.7539H90.6954H99.9503L100.522 72.2566ZM102.807 79.6834C102.875 79.9119 103.035 80.5517 103.172 81.123C103.309 81.6943 103.469 82.3342 103.538 82.5398C103.652 82.9283 103.287 82.9511 98.2821 82.9511H92.8892V81.123V79.2949H97.7794C102.258 79.2949 102.692 79.3406 102.807 79.6834ZM49.5169 95.2224C54.3614 97.5304 56.3724 102.946 54.1786 107.745C53.3788 109.505 51.5507 111.356 49.7226 112.27C48.3058 112.955 48.0772 113.001 45.7007 113.001C43.3698 113.001 43.0728 112.955 41.6788 112.293C35.646 109.436 34.412 101.392 39.3251 96.9135C41.3817 95.0396 43.347 94.3312 46.2034 94.4683C47.6888 94.5369 48.3743 94.6969 49.5169 95.2224ZM94.8087 95.2453C98.7163 97.0734 100.979 101.255 100.225 105.254C99.6532 108.385 97.8023 110.876 94.9915 112.247C93.5519 112.955 93.3462 113.001 90.9468 113.001C88.6845 113.001 88.296 112.932 87.1077 112.384C84.3427 111.081 82.2175 108.339 81.669 105.3C80.9835 101.529 83.0173 97.3933 86.445 95.5652C88.2731 94.5826 89.2329 94.3769 91.4495 94.4683C92.9577 94.5369 93.6204 94.6969 94.8087 95.2453ZM32.561 103.746V105.574H28.7905H25.02V103.746V101.918H28.7905H32.561V103.746ZM77.8071 103.746V105.574H68.3237H58.8403V103.746V101.918H68.3237H77.8071V103.746ZM107.971 103.746V105.574H106.029H104.086V103.746V101.918H106.029H107.971V103.746Z" fill="#03045E"></path>
<path d="M97.345 7.88375C92.0206 9.04918 87.9073 12.7054 86.102 17.8699C85.3022 20.1093 85.1423 23.4457 85.6907 25.9136C86.6505 30.2326 89.7354 34.2087 93.6202 36.0826C97.3221 37.8879 101.298 38.1621 105.16 36.9281C112.221 34.6429 116.632 27.1476 115.192 19.8808C113.547 11.5628 105.412 6.10133 97.345 7.88375ZM105.297 12.5226C109.274 14.4879 111.627 18.2584 111.627 22.6002C111.627 24.6111 111.262 26.1193 110.37 27.856C109.639 29.3414 107.857 31.2609 106.394 32.1978C100.841 35.7627 93.2089 33.5918 90.2839 27.6275C87.7245 22.3716 89.4155 16.4074 94.3743 13.1168C96.3852 11.7685 97.8477 11.4029 100.818 11.4943C103.309 11.5628 103.446 11.6086 105.297 12.5226Z" fill="#03045E"></path>
<path d="M47.2772 19.2867C46.2489 19.7437 44.9464 20.9777 44.4208 21.9832C43.004 24.7711 44.1009 28.0388 46.9344 29.5242C50.6364 31.4666 55.0468 28.7472 55.0468 24.5654C55.0468 22.1431 53.47 19.8808 51.3219 19.241C50.1565 18.8754 48.1684 18.9211 47.2772 19.2867ZM50.3622 22.9658C52.3503 23.9941 50.9106 26.9877 48.7854 26.2564C47.5286 25.7994 47.2087 24.1769 48.2141 23.1943C48.854 22.5316 49.4481 22.4859 50.3622 22.9658Z" fill="#03045E"></path>
<path d="M66.3813 50.959V52.7871H68.3237H70.2661V50.959V49.1308H68.3237H66.3813V50.959Z" fill="#03045E"></path>
<path d="M73.9224 50.959V52.7871H75.8647H77.8071V50.959V49.1308H75.8647H73.9224V50.959Z" fill="#03045E"></path>
<path d="M81.4634 50.959V52.7871H83.4058H85.3481V50.959V49.1308H83.4058H81.4634V50.959Z" fill="#03045E"></path>
<path d="M123.099 68.3033C118.414 69.9486 118.003 76.3471 122.413 78.6322C126.824 80.8945 131.919 76.4613 130.251 71.7768C129.223 68.8289 126.001 67.2521 123.099 68.3033ZM126.115 72.2338C126.549 72.5766 126.709 72.8965 126.709 73.5363C126.709 75.2502 124.813 76.05 123.624 74.8389C121.956 73.1936 124.264 70.7713 126.115 72.2338Z" fill="#03045E"></path>
<path d="M44.4896 98.2846C41.8845 98.7873 40.1249 101.027 40.1021 103.815C40.1021 105.391 40.5362 106.557 41.5417 107.585C44.3296 110.487 48.8771 109.825 50.6823 106.283C52.7847 102.078 49.1513 97.3705 44.4896 98.2846ZM46.6833 102.284C47.4146 102.786 47.6659 103.586 47.3917 104.432C46.9347 105.688 45.3122 106.008 44.3296 105.003C42.7757 103.472 44.9009 101.027 46.6833 102.284Z" fill="#03045E"></path>
<path d="M89.8729 98.2617C89.393 98.3531 88.5246 98.7187 87.9305 99.0844C84.32 101.324 84.5713 106.808 88.4104 108.842C89.7358 109.528 92.1809 109.528 93.4834 108.842C95.403 107.814 96.5455 105.894 96.5455 103.655C96.5455 100.273 93.2549 97.599 89.8729 98.2617ZM92.2495 102.604C92.8207 103.198 92.9121 103.426 92.7979 104.043C92.4551 105.803 90.1471 106.191 89.3473 104.637C88.8674 103.723 88.9131 103.335 89.6672 102.581C90.5584 101.712 91.3582 101.712 92.2495 102.604Z" fill="#03045E"></path>
</g>
<defs>
<clipPath id="clip0_116_197">
<rect width="117" height="117" fill="white" transform="translate(21.1353)"></rect>
</clipPath>
</defs>
</svg>
