<svg width="34" height="34" viewBox="0 0 34 34" fill="none" xmlns="http://www.w3.org/2000/svg">
<path d="M5.1 15.3C6.97531 15.3 8.5 13.7753 8.5 11.9C8.5 10.0247 6.97531 8.49998 5.1 8.49998C3.22469 8.49998 1.7 10.0247 1.7 11.9C1.7 13.7753 3.22469 15.3 5.1 15.3ZM28.9 15.3C30.7753 15.3 32.3 13.7753 32.3 11.9C32.3 10.0247 30.7753 8.49998 28.9 8.49998C27.0247 8.49998 25.5 10.0247 25.5 11.9C25.5 13.7753 27.0247 15.3 28.9 15.3ZM30.6 17H27.2C26.265 17 25.4203 17.3772 24.8041 17.9881C26.945 19.1622 28.4644 21.2819 28.7938 23.8H32.3C33.2403 23.8 34 23.0403 34 22.1V20.4C34 18.5247 32.4753 17 30.6 17ZM17 17C20.2884 17 22.95 14.3384 22.95 11.05C22.95 7.76154 20.2884 5.09998 17 5.09998C13.7116 5.09998 11.05 7.76154 11.05 11.05C11.05 14.3384 13.7116 17 17 17ZM21.08 18.7H20.6391C19.5341 19.2312 18.3069 19.55 17 19.55C15.6931 19.55 14.4713 19.2312 13.3609 18.7H12.92C9.54125 18.7 6.8 21.4412 6.8 24.82V26.35C6.8 27.7578 7.94219 28.9 9.35 28.9H24.65C26.0578 28.9 27.2 27.7578 27.2 26.35V24.82C27.2 21.4412 24.4587 18.7 21.08 18.7ZM9.19594 17.9881C8.57969 17.3772 7.735 17 6.8 17H3.4C1.52469 17 0 18.5247 0 20.4V22.1C0 23.0403 0.759687 23.8 1.7 23.8H5.20094C5.53563 21.2819 7.055 19.1622 9.19594 17.9881Z" fill="white"></path>
</svg>
