<svg width="177" height="25" fill="none" xmlns="http://www.w3.org/2000/svg"><path d="M11.254 2.161 8.42 7.908l-6.341.924C.942 8.997.486 10.4 1.31 11.202l4.587 4.47-1.085 6.316c-.195 1.141 1.007 1.996 2.014 1.462L12.5 20.47l5.673 2.981c1.007.53 2.209-.32 2.014-1.462l-1.085-6.315 4.587-4.47c.825-.804.37-2.206-.768-2.37l-6.341-.925-2.834-5.747c-.508-1.024-1.98-1.037-2.492 0ZM49.254 2.161 46.42 7.908l-6.341.924c-1.137.165-1.593 1.567-.768 2.37l4.587 4.47-1.085 6.316c-.195 1.141 1.007 1.996 2.014 1.462L50.5 20.47l5.673 2.981c1.007.53 2.209-.32 2.014-1.462l-1.085-6.315 4.587-4.47c.825-.804.37-2.206-.768-2.37l-6.341-.925-2.834-5.747c-.508-1.024-1.98-1.037-2.492 0ZM87.254 2.161 84.42 7.908l-6.341.924c-1.137.165-1.593 1.567-.768 2.37l4.587 4.47-1.085 6.316c-.195 1.141 1.007 1.996 2.014 1.462L88.5 20.47l5.673 2.981c1.007.53 2.209-.32 2.013-1.462l-1.085-6.315 4.588-4.47c.825-.804.369-2.206-.768-2.37l-6.341-.925-2.834-5.747c-.508-1.024-1.98-1.037-2.492 0ZM125.254 2.161l-2.834 5.747-6.341.924c-1.137.165-1.593 1.567-.768 2.37l4.587 4.47-1.085 6.316c-.195 1.141 1.007 1.996 2.014 1.462l5.673-2.981 5.673 2.981c1.007.53 2.209-.32 2.014-1.462l-1.086-6.315 4.588-4.47c.825-.804.369-2.206-.768-2.37l-6.341-.925-2.834-5.747c-.508-1.024-1.98-1.037-2.492 0ZM163.254 2.161l-2.834 5.747-6.341.924c-1.137.165-1.593 1.567-.768 2.37l4.587 4.47-1.085 6.316c-.195 1.141 1.007 1.996 2.014 1.462l5.673-2.981 5.673 2.981c1.007.53 2.209-.32 2.014-1.462l-1.086-6.315 4.588-4.47c.825-.804.369-2.206-.768-2.37l-6.341-.925-2.834-5.747c-.508-1.024-1.98-1.037-2.492 0Z" fill="#FFBD00"/></svg>