<svg width="108" height="108" fill="none" xmlns="http://www.w3.org/2000/svg"><path d="m39.762 18.963-22.57 13.901-.064 6.455-.042 6.454H0v3.165h27.211v30.585H0v3.165l13.563.042 13.542.063.064 5.105.042 5.125H0v3.165l17.002.042 17.022.063.253.886c.612 2.067 2.342 4.008 4.535 5.083 1.034.507 1.393.57 3.376.57 1.961 0 2.362-.063 3.417-.57 2.13-.991 3.797-2.847 4.514-4.999l.337-1.076H108V66.023h-3.164v27h-6.961V49.148h-67.5v-3.375H20.25v-3.585H42.187v-3.165H20.25v-3.585h84.586v3.585H45.563v3.165H104.835v20.46H108V32.97L85.324 19.027C72.858 11.348 62.585 5.062 62.48 5.062c-.085 0-10.294 6.265-22.718 13.901Zm43.832 2.721 17.044 10.484-18.984.063c-10.441.021-27.59.021-38.116 0l-19.154-.063L43.432 20.44 62.501 8.712l2.025 1.244c1.118.675 9.703 5.949 19.069 11.728Zm11.117 32.421v1.793H30.375v-3.585h64.336v1.792Zm0 21.938v16.98h-3.586v-13.5h-6.75v-13.5H67.711v13.5h-6.75v13.5h-3.586V77.098l-7.214-7.214-7.235-7.236H30.375v-3.585h64.336v16.98ZM46.617 70.98l5.168 5.168h-21.41V65.813h11.074l5.168 5.168Zm27.844.844v2.637h3.164v-5.273h3.586v10.335H70.875V69.188h3.586v2.636ZM54.21 86.168v6.855h-3.755l-.358-1.033c-.718-2.194-2.89-4.409-5.063-5.147-3.122-1.097-6.581-.253-8.817 2.151-.991 1.055-2.046 2.933-2.046 3.65 0 .337-.232.38-1.899.38h-1.898V79.311h23.836v6.856Zm13.5-.844v2.637h3.164v-5.273h3.586v10.335H64.125V82.688h3.586v2.636Zm13.5 0v2.637h3.164v-5.273h3.586v10.335H77.625V82.688h3.586v2.636ZM44.487 90.07c.886.443 1.961 1.54 2.404 2.426 1.224 2.447.064 5.611-2.51 6.877-1.392.654-3.438.527-4.851-.359-2.806-1.709-3.249-5.59-.907-7.931 1.624-1.624 3.923-2.025 5.864-1.013Z" fill="#FFBD00"/><path d="M54 27.105v1.582h3.375v-3.164H54v1.582ZM60.75 27.105v1.582h3.375v-3.164H60.75v1.582ZM67.5 27.105v1.582h3.375v-3.164H67.5v1.582ZM32.063 82.793v1.582h6.75v-3.164h-6.75v1.582ZM40.5 94.606v1.582h3.375v-3.165H40.5v1.583ZM6.75 87.856v1.582h16.875v-3.165H6.75v1.583Z" fill="#FFBD00"/></svg>