<svg width="41" height="41" viewBox="0 0 41 41" fill="none" xmlns="http://www.w3.org/2000/svg">
<g clip-path="url('#clip0_116_135')">
<path d="M18.9199 40.1728C7.28471 23.3052 5.125 21.5741 5.125 15.375C5.125 6.8836 12.0086 0 20.5 0C28.9914 0 35.875 6.8836 35.875 15.375C35.875 21.5741 33.7153 23.3052 22.0801 40.1728C21.3166 41.2758 19.6834 41.2757 18.9199 40.1728ZM20.5 21.7812C24.0381 21.7812 26.9062 18.9131 26.9062 15.375C26.9062 11.8369 24.0381 8.96875 20.5 8.96875C16.9619 8.96875 14.0938 11.8369 14.0938 15.375C14.0938 18.9131 16.9619 21.7812 20.5 21.7812Z" fill="#7D7D7D"></path>
</g>
<defs>
<clipPath id="clip0_116_135">
<rect width="41" height="41" fill="white"></rect>
</clipPath>
</defs>
</svg>
