<svg width="149" height="146" viewBox="0 0 149 146" fill="none" xmlns="http://www.w3.org/2000/svg">
<ellipse cx="47.0445" cy="70.5934" rx="39.7247" ry="36.0989" fill="#FFBD00" fill-opacity="0.6"></ellipse>
<path d="M69.8219 2.7466C63.6348 3.90307 58.1127 7.57485 54.6143 12.9524C52.0701 16.8266 51.0293 20.4116 51.0293 25.4423C51.0293 30.4729 52.0701 34.029 54.6433 37.961C60.4545 46.8947 71.4699 50.7111 81.4733 47.2706C84.0464 46.4032 85.0005 45.9406 85.0005 45.5937C85.0005 45.4202 84.5379 44.4951 83.9886 43.4832L82.9767 41.6617L81.2998 42.4134C72.5396 46.2876 61.8134 42.3845 57.5633 33.8267C53.9205 26.4253 55.2504 18.1276 60.9749 12.432C64.3576 9.07826 68.0005 7.40138 72.7131 7.05444C81.3287 6.38947 89.5975 12.2296 91.7948 20.5273C92.5176 23.245 92.6621 23.1293 89.1927 23.1293C86.3305 23.1293 86.0992 23.1872 85.4342 23.8521C84.1043 25.1532 84.3356 25.7314 89.0771 32.0341C93.5295 37.9899 94.021 38.4236 95.5244 38.0478C95.987 37.9321 97.606 35.995 100.584 32.0341C105.21 25.8759 105.47 25.2977 104.4 23.9678C103.88 23.3317 103.591 23.2739 100.439 23.1293L96.9989 22.9848L96.7676 21.5392C94.7727 9.04935 82.3696 0.404755 69.8219 2.7466ZM96.5652 29.6923C95.7268 30.7909 94.9751 31.6583 94.8305 31.6583C94.6859 31.6583 93.9342 30.7909 93.0958 29.6923L91.6213 27.7552H94.8305H98.0397L96.5652 29.6923Z" fill="#03045E"></path>
<path d="M71.7011 20.2093V26.512L68.9545 28.3335C67.4221 29.3454 66.1211 30.2705 66.0344 30.3862C65.7742 30.8199 68.2317 34.1736 68.6653 34.0001C69.6483 33.6243 75.98 29.2008 76.1535 28.7671C76.2402 28.5069 76.3269 25.0375 76.3269 21.0766V13.8776H74.014H71.7011V20.2093Z" fill="#03045E"></path>
<path d="M35.4166 63.172L34.6938 63.8659V99.4562V135.046L35.4166 135.74L36.1105 136.463H43.6565C49.8147 136.463 51.1735 136.521 51.1735 136.868C51.1735 137.07 51.6361 138.169 52.1854 139.268C56.4354 147.768 68.4627 147.796 72.7127 139.296C73.262 138.169 73.7246 137.07 73.7246 136.868C73.7246 136.521 76.8182 136.463 92.5172 136.463C108.216 136.463 111.31 136.521 111.31 136.868C111.31 137.07 111.772 138.169 112.322 139.268C116.572 147.768 128.599 147.796 132.849 139.296C133.398 138.169 133.861 137.07 133.861 136.868C133.861 136.55 134.873 136.463 139.065 136.463C144.24 136.463 144.298 136.463 144.992 135.74L145.715 135.046V116.832V98.6466L137.446 88.0071C132.907 82.1381 128.917 77.1074 128.599 76.8183C128.05 76.3557 127.038 76.3268 116.051 76.3268H104.082V70.1108C104.082 63.8659 104.082 63.8659 103.359 63.172L102.665 62.4492H69.3879H36.1105L35.4166 63.172ZM99.456 90.2044V113.334H69.3879H39.3197V90.2044V67.0751H69.3879H99.456V90.2044ZM115.647 90.6381V100.352L116.369 101.046L117.063 101.769H129.09H141.089V107.551V113.334H122.585H104.082V97.1432V80.9527H109.864H115.647V90.6381ZM132.039 88.6143C135.278 92.7486 138.053 96.3626 138.227 96.6228C138.487 97.1143 137.995 97.1432 129.38 97.1432H120.272V89.0479V80.9238L123.221 81.0105L126.17 81.0972L132.039 88.6143ZM141.089 124.898V131.837H137.475C134.613 131.837 133.861 131.75 133.861 131.432C133.861 131.23 133.398 130.131 132.849 129.004C129.38 122.094 120.388 120.504 114.664 125.766C113.42 126.922 111.31 130.507 111.31 131.432C111.31 131.779 108.216 131.837 92.5172 131.837C76.8182 131.837 73.7246 131.779 73.7246 131.432C73.7246 131.23 73.262 130.131 72.7127 129.004C69.2433 122.094 60.2518 120.504 54.5273 125.766C53.2841 126.922 51.1735 130.507 51.1735 131.432C51.1735 131.75 50.0749 131.837 45.2466 131.837H39.3197V124.898V117.96H90.2043H141.089V124.898ZM64.5885 127.558C67.0749 128.31 69.3879 131.49 69.3879 134.15C69.3879 137.735 66.0341 141.089 62.4491 141.089C58.864 141.089 55.5103 137.735 55.5103 134.15C55.5103 132.329 56.1752 130.854 57.6786 129.38C59.7024 127.327 61.8708 126.778 64.5885 127.558ZM124.725 127.558C127.211 128.31 129.524 131.49 129.524 134.15C129.524 137.735 126.17 141.089 122.585 141.089C119 141.089 115.647 137.735 115.647 134.15C115.647 132.329 116.312 130.854 117.815 129.38C119.839 127.327 122.007 126.778 124.725 127.558Z" fill="#03045E"></path>
<path d="M64.8489 72.2792C63.7214 72.9442 63.1432 73.8404 62.8829 75.1704C62.7384 76.0088 62.4493 76.3268 61.2928 76.934C60.0785 77.5989 59.8183 77.6279 59.2112 77.3098C58.286 76.7894 56.8115 76.8183 55.6261 77.3676C54.9033 77.7146 54.2094 78.553 52.9952 80.4901C50.4509 84.5956 50.3064 85.9544 52.2724 87.8626C53.1686 88.7588 53.3132 89.1058 53.371 90.2912C53.3999 91.5055 53.2843 91.7367 52.5615 92.2572C51.405 93.0956 50.7979 94.3966 50.9713 95.7266C51.1737 97.23 54.2384 102.232 55.3948 102.954C56.4356 103.591 58.2282 103.648 59.2112 103.099C59.8183 102.781 60.0785 102.81 61.3217 103.475C62.5071 104.111 62.7384 104.371 62.8829 105.296C63.1142 106.568 63.9238 107.696 65.0513 108.274C66.2367 108.881 72.5394 108.881 73.7248 108.274C74.8524 107.696 75.6619 106.568 75.8932 105.296C76.0378 104.371 76.2691 104.111 77.4544 103.475C78.6976 102.81 78.9578 102.781 79.565 103.099C80.4902 103.619 81.9647 103.591 83.15 103.041C83.8728 102.694 84.5667 101.856 85.781 99.9188C88.3541 95.7844 88.4698 94.3966 86.4749 92.5174C85.4919 91.65 85.3762 91.332 85.3762 90.2044C85.3762 89.0769 85.4919 88.7588 86.4749 87.8915C88.4698 86.0122 88.3541 84.6245 85.781 80.4901C84.5667 78.553 83.8728 77.7146 83.15 77.3676C81.9647 76.8183 80.4902 76.7894 79.565 77.3098C78.9578 77.6279 78.6976 77.5989 77.4544 76.934C76.2691 76.2979 76.0378 76.0377 75.8932 75.1125C75.7776 74.5054 75.4306 73.6959 75.1126 73.2911C74.0718 71.9323 73.1755 71.701 69.3303 71.701C66.3234 71.701 65.6296 71.7877 64.8489 72.2792ZM71.4119 77.0207C71.4119 78.553 73.2622 80.1721 77.1942 81.9935C78.1483 82.4272 79.565 82.4272 80.6925 81.9646C81.0395 81.849 81.3864 82.167 82.0514 83.2078L82.9477 84.6534L82.1959 85.3184C81.0395 86.4459 80.8371 87.0241 80.7793 90.002C80.6925 93.1823 80.866 93.934 82.0225 95.0038L82.8031 95.7266L82.0514 97.0854C81.5021 98.0106 81.0973 98.4153 80.7504 98.3575C78.2061 97.9528 77.8881 97.9817 76.616 98.7045C75.8932 99.1092 74.7946 99.6875 74.1296 100.005C72.6262 100.699 71.4119 102.145 71.4119 103.244V104.082H69.417H67.451L67.2486 102.983C67.0751 101.769 66.0343 100.642 64.4731 99.9188C63.9238 99.6585 62.8829 99.1092 62.1602 98.7045C60.888 97.9817 59.4135 97.866 58.0836 98.4153C57.7367 98.5599 57.3897 98.2419 56.7248 97.1721C55.8574 95.8133 55.8574 95.6976 56.3489 95.3507C57.5921 94.4544 57.9391 93.4136 57.9969 90.3779C58.0547 87.1687 57.7367 85.9544 56.5224 85.1738L55.8285 84.7112L56.7248 83.2656C57.3897 82.1959 57.7656 81.849 58.0836 81.9935C59.4135 82.5428 60.888 82.4272 62.1602 81.7044C62.8829 81.2996 63.9816 80.7214 64.6466 80.4034C66.15 79.7095 67.3643 78.2639 67.3643 77.1653V76.3268H69.3881C71.3252 76.3268 71.4119 76.3557 71.4119 77.0207Z" fill="#03045E"></path>
<path d="M67.1042 82.4272C63.8083 83.3813 61.293 86.735 61.293 90.2333C61.293 93.5582 63.8083 96.9697 66.9307 97.8949C73.2913 99.7164 78.9002 94.1075 77.0787 87.7469C76.4138 85.4629 74.1876 83.2367 71.9903 82.5717C70.2845 82.0513 68.5787 82.0224 67.1042 82.4272ZM71.8168 87.8626C72.5685 88.6432 72.7131 88.9901 72.7131 90.2044C72.7131 91.4476 72.5685 91.7656 71.759 92.5752C70.9495 93.3847 70.6314 93.5293 69.3882 93.5293C68.145 93.5293 67.827 93.3847 67.0175 92.5752C66.208 91.7656 66.0634 91.4476 66.0634 90.2333C66.0634 88.7299 66.7862 87.5735 68.0872 86.9952C69.1569 86.5326 70.8627 86.9085 71.8168 87.8626Z" fill="#03045E"></path>
<path d="M9.25195 87.8915V90.2044H18.5037H27.7554V87.8915V85.5786H18.5037H9.25195V87.8915Z" fill="#03045E"></path>
<path d="M2.31299 104.082V106.395H11.5647H20.8165V104.082V101.769H11.5647H2.31299V104.082Z" fill="#03045E"></path>
<path d="M9.25195 120.273V122.585H18.5037H27.7554V120.273V117.96H18.5037H9.25195V120.273Z" fill="#03045E"></path>
</svg>
