<svg width="130" height="130" fill="none" xmlns="http://www.w3.org/2000/svg"><path d="M45.884 37.097a3.754 3.754 0 0 0-2.474 2.084l-.31.666v49.306l.31.666c.354.784 1.103 1.537 1.853 1.891l.514.236h38.446l.514-.236c.75-.354 1.499-1.106 1.852-1.89l.311-.667V44.358l-.257-.483c-.353-.688-5.75-6.112-6.48-6.52l-.545-.301-16.706-.022c-9.189 0-16.846.022-17.028.065Zm32.845 3.577c.043 1.611.075 1.923.278 2.374.343.752 1.093 1.504 1.874 1.858.632.29.76.312 2.463.344l1.789.043V66.96c0 20.786-.01 21.678-.203 22.086-.236.515-.472.741-1.007.967-.343.14-2.485.16-18.945.16-17.777 0-18.58-.01-18.987-.203-.514-.237-.739-.473-.964-1.01-.139-.344-.16-3.04-.16-24.46s.021-24.116.16-24.46c.225-.537.45-.773.964-1.01.407-.193 1.135-.204 16.567-.204h16.128l.043 1.848Zm4.294 2.75c-1.745.086-2.484-.634-2.495-2.396v-.86l1.606 1.612 1.607 1.612-.718.032Z" fill="#03045E"/><path d="M61.037 46.26c-.15.053-.675.505-1.178 1.01l-.92.913-.258-.29c-.15-.162-.503-.398-.803-.538-.525-.247-.589-.257-3.855-.257-3.256 0-3.33.01-3.856.258-.3.128-.696.43-.9.655-.706.805-.706.827-.706 4.511 0 2.965.022 3.384.193 3.835.235.623 1.05 1.386 1.66 1.569.278.086 1.456.129 3.63.129 3.598 0 3.888-.043 4.573-.71.214-.203.492-.58.632-.826.225-.43.235-.58.267-3.406l.033-2.954 1.338-1.353c1.189-1.214 1.328-1.386 1.328-1.73 0-.601-.61-1.02-1.178-.816Zm-3.673 2.932.3.258-1.36 1.375-1.36 1.364-.75-.72c-.782-.751-.985-.837-1.5-.558-.342.172-.438.355-.438.838 0 .28.182.516 1.156 1.493 1.542 1.547 1.489 1.547 3.02.032.621-.623 1.167-1.127 1.21-1.127.043 0 .075.773.075 1.708 0 1.686 0 1.718-.278 2.04l-.279.333h-6.179l-.3-.257-.3-.258V49.44l.3-.258.3-.258h6.083l.3.268ZM64.421 49.16c-.407.376-.417.924-.01 1.321l.257.269h16.171l.278-.247a.86.86 0 0 0 .01-1.321l-.288-.258h-16.15l-.267.236ZM64.379 53.79c-.236.247-.31.73-.172 1.096.183.462.429.483 5.366.483 5.065 0 5.097-.01 5.365-.58.171-.344.096-.741-.193-1.031-.203-.204-.374-.215-5.172-.215h-4.97l-.224.247ZM50.682 59.977c-.61.162-1.328.656-1.639 1.16-.492.774-.557 1.343-.514 4.684.032 2.707.054 3.073.236 3.406.364.687.674 1.02 1.253 1.342l.578.323h3.427c3.373 0 3.438 0 3.93-.248.653-.322 1.221-.999 1.424-1.675.236-.774.236-6.338 0-7.112-.203-.676-.76-1.342-1.413-1.665-.503-.257-.578-.257-3.727-.279-1.767-.01-3.363.022-3.555.065Zm6.382 1.848c.621.215.654.42.654 3.577 0 3.073-.033 3.298-.547 3.567-.45.225-5.858.215-6.307-.011-.471-.247-.536-.677-.536-3.545 0-2.943.064-3.33.568-3.545.439-.193 5.633-.225 6.168-.043ZM64.614 61.857c-.546.237-.664 1.02-.225 1.44l.246.236h16.29l.213-.247c.31-.344.364-.559.225-.945-.225-.645-.043-.634-8.62-.634-6.298.01-7.861.032-8.129.15ZM64.41 66.595c-.406.397-.395.945.011 1.31l.268.247h9.756l.31-.311c.183-.194.311-.43.311-.602s-.128-.408-.31-.601l-.31-.312H64.667l-.257.269ZM50.168 73.03c-.59.268-1.157.848-1.435 1.45-.257.58-.257 6.96 0 7.54.278.602.846 1.182 1.435 1.45.525.248.61.258 3.79.258 2.186 0 3.396-.042 3.674-.128.536-.161 1.307-.838 1.617-1.418.225-.43.236-.538.236-3.932 0-3.373-.01-3.502-.236-3.92a4.107 4.107 0 0 0-.642-.828c-.718-.698-.943-.73-4.627-.73-3.202 0-3.287.01-3.812.257Zm7.196 1.826.3.257v6.274l-.3.257-.3.258h-6.082l-.3-.258-.3-.257v-6.274l.3-.257.3-.258h6.082l.3.258ZM64.421 74.834c-.407.376-.417.924-.01 1.321l.257.269h8.042c5.558 0 8.118-.032 8.268-.118.31-.162.535-.774.417-1.107-.246-.634.15-.601-8.652-.601h-8.054l-.267.236ZM64.378 79.464c-.246.268-.31.805-.128 1.15.214.397.642.429 5.322.429 3.727 0 4.605-.032 4.905-.161.428-.172.632-.58.536-1.042-.14-.634-.065-.623-5.462-.623h-4.948l-.225.247Z" fill="#03045E"/><circle cx="65" cy="65" r="64" stroke="#FFBD00" stroke-width="2"/></svg>