<svg width="82" height="56" viewBox="0 0 82 56" fill="none" xmlns="http://www.w3.org/2000/svg">
<path d="M70.2836 0.750335C67.4132 0.536387 15.1445 0.247925 15.1445 0.247925C15.3796 2.91977 17.076 7.25719 19.6267 9.60716C22.4156 12.1766 25.5359 13.0963 30.2725 13.6971L18.2032 40.4857C18.2032 40.4857 21.0372 40.6278 23.9052 40.6112C25.5913 40.6013 27.2609 40.6112 28.4425 40.2852C29.0741 40.1113 29.3948 39.9764 29.7899 39.7276C30.1123 39.5246 30.4954 39.2696 31.047 38.6576C32.2744 37.2959 38.4229 24.217 40.7942 20.6446C42.8272 17.5817 45.9862 14.7013 49.6072 13.9689C52.7937 13.3244 66.2308 13.7302 70.593 13.7436C76.3988 13.7612 81.7993 13.9072 81.7993 13.9072C81.7993 13.9072 81.7047 10.3085 80.5304 8.11618C79.3561 5.9239 78.5058 4.92664 77.4704 3.91718C76.596 3.08404 75.7196 2.44048 74.7946 1.9556C73.4431 1.24706 71.9878 0.877358 70.2836 0.750335Z" fill="url('#paint0_linear_119_472')"></path>
<path d="M81.8207 16.3902L53.5726 16.14C53.5726 16.14 48.3288 16.1773 45.09 20.0518C41.8511 23.9264 40.7201 27.1436 40.7201 27.1436C37.9376 31.8562 35.0746 40.2032 30.189 42.5334C28.4296 43.1451 27.8356 43.6193 19.9376 43.3702C12.0396 43.121 8.26035 42.8253 4.06541 46.1575C1.32295 48.3359 0.702557 53.1921 0 55.8071C0 55.8071 8.39394 55.8337 13.3599 55.7451C18.3259 55.6563 24.2932 55.8165 31.009 55.3613C37.7248 54.9061 41.6474 49.6177 44.1879 45.5666C48.6259 40.0383 52.4123 29.1447 58.5591 28.5781C64.3796 28.3132 64.2603 28.9619 72.6208 28.3846C77.353 27.829 79.9261 24.5381 81.1255 20.5396C81.5756 18.9971 81.8207 16.3901 81.8207 16.3901V16.3902Z" fill="url('#paint1_linear_119_472')"></path>
<defs>
<linearGradient id="paint0_linear_119_472" x1="15.1445" y1="20.4302" x2="81.7992" y2="20.4302" gradientUnits="userSpaceOnUse">
<stop stop-color="#2591FB" stop-opacity="0.98"></stop>
<stop offset="1" stop-color="#390099" stop-opacity="0.999326"></stop>
</linearGradient>
<linearGradient id="paint1_linear_119_472" x1="-24.7412" y1="59.6441" x2="50.2821" y2="51.7083" gradientUnits="userSpaceOnUse">
<stop stop-color="#2591FB" stop-opacity="0.98"></stop>
<stop offset="1" stop-color="#390099" stop-opacity="0.999326"></stop>
</linearGradient>
</defs>
</svg>
