<svg width="183" height="49" fill="none" xmlns="http://www.w3.org/2000/svg"><path d="M60.855.656C58.37.47 13.113.216 13.113.216c.203 2.339 1.672 6.134 3.88 8.19 2.415 2.248 5.117 3.053 9.218 3.579l-10.45 23.44s2.454.124 4.937.11c1.46-.009 2.906 0 3.929-.286.547-.152.824-.27 1.167-.488.279-.177.61-.4 1.088-.936 1.063-1.191 6.387-12.635 8.44-15.761 1.76-2.68 4.495-5.2 7.63-5.841 2.76-.564 14.394-.21 18.171-.198 5.027.016 9.703.144 9.703.144s-.082-3.15-1.099-5.067c-1.016-1.919-1.753-2.791-2.65-3.675-.756-.729-1.515-1.292-2.316-1.716-1.17-.62-2.43-.943-3.906-1.055Z" fill="#fff"/><path d="m70.845 14.341-24.459-.218s-4.54.032-7.345 3.422c-2.804 3.39-3.783 6.206-3.783 6.206-2.41 4.123-4.889 11.427-9.119 13.466-1.523.535-2.037.95-8.876.732-6.839-.218-10.11-.477-13.743 2.439C1.145 42.294.608 46.543 0 48.83c0 0 7.268.024 11.568-.054s9.466.063 15.281-.336c5.815-.398 9.211-5.026 11.411-8.57 3.843-4.837 7.121-14.37 12.444-14.865 5.04-.232 4.936.336 12.175-.17 4.097-.486 6.325-3.365 7.364-6.864.39-1.35.602-3.63.602-3.63Z" fill="#7D7D7D"/><path d="M150.856 0c-.377 0-.714.06-1.01.179-.293.115-.539.27-.74.466-.2.192-.352.415-.456.669a2.078 2.078 0 0 0-.155.79c0 .349.058.64.173.875.119.23.275.424.468.582.192.153.41.28.652.38.246.1.498.19.756.271.258.08.509.164.751.248.246.085.465.19.658.317.192.123.346.278.461.466.12.185.18.421.18.71 0 .264-.047.514-.139.748a1.68 1.68 0 0 1-.404.6 1.897 1.897 0 0 1-.641.403 2.433 2.433 0 0 1-.866.144 2.605 2.605 0 0 1-1.12-.236 2.643 2.643 0 0 1-.375-.22c-.108-.08-.2-.153-.277-.218-.077-.07-.142-.127-.196-.173-.054-.046-.098-.069-.133-.069-.062 0-.116.029-.162.087l-.161.253c.292.33.633.591 1.022.783.388.189.852.283 1.391.283.415 0 .785-.064 1.108-.19.324-.131.597-.307.82-.53.223-.223.392-.484.508-.784.119-.303.179-.626.179-.968 0-.334-.06-.613-.179-.836a1.717 1.717 0 0 0-.462-.57 2.63 2.63 0 0 0-.658-.38 9.217 9.217 0 0 0-.751-.283c-.257-.084-.509-.169-.756-.253a3.124 3.124 0 0 1-.652-.323 1.623 1.623 0 0 1-.468-.461c-.115-.18-.173-.41-.173-.686a1.515 1.515 0 0 1 .462-1.112c.154-.146.342-.26.566-.345.227-.085.489-.127.785-.127a2.195 2.195 0 0 1 1.252.351c.135.085.241.163.318.236.081.07.146.104.196.104.066 0 .116-.032.15-.098l.139-.265a2.728 2.728 0 0 0-.923-.616A3.036 3.036 0 0 0 150.856 0ZM81.419.092v.502h2.887v7.651h.589V.594h2.869V.092h-6.345Zm16.981 0v8.153h.59V4.558h1.067c.158 0 .273.017.346.052a.577.577 0 0 1 .214.178l2.615 3.308a.443.443 0 0 0 .127.115c.046.023.1.034.162.034h.514l-2.812-3.526a.923.923 0 0 0-.248-.23c.358-.039.679-.12.964-.242.285-.127.527-.287.728-.479.204-.196.359-.422.467-.68.108-.257.162-.541.162-.852 0-.703-.233-1.235-.699-1.596-.465-.365-1.17-.548-2.113-.548H98.4Zm18.379 0-3.343 8.153h.45c.054 0 .1-.015.138-.046a.251.251 0 0 0 .082-.11l.958-2.367h4.012l.964 2.368a.318.318 0 0 0 .081.115c.035.027.079.04.133.04h.456L117.367.092h-.588Zm14.273 0v8.153h.514V1.383a3.18 3.18 0 0 0-.018-.329l5.312 7.076a.249.249 0 0 0 .213.115h.283V.092h-.519v6.84c0 .108.005.219.017.334L131.566.202a.246.246 0 0 0-.099-.087.281.281 0 0 0-.126-.023h-.289ZM98.989.559h1.495c.728 0 1.282.14 1.663.42.381.281.572.711.572 1.291 0 .285-.052.54-.156.767-.104.226-.257.42-.457.582a2.09 2.09 0 0 1-.727.374 3.41 3.41 0 0 1-.97.127h-1.42V.56Zm18.084.12.08.266c.027.08.055.154.082.219l1.668 4.12h-3.66l1.668-4.114a4.885 4.885 0 0 0 .162-.49Zm.122 14.673c-1.104 0-2.115.192-3.033.577a6.814 6.814 0 0 0-2.367 1.63c-.659.695-1.174 1.538-1.544 2.528-.363.983-.544 2.078-.544 3.283 0 1.212.181 2.314.544 3.304.37.983.885 1.826 1.544 2.529a6.887 6.887 0 0 0 2.367 1.619c.918.377 1.929.565 3.033.565 1.118 0 2.137-.188 3.055-.565a6.873 6.873 0 0 0 2.366-1.62c.66-.702 1.171-1.545 1.534-2.528.363-.99.544-2.092.544-3.304 0-1.205-.181-2.3-.544-3.283-.363-.99-.874-1.837-1.534-2.539a6.675 6.675 0 0 0-2.366-1.62c-.918-.384-1.937-.576-3.055-.576Zm-35.776.178v15.69h1.134V24.9h2.921c.867 0 1.645-.115 2.334-.344.688-.236 1.274-.562 1.755-.976.481-.421.848-.92 1.1-1.497.26-.576.389-1.208.389-1.896 0-1.493-.47-2.643-1.41-3.449-.934-.805-2.323-1.208-4.168-1.208H81.42Zm14.616 0v15.69h1.133v-7.097h2.056c.303 0 .526.034.666.1.149.067.285.181.411.344l5.033 6.365a.831.831 0 0 0 .245.222.69.69 0 0 0 .311.067h.988l-5.41-6.787a1.8 1.8 0 0 0-.478-.444 6.373 6.373 0 0 0 1.855-.465 4.83 4.83 0 0 0 1.4-.92c.393-.377.693-.814.9-1.309a4.2 4.2 0 0 0 .311-1.641c0-1.353-.448-2.377-1.344-3.072-.896-.702-2.252-1.053-4.066-1.053h-4.01Zm21.16.798c.948 0 1.811.162 2.589.488.777.318 1.44.78 1.988 1.386.556.606.985 1.345 1.289 2.218.304.872.455 1.856.455 2.95 0 1.101-.151 2.088-.455 2.96-.304.865-.733 1.6-1.289 2.207a5.397 5.397 0 0 1-1.988 1.386c-.778.318-1.641.477-2.589.477-.934 0-1.789-.159-2.567-.477a5.629 5.629 0 0 1-2-1.386c-.555-.606-.989-1.342-1.3-2.207-.303-.872-.455-1.859-.455-2.96 0-1.094.152-2.078.455-2.95.311-.873.745-1.612 1.3-2.218a5.629 5.629 0 0 1 2-1.386c.778-.326 1.633-.488 2.567-.488Zm-34.642.1h2.921c1.474 0 2.582.325 3.322.975.749.651 1.123 1.579 1.123 2.784 0 .547-.104 1.054-.311 1.52-.2.458-.493.857-.878 1.197a4.05 4.05 0 0 1-1.389.798c-.548.192-1.17.288-1.867.288h-2.921v-7.562Zm14.615 0h2.878c1.4 0 2.466.27 3.2.81.733.54 1.099 1.367 1.099 2.483 0 .547-.099 1.039-.299 1.475-.2.436-.493.81-.878 1.12-.378.31-.845.55-1.4.72-.548.163-1.17.245-1.867.245h-2.733v-6.853ZM86.23 36.14c-.692 0-1.306.106-1.843.32-.536.207-.99.486-1.359.837a3.565 3.565 0 0 0-1.124 2.582c0 .588.08 1.083.242 1.486.162.397.372.731.632 1.002.265.264.565.48.9.647.334.161.677.3 1.03.415.35.109.694.21 1.029.302.334.092.632.198.891.32.266.12.479.273.64.457.162.184.243.423.243.717 0 .507-.147.878-.441 1.114-.295.23-.707.345-1.238.345-.392 0-.733-.054-1.021-.163a5.034 5.034 0 0 1-.77-.364c-.22-.132-.418-.253-.597-.362a.964.964 0 0 0-.52-.164.762.762 0 0 0-.64.345l-.865 1.365c.249.247.54.472.874.673.335.202.692.377 1.073.527.38.144.773.256 1.177.337.41.08.81.121 1.202.121.716 0 1.353-.107 1.913-.32a4.106 4.106 0 0 0 1.419-.89c.386-.38.68-.823.882-1.33.202-.506.303-1.05.303-1.632 0-.523-.08-.97-.242-1.338a2.935 2.935 0 0 0-.64-.95c-.26-.259-.56-.472-.9-.64a8.475 8.475 0 0 0-1.03-.43 16.72 16.72 0 0 0-1.038-.337 7.59 7.59 0 0 1-.9-.337 2.1 2.1 0 0 1-.632-.432.87.87 0 0 1-.242-.63c0-.398.132-.712.398-.942.27-.236.68-.354 1.228-.354.318 0 .6.043.848.13.248.08.468.172.658.276.196.104.37.199.52.285.155.08.3.121.432.121.15 0 .27-.035.363-.104.098-.07.19-.172.277-.31l.727-1.357a4.03 4.03 0 0 0-.77-.553 5.124 5.124 0 0 0-.917-.422 5.462 5.462 0 0 0-1.047-.268 6.546 6.546 0 0 0-1.125-.095Zm13.55 0c-.98 0-1.875.164-2.682.492a6.21 6.21 0 0 0-2.077 1.356 6.124 6.124 0 0 0-1.332 2.038 6.804 6.804 0 0 0-.468 2.539c0 .91.156 1.756.468 2.54a6.221 6.221 0 0 0 1.332 2.046 6.209 6.209 0 0 0 2.077 1.356c.807.328 1.701.492 2.682.492.981 0 1.872-.164 2.674-.492a6.116 6.116 0 0 0 2.067-1.356 6.123 6.123 0 0 0 1.325-2.047c.317-.783.475-1.63.475-2.54a6.68 6.68 0 0 0-.475-2.53 6.028 6.028 0 0 0-1.325-2.038 6.116 6.116 0 0 0-2.067-1.355c-.802-.334-1.693-.502-2.674-.502Zm62.108 0c-.981 0-1.875.164-2.683.492a6.216 6.216 0 0 0-2.076 1.356 6.14 6.14 0 0 0-1.333 2.038 6.814 6.814 0 0 0-.467 2.539c0 .91.156 1.756.467 2.54a6.237 6.237 0 0 0 1.333 2.046 6.215 6.215 0 0 0 2.076 1.356c.808.328 1.702.492 2.683.492.98 0 1.872-.164 2.673-.492a6.11 6.11 0 0 0 2.068-1.356 6.105 6.105 0 0 0 1.324-2.047c.318-.783.476-1.63.476-2.54a6.66 6.66 0 0 0-.476-2.53 6.01 6.01 0 0 0-1.324-2.038 6.11 6.11 0 0 0-2.068-1.355c-.801-.334-1.693-.502-2.673-.502Zm-52.002.138v12.583h7.597V46.53h-4.672V36.28h-2.925Zm10.972 0v7.453c0 .772.124 1.48.372 2.125.248.644.605 1.2 1.073 1.666a4.858 4.858 0 0 0 1.704 1.088c.669.26 1.425.389 2.267.389.836 0 1.589-.13 2.258-.389a4.87 4.87 0 0 0 1.705-1.088 4.715 4.715 0 0 0 1.072-1.666 5.749 5.749 0 0 0 .381-2.125v-7.453h-2.924v7.453c0 .443-.058.84-.173 1.192-.11.345-.271.639-.485.88a2.161 2.161 0 0 1-.787.562c-.306.127-.655.19-1.047.19-.392 0-.744-.063-1.056-.19a2.183 2.183 0 0 1-.779-.561 2.61 2.61 0 0 1-.492-.89 3.983 3.983 0 0 1-.165-1.192V36.28h-2.924Zm14.034 0v2.314h3.548v10.269h2.924V38.593h3.548V36.28h-10.02Zm13.654 0v12.583h2.942V36.279h-2.942Zm23.448 0v12.583h2.579v-6.745c0-.184-.006-.38-.018-.587a30.43 30.43 0 0 0-.043-.648l5.944 7.496c.144.185.294.311.45.38.156.07.346.104.571.104H183V36.279h-2.579v6.658a15.342 15.342 0 0 0 .07 1.347l-5.988-7.556a2.253 2.253 0 0 0-.216-.233.703.703 0 0 0-.199-.13.74.74 0 0 0-.234-.069 2.468 2.468 0 0 0-.32-.017h-1.54ZM99.78 38.55c.56 0 1.058.092 1.497.277.438.184.808.449 1.108.794.305.346.539.768.7 1.27.162.495.242 1.053.242 1.675 0 .627-.08 1.192-.242 1.693a3.526 3.526 0 0 1-.7 1.26c-.3.346-.67.61-1.108.795a3.944 3.944 0 0 1-1.497.268c-.565 0-1.07-.09-1.514-.268a3.043 3.043 0 0 1-1.117-.794c-.3-.346-.53-.766-.692-1.261a5.506 5.506 0 0 1-.242-1.693c0-.622.08-1.18.242-1.676.162-.5.392-.923.692-1.269.306-.345.678-.61 1.117-.794.444-.185.949-.277 1.514-.277Zm62.108 0c.559 0 1.058.092 1.497.277.438.184.807.449 1.107.794.306.346.539.768.701 1.27.162.495.243 1.053.243 1.675a5.49 5.49 0 0 1-.243 1.693 3.528 3.528 0 0 1-.701 1.26c-.3.346-.669.61-1.107.795a3.948 3.948 0 0 1-1.497.268c-.566 0-1.07-.09-1.514-.268a3.032 3.032 0 0 1-1.116-.794 3.608 3.608 0 0 1-.693-1.261 5.521 5.521 0 0 1-.242-1.693c0-.622.081-1.18.242-1.676.162-.5.393-.923.693-1.269.305-.345.677-.61 1.116-.794.444-.185.948-.277 1.514-.277Z" fill="#fff" fill-opacity=".75"/></svg>