<svg width="82" height="56" fill="none" xmlns="http://www.w3.org/2000/svg"><path d="M70.284.75c-2.87-.214-55.14-.502-55.14-.502.236 2.672 1.932 7.01 4.483 9.36 2.789 2.569 5.909 3.488 10.646 4.09l-12.07 26.788s2.834.142 5.702.125c1.686-.01 3.356 0 4.537-.326.632-.174.953-.309 1.348-.557.322-.203.705-.458 1.257-1.07 1.227-1.362 7.376-14.441 9.747-18.013 2.033-3.063 5.192-5.944 8.813-6.676 3.187-.645 16.624-.239 20.986-.225 5.806.017 11.206.163 11.206.163s-.094-3.598-1.269-5.79c-1.174-2.193-2.024-3.19-3.06-4.2-.874-.833-1.75-1.477-2.675-1.961C73.443 1.247 71.988.877 70.284.75Z" fill="url('#paint0_linear_119_472')"/><path d="m81.82 16.39-28.247-.25s-5.244.037-8.483 3.912c-3.239 3.874-4.37 7.092-4.37 7.092-2.782 4.712-5.645 13.06-10.531 15.39-1.76.611-2.353 1.085-10.251.836S8.26 42.825 4.065 46.158C1.323 48.335.703 53.191 0 55.807c0 0 8.394.026 13.36-.063 4.966-.089 10.933.072 17.649-.384 6.716-.455 10.638-5.743 13.179-9.794 4.438-5.529 8.224-16.422 14.371-16.989 5.82-.265 5.701.384 14.062-.193 4.732-.556 7.305-3.847 8.505-7.845.45-1.543.695-4.15.695-4.15Z" fill="url('#paint1_linear_119_472')"/><defs><linearGradient id="paint0_linear_119_472" x1="15.145" y1="20.43" x2="81.799" y2="20.43" gradientUnits="userSpaceOnUse"><stop stop-color="#2591FB" stop-opacity=".98"/><stop offset="1" stop-color="#390099" stop-opacity=".999"/></linearGradient><linearGradient id="paint1_linear_119_472" x1="-24.741" y1="59.644" x2="50.282" y2="51.708" gradientUnits="userSpaceOnUse"><stop stop-color="#2591FB" stop-opacity=".98"/><stop offset="1" stop-color="#390099" stop-opacity=".999"/></linearGradient></defs></svg>