<svg width="251" height="47" viewBox="0 0 251 47" fill="none" xmlns="http://www.w3.org/2000/svg">
<g clip-path="url(#clip0_116_153)">
<path d="M0.945613 11.1484C33.2536 10.2269 65.553 9.20289 97.8439 8.07653L194.742 4.78705C213.018 4.17267 231.293 3.43029 249.569 2.9311V1.30013e-06C221.452 3.36629 193.336 7.10376 165.323 10.7004L81.7283 21.3881L34.2888 27.4423C32.3462 27.6855 32.2056 30.6294 34.2888 30.5782L128.516 28.3894L155.265 27.775L154.843 24.652C134.395 28.2529 113.985 31.8453 93.6137 35.4292C91.7606 35.762 92.3357 38.5011 94.0355 38.5907L142.753 40.8434L142.319 37.5667C134.497 39.6019 126.586 41.4066 118.854 43.7489C117.142 44.2737 117.385 47.064 119.289 46.9744C120.567 46.9744 121.947 46.808 123.263 46.7952C123.657 46.7952 124.034 46.6388 124.312 46.3603C124.59 46.0819 124.746 45.7042 124.746 45.3105C124.746 44.9167 124.59 44.539 124.312 44.2606C124.034 43.9821 123.657 43.8257 123.263 43.8257C121.985 43.8257 120.618 43.7361 119.289 43.6977L119.736 46.9232C127.621 45.1697 135.392 42.8529 143.2 40.7922C143.588 40.6818 143.923 40.435 144.143 40.0972C144.364 39.7593 144.456 39.3531 144.401 38.9532C144.347 38.5532 144.15 38.1863 143.847 37.9199C143.545 37.6534 143.156 37.5053 142.753 37.5027L94.0355 35.378L94.4572 38.5267C114.905 34.9002 135.315 31.2949 155.686 27.7111C157.45 27.4039 156.964 24.5496 155.265 24.588L61.0246 26.8151L34.2888 27.4423V30.5782L118.458 19.7625L202.691 8.9725C218.449 6.95017 234.22 4.97903 249.978 2.8287C251.613 2.61111 251.256 -0.115196 249.594 -0.0511981C217.299 1.34395 184.991 2.29113 152.696 3.44309C120.401 4.59505 88.0928 5.74701 55.7976 6.96297C37.5221 7.67121 19.2467 8.39225 0.971198 9.1261C-0.306806 9.1261 -0.306806 11.1356 0.971198 11.0972L0.945613 11.1484Z" fill="#FFBD00"/>
</g>
<defs>
<clipPath id="clip0_116_153">
<rect width="251" height="47" fill="white"/>
</clipPath>
</defs>
</svg>
