<svg width="560" height="106" viewBox="0 0 560 106" fill="none" xmlns="http://www.w3.org/2000/svg">
<g clip-path="url(#clip0_20_2)">
<path d="M109.455 21.9108C107.092 27.0471 101.177 31.6428 96.5928 36.3734C91.3644 41.7689 86.0252 47.1381 80.3738 52.4367C74.8227 57.639 68.9772 62.7676 62.837 67.8223C56.9708 72.6256 50.976 77.3889 45.8384 82.3839C40.0275 88.0366 35.2618 94.0054 33.1558 100.239C32.693 101.602 35.078 101.704 37.2394 101.322C40.5612 100.735 43.9406 99.343 45.7631 97.9119C51.5452 93.3752 55.6089 88.4023 60.8396 83.7223C65.9529 79.1445 71.447 74.729 77.1871 70.3093C88.9727 61.236 101.622 52.4841 114.661 43.8112C118.175 41.4738 121.748 39.1502 125.136 36.7706C126.761 35.6294 128.331 34.4723 129.99 33.3426C130.322 33.116 130.665 32.8937 130.998 32.6671C132.049 31.9537 130.439 32.9558 131.697 32.2192C132.061 32.0085 132.422 31.7977 132.794 31.5869C133.079 31.4278 134.798 30.5405 133.361 31.2455L123.49 31.9157C122.259 33.938 119.726 35.4102 117.48 37.268C114.646 39.6131 111.841 41.9666 109.065 44.3286C103.925 48.7009 98.834 53.109 93.5635 57.4149C83.2217 65.8538 72.0826 74.0757 59.9183 81.9487C56.9464 83.873 54.0719 85.8183 51.2196 87.7837C50.5176 88.2674 49.809 88.749 49.0826 89.2253C48.7593 89.4361 48.4338 89.6468 48.1038 89.8576C48.8811 89.3655 48.188 89.7986 47.7695 90.0441C47.0092 90.4888 46.2214 90.9216 45.4065 91.3424C47.4904 90.2644 42.6495 92.4026 45.2161 91.4204L53.3301 91.5258C54.2513 89.9145 56.5411 87.9344 58.1378 86.6972C60.5273 84.8467 63.1161 83.0563 65.4302 81.1837C71.0861 76.6091 76.0753 71.8311 81.2905 67.1416C85.6251 63.2453 89.9471 59.3462 94.2566 55.4442C98.5815 51.5399 101.553 48.9106 106.616 45.2844C107.913 44.3539 109.273 43.4445 110.657 42.5445C110.879 42.3991 111.742 41.8816 110.609 42.5677C111.005 42.3285 111.397 42.0882 111.798 41.8511C112.513 41.4296 113.244 41.008 113.99 40.6002C114.36 40.3979 116.55 39.5 116.508 39.2766C116.508 39.2987 115.144 39.9226 115.977 39.5432C116.419 39.342 116.847 39.1322 117.29 38.931C118.094 38.5663 119.362 38.2007 119.985 37.7718C119.83 37.8771 118.18 38.4462 119.633 37.9235C120.2 37.7191 120.758 37.5104 121.329 37.3092L113.053 37.2038C112.495 39.2924 110.593 41.1134 108.773 43.0071C106.726 45.139 104.769 47.2909 102.769 49.4354C98.7432 53.7476 94.85 58.0977 90.5893 62.3615C82.5993 70.3768 72.1845 77.9832 68.03 86.7404C67.3657 88.161 70.291 88.4265 72.4922 87.9228C81.3503 85.8974 86.3795 82.3513 91.6655 78.6018C96.5198 75.158 101.017 71.6045 105.486 68.0457C114.451 60.9072 123.346 53.7265 133.03 46.8019C135.564 44.9894 138.124 43.1852 140.675 41.3779C141.226 40.9869 141.782 40.5971 142.351 40.2124C142.677 39.9932 143.016 39.7751 143.341 39.558C143.797 39.2587 144.006 39.1702 143.41 39.5116C144.037 39.1575 144.69 38.8087 145.301 38.4494C146.242 37.8972 144.059 38.9689 145.182 38.5084C145.549 38.3566 147.051 37.7254 145.288 38.4167L136.948 38.3113C133.589 44.7185 125.408 50.6409 118.596 56.478C110.821 63.1371 103.945 70.0417 96.4511 76.7734C91.9881 80.7779 87.4114 84.7543 82.7211 88.7026C82.1807 89.1547 81.5895 90.1548 82.5108 90.6237C83.3324 91.0452 84.7141 90.8893 85.7107 90.7692C89.5639 90.3034 93.796 88.5677 95.7735 86.9691C106.498 78.3025 117.431 69.695 127.957 60.9736C137.889 52.7433 145.799 44.7248 157.811 37.2343L144.592 38.99C135.212 47.2097 125.855 55.4453 116.745 63.7378C112.296 67.7865 108.057 71.4222 103.586 75.1411C99.0886 78.8832 94.7283 82.6727 91.5527 86.7183C90.8285 87.6404 90.1663 88.8681 93.0452 88.9471C96.1079 89.0325 99.4673 87.6962 101.549 86.8015C113.467 81.6558 120.282 74.5193 127.253 67.7686C130.703 64.4259 134.594 61.197 138.246 57.9049C142.416 54.1459 146.468 50.3575 150.678 46.607C155.574 42.2473 159.868 38.6306 165.706 34.4407L152.157 36.2269C145.166 44.7923 135.672 52.8108 126.77 60.943C117.538 69.3799 109.22 78.0391 100.457 86.5855C98.1054 88.8786 95.7513 91.1643 93.1603 93.3984C90.5273 95.6704 88.0382 97.9941 86.7936 100.539C86.1625 101.83 88.2906 102.166 90.5583 101.891C94.0395 101.47 97.3657 100.113 99.6378 98.8435C110.378 92.8072 117.132 85.4969 123.597 78.2878C130.054 71.0997 137.017 63.9959 144.026 56.9248C146.205 54.7255 148.47 52.5452 150.926 50.4133C151.147 50.2258 151.369 50.0392 151.577 49.8527C151.77 49.6883 152.587 49.016 152.007 49.4891C152.597 49.0009 153.207 48.5168 153.836 48.037C155.224 46.9628 156.682 45.9107 158.21 44.8808L144.181 46.745C138.237 54.4463 131.064 61.9083 124.029 69.3925C116.898 76.98 110.077 84.6328 102.625 92.1486C98.7321 96.0751 94.0041 100.052 93.0608 104.445C92.434 107.357 100.056 105.454 102.39 104.563C110.75 101.369 116.59 97.3418 121.816 92.9442C126.285 89.1863 130.617 85.3926 134.813 81.563C143.62 73.5108 151.743 65.3048 160.36 57.2104C161.495 56.1426 162.657 55.0821 163.845 54.029C164.474 53.4725 165.121 52.9214 165.763 52.3692C165.896 52.2533 166.649 51.6315 165.867 52.2754C166.163 52.0345 166.458 51.7935 166.753 51.5525C168.082 50.479 169.473 49.421 170.927 48.3784C171.568 47.9204 172.221 47.4658 172.885 47.0148C173.217 46.79 173.552 46.5666 173.891 46.3446C174.223 46.1275 175.808 45.1285 174.271 46.0811L160.891 47.0295C154.737 54.7593 147.161 62.2045 140.398 69.8109C136.983 73.651 133.564 77.489 130.231 81.3449C127.412 84.6117 124.917 87.9439 121.874 91.1612C120.39 92.7324 118.995 94.3226 117.908 95.9676C117.022 97.3376 116.136 99.0816 117.219 100.467C119.473 103.36 129.775 98.9099 131.638 97.8065C144.971 89.9029 155.949 81.2838 166.405 72.4791C171.348 68.3176 176.2 64.1308 181.165 59.9746C181.905 59.3571 180.443 60.5679 181.194 59.9524C181.548 59.6616 181.898 59.3697 182.253 59.0789C182.819 58.6145 183.389 58.1501 183.962 57.6857C185.247 56.6424 186.547 55.6041 187.864 54.5706C190.495 52.508 193.208 50.4706 196.005 48.4585C199.105 46.2329 202.325 44.0262 205.768 41.9143C205.547 42.0471 204.329 42.7921 205.582 42.0376C206.025 41.7752 206.451 41.5107 206.889 41.2494C207.766 40.7246 208.652 40.2047 209.546 39.6897C211.438 38.6057 213.38 37.5417 215.375 36.4977L201.645 37.4746C185.665 51.2111 168.038 64.6187 155.805 79.252C152.248 83.5021 149.117 87.8395 146.667 92.2645C145.861 93.7188 148.45 94.1424 150.968 93.8073C155.094 93.2582 158.464 91.7829 161.316 90.3297C173.603 84.0658 180.804 75.9704 188.075 68.2523C191.449 64.6693 195.181 61.1917 198.895 57.6815C203.102 53.7097 207.135 49.6989 211.517 45.7734C212.753 44.6637 214.031 43.5656 215.317 42.4686C216.066 41.83 214.576 43.0577 215.364 42.4317C215.738 42.1346 216.099 41.8332 216.471 41.536C217.14 41.0021 217.821 40.4713 218.513 39.9437C219.889 38.8983 221.317 37.8691 222.798 36.856C223.533 36.3544 224.295 35.8633 225.048 35.367C225.376 35.1562 226.182 34.5239 224.827 35.4966C225.289 35.1636 225.885 34.859 226.412 34.5482L211.706 36.4903C211.263 37.6411 210.326 38.7265 209.586 39.8372C209.861 39.4231 210.304 38.8888 209.808 39.5517C209.664 39.7371 209.522 39.9226 209.378 40.1091C209.028 40.5581 208.674 41.0063 208.315 41.4538C207.525 42.4374 206.721 43.4209 205.901 44.4045C201.776 49.3521 197.424 54.2566 193.146 59.1726C184.303 69.3314 174.818 79.546 168.372 90.1232C167.391 91.7323 166.45 93.3773 166.124 95.0508C165.841 96.5103 165.61 98.1522 168.928 98.8224C171.468 99.3345 175.855 97.8655 177.626 97.2164C186.385 94.0044 192.497 89.7343 198.326 85.3336C203.603 81.3502 208.49 77.2498 213.28 73.1304C221.759 65.8401 229.785 58.4518 238.023 51.1057C239.119 50.1267 240.248 49.1551 241.389 48.1866C240.268 49.1403 241.92 47.7651 242.23 47.5154C242.821 47.0446 243.423 46.5767 244.035 46.1117C245.326 45.1337 246.666 44.1716 248.072 43.2305C248.318 43.0661 248.564 42.9017 248.814 42.7384C249.064 42.5751 250.504 41.6424 249.388 42.3632C248.413 42.9955 249.275 42.4381 249.474 42.3211C250.003 42.0134 250.528 41.7057 251.064 41.4011L235.292 43.4835C232.856 47.8041 229.559 51.5219 225.15 55.8784C220.856 60.1232 216.11 64.2604 211.553 68.442C206.902 72.7036 202.44 77.0106 197.841 81.2848C193.146 85.6487 188.555 90.0399 184.6 94.5702C183.557 95.7642 182.873 97.3713 186.544 97.4725C190.555 97.5842 194.886 95.838 197.617 94.6777C210.711 89.1157 217.99 81.3196 224.722 73.7838C232.106 65.5113 240.16 57.3748 247.618 49.1171C252.202 44.0399 256.657 38.9373 260.983 33.8094C261.523 33.1645 262.533 32.0032 261.253 31.3519C260.031 30.7281 257.402 31.0548 256.082 31.3087C250.816 32.3215 245.295 34.6346 242.946 37.1384C235.897 44.6521 229.575 52.3133 223.157 59.9546C219.981 63.7335 216.843 67.5252 213.413 71.2546C210.116 74.8376 206.448 78.3468 203.06 81.914C199.087 86.0986 195.438 90.4003 193.155 94.8695C192.182 96.7738 196.111 96.9161 198.872 96.386C203.479 95.4997 208.282 93.6608 210.806 91.6122C220.575 83.6907 228.182 75.2981 235.804 66.8781C243.541 58.3285 252.025 49.9444 260.232 41.496C264.613 36.9856 270.346 32.3984 270.824 27.3327C270.964 25.8574 266.236 26.4064 264.858 26.6488C260.956 27.3338 257.163 28.8091 254.572 30.3318C241.112 38.2449 231.486 47.3204 222.557 56.5191C213.829 65.5092 205.078 74.5046 196.056 83.4283C192.052 87.3885 186.919 91.7945 187.439 96.3238C187.643 98.1026 193.405 97.1015 194.988 96.7369C199.309 95.7421 204.037 93.9306 206.455 91.9294C215.457 84.4747 222.743 76.6659 229.772 68.756C236.502 61.1854 243.944 53.7729 250.765 46.2234C254.809 41.7447 258.478 37.1732 261.289 32.4827C262.081 31.157 260.181 30.4551 257.597 30.5995C249.846 31.0295 243.28 34.1688 238.904 36.9951C236.588 38.4905 234.462 40.0691 232.42 41.6509C229.876 43.6225 227.482 45.6374 225.095 47.6576C224.094 48.5007 223.101 49.35 222.096 50.1941C221.633 50.584 221.173 50.9729 220.705 51.3607C221.813 50.4439 220.041 51.8876 219.753 52.1258C211.068 59.1052 201.594 65.8549 192.736 72.7806C187.384 76.9726 182.186 81.2205 177.456 85.5791C176.023 86.8974 176.242 88.7606 180.279 88.4434C185.151 88.0598 189.569 86.1924 192.696 84.4937C196.437 82.4619 199.045 80.1341 201.625 77.7493C203.747 75.7871 205.99 73.8502 208.125 71.8964C212.579 67.8118 216.888 63.6921 221.051 59.5372C229.289 51.3481 237.217 43.0714 244.458 34.6672C246.425 32.3847 248.223 30.0737 250.216 27.7953C252.24 25.4695 254.439 23.0668 254.842 20.524C254.935 19.9486 255.064 18.9327 253.214 18.8526C247.738 18.6134 242.585 20.5862 238.864 22.2744C235.494 23.8087 232.664 25.6087 230.274 27.5097C225.799 31.0716 222.109 34.8306 218.686 38.6443C216.139 41.4801 213.745 44.3476 211.44 47.2297C207.795 51.7812 203.158 56.164 199.074 60.629C191.988 68.383 185.388 76.3308 181.714 84.6328C181.143 85.9206 182.6 86.3853 185.078 86.3484C192.134 86.243 199.127 83.187 203.226 80.721C205.261 79.4725 207.093 78.1518 208.705 76.7703C209.101 76.4394 209.511 76.1117 209.89 75.7776C208.26 77.2182 210.479 75.3771 210.911 75.0399C217.233 70.1481 222.561 64.9971 227.212 59.7016C232.473 53.7139 238.492 47.7187 241.783 41.4011C243.048 38.9773 245.253 34.6504 240.477 32.7187C237.077 31.3488 230.374 34.0012 228.241 34.977C215.293 40.9016 204.783 47.8209 195.801 55.1998C191.454 58.7711 187.335 62.4005 183.267 66.0446C181.303 67.8034 179.343 69.5632 177.35 71.3136C176.452 72.1026 175.547 72.8905 174.635 73.6773C174.178 74.0704 173.72 74.4614 173.259 74.8534C172.996 75.0757 172.728 75.2991 172.464 75.5226C171.539 76.3076 172.938 75.1411 172.334 75.6343C167.683 79.4333 162.765 83.148 157.162 86.6477L173.82 82.7981C173.714 82.5038 173.644 82.2068 173.611 81.9087C173.592 81.7243 173.689 80.9455 173.576 81.4872C173.738 80.7555 174.024 80.0313 174.431 79.3216C174.628 78.9664 174.874 78.6187 175.095 78.2677C175.195 78.1097 175.649 77.5828 175.06 78.3004C175.186 78.1466 175.306 77.9906 175.432 77.8368C176.079 77.0495 176.794 76.275 177.549 75.5099C180.266 72.7489 183.592 70.1355 186.367 67.3955C189.91 63.8863 193.13 60.2876 196.554 56.752C200.29 52.8951 203.924 49.0128 206.962 45.0199C210.492 40.3916 213.384 35.6757 214.423 30.7618C214.613 29.8639 214.498 29.4825 212.784 29.0757C209.365 28.2727 205.142 28.9914 201.966 29.7227C196.817 30.9083 192.475 32.6871 188.531 34.6356C181.887 37.9161 176.572 41.7594 171.789 45.6891C168.051 48.7641 164.579 51.8971 161.181 55.0585C155.444 60.4024 149.108 65.6062 143.295 70.9343C139.342 74.5594 135.571 78.2309 131.502 81.8275C127.505 85.361 123.53 88.9661 121.697 92.9158C120.536 95.4133 126.867 94.4438 129.295 93.801C136.113 91.9958 140.967 89.1916 145.328 86.1903C148.548 83.9773 151.734 81.7474 154.801 79.4807C161.024 74.8808 166.913 70.1829 172.832 65.4945C184.97 55.8795 197.823 46.4752 210.054 36.8866C212.842 34.6999 215.681 32.5248 218.42 30.3245C221.077 28.1894 224.621 25.6223 224.966 23.0679C225.05 22.4482 225.252 21.9087 223.932 21.5567C222.674 21.2216 220.94 21.4271 219.684 21.6621C215.255 22.5147 211.309 24.2039 208.654 26.0734C193.965 36.4187 180.926 47.2898 169.045 58.4171C163.325 63.7725 156.757 68.9552 151.993 74.5288C150.625 76.1348 149.203 77.8093 148.556 79.526C148.151 80.6009 147.635 82.3344 149.664 83.1733C153.67 84.8225 161.569 81.0129 163.702 79.9064C189.857 66.3481 211.83 51.0319 235.168 36.3902C238.754 34.1403 242.919 31.9389 245.577 29.4055C244.567 30.3708 245.822 28.984 246.358 28.9092L245.946 29.1684C245.378 29.5197 245.398 29.5172 246.006 29.1611L246.493 28.9029L245.34 29.4793C246.792 28.8101 244.775 29.7175 244.567 29.7501C244.835 29.708 246.722 29.0641 245.134 29.5109C243.787 29.8914 244.912 29.5784 245.176 29.5109C245.825 29.3381 246.465 29.1695 247.129 29.0114L239.673 28.1431C237.445 32.5691 234.278 36.3059 230.418 40.5264C226.698 44.5963 223.055 48.6819 219.346 52.7507C212.135 60.6754 203.268 68.8266 203.813 77.6934C203.86 78.4859 205.89 78.6155 207.068 78.5481C209.389 78.4142 211.719 77.705 213.517 77.058C227.911 71.9238 238.526 64.9676 247.813 57.73C251.883 54.5569 255.763 51.328 259.944 48.1877C264.889 44.473 270.237 40.8858 275.364 37.228C281.578 32.7946 287.734 28.3697 293.235 23.7234C294.564 22.5905 294.121 21.1879 290.919 21.3734C286.868 21.6073 283.389 23.2976 280.732 24.6128C268.953 30.4551 261.089 37.9341 253.99 45.2075C246.606 52.7697 238.913 60.2559 231.486 67.8086C226.596 72.7791 221.889 77.79 217.366 82.8413L222.351 79.76C215.984 82.8782 208.178 87.3601 213.891 91.7734C215.151 92.7451 219.547 91.6322 220.756 91.3076C224.187 90.3898 226.922 89.0398 229.233 87.5466C240.589 80.2131 249.667 72.1862 258.757 64.1909C260.928 62.2835 263.098 60.3761 265.308 58.4792C266.331 57.6003 267.364 56.7222 268.408 55.8447C269.294 55.0965 268.796 55.5201 268.599 55.6834C268.898 55.4358 269.199 55.1892 269.5 54.9458C270.036 54.5053 270.563 54.0616 271.101 53.6222C270.612 54.0226 271.238 53.5168 271.391 53.3904C276.611 49.2215 281.93 45.081 287.232 40.9353C293.233 36.2458 299.259 31.5616 305.14 26.8374C306.516 25.733 308.867 23.1343 303.907 23.4209C299.314 23.6865 293.942 25.9986 291.676 27.808C276.283 40.0649 263.142 52.8466 251.582 66.0161C250.854 66.8444 250.019 67.9035 251.917 68.481C253.759 69.0427 256.902 68.3208 258.474 67.8487C274.077 63.1234 285.314 56.3621 294.626 48.8621C298.554 45.7007 302.25 42.4728 306.325 39.3525C308.332 37.815 310.464 36.3259 312.683 34.8569C313.399 34.4038 313.244 34.4972 312.218 35.1372C312.506 34.9612 312.794 34.7863 313.086 34.6103C313.668 34.2636 314.262 33.9201 314.858 33.5829C315.453 33.2456 316.076 32.9147 316.702 32.5891C318.972 31.4109 315.414 33.1961 316.924 32.4742L305.333 32.3783C297.436 41.3094 288.421 49.9939 279.835 58.7775C278.013 60.6427 276.303 62.5375 274.412 64.3869C273.905 64.8822 273.373 65.3722 272.837 65.8622C272.563 66.1141 272.173 66.3734 271.978 66.641L272.355 66.3322C273.169 65.6585 272.853 65.9209 271.407 67.1194C271.185 67.3207 270.964 67.5241 270.742 67.7254C267.731 70.4843 264.763 73.2685 262.438 76.1791C260.102 79.1087 256.95 82.9551 259.187 86.1081C260.223 87.5687 263.722 86.9902 265.948 86.478C270.14 85.5117 273.477 83.9331 276.217 82.1711C296.59 69.109 311.456 54.5074 326.765 40.0406C328.021 38.854 327.872 37.1774 324.227 37.4651C319.858 37.8087 315.859 39.4863 313.062 41.0154C305.216 45.3055 299.121 50.2184 293.641 55.2493C291.089 57.5909 288.68 59.9662 286.262 62.3393L284.802 63.7652C284.545 64.0149 283.589 65.4017 282.993 65.5166L283.547 65.0856L282.176 66.2226C281.866 66.4987 281.593 66.7854 281.301 67.0657C280.756 67.5926 280.214 68.1121 279.64 68.6275C279.29 68.9436 278.927 69.2503 278.56 69.559C278.117 69.9384 276.885 70.9458 278.925 69.2587L277.944 70.0712C276.051 71.6403 274.153 73.2094 272.312 74.7933C268.926 77.7061 265.614 80.6704 263.076 83.776C261.765 85.382 260.376 87.0703 259.944 88.7954C259.634 90.0231 259.413 91.6923 261.63 92.6102C263.802 93.508 267.347 92.626 269.367 92.0833C273.265 91.0389 276.252 89.5162 278.923 87.8427C294.683 77.9611 305.656 66.0698 313.513 54.2914C314.541 52.7507 311.476 52.3281 308.972 52.6611C304.786 53.2186 300.778 54.7687 298.043 56.3347C286.113 63.2035 278.808 71.3052 270.505 79.2025C269.648 80.0181 268.787 80.8338 267.866 81.6336C266.433 82.8771 268.69 80.9887 267.662 81.8086C267.248 82.1384 266.843 82.4693 266.431 82.7991C264.174 84.6075 261.873 86.4074 259.878 88.2864C256.459 91.5068 253.013 95.5524 255.006 99.2144C256.627 102.183 267.155 98.1722 268.929 97.4019C282.457 91.5332 292.814 84.3514 302.417 76.9948C306.757 73.6689 311.018 70.3167 315.622 67.071C316.822 66.2279 318.047 65.3909 319.296 64.5597C319.765 64.2499 320.238 63.9419 320.715 63.6355C321.032 63.4311 321.353 63.2277 321.674 63.0254C320.57 63.7104 320.422 63.8052 321.231 63.3099C322.56 62.5174 323.889 61.7292 325.281 60.9578C325.977 60.5742 326.683 60.1948 327.399 59.8197C327.992 59.5098 330.68 58.1863 327.746 59.6205L314.136 61.392C314.007 62.881 312.807 65.1615 311.556 66.8718C312.129 66.0825 310.993 67.5494 310.878 67.6853C310.469 68.1754 310.039 68.6622 309.603 69.147C308.774 70.0638 307.911 70.9733 307.045 71.8816C303.302 75.8145 299.394 79.8622 298.224 84.1828C298.072 84.7477 298.041 85.9553 299.983 85.9848C307.835 86.105 314.743 83.7276 320.254 81.2732C325.348 79.0107 329.589 76.3509 333.517 73.6288C334.793 72.7458 336.053 71.8574 337.335 70.9764C337.889 70.596 339.073 69.8562 336.498 71.4738C337.346 70.9469 338.219 70.42 339.047 69.8805C339.786 69.3999 340.482 68.9057 341.182 68.4125C341.952 67.8676 342.714 67.3218 343.502 66.7833C343.839 66.5535 344.18 66.3238 344.528 66.0972C346.104 65.0666 343.642 66.5978 344.384 66.1837C344.838 65.935 345.287 65.682 345.735 65.4312C346.638 64.9243 343.252 66.5757 345.292 65.6789C346.049 65.3564 345.606 65.5352 343.963 66.2153C342.339 66.6958 341.918 66.8254 342.701 66.6041C343.387 66.4159 343.03 66.4917 341.629 66.8317C341.982 66.7591 342.345 66.6968 342.714 66.6452L337.038 65.994C337.196 66.8855 336.903 67.6801 336.746 68.5969C336.644 69.1849 336.465 69.8404 336.598 70.439C336.764 71.1935 337.235 71.4833 338.549 71.8184C341.144 72.4791 344.001 72.5224 346.904 72.3738C353.488 72.0365 359.914 70.5907 365.858 69.2819C368.719 68.6496 371.556 67.993 374.444 67.385C375.646 67.1331 376.86 66.8897 378.093 66.6747C378.233 66.6505 379.781 66.3586 379.841 66.3955C379.792 66.3618 377.577 66.64 379.694 66.4471C380.751 66.3502 381.831 66.2838 382.901 66.2364C383.328 66.2174 385.115 66.1815 384.737 66.1773C384.221 66.1773 385.844 66.2258 386.161 66.2479C386.877 66.2961 387.583 66.3758 388.269 66.4861C388.546 66.5314 388.809 66.5915 389.082 66.6368C389.804 66.7685 388.326 66.3976 388.947 66.5957C389.329 66.7155 389.699 66.8446 390.054 66.9825C390.849 67.3129 391.565 67.684 392.189 68.089C395.608 70.2219 398.327 72.1735 403.423 73.5151C410.445 75.3645 418.393 75.5373 426.252 75.1474C434.112 74.7575 441.789 73.7585 449.436 72.829C457.597 71.8427 465.748 71.2346 474.103 70.7467C497.314 69.3915 520.673 68.6622 543.834 67.1058C549.37 66.7348 554.997 64.2425 557.859 62.0748C559.497 60.8334 562.193 57.77 556.444 58.1557C536.232 59.5141 515.878 60.2749 495.598 61.354C486.587 61.8335 477.439 62.235 468.581 63.1866C461.115 63.9886 453.779 65.0445 446.263 65.7411C438.893 66.4239 432.679 66.8391 425.612 65.9413C419.815 65.2036 415.767 63.5555 412.283 61.2307C409.477 59.356 406.463 57.7795 401.317 57.5329C394.529 57.2094 388.014 58.1072 381.9 59.4213C378.689 60.1116 375.533 60.8608 372.335 61.5637C370.69 61.9262 369.034 62.2782 367.353 62.6028C366.589 62.7514 365.803 62.8747 365.043 63.0317C363.679 63.3141 365.191 63.0591 365.444 63.0169C364.494 63.1729 363.451 63.2277 362.525 63.4206C361.599 63.6134 363.289 63.3088 363.24 63.331C363.03 63.4237 361.923 63.4859 361.639 63.5143C360.964 63.5828 360.282 63.6408 359.593 63.6798C358.904 63.7188 357.454 63.6893 358.929 63.7472C358.273 63.7327 357.62 63.6975 356.973 63.6418C356.466 63.5902 355.629 63.5365 355.226 63.3668C356.037 63.7009 355.797 63.5038 355.937 63.1561C356.486 61.8124 356.68 60.4412 356.513 59.0746C356.311 57.672 352.427 58.1852 350.835 58.4244C343.153 59.5762 336.569 62.6713 331.737 65.6241C329.598 66.9319 327.602 68.2755 325.629 69.6402C324.98 70.0891 324.258 70.5233 323.636 70.9806C326.056 69.1891 323.45 71.086 322.697 71.5623C322.427 71.7341 322.157 71.9059 321.891 72.0798C320.677 72.8712 319.53 73.6868 318.348 74.4909C317.608 74.9957 316.866 75.5004 316.109 75.9989C315.732 76.2476 315.259 76.5005 314.929 76.7629L316.009 76.0927C315.738 76.2613 315.461 76.4278 315.179 76.5922C314.424 77.038 313.589 77.4531 312.834 77.8968C311.835 78.4838 315.234 76.7966 313.671 77.4753C313.228 77.6692 312.761 77.8578 312.331 78.0591C315.174 76.7271 314.018 77.3309 313.153 77.6787C314.945 77.1363 315.433 76.9765 314.616 77.1992C313.887 77.391 314.325 77.2937 315.93 76.9073C315.316 77.0358 313.728 77.2065 316.288 76.8936C315.814 76.9515 314.395 76.9294 316.262 76.9589L318.018 78.7609C318.295 77.7437 318.715 76.7364 319.276 75.746C319.561 75.2444 319.887 74.7501 320.219 74.2559C320.41 73.9735 320.589 73.7532 320.272 74.1631C320.463 73.9165 320.66 73.671 320.859 73.4255C322.531 71.3779 324.506 69.3915 326.395 67.3892C330.399 63.1592 333.823 58.9008 334.272 54.225C334.39 53.0184 330.902 53.2186 329.496 53.4062C326.236 53.8393 323.02 54.8488 320.662 55.9964C307.836 62.2414 297.928 69.4252 288.275 76.8082C283.921 80.1362 279.545 83.4609 274.726 86.6424C274.1 87.0565 273.455 87.4654 272.822 87.8785C272.019 88.3844 272.179 88.2864 273.302 87.5845C272.975 87.7858 272.638 87.9871 272.315 88.1873C271.154 88.8863 269.965 89.5738 268.747 90.2496C268.052 90.6353 267.345 91.0164 266.626 91.393C265.915 91.7661 263.155 92.8452 266.322 91.5753C264.701 92.2266 263.266 93.0148 261.689 93.6956L275.612 91.883C275.241 91.1995 275.071 90.4949 275.105 89.7891C275.067 90.4699 275.306 89.2264 275.36 89.0915C275.488 88.7669 275.645 88.4455 275.825 88.1262C275.938 87.926 276.974 86.5455 276.155 87.5487C276.425 87.2199 276.697 86.8922 276.989 86.5686C277.689 85.7972 278.469 85.0427 279.288 84.2977C279.756 83.8719 280.237 83.4504 280.732 83.0331C280.982 82.8223 281.385 82.247 281.839 82.1036C281.007 82.7654 280.889 82.8529 281.487 82.366C281.723 82.17 281.962 81.974 282.202 81.778C282.549 81.497 282.896 81.2121 283.243 80.9234C285.303 79.2246 287.26 77.5237 289.063 75.7597C292.518 72.378 295.707 68.9331 299.239 65.5703C300.125 64.7273 301.039 63.8888 301.983 63.0549C302.452 62.6418 302.93 62.2305 303.418 61.8209C302.177 62.8642 303.734 61.5816 303.996 61.3761C305.008 60.5826 306.059 59.8018 307.167 59.0388C307.685 58.6816 308.199 58.2116 308.865 57.9154C306.511 58.964 309.058 57.8227 309.565 57.5297L294.841 58.5772C294.176 59.4256 293.565 60.2802 292.927 61.1306C293.415 60.4815 292.498 61.6923 292.498 61.6902C292.248 62.0169 291.997 62.3428 291.743 62.6681C290.668 64.0486 289.557 65.4225 288.41 66.7896C286.138 69.4905 283.711 72.1641 281.08 74.7902C279.795 76.073 278.46 77.3436 277.074 78.6018C276.315 79.291 275.537 79.9756 274.742 80.6557C274.611 80.7674 273.393 81.7843 274.108 81.1963C274.824 80.6083 273.444 81.7306 273.444 81.7232C270.341 84.2242 266.94 86.6386 263.257 88.9545L280.548 84.1902C280.369 84.1154 279.964 83.9615 279.91 83.8403C280.046 84.1417 280.132 84.3672 280.037 83.8951C280.001 83.7265 279.939 83.5526 279.89 83.384C279.857 83.2681 279.926 83.1406 279.89 83.0268C279.793 82.7823 279.583 83.9057 279.89 83.2565C280.112 82.7496 280.263 82.2385 280.555 81.7338C280.725 81.4324 280.918 81.1331 281.122 80.8359C281.923 79.6609 280.637 81.3797 281.31 80.5809C283.786 77.6407 286.782 74.8207 289.98 72.045C290.737 71.3874 291.504 70.7326 292.281 70.0807C292.602 69.8088 292.927 69.538 293.251 69.2671C294.528 68.1964 292.015 70.2883 293.251 69.2671C294.723 68.051 296.225 66.8434 297.647 65.6125C301.854 61.9779 305.103 58.0798 308.828 54.3293C311.21 51.9308 313.7 49.5629 316.428 47.2466C315.462 48.0686 316.18 47.45 316.392 47.2835C316.818 46.9494 317.234 46.6122 317.664 46.2792C318.375 45.7312 319.107 45.1892 319.858 44.6532C320.673 44.0725 321.539 43.513 322.385 42.9428C323.271 42.3432 321.107 43.6942 322.084 43.1294C322.664 42.7943 323.229 42.4528 323.815 42.1209L310.112 43.0956C302.995 50.191 295.372 57.1988 287.303 64.0592C286.771 64.5113 286.233 64.9633 285.697 65.4154C284.674 66.2806 286.253 64.9665 285.108 65.9065C284.018 66.8022 282.919 67.6952 281.808 68.5853C279.741 70.2314 277.629 71.8637 275.47 73.4824C271.015 76.8124 266.303 80.0599 261.335 83.2249L278.365 79.2879C278.054 78.832 277.866 78.3593 277.804 77.881C277.782 77.6997 277.873 76.7471 277.731 77.5533C277.789 77.2231 277.874 76.895 277.986 76.569C278.205 75.9483 278.495 75.3338 278.854 74.728C279.071 74.3571 279.307 73.9889 279.561 73.6236C279.656 73.4824 279.769 73.3433 279.86 73.2021C280.152 72.7342 279.279 73.8986 279.882 73.1873C282.318 70.3114 285.154 67.5441 288.151 64.7937C295.574 57.9829 301.739 50.8338 308.44 43.8554C313.09 39.0142 317.741 34.1698 322.095 29.2675C323.038 28.2052 323.621 26.7721 320.363 26.6825C316.922 26.5876 312.747 28.1083 310.502 29.1716C298.789 34.721 290.682 41.3442 282.455 48.0918C280.641 49.5787 278.803 51.0593 276.877 52.5178C275.861 53.2857 274.817 54.0451 273.745 54.7961C272.797 55.4558 271.019 56.2494 270.443 56.987C271.487 56.3407 271.641 56.242 270.906 56.6909C270.616 56.8658 270.322 57.0386 270.02 57.2115C269.578 57.4686 269.128 57.7236 268.672 57.9765C268.067 58.3127 267.436 58.6373 266.818 58.9671C265.377 59.7375 269.015 57.9407 266.597 59.0651C265.937 59.3729 265.263 59.6743 264.575 59.9693C262.064 61.0421 266.085 59.4424 264.365 60.0663C263.627 60.335 262.901 60.609 262.15 60.8682C261.772 60.9975 261.39 61.1246 261.003 61.2497C262.45 60.8022 262.667 60.7319 261.654 61.0389L268.546 62.8673C274.082 56.6013 279.775 50.3585 285.903 44.2148C288.887 41.2255 291.987 38.2628 295.204 35.3269C296.816 33.8607 298.463 32.4026 300.144 30.9525C301.061 30.1622 301.99 29.3743 302.93 28.5888C302.215 29.1863 303.626 28.0208 303.657 27.9945C304.142 27.6014 304.633 27.2104 305.125 26.8195L291.661 27.79C290.75 28.5224 289.867 29.2654 288.955 29.9936C289.07 29.9019 289.409 29.6131 288.875 30.041L287.854 30.8598C286.578 31.882 285.298 32.9031 284.014 33.9232C281.357 36.0309 278.699 38.1385 276.042 40.2461C270.798 44.3911 265.566 48.5361 260.345 52.6811C255.312 56.6951 250.336 60.7196 245.541 64.8C243.203 66.7917 240.88 68.7876 238.539 70.7783C237.477 71.6783 236.412 72.5775 235.343 73.4761C235.153 73.6362 233.782 74.7723 234.473 74.2021C233.778 74.7754 233.08 75.3473 232.38 75.9177C227.065 80.2299 221.529 84.4905 215.34 88.5298L230.682 84.3019C230.268 84.014 229.968 83.6926 229.796 83.3535C229.745 83.2481 229.575 82.2322 229.628 82.5483C229.539 82.0868 229.588 82.2248 229.559 82.4893L229.869 82.1647L229.448 82.5072C229.745 81.8971 229.964 82.2427 229.351 82.5494C228.217 83.0826 228.309 83.0296 229.625 82.3903C230.657 81.9198 231.573 81.3952 232.356 80.8264C235.421 78.508 237.25 75.6754 239.562 73.1641C243.964 68.3784 248.535 63.6292 253.272 58.9166C257.243 54.969 261.295 51.0488 265.051 47.0538C268.661 43.2137 272.25 39.3609 276.33 35.6304C276.941 35.0684 277.565 34.5106 278.201 33.957C278.453 33.7367 278.712 33.5175 278.965 33.2973C279.767 32.6018 278.673 33.5207 279.186 33.1034C280.431 32.0959 281.702 31.1011 283.055 30.1211C283.681 29.6701 284.322 29.2236 284.979 28.7817C285.27 28.5878 285.56 28.396 285.865 28.2042C287.026 27.4507 286.359 28.181 285.843 28.2042C286.335 28.181 287.772 27.0745 288.148 26.8658C288.921 26.439 289.721 26.0228 290.538 25.616L278.035 26.5054C277.731 26.7657 277.428 27.026 277.118 27.2842C277.222 27.1978 277.579 26.9059 277.076 27.319C276.527 27.7721 275.969 28.2225 275.404 28.67C274.27 29.5699 273.115 30.4629 271.938 31.3488C269.502 33.194 266.964 35.0129 264.396 36.8202C259.327 40.3831 254.056 43.8807 249.051 47.4637C240.74 53.4135 233.685 59.7512 224.82 65.5271C224.506 65.7316 224.18 65.9329 223.87 66.1384C222.984 66.7211 225.013 65.4502 224.091 66.0119C223.438 66.4049 222.789 66.8012 222.123 67.189C220.794 67.9583 219.425 68.7086 218.015 69.4399C217.72 69.5917 216.533 70.1966 217.729 69.5907C218.925 68.9847 217.674 69.6085 217.423 69.7255C216.694 70.0684 215.956 70.4035 215.209 70.7309C214.928 70.8531 214.64 70.9722 214.356 71.0955C212.445 71.9248 215.851 70.5422 214.66 70.9901C213.774 71.3231 212.888 71.6593 211.969 71.9796L221.673 71.3474C221.607 69.3377 222.242 67.3639 223.212 65.4102C224.148 63.5624 225.331 61.7451 226.755 59.9693C229.82 56.1081 233.576 52.3819 236.96 48.5881C244.372 40.263 253.283 32.0232 257.745 23.1912C259.008 20.6937 252.572 21.778 250.289 22.3229C244.857 23.6191 240.149 25.5212 236.034 27.6277C234.302 28.518 232.733 29.477 231.344 30.4941C230.476 31.1264 229.749 31.8061 228.937 32.4574C228.848 32.5301 228.153 32.9643 228.715 32.6292C229.424 32.2076 227.79 33.1371 227.644 33.2288C221.379 37.1342 215.144 41.0502 208.937 44.9767C203.007 48.7262 197.132 52.4946 191.221 56.2525C188.279 58.1269 185.32 59.996 182.343 61.8599C181.577 62.3415 182.536 61.7408 182.631 61.6807C182.246 61.921 181.86 62.1606 181.473 62.3994C180.699 62.8779 179.924 63.3556 179.146 63.8326C177.59 64.7859 176.023 65.7344 174.446 66.6779C167.553 70.812 160.42 74.8565 152.915 78.743L166.952 75.4762C166.217 75.1716 166.952 75.1674 166.873 75.6332C166.893 75.5004 166.651 75.3265 166.651 75.1853C166.651 75.1643 166.585 74.6321 166.614 74.6342C167.2 74.6711 166.352 75.4077 166.587 74.9925C166.685 74.8207 166.7 74.6279 166.769 74.4519C167.012 73.8779 167.327 73.3113 167.712 72.7552C167.801 72.6235 167.9 72.4928 167.987 72.3611C168.399 71.7341 167.754 72.6878 167.741 72.6773C167.619 72.6151 168.627 71.5918 168.693 71.5033C171.226 68.5136 174.325 65.6315 177.502 62.7862C185.503 55.6202 193.225 48.3847 201.641 41.3221C202.542 40.5623 200.518 42.2399 202.072 40.9627C202.557 40.5654 203.04 40.1681 203.527 39.7708C204.338 39.1098 205.154 38.4501 205.977 37.7918C207.787 36.3446 209.624 34.9044 211.489 33.4712C215.215 30.6111 219.061 27.7869 223.026 24.9985L206.714 28.0092C206.642 28.3409 206.532 28.6705 206.386 28.9966C206.165 29.6184 206.406 29.0356 206.524 28.8913C206.371 29.0862 206.2 29.2801 206.025 29.4719C205.649 29.8819 205.235 30.2823 204.801 30.6786C204.579 30.8841 204.338 31.0874 204.105 31.2919C202.914 32.3404 205.188 30.4573 203.884 31.47C201.653 33.194 199.443 34.9226 197.254 36.6558C191.461 41.223 185.517 45.7439 179.538 50.2595C167.993 58.9935 156.95 67.8687 145.494 76.6291C142.292 79.0792 139.025 81.5093 135.644 83.9004C134.093 85.0048 132.479 86.0934 130.889 87.1883C130.603 87.3864 130.32 87.5856 130.032 87.7837C129.815 87.9354 129.594 88.0861 129.368 88.2358C128.88 88.5583 129.082 88.4406 129.972 87.8827C129.828 88.0819 129.175 88.2737 128.978 88.4455C129.554 87.9481 135.143 86.2673 132.503 86.9702L140.101 87.8553C141.443 84.9753 144.393 82.2975 147.66 79.4038C150.926 76.51 154.002 73.5951 157.144 70.6834C163.655 64.6493 170.507 58.709 177.283 52.7423C179.695 50.6178 181.896 48.4395 184.323 46.314C184.722 45.9627 185.124 45.6153 185.53 45.2718C185.918 44.9398 187.813 43.4149 186.053 44.8165C187.06 44.0146 188.035 43.2031 189.064 42.4064C190.094 41.6098 191.164 40.8141 192.264 40.0343C192.756 39.683 193.256 39.3374 193.764 38.9974C194.417 38.5558 197.227 37.0657 194.428 38.5242C195.69 37.8656 196.937 37.1405 198.113 36.4461C195.254 38.1322 197.112 36.9551 198.035 36.5325C198.85 36.1605 200.157 35.916 196.795 37.0141C197.161 36.8975 197.512 36.7705 197.845 36.6337C198.797 36.2353 195.048 37.463 196.454 37.0689C197.809 36.6895 197.562 37.1353 195.622 37.2291C195.87 37.195 196.11 37.1491 196.339 37.0921C197.825 36.8381 194.302 37.3102 195.566 37.1974C197.349 37.0415 194.514 36.9867 195.788 37.1637C196.41 37.2522 196.988 37.2986 197.584 37.4388L195.943 35.7527C194.107 44.3739 187.37 51.6737 179.85 59.4529C176.369 63.0528 173.029 66.6895 169.488 70.2756C166.742 73.0566 163.354 75.6849 160.59 78.4638C157.324 81.7474 153.796 85.6782 155.076 89.3981C155.596 90.9156 159.988 90.1516 161.689 89.7596C165.819 88.8112 168.985 87.2642 171.734 85.5443C181.699 79.3268 189.631 72.4359 197.351 65.5524C201.167 62.1497 204.931 58.7342 208.9 55.3705C209.098 55.2026 209.296 55.035 209.496 54.8678C209.646 54.7403 210.497 54.0247 209.859 54.5601C209.265 55.0575 209.936 54.4958 210.027 54.422C210.297 54.2007 210.565 53.9794 210.838 53.7581C211.856 52.9298 212.89 52.1064 213.938 51.288C216.042 49.6577 218.225 48.0496 220.517 46.4773C221.737 45.6343 223.011 44.8218 224.282 43.9977C225.21 43.3918 222.977 44.7881 223.954 44.199C224.368 43.9492 224.776 43.6963 225.192 43.4476C225.861 43.0493 226.538 42.6541 227.223 42.2621C228.597 41.4766 230.011 40.7077 231.464 39.9553C231.827 39.7666 232.199 39.5801 232.571 39.3925C234.121 38.5895 231.167 40.0554 232.29 39.5337C233.16 39.128 234.017 38.716 234.896 38.3145L222.661 40.5728C222.938 40.6929 223.198 40.8213 223.44 40.9574C223.934 41.2167 223.839 41.4506 223.589 40.9806C223.85 41.4696 224.138 41.9154 224.213 42.4254C224.253 42.6794 224.213 42.9344 224.249 43.1873C224.308 43.6668 224.432 42.5772 224.207 43.4213C224.032 44.0757 223.823 44.7248 223.542 45.3708C222.894 46.7893 222.081 48.1896 221.106 49.565C220.863 49.9159 220.608 50.2658 220.355 50.6188C219.877 51.2859 220.415 50.5408 220.493 50.4407C220.358 50.6146 220.227 50.7895 220.092 50.9676C219.494 51.7404 218.874 52.5073 218.232 53.2681C212.961 59.5615 207.5 65.9213 200.959 71.9333C200.246 72.5902 199.515 73.2421 198.768 73.8891C198.469 74.1484 198.166 74.4055 197.865 74.6626C198.562 74.0662 197.885 74.649 197.537 74.9293C195.974 76.1938 194.322 77.4279 192.798 78.703C192.61 78.8611 192.422 79.0191 192.236 79.1761C192.05 79.3332 191.259 80.0951 191.983 79.3932C192.647 78.7388 192.052 79.3342 191.833 79.4986C191.549 79.7094 191.25 79.9201 190.98 80.1309C190.037 80.8738 191.562 79.7905 191.673 79.7283C191.049 80.0719 191.158 80.0294 192.001 79.6008C192.702 79.2322 193.489 78.9024 194.346 78.6176C195.216 78.3183 196.237 78.0022 197.24 77.8283C198.372 77.6323 198.359 77.7166 197.158 77.7356L200.522 79.4522C203.441 72.7753 207.908 66.9171 213.302 60.7512C217.964 55.4242 223.436 50.2405 227.891 44.8755C232.413 39.4294 236.712 33.9485 242.233 28.7048C243.152 27.8322 244.312 26.9849 245.14 26.0945C243.736 27.6025 244.919 26.281 245.419 25.9016C245.836 25.5855 246.263 25.2693 246.71 24.9532C246.916 24.8099 247.136 24.6708 247.342 24.5317C248.292 23.8688 245.127 25.772 246.613 24.9922C246.748 24.9205 246.89 24.8425 247.016 24.7666C248.382 23.9457 244.613 25.89 245.789 25.3694C246.965 24.8488 242.864 26.4696 244.106 26.0333C245.213 25.6445 241.21 26.8764 242.417 26.5602C240.525 27.0576 239.316 27.2062 238.12 27.1556L236.493 25.4843C236.338 26.4316 235.967 27.368 235.385 28.2769C234.856 29.12 234.5 29.474 233.643 30.4783C231.982 32.4015 230.37 34.3332 228.693 36.2532C225.11 40.3631 221.321 44.4287 217.43 48.4775C209.653 56.5666 201.559 64.5892 192.927 72.4802C190.557 74.6468 188.145 76.8026 185.689 78.9474C184.536 79.9549 183.386 80.9613 182.27 81.9782C182.007 82.2185 181.721 82.4546 181.469 82.699C180.793 83.3556 182.421 82.0225 181.566 82.6242C181.329 82.7897 181.105 82.9646 180.884 83.1353C179.391 84.2808 182.605 82.2006 180.769 83.1827L196.009 82.0984C197.201 81.0256 198.401 79.9539 199.636 78.8916C200.257 78.3647 200.89 77.8315 201.514 77.3004C202.13 76.7847 202.144 76.771 201.556 77.2593C201.875 76.9958 202.195 76.7327 202.515 76.4699C204.923 74.4979 207.389 72.542 209.912 70.6023C215.111 66.5841 220.477 62.6165 225.777 58.6278C231.362 54.4252 236.787 50.1899 241.943 45.863C243.028 44.9503 244.108 44.0367 245.202 43.123C243.956 44.16 245.944 42.5213 246.163 42.3453C246.8 41.8311 247.445 41.3182 248.099 40.8068C249.405 39.7898 250.756 38.7845 252.158 37.7981C252.8 37.3492 253.487 36.9118 254.098 36.4513C254.872 35.9223 254.621 36.0607 253.345 36.8666C242.838 39.206 239.851 40.2275 244.383 39.931L240.694 38.0479C240.127 38.9851 239.527 39.9163 238.893 40.8415C238.598 41.2708 238.297 41.6979 237.99 42.123C237.842 42.3337 237.686 42.5466 237.522 42.7616C237.846 42.3285 237.476 42.8143 237.35 42.9723C235.853 44.8819 234.266 46.7741 232.588 48.6492C229.284 52.3376 225.699 55.9754 222.16 59.6184C215.074 66.9097 208.805 74.3655 201.824 81.6768C199.907 83.6844 197.931 85.6813 195.861 87.6509C194.792 88.6703 193.696 89.6827 192.572 90.688C191.971 91.2234 191.363 91.7569 190.747 92.2887C190.437 92.5554 188.644 94.0486 189.84 93.0654L208.855 88.6699C208.838 88.5024 208.856 88.3254 208.827 88.1589C208.946 88.8206 208.749 88.475 208.827 88.2453C208.977 87.8522 209.09 87.4591 209.27 87.0692C209.473 86.6477 209.713 86.2367 209.985 85.8268C210.124 85.616 210.286 85.4052 210.428 85.1945C209.732 86.2704 210.461 85.1745 210.605 84.9995C211.934 83.3882 213.484 81.8244 215.034 80.2637C219.23 76.08 223.155 71.8332 227.313 67.639C235.596 59.2928 243.138 50.7485 252.087 42.5582C253.345 41.4053 254.641 40.263 255.976 39.1312C256.217 38.9257 256.933 38.2586 255.854 39.2281C256.186 38.9289 256.574 38.6422 256.935 38.3514C257.589 37.8301 258.253 37.3119 258.928 36.797C260.257 35.7776 261.643 34.7747 263.087 33.7884C263.877 33.2478 264.692 32.7156 265.523 32.1844C266.353 31.6533 265.481 31.7798 265.08 32.4521C265.253 32.1539 266.223 31.7661 266.615 31.5353L250.362 34.5355C250.391 34.2404 250.121 35.2247 250.059 35.3722C249.864 35.8296 249.594 36.2743 249.328 36.7232C249.259 36.837 248.768 37.483 249.266 36.8455C249.115 37.0383 248.954 37.2291 248.792 37.4198C248.363 37.9256 247.906 38.4251 247.428 38.9225C245.656 40.7667 243.84 42.5961 242.064 44.4371C238.058 48.5934 233.973 52.7328 229.931 56.8816C222.311 64.702 215.428 72.6667 208.007 80.5282C205.985 82.6695 203.904 84.7982 201.709 86.9006C200.553 88.0092 199.364 89.1097 198.142 90.2022C197.567 90.7143 196.986 91.2237 196.397 91.7302C196.175 91.9199 195.954 92.1089 195.732 92.2972C194.255 93.5554 196.8 91.4309 195.276 92.6734L212.928 89.415C213.382 88.514 213.885 87.6235 214.449 86.7341C214.715 86.3203 214.99 85.9079 215.275 85.4969C215.399 85.3188 216.221 84.2176 215.882 84.6539C217.279 82.8508 218.836 81.0709 220.468 79.3184C223.724 75.8503 227.309 72.4033 230.589 68.8951C237.483 61.5258 243.333 53.931 249.669 46.4489C253.272 42.1978 256.999 37.9752 260.976 33.8031L242.939 37.1321C235.516 45.8113 227.641 54.401 219.545 62.9421C215.732 66.9645 211.754 70.9511 208.029 74.9936C205.128 78.1329 202.38 81.3038 199.196 84.382C198.297 85.2517 197.36 86.1127 196.386 86.9649C196.144 87.1756 195.896 87.3864 195.655 87.5972C194.944 88.2136 197.046 86.4949 195.746 87.5086C195.238 87.9049 194.738 88.3043 194.209 88.6942C193.679 89.0841 193.152 89.4529 192.601 89.8249C192.333 90.0041 192.021 90.1811 191.773 90.3666C191.994 90.2043 193.544 89.3254 192.455 89.9314C191.804 90.2949 191.126 90.6522 190.479 91.0189C189.567 91.5374 191.87 90.2486 191.79 90.3676C191.686 90.5226 190.646 90.8808 190.391 90.9894L203.41 91.0948C215.486 77.1233 232.36 64.2099 245.51 50.4808C249.346 46.4763 252.703 42.339 255.072 38.0816C255.945 36.5146 253.148 36.0593 250.442 36.4197C246.161 36.9888 242.098 38.5664 239.301 40.1639C227.973 46.6323 220.178 54.1575 212.186 61.6111C208.357 65.1804 204.256 68.6822 200.243 72.2051C198.029 74.1515 195.814 76.0969 193.553 78.0327C192.543 78.8997 191.524 79.7652 190.495 80.6294C190.257 80.8282 190.02 81.0273 189.782 81.2269C190.639 80.5103 189.82 81.1942 189.665 81.3217C189.018 81.8486 188.373 82.3755 187.72 82.9024C185.193 84.9363 182.587 86.9491 179.859 88.9239C178.587 89.845 177.257 90.746 175.946 91.6554C175.022 92.2951 177.301 90.904 176.216 91.4836C175.844 91.6818 175.458 91.8915 175.109 92.1022C174.252 92.6291 175.937 91.707 175.946 91.7028C173.806 92.6744 178.255 90.884 175.917 91.7471L184.615 90.1421C184.961 90.2106 185.867 90.6142 185.2 90.2117C184.897 90.0283 185.439 90.9736 185.384 90.3645C185.368 90.1769 185.258 89.9862 185.238 89.7954C185.224 89.69 185.238 89.5847 185.238 89.4793C185.147 88.8312 185.049 90.2169 185.187 89.806C185.638 88.3504 186.26 86.9079 187.049 85.4853C188.214 83.4683 189.591 81.4808 191.035 79.5018C191.228 79.2372 191.421 78.9748 191.618 78.7093C191.839 78.4142 192.772 77.3773 191.722 78.5628C192.236 77.9843 192.625 77.3731 193.079 76.7829C194.042 75.5373 195.022 74.2945 196.02 73.0545C204.318 62.7187 213.491 52.5494 222.094 42.2705C223.795 40.2388 225.484 38.2049 227.048 36.1468C228.201 34.6282 229.548 33.0612 230.17 31.4636C230.733 30.0147 228.596 29.5478 225.852 29.9135C221.901 30.4404 218.004 31.9094 215.461 33.4058C202.828 40.8405 193.861 49.3585 184.979 57.8817C181.201 61.5058 177.153 65.0677 173.596 68.7434C170.075 72.3822 166.793 76.0737 163.088 79.6725C162.04 80.6919 160.953 81.7021 159.826 82.7033C159.532 82.9635 157.871 84.3778 159 83.4409C158.424 83.9173 157.834 84.389 157.229 84.8562C156.037 85.7688 154.744 86.6403 153.464 87.5213C152.605 88.1104 154.837 86.7067 153.907 87.2589C153.528 87.4812 153.158 87.7068 152.775 87.927C152.02 88.3601 151.225 88.7785 150.43 89.1916L165.079 87.2568C166.99 83.7605 169.323 80.3197 172.068 76.9515C175.009 73.3412 178.309 69.7982 181.832 66.308C188.936 59.2727 196.944 52.4546 205.027 45.6659C209.493 41.9154 213.998 38.1733 218.385 34.4017C219.762 33.2172 219.423 31.5395 215.845 31.8209C211.415 32.1707 207.553 33.8611 204.659 35.3775C190.754 42.6709 179.323 50.9286 168.923 59.4161C163.589 63.7704 158.453 68.1785 153.28 72.5761C152.106 73.5751 150.925 74.5731 149.737 75.57C149.18 76.0386 148.622 76.5068 148.063 76.9747C147.781 77.2087 147.502 77.4426 147.221 77.6755C148.231 76.8325 146.986 77.8694 146.778 78.0475C144.238 80.1383 141.658 82.2196 138.994 84.2766C136.047 86.5539 132.997 88.808 129.808 91.0073C128.297 92.0527 126.752 93.0868 125.173 94.1097C124.757 94.3795 124.339 94.6479 123.918 94.9148C123.73 95.035 122.272 95.9402 123.253 95.3364C124.321 94.6798 122.618 95.7221 122.567 95.7579C122.046 96.074 121.519 96.3902 120.992 96.7L135.365 94.0286C135.03 93.5994 134.884 93.1421 134.935 92.685C134.882 93.2435 135.103 92.4131 135.179 92.2403C135.329 91.8967 135.52 91.5584 135.732 91.2233C135.896 90.9609 136.397 90.3381 135.894 90.9462C136.135 90.648 136.374 90.3497 136.627 90.0547C137.15 89.4445 137.71 88.8428 138.272 88.2421C141.195 85.126 143.614 81.9023 146.322 78.742C152.648 71.3568 159.214 64.0209 166.02 56.7341C169.92 52.5368 173.755 48.3247 177.155 44.0272C178.127 42.7985 178.417 41.2968 174.677 41.5128C170.637 41.7457 166.144 43.5066 163.775 44.9799C152.323 52.0994 144.178 60.081 136.053 68.1279C127.702 76.3993 118.959 84.6107 109.627 92.6397C108.675 93.4595 107.741 94.2836 106.791 95.1035C106.611 95.2587 106.43 95.4137 106.25 95.5682C106.25 95.5682 105.101 96.5335 105.717 96.0245C106.301 95.5398 105.475 96.2174 105.334 96.3301C105.004 96.5957 104.668 96.8605 104.324 97.1247C103.778 97.5462 103.214 97.9635 102.632 98.3766C102.348 98.5769 100.792 99.343 100.842 99.579C100.776 99.2692 102.043 98.8972 101.08 99.4083C100.668 99.6254 100.258 99.8488 99.8615 100.073C99.0599 100.53 100.674 99.6749 100.668 99.6771C100.287 99.7824 97.8928 100.786 100.847 99.6497L110.177 99.7666C110.912 96.1647 114.256 93.2825 117.558 89.9914C121.201 86.3631 124.567 82.6643 127.997 78.9886C134.946 71.5381 141.831 64.0722 148.652 56.5908C152.436 52.4208 156.066 48.2182 159.319 43.945C159.742 43.3897 160.648 42.4381 159.54 41.8806C158.655 41.4296 157.171 41.5939 156.101 41.7236C151.723 42.2505 147.781 44.1073 145.286 45.8082C134.917 52.8687 127.904 60.8535 120.408 68.6506C117.25 71.9343 113.917 75.1706 110.925 78.4901C107.843 81.9118 104.851 85.3547 101.487 88.7121C100.513 89.6844 99.5035 90.649 98.4597 91.6059C97.9725 92.0485 97.4757 92.489 96.9693 92.9274C96.7811 93.0897 96.5862 93.2519 96.398 93.4142C95.9219 93.8252 96.9804 92.9685 96.1455 93.6155C95.0892 94.4354 94.0351 95.2542 92.8924 96.0477C92.6134 96.2416 92.3321 96.4344 92.0442 96.6252C91.8715 96.7401 90.6403 97.5536 91.515 96.9846C92.2724 96.4903 91.5482 96.9624 91.402 97.0488C90.9591 97.3112 90.5029 97.5757 90.0423 97.8318L102.886 96.1362C103.772 94.3184 105.765 92.5891 107.776 90.8387C110.019 88.8913 112.11 86.9164 114.156 84.9205C118.57 80.6209 122.895 76.3003 127.242 71.9849C135.593 63.6914 144.564 55.576 153.373 47.3963C158.258 42.8649 162.895 38.2723 166.764 33.5207C167.914 32.1065 167.382 30.9272 163.664 31.3772C159.512 31.8799 155.519 33.6703 153.227 35.3185C143.337 42.4328 135.194 50.0445 126.941 57.6025C123.176 61.0474 119.154 64.428 115.407 67.8761C112.205 70.8268 109.32 73.8449 106.091 76.785C105.608 77.2248 105.119 77.6618 104.623 78.096C104.37 78.3152 103.073 79.4006 103.799 78.8105C102.782 79.6398 101.728 80.4586 100.606 81.2574C100.063 81.6431 99.4983 82.0214 98.9314 82.4008C98.8052 82.4851 98.0589 82.9519 98.8185 82.4809C99.6069 81.9919 98.6302 82.5863 98.4752 82.6748C97.8928 83.0141 97.2705 83.3334 96.6748 83.6654C95.9418 84.0732 97.3635 83.3092 97.3967 83.3113C97.3015 83.3039 96.068 83.9067 95.9728 83.951L105.969 84.0342C109.083 80.0592 113.335 76.335 117.733 72.653C118.543 71.9754 120.182 70.6244 121.422 69.597C122.487 68.7096 123.548 67.8223 124.589 66.9287C126.836 64.9971 128.936 63.0296 131.082 61.0695C140.161 52.7823 149.489 44.5552 158.843 36.3365C159.372 35.8717 159.999 34.8727 159.064 34.3911C158.232 33.9696 156.832 34.1224 155.822 34.2446C151.581 34.7579 148.171 36.5072 145.635 38.0921C133.659 45.5742 125.078 54.147 115.297 62.2856C105.205 70.6866 94.2211 79.3321 83.7442 87.8164L96.7988 86.0828C105.145 79.0834 112.998 71.9544 120.733 64.7958C124.365 61.4362 127.851 58.0345 131.669 54.7213C135.212 51.6389 139.003 48.6176 142.462 45.5099C146.499 41.8827 150.146 38.1058 152.25 34.1108C153.663 31.4299 145.403 33.4227 143.913 34.0054C136.715 36.8233 131.398 40.2177 126.292 43.8913C121.761 47.1507 117.144 50.3733 112.794 53.6917C103.792 60.551 95.2797 67.5505 86.3219 74.4213C83.7708 76.3793 81.1223 78.3036 78.4316 80.2173C77.5924 80.8148 76.7973 81.426 75.9514 82.0214C75.7476 82.1648 75.5085 82.3038 75.3269 82.4514C74.9268 82.7169 75.0522 82.6467 75.7033 82.2406L75.2405 82.5125C75.3579 82.5262 73.8254 83.1206 75.2029 82.5599C76.5028 82.033 77.2623 81.7221 78.9874 81.3259L83.4519 82.5083C87.4226 74.0683 97.9437 66.7485 105.455 58.9808C109.636 54.6602 113.605 50.2879 117.651 45.9367C119.595 43.8449 121.511 41.7457 123.515 39.6655C125.55 37.5578 127.618 35.3617 128.229 33.0391C128.923 30.4046 121.94 32.2329 119.954 32.9337C103.659 38.6875 92.7285 47.0285 83.2261 55.3947C73.3028 64.1298 63.9066 72.9934 53.9613 81.7274C53.917 81.7675 53.0334 82.5283 53.5184 82.1279C53.8771 81.8286 52.8075 82.6906 52.6569 82.8065C52.0213 83.3008 51.3702 83.7908 50.7147 84.2819C49.1889 85.42 47.6388 86.5497 46.164 87.7025C42.9795 90.1927 40.0253 92.7461 38.4131 95.5766C36.925 98.1975 45.1474 96.2089 46.5271 95.682C55.1149 92.3889 60.9369 88.1789 67.1996 83.9341C73.3094 79.7926 79.6917 75.7565 85.5801 71.5381C98.1519 62.5354 109.335 53.1427 120.372 43.7005C123.371 41.1345 126.378 38.5579 129.452 36.0172C132.625 33.3826 136.266 30.8819 138.051 27.9302C138.62 26.9934 137.271 26.4981 135.444 26.5992C132.84 26.7436 129.937 27.7363 128.181 28.6015C120.12 32.5691 114.172 37.3239 107.479 41.8047C100.916 46.2023 94.2765 50.5746 87.83 55.0111C74.6692 64.0739 62.3165 73.4613 51.1133 83.1005C48.013 85.7709 44.9702 88.4676 42.2552 91.2297C39.8193 93.7009 37.421 96.5156 34.6639 98.7117L47.2734 96.3849C50.6837 85.733 62.2568 76.3466 73.1012 67.0741C84.971 56.9238 95.5631 46.4721 105.278 35.819C110.188 30.4341 116.705 25.1186 119.037 19.2984C119.549 18.018 116.428 18.4743 115.077 18.8368C112.81 19.4459 110.044 20.6367 109.455 21.914V21.9108Z" fill="#FFBD00"/>
<path d="M123.201 14.1611C111.338 26.1188 98.3342 37.8045 84.8898 49.3743C84.0395 50.1078 83.1861 50.8402 82.3298 51.5715C82.1084 51.7538 81.9157 51.9425 81.6877 52.1206L81.9446 51.9098C82.5189 51.43 82.2841 51.6242 81.2403 52.4926C80.7531 52.9141 80.2726 53.3356 79.7854 53.7635C78.1083 55.2163 76.426 56.6678 74.7385 58.1178C71.4212 60.9652 68.0884 63.8081 64.74 66.6463C61.3193 69.5605 57.8816 72.4697 54.427 75.374C53.6342 76.04 52.8385 76.705 52.0398 77.3689L51.3864 77.9116L52.0154 77.3847C51.8715 77.5059 51.7253 77.626 51.5725 77.7462L50.2637 78.8263C48.5172 80.2672 46.7566 81.7039 44.9821 83.1364C41.4765 85.9648 37.9754 88.7807 34.6647 91.6618C34.3081 91.9716 33.9428 92.2804 33.5796 92.5891C35.2803 91.137 33.8431 92.3668 33.4091 92.705C32.696 93.2594 31.9497 93.8052 31.1436 94.33L30.962 94.4481C30.3714 94.8204 30.7162 94.6061 31.9962 93.8052C31.7438 93.9517 31.4979 94.1014 31.2388 94.2457C31.1103 94.3163 30.9819 94.3869 30.8512 94.4565C29.4561 95.1942 32.9949 93.4512 31.8655 93.9623L31.2521 94.2362C30.116 94.74 34.0357 93.1824 32.428 93.762L32.2065 93.8379C31.4108 94.1049 31.9275 93.944 33.7567 93.3553C33.46 93.4385 33.1699 93.5228 32.8709 93.5997L39.9176 93.6883C39.8866 93.2151 39.9176 92.7398 39.9729 92.2698L39.8798 92.9948C40.2009 90.902 41.4123 88.8723 42.8806 86.9027L42.2272 87.7742C44.2579 85.087 46.8445 82.5126 49.1277 79.8706C51.7984 76.7882 54.5134 73.7153 57.3635 70.6698C63.1891 64.4439 69.4562 58.3173 76.1647 52.2902C79.454 49.3395 82.8326 46.4138 86.3005 43.513L86.6128 43.2548C86.7279 43.1579 85.4435 44.2222 85.9351 43.8165L86.6659 43.2127C87.1206 42.8396 87.5753 42.4666 88.0301 42.0935C88.9159 41.3769 89.8017 40.6614 90.6875 39.9469C92.4709 38.5193 94.2779 37.0978 96.1086 35.6821C103.476 29.9957 111.255 24.4372 119.447 19.0066C120.504 18.3079 121.56 17.6103 122.63 16.9158C122.829 16.7858 123.031 16.6562 123.234 16.5269C123.332 16.4648 123.433 16.4026 123.529 16.3404C123.777 16.1802 121.779 17.4216 122.421 17.0328C122.864 16.7567 123.325 16.4806 123.783 16.2076C125.646 15.0969 127.566 14.0094 129.435 12.9029C134.054 10.1693 138.707 7.30711 141.69 4.07295C142.451 3.24233 143.101 2.38948 143.634 1.51956C143.989 0.948397 143.601 0.162264 142.184 0.0305371C140.363 -0.140181 138.39 0.334025 136.869 0.731313C123.693 4.18888 116.447 10.6193 108.435 16.3615C99.6408 22.6622 91.4514 29.1474 83.271 35.6305C75.0906 42.1136 66.8106 48.5913 58.3002 54.9848C49.702 61.4482 40.9074 67.8519 31.9164 74.1959C30.1448 75.4373 28.3179 76.6576 26.6814 77.939C25.3239 79.0034 24.035 80.0867 22.7107 81.1605C21.2071 82.3808 19.6724 83.5938 18.0093 84.7656C17.6284 85.0333 17.2431 85.2988 16.8467 85.5623C16.6385 85.7003 16.4237 85.8374 16.2133 85.9754C15.6021 86.3769 17.6949 85.0607 17.407 85.2377L17.0416 85.4632C16.623 85.7172 16.1934 85.968 15.7505 86.2125C15.5675 86.3137 15.3814 86.4138 15.1925 86.5128C13.8416 87.2199 17.1855 85.5644 16.3263 85.9575C16.1048 86.0629 15.8834 86.1609 15.6619 86.2599L15.3784 86.3822C14.7141 86.673 13.6622 86.9902 17.1013 85.7025C16.6584 85.8647 16.2355 86.0186 15.7726 86.1693L25.1689 86.2873C25.3698 85.6595 25.6946 85.042 26.1388 84.4432L25.4744 85.3283C27.0246 83.2692 29.5425 81.4292 31.7127 79.5124C34.1487 77.3594 36.5027 75.1843 38.9055 73.024C43.804 68.6219 48.7202 64.225 53.6541 59.8334C58.4574 55.5476 63.2385 51.2554 68.1282 46.9916C70.5774 44.8545 73.0511 42.7248 75.5491 40.6024C76.7995 39.5408 78.0544 38.4818 79.3138 37.4251L80.1575 36.7212L80.5804 36.3692L79.8186 37.0015L80.029 36.8255C80.7023 36.2691 81.3769 35.713 82.053 35.1573C87.7931 30.4503 93.7295 25.7987 99.8623 21.2027C101.08 20.2954 103.722 17.7589 99.3949 17.742C97.7097 17.7357 95.9691 18.0876 94.5451 18.4891C92.023 19.1934 89.7675 20.0943 87.8728 21.1542C77.0505 27.2938 68.3164 34.1277 59.2369 40.8511C54.8079 44.1348 50.1574 47.3405 45.3519 50.503C42.8421 52.156 40.2992 53.7996 37.7229 55.4338C36.3942 56.2768 35.0566 57.1174 33.7102 57.9555C33.4888 58.0904 35.4818 56.8596 34.7843 57.2874C34.6115 57.3928 34.4366 57.5034 34.2638 57.6109L33.3493 58.1768C32.6524 58.6082 31.9527 59.0382 31.2499 59.4667C28.3932 61.2139 25.4457 62.9285 22.589 64.6768C21.3533 65.4334 20.153 66.2006 18.8242 66.9267C18.4788 67.1174 18.1156 67.2997 17.7635 67.4873C17.4114 67.6749 20.1994 66.3133 19.3491 66.7011C19.1431 66.7939 18.9439 66.8898 18.7357 66.9815C18.5718 67.0531 18.3991 67.1206 18.2352 67.1922C18.027 67.2839 21.0543 66.1194 19.8961 66.522C19.7322 66.5789 19.5329 66.6379 19.3779 66.7022C19.5219 66.6421 22.2767 65.8423 20.7177 66.2606L27.5649 68.0774C29.899 65.5851 32.5631 63.1772 35.3667 60.7987C33.615 62.2856 34.906 61.1823 35.3401 60.8293C35.721 60.5195 36.1049 60.2107 36.4917 59.903C37.2298 59.3149 37.9784 58.7297 38.7372 58.1473C40.2549 56.9818 41.805 55.8261 43.3877 54.6803C46.519 52.3988 49.7433 50.1489 52.9655 47.8948C56.1123 45.6965 59.4651 43.5741 62.7691 41.4307C66.8793 38.7624 70.7679 35.9983 73.8018 33.0139C74.3089 32.5144 75.3409 31.157 74.0631 30.6365C72.6813 30.0727 70.5686 30.2898 69.0628 30.5954C57.957 32.8421 48.5829 36.4893 39.5034 40.1935C37.7739 40.8995 36.0554 41.6119 34.3281 42.318C33.4733 42.6668 32.6141 43.0114 31.757 43.3581C31.4625 43.4772 34.7311 42.1789 33.4822 42.671L32.9529 42.8818C31.7482 43.3549 30.5434 43.8302 29.3564 44.3129C26.1432 45.6196 23.189 47.0633 20.0555 48.408C19.5749 48.6135 19.09 48.8179 18.6006 49.0181C18.3791 49.1098 18.1577 49.1983 17.9362 49.29L19.9293 48.4954L19.389 48.7062C18.5032 49.0476 17.5908 49.3764 16.654 49.6873L16.3772 49.7779C15.4515 50.0744 16.0089 49.8988 18.0492 49.251C17.7679 49.3322 17.4933 49.4186 17.2099 49.4987C16.747 49.6304 16.2731 49.7537 15.7992 49.8749C14.6167 50.1773 17.5155 49.4934 17.3117 49.5313C17.0216 49.5851 16.7404 49.6557 16.4525 49.7137C15.8856 49.8264 15.3076 49.9244 14.723 50.0119L20.246 51.4767C20.3765 50.8034 20.6844 50.1406 21.1627 49.5039L20.4276 50.484C20.8268 49.9673 21.2996 49.4642 21.8427 48.9781C21.98 48.8537 22.1305 48.7336 22.2656 48.6093C22.2656 48.6008 20.7044 49.8844 21.4773 49.2679C21.7593 49.0431 22.0471 48.8207 22.3409 48.6008C23.6187 47.6524 24.9983 46.725 26.2783 45.7735C29.7506 43.1979 32.7004 40.4833 32.6517 37.3566L32.0781 36.757C30.5988 36.3576 29.4207 36.0963 27.7244 36.0625C25.8622 36.0126 23.9949 36.0993 22.1881 36.3197C18.2393 36.8164 14.4493 37.5644 10.9207 38.5432C7.0984 39.597 3.61276 41.1883 1.39824 43.0104C0.687381 43.6005 0.0916659 44.1959 0.00308529 44.8819C-0.0810663 45.5353 0.346311 45.9168 1.69495 46.1686C3.20968 46.4521 4.94146 46.1159 6.37203 45.9252L4.33912 46.195C4.62594 46.1571 4.9173 46.1275 5.21163 46.1064C7.60109 45.9368 10.0703 45.2118 11.9548 44.5479C14.3111 43.7185 16.8112 42.5719 18.3769 41.3811L19.6392 40.3326C20.2479 39.8016 20.5295 39.1997 20.4519 38.5959C19.9713 37.8256 18.7268 37.5821 17.046 37.7023C16.6031 37.7339 16.1757 37.8003 15.7173 37.814L17.387 37.8203C17.2172 37.8165 17.0521 37.7925 16.9065 37.7508L7.68744 45.3762C8.11706 45.2624 8.55334 45.1559 8.9896 45.0484C9.93742 44.8155 6.38755 45.6301 7.60775 45.3646C7.88456 45.3055 8.16138 45.2455 8.44263 45.1886C9.51566 44.9713 10.6171 44.7872 11.74 44.6374L9.67607 44.9125C10.9559 44.7412 12.2775 44.6509 13.6068 44.6438L11.9061 44.6364C12.9008 44.6414 13.882 44.7466 14.785 44.9451L13.5692 44.629C13.7219 44.6658 13.8698 44.707 14.0121 44.7523L13.4407 44.1537C13.4407 44.2465 13.4297 44.3392 13.4186 44.433L13.5249 43.6184C13.4133 44.349 13.0937 45.069 12.5749 45.7587L13.3101 44.7776C12.9464 45.2523 12.5241 45.7165 12.0456 46.1676C11.9149 46.2919 11.7777 46.4152 11.6382 46.5385C11.5695 46.5996 11.4986 46.6618 11.4167 46.7229C11.0137 47.0679 11.3289 46.8069 12.3623 45.9399C12.1054 46.1433 11.853 46.3478 11.5894 46.549C10.3892 47.4659 9.08036 48.35 7.83801 49.2552C4.81963 51.4556 1.58425 53.9974 1.10813 56.6825C0.995186 57.3211 0.82243 57.9092 2.191 58.2633C3.59279 58.6247 5.19611 58.3686 6.63333 58.1473C12.1032 57.319 17.1944 55.6793 21.5902 53.9542C25.7579 52.3176 29.6244 50.5578 33.5817 48.8116C34.286 48.4954 34.9969 48.193 35.721 47.8927L36.1882 47.7009C37.3752 47.215 33.9959 48.5692 34.3568 48.4301C35.608 47.9464 36.8371 47.448 38.0706 46.9548C39.8112 46.2603 41.5275 45.5521 43.2459 44.8471C44.9644 44.1421 46.7382 43.4055 48.5054 42.6963L48.7955 42.5793L48.1179 42.8491L47.1501 43.2337L47.7369 43.003C48.1798 42.8301 48.6227 42.6573 49.0656 42.4866C50.0001 42.1255 50.9443 41.77 51.898 41.4201C52.9964 41.0197 54.1096 40.6291 55.2375 40.2483C55.7468 40.0776 56.2584 39.91 56.7744 39.7435C58.0566 39.3294 55.0027 40.2947 55.2109 40.2335C55.5276 40.1429 55.831 40.0428 56.1432 39.9501C57.2704 39.6129 58.4198 39.2904 59.5913 38.9911C60.1139 38.8562 60.6454 38.7298 61.1746 38.6022C62.5631 38.2703 58.8782 39.1154 59.9456 38.8878C60.3199 38.8088 60.6897 38.7287 61.0662 38.6518L56.327 36.228C55.7468 36.8048 55.1305 37.3724 54.478 37.931L54.3827 38.011C53.8926 38.4227 54.131 38.2253 55.098 37.4188C54.9297 37.5516 54.7703 37.6854 54.6042 37.8182C54.2336 38.1105 53.8571 38.4006 53.4748 38.6887C51.9955 39.8015 50.4165 40.8838 48.7999 41.9555C45.5955 44.0758 42.2516 46.1465 39.1823 48.311C32.7602 52.8424 26.2849 57.3791 20.5383 62.1223C16.9618 65.073 13.5603 68.0648 10.677 71.1851C9.98389 71.9375 9.06709 73.1336 11.0114 73.6342C13.0266 74.1537 15.7572 73.4814 17.5244 73.0019C26.5706 70.5465 32.5432 66.3355 38.8213 62.5175C44.7164 58.9345 50.486 55.3041 56.13 51.6263C61.095 48.3827 65.978 45.1085 70.5664 41.7416C74.9955 38.4884 79.2495 35.1794 83.663 31.921C86.1344 30.0969 88.6568 28.2875 91.2899 26.515C92.5743 25.6495 93.8882 24.7948 95.2317 23.9511C96.1285 23.3852 94.1842 24.5991 94.2772 24.5433C94.4787 24.4221 94.6758 24.2978 94.8752 24.1755C95.2339 23.9563 95.5971 23.7382 95.9603 23.52C96.6866 23.0859 97.4248 22.6563 98.1748 22.2312L86.1853 22.1817C74.4994 30.9052 63.6593 39.8858 53.2267 48.956C42.9381 57.9071 32.9484 66.9404 22.9233 75.96C20.1817 78.4259 17.5575 80.9297 14.6765 83.3598C11.8485 85.7467 8.72386 88.2327 7.88013 90.9894C7.60553 91.8904 8.10157 92.5544 10.1899 92.5628C12.8672 92.5723 15.1437 91.783 17.2763 91.1075C20.7487 90.0083 23.8756 88.4919 26.5197 86.967C28.826 85.6318 30.9545 84.2292 32.8931 82.7676C35.7609 80.6136 38.2189 78.3416 41.1111 76.196C45.219 73.1452 49.6104 70.1745 53.7936 67.1448C58.1356 64.0002 62.4295 60.8388 66.6755 57.6605C75.2161 51.2743 83.5708 44.8334 91.7394 38.3377C99.8445 31.8916 107.843 25.4138 116.332 19.0793C119.799 16.4911 123.31 13.9156 126.764 11.3274C128.379 10.1187 130.055 8.93106 131.858 7.7824C132.453 7.39986 130.542 8.58646 130.792 8.44314C130.932 8.36411 131.06 8.27979 131.195 8.19865C131.396 8.07781 131.6 7.95698 131.807 7.83614C132.313 7.54108 132.835 7.25198 133.372 6.96886C133.583 6.85715 133.8 6.74754 134.014 6.63795C134.801 6.23539 131.886 7.67175 132.706 7.28606C132.816 7.23442 132.927 7.18065 133.033 7.13112C133.538 6.89507 134.061 6.67167 134.584 6.45036L132.876 7.13112L133.098 7.04367L133.441 6.91825C133.709 6.82235 133.981 6.73174 134.254 6.63795C135.341 6.26279 131.893 7.33664 133.045 7.02155C133.361 6.93408 133.673 6.84554 133.995 6.76334L127.234 5.97509C127.102 6.17883 126.963 6.38046 126.817 6.57998L127.446 5.73693C126.918 6.42605 126.294 7.09776 125.579 7.74762C125.391 7.92044 125.172 8.08799 124.995 8.26292C124.882 8.37462 126.151 7.32293 125.683 7.69176L125.413 7.90991C124.95 8.27663 124.468 8.6381 123.969 8.99429C123.053 9.6487 122.067 10.2768 121.091 10.9091C120.869 11.0461 122.758 9.88053 122.118 10.2683L121.779 10.4791C121.514 10.64 121.246 10.8009 120.978 10.9617C120.44 11.2828 119.898 11.6018 119.35 11.9186C114.575 14.6902 109.859 17.4585 105.436 20.3639C96.4674 26.2561 87.9976 32.3106 80.0268 38.5274C71.6825 45.0094 63.7767 51.6232 56.5286 58.3981C49.5219 64.9465 43.037 71.614 37.074 78.4006C34.4402 81.392 31.8138 84.3855 29.1948 87.3812C26.4997 90.4541 23.756 93.6914 23.0562 97.0331C22.8463 97.9219 22.7856 98.8173 22.8745 99.7108L23.3817 100.238C23.6171 100.352 23.9078 100.438 24.2286 100.487C24.5493 100.536 24.8903 100.547 25.222 100.519C26.8895 100.525 28.484 100.172 29.9212 99.7941C36.9257 97.953 42.5107 94.8801 46.5035 91.6207C48.0868 90.3297 49.5728 89.0209 51.0122 87.6931C51.537 87.2094 52.0596 86.7257 52.6 86.2473C52.851 86.0274 53.105 85.8089 53.3619 85.5918C51.5305 87.1536 53.1404 85.7815 53.5833 85.4179C60.8624 79.4523 67.8447 73.4044 74.7297 67.3355C81.3001 61.5396 88.0168 55.7731 94.2994 49.9065C100.516 44.1 106.712 38.2903 112.68 32.4248C119.418 25.8096 125.966 19.1502 132.325 12.4466C132.626 12.1304 133.095 11.5203 132.462 11.1967C131.829 10.8732 130.504 11.0461 129.831 11.1746C127.105 11.7015 124.412 12.866 123.148 14.1411L123.201 14.1611Z" fill="#FFBD00"/>
</g>
<defs>
<clipPath id="clip0_20_2">
<rect width="560" height="106" fill="white"/>
</clipPath>
</defs>
</svg>
