<svg width="407" height="77" viewBox="0 0 407 77" fill="none" xmlns="http://www.w3.org/2000/svg">
<g clip-path="url(#clip0_96_26)">
<path d="M79.5499 15.9164C77.8326 19.6475 73.5337 22.9859 70.2021 26.4222C66.4021 30.3416 62.5217 34.2419 58.4143 38.0909C54.3799 41.8699 50.1314 45.5954 45.6689 49.2673C41.4053 52.7564 37.0484 56.2165 33.3145 59.845C29.0912 63.9512 25.6276 68.287 24.097 72.815C23.7606 73.8056 25.494 73.8791 27.0648 73.602C29.4791 73.1756 31.9352 72.1643 33.2598 71.1248C37.4621 67.8293 40.4155 64.2168 44.2171 60.8172C47.9334 57.4919 51.9265 54.2844 56.0982 51.0739C64.6639 44.4828 73.8572 38.1253 83.3338 31.8252C85.888 30.1273 88.4842 28.4394 90.9467 26.7108C92.128 25.8818 93.2691 25.0413 94.4746 24.2206C94.716 24.0561 94.9655 23.8945 95.2069 23.73C95.9714 23.2117 94.8013 23.9397 95.7155 23.4046C95.9795 23.2515 96.2419 23.0984 96.5123 22.9453C96.7199 22.8297 97.9688 22.1852 96.9243 22.6973L89.7508 23.1842C88.8559 24.6532 87.0147 25.7226 85.3827 27.0722C83.3226 28.7757 81.2839 30.4853 79.2667 32.201C75.5311 35.3771 71.8309 38.5793 68.0004 41.7071C60.4841 47.8373 52.3884 53.8098 43.5475 59.5289C41.3876 60.9267 39.2985 62.3398 37.2255 63.7675C36.7153 64.1189 36.2002 64.4687 35.6723 64.8147C35.4373 64.9678 35.2008 65.1209 34.9609 65.274C35.5259 64.9165 35.0221 65.2311 34.718 65.4095C34.1654 65.7325 33.5929 66.0469 33.0006 66.3526C34.5151 65.5695 30.9968 67.1227 32.8622 66.4093L38.7593 66.4858C39.4289 65.3153 41.0931 63.877 42.2535 62.9782C43.9901 61.634 45.8716 60.3334 47.5535 58.9731C51.6642 55.6501 55.2902 52.1793 59.0806 48.7728C62.2309 45.9424 65.3721 43.11 68.5041 40.2756C71.6474 37.4394 73.8074 35.5295 77.4866 32.8954C78.4298 32.2194 79.418 31.5588 80.4239 30.9051C80.5849 30.7994 81.2125 30.4235 80.3885 30.9219C80.6766 30.7481 80.9615 30.5736 81.2528 30.4014C81.7726 30.0952 82.3038 29.7889 82.8461 29.4927C83.1149 29.3457 84.7067 28.6935 84.6761 28.5312C84.6761 28.5473 83.6847 29.0005 84.2899 28.7249C84.6118 28.5787 84.9224 28.4263 85.2443 28.2801C85.8285 28.0153 86.7507 27.7496 87.203 27.4381C87.0903 27.5146 85.8913 27.928 86.9471 27.5483C87.3591 27.3998 87.7647 27.2482 88.18 27.102L82.1653 27.0255C81.7598 28.5427 80.3772 29.8655 79.0542 31.2411C77.5671 32.7897 76.1443 34.3529 74.6909 35.9107C71.7649 39.0432 68.9354 42.2032 65.8388 45.3004C60.0318 51.1229 52.4624 56.6483 49.443 63.0096C48.9602 64.0415 51.0863 64.2345 52.6861 63.8685C59.124 62.3972 62.7792 59.8213 66.621 57.0976C70.149 54.596 73.4178 52.0147 76.6658 49.4295C83.1809 44.244 89.6462 39.0279 96.6844 33.9977C98.5257 32.681 100.386 31.3705 102.24 30.0576C102.641 29.7736 103.045 29.4904 103.459 29.211C103.695 29.0518 103.942 28.8933 104.178 28.7356C104.51 28.5182 104.661 28.4539 104.228 28.7019C104.684 28.4447 105.158 28.1913 105.603 27.9303C106.287 27.5292 104.7 28.3077 105.516 27.9732C105.783 27.8629 106.874 27.4044 105.593 27.9066L99.5316 27.83C97.09 32.4843 91.1446 36.7864 86.1938 41.0266C80.543 45.8638 75.5455 50.8794 70.099 55.7695C66.8554 58.6784 63.5292 61.5669 60.1203 64.435C59.7276 64.7634 59.2979 65.4899 59.9674 65.8305C60.5645 66.1367 61.5688 66.0234 62.2931 65.9362C65.0936 65.5978 68.1694 64.337 69.6066 63.1758C77.4013 56.8802 85.3472 50.6276 92.9971 44.2922C100.216 38.3136 105.965 32.4889 114.694 27.0477L105.088 28.323C98.2698 34.294 91.4697 40.2764 84.8483 46.3002C81.6149 49.2412 78.5344 51.8822 75.2848 54.5837C72.016 57.302 68.8469 60.0548 66.5389 62.9936C66.0126 63.6634 65.5314 64.5552 67.6237 64.6126C69.8496 64.6746 72.2912 63.7039 73.8041 63.054C82.4663 59.3161 87.4187 54.1321 92.4853 49.2282C94.9929 46.8 97.8207 44.4545 100.475 42.0631C103.505 39.3325 106.451 36.5805 109.51 33.8561C113.069 30.6892 116.19 28.062 120.432 25.0183L110.586 26.3158C105.504 32.5379 98.6045 38.3626 92.1344 44.27C85.4245 50.3987 79.3794 56.6889 73.0106 62.8971C71.3014 64.5629 69.5905 66.2232 67.7074 67.8461C65.7937 69.4965 63.9847 71.1845 63.0801 73.0332C62.6214 73.9709 64.1681 74.2151 65.8162 74.0153C68.3463 73.7091 70.7638 72.7239 72.4151 71.8015C80.2211 67.4167 85.13 62.1063 89.828 56.8695C94.5213 51.648 99.5815 46.4877 104.675 41.3512C106.259 39.7535 107.906 38.1697 109.691 36.6211C109.852 36.4848 110.013 36.3493 110.164 36.2138C110.304 36.0944 110.898 35.606 110.476 35.9498C110.905 35.5951 111.348 35.2434 111.806 34.8949C112.814 34.1146 113.874 33.3503 114.984 32.6022L104.788 33.9564C100.468 39.5507 95.2552 44.9712 90.1419 50.4079C84.9594 55.9195 80.0022 61.4786 74.5863 66.9382C71.7569 69.7905 68.3206 72.6795 67.635 75.8702C67.1795 77.986 72.7193 76.6035 74.4157 75.9559C80.4915 73.6364 84.7356 70.7106 88.534 67.5162C91.7819 64.7864 94.9306 62.0306 97.98 59.2487C104.381 53.3995 110.285 47.4385 116.547 41.5586C117.372 40.7829 118.217 40.0125 119.08 39.2475C119.537 38.8434 120.007 38.443 120.474 38.0419C120.571 37.9577 121.118 37.506 120.55 37.9737C120.764 37.7987 120.979 37.6236 121.194 37.4486C122.159 36.6688 123.171 35.9002 124.227 35.1429C124.693 34.8102 125.167 34.48 125.65 34.1523C125.892 33.989 126.135 33.8267 126.381 33.6655C126.622 33.5078 127.775 32.7821 126.658 33.4741L116.933 34.1631C112.461 39.778 106.955 45.1863 102.039 50.7118C99.5574 53.5013 97.0723 56.2892 94.65 59.0902C92.6012 61.4633 90.7873 63.8839 88.5759 66.2209C87.4976 67.3623 86.4836 68.5175 85.6933 69.7124C85.0495 70.7076 84.4057 71.9745 85.1928 72.9811C86.8312 75.0825 94.3185 71.8497 95.6721 71.0482C105.363 65.3069 113.341 59.0458 120.941 52.65C124.533 49.6271 128.06 46.5857 131.668 43.5665C132.206 43.118 131.143 43.9975 131.689 43.5505C131.947 43.3392 132.201 43.1271 132.458 42.9159C132.87 42.5785 133.285 42.2412 133.701 41.9038C134.634 41.146 135.58 40.3917 136.537 39.641C138.449 38.1427 140.421 36.6627 142.453 35.2011C144.706 33.5843 147.047 31.9814 149.549 30.4473C149.388 30.5437 148.503 31.0849 149.414 30.5368C149.736 30.3462 150.045 30.1541 150.364 29.9642C151.001 29.583 151.645 29.2054 152.295 28.8313C153.67 28.0439 155.082 27.2709 156.531 26.5126L146.552 27.2222C134.938 37.2006 122.127 46.9401 113.236 57.57C110.651 60.6572 108.376 63.8081 106.596 67.0224C106.01 68.0788 107.891 68.3866 109.721 68.1431C112.72 67.7443 115.169 66.6726 117.242 65.6169C126.172 61.0668 131.406 55.1862 136.69 49.5796C139.142 46.9769 141.854 44.4507 144.554 41.9008C147.612 39.0156 150.542 36.1021 153.728 33.2506C154.626 32.4445 155.554 31.6468 156.489 30.8499C157.033 30.386 155.95 31.2778 156.523 30.8231C156.795 30.6073 157.058 30.3883 157.328 30.1725C157.814 29.7846 158.309 29.399 158.812 29.0158C159.812 28.2564 160.85 27.5088 161.926 26.7728C162.461 26.4085 163.014 26.0517 163.561 25.6912C163.8 25.5381 164.386 25.0788 163.401 25.7854C163.737 25.5435 164.17 25.3222 164.553 25.0964L153.864 26.5072C153.542 27.3432 152.862 28.1316 152.324 28.9385C152.524 28.6376 152.846 28.2495 152.485 28.731C152.38 28.8657 152.277 29.0005 152.173 29.136C151.919 29.4621 151.661 29.7877 151.4 30.1128C150.826 30.8272 150.241 31.5417 149.646 32.2562C146.647 35.8502 143.485 39.4129 140.375 42.984C133.949 50.3635 127.055 57.7835 122.37 65.4669C121.657 66.6358 120.973 67.8308 120.736 69.0464C120.53 70.1066 120.363 71.2993 122.774 71.7862C124.62 72.1582 127.809 71.0911 129.096 70.6195C135.462 68.2863 139.904 65.1844 144.14 61.9877C147.975 59.0941 151.527 56.1155 155.009 53.1231C161.171 47.8273 167.004 42.4604 172.991 37.124C173.788 36.4129 174.609 35.7071 175.438 35.0036C174.623 35.6964 175.824 34.6974 176.049 34.516C176.479 34.174 176.916 33.8341 177.361 33.4963C178.3 32.7859 179.273 32.087 180.295 31.4034C180.474 31.284 180.652 31.1646 180.834 31.0459C181.016 30.9273 182.062 30.2498 181.251 30.7734C180.543 31.2327 181.169 30.8277 181.314 30.7428C181.699 30.5192 182.08 30.2957 182.47 30.0745L171.007 31.5871C169.237 34.7257 166.84 37.4264 163.636 40.591C160.515 43.6745 157.066 46.6798 153.753 49.7174C150.373 52.8131 147.13 55.9417 143.787 59.0466C140.375 62.2166 137.039 65.4064 134.164 68.6973C133.406 69.5647 132.909 70.7321 135.577 70.8056C138.492 70.8867 141.64 69.6183 143.625 68.7754C153.142 64.7351 158.432 59.0719 163.325 53.5977C168.691 47.5885 174.545 41.678 179.965 35.6795C183.297 31.9913 186.535 28.2847 189.678 24.5598C190.071 24.0913 190.805 23.2477 189.875 22.7746C188.986 22.3214 187.076 22.5587 186.117 22.7432C182.289 23.4789 178.277 25.1592 176.569 26.978C171.446 32.4361 166.851 38.0013 162.187 43.552C159.879 46.2971 157.598 49.0514 155.105 51.7605C152.709 54.3632 150.043 56.9124 147.581 59.5036C144.694 62.5434 142.041 65.6682 140.382 68.9148C139.675 70.298 142.53 70.4014 144.537 70.0163C147.885 69.3725 151.376 68.0367 153.211 66.5486C160.31 60.7943 165.839 54.6978 171.379 48.5814C177.002 42.3708 183.168 36.2804 189.133 30.1434C192.316 26.867 196.483 23.5348 196.831 19.855C196.932 18.7833 193.496 19.1821 192.495 19.3582C189.659 19.8557 186.902 20.9274 185.019 22.0336C175.237 27.7818 168.24 34.3743 161.751 41.0564C155.408 47.587 149.047 54.1213 142.49 60.6036C139.58 63.4804 135.849 66.681 136.228 69.9712C136.376 71.2633 140.564 70.5361 141.714 70.2712C144.855 69.5486 148.291 68.2327 150.048 66.779C156.591 61.3638 161.886 55.6914 166.995 49.9455C171.886 44.4461 177.295 39.0615 182.252 33.5774C185.191 30.324 187.858 27.0033 189.901 23.596C190.477 22.633 189.096 22.1232 187.218 22.228C181.584 22.5404 176.812 24.8208 173.632 26.8739C171.948 27.9602 170.403 29.1069 168.919 30.2559C167.07 31.6882 165.33 33.1518 163.595 34.6193C162.868 35.2317 162.147 35.8487 161.416 36.4619C161.08 36.7451 160.745 37.0276 160.405 37.3093C161.21 36.6433 159.922 37.692 159.713 37.865C153.401 42.935 146.515 47.8381 140.078 52.869C136.187 55.9142 132.41 58.9999 128.972 62.1661C127.931 63.1237 128.09 64.4771 131.024 64.2467C134.565 63.9681 137.776 62.6116 140.049 61.3776C142.767 59.9017 144.663 58.2107 146.538 56.4783C148.08 55.053 149.71 53.646 151.262 52.2267C154.499 49.2596 157.631 46.267 160.656 43.2488C166.644 37.3001 172.406 31.2878 177.669 25.1829C179.098 23.5248 180.405 21.846 181.853 20.191C183.324 18.5015 184.922 16.7562 185.215 14.909C185.283 14.4911 185.376 13.7531 184.032 13.6949C180.052 13.5212 176.307 14.9542 173.603 16.1805C171.153 17.2951 169.096 18.6026 167.36 19.9836C164.107 22.571 161.426 25.3015 158.937 28.0719C157.087 30.1319 155.347 32.2148 153.671 34.3085C151.022 37.6147 147.652 40.7985 144.684 44.0419C139.534 49.6745 134.737 55.448 132.067 61.4786C131.652 62.4141 132.711 62.7517 134.512 62.7249C139.64 62.6483 144.723 60.4283 147.702 58.6371C149.181 57.7301 150.512 56.7707 151.684 55.7672C151.972 55.5268 152.269 55.2887 152.545 55.0461C151.36 56.0925 152.973 54.7552 153.287 54.5102C157.882 50.9567 161.754 47.2149 165.134 43.3683C168.958 39.0187 173.333 34.6637 175.724 30.0745C176.643 28.3138 178.246 25.1706 174.775 23.7675C172.304 22.7723 167.432 24.6991 165.882 25.4079C156.472 29.7116 148.833 34.7379 142.305 40.098C139.146 42.6923 136.152 45.3287 133.195 47.9758C131.768 49.2535 130.343 50.5319 128.895 51.8034C128.243 52.3765 127.585 52.9488 126.922 53.5204C126.59 53.8059 126.257 54.09 125.922 54.3747C125.731 54.5362 125.536 54.6985 125.344 54.8608C124.672 55.4311 125.689 54.5837 125.249 54.942C121.87 57.7016 118.295 60.4 114.223 62.9423L126.329 60.1459C126.253 59.9321 126.202 59.7164 126.178 59.4998C126.164 59.3658 126.234 58.8001 126.152 59.1936C126.27 58.6621 126.478 58.136 126.774 57.6205C126.917 57.3625 127.096 57.1099 127.257 56.855C127.329 56.7401 127.659 56.3574 127.231 56.8787C127.322 56.7669 127.409 56.6536 127.501 56.5419C127.971 55.97 128.491 55.4074 129.04 54.8516C131.015 52.846 133.432 50.9476 135.449 48.9572C138.024 46.4081 140.364 43.7939 142.852 41.2256C145.568 38.4239 148.209 35.6037 150.417 32.7032C152.982 29.3411 155.084 25.9155 155.839 22.3459C155.978 21.6937 155.894 21.4166 154.648 21.1211C152.163 20.5378 149.094 21.0599 146.786 21.5911C143.044 22.4523 139.888 23.7445 137.021 25.1599C132.193 27.5429 128.33 30.3348 124.854 33.1893C122.137 35.4231 119.613 37.6989 117.144 39.9954C112.974 43.8773 108.369 47.6574 104.144 51.5278C101.271 54.1612 98.5305 56.8282 95.5739 59.4408C92.6688 62.0076 89.7797 64.6264 88.4471 67.4955C87.6037 69.3098 92.2052 68.6055 93.9692 68.1385C98.9248 66.8272 102.453 64.7902 105.622 62.6101C107.962 61.0025 110.278 59.3827 112.507 57.7361C117.03 54.3946 121.309 50.982 125.612 47.5763C134.433 40.5918 143.775 33.7604 152.664 26.7951C154.69 25.2066 156.753 23.6266 158.744 22.0282C160.676 20.4773 163.251 18.6125 163.502 16.757C163.563 16.3068 163.71 15.9149 162.75 15.6592C161.836 15.4158 160.576 15.5651 159.663 15.7358C156.444 16.3551 153.576 17.5822 151.647 18.9402C140.971 26.4552 131.494 34.3521 122.859 42.4351C118.702 46.3254 113.928 50.0902 110.466 54.1389C109.472 55.3056 108.438 56.522 107.968 57.769C107.674 58.5498 107.299 59.8091 108.773 60.4184C111.685 61.6164 117.426 58.8491 118.976 58.0453C137.985 48.1963 153.955 37.0704 170.917 26.4345C173.523 24.8001 176.55 23.201 178.481 21.3607C177.747 22.0619 178.66 21.0545 179.049 21.0002L178.75 21.1885C178.337 21.4436 178.352 21.4419 178.794 21.1831L179.148 20.9956L178.309 21.4143C179.365 20.9282 177.899 21.5873 177.747 21.611C177.942 21.5804 179.313 21.1127 178.159 21.4373C177.181 21.7136 177.999 21.4863 178.19 21.4373C178.662 21.3117 179.127 21.1892 179.61 21.0744L174.19 20.4436C172.571 23.6588 170.27 26.3733 167.464 29.4391C164.761 32.3955 162.113 35.3634 159.417 38.319C154.177 44.0756 147.732 49.9968 148.128 56.4378C148.162 57.0134 149.638 57.1076 150.494 57.0586C152.181 56.9614 153.874 56.4462 155.181 55.9762C165.643 52.2466 173.357 47.1935 180.107 41.936C183.065 39.6311 185.885 37.2856 188.924 35.0043C192.518 32.3059 196.404 29.7001 200.13 27.0431C204.647 23.8226 209.121 20.6082 213.119 17.2331C214.085 16.4102 213.763 15.3913 211.435 15.526C208.492 15.696 205.963 16.9238 204.032 17.8792C195.471 22.1232 189.756 27.556 184.596 32.8395C179.23 38.3328 173.638 43.7709 168.24 49.2573C164.686 52.8679 161.266 56.5079 157.978 60.1773L161.601 57.9389C156.974 60.2041 151.3 63.4598 155.453 66.6657C156.369 67.3715 159.564 66.5631 160.442 66.3273C162.935 65.6606 164.923 64.68 166.603 63.5953C174.857 58.2681 181.454 52.4372 188.061 46.6293C189.638 45.2438 191.215 43.8582 192.822 42.4803C193.565 41.8418 194.316 41.2039 195.075 40.5665C195.719 40.023 195.357 40.3307 195.214 40.4494C195.431 40.2695 195.65 40.0904 195.869 39.9135C196.258 39.5935 196.641 39.2713 197.032 38.9521C196.676 39.243 197.132 38.8755 197.243 38.7837C201.037 35.7553 204.902 32.7476 208.756 29.7361C213.117 26.3296 217.497 22.9269 221.771 19.4952C222.771 18.6929 224.48 16.8052 220.875 17.0134C217.537 17.2063 213.632 18.8858 211.986 20.2002C200.798 29.1038 191.248 38.3886 182.846 47.9552C182.317 48.5569 181.71 49.3262 183.089 49.7457C184.428 50.1537 186.712 49.6294 187.855 49.2864C199.195 45.8539 207.362 40.9424 214.13 35.4943C216.985 33.1977 219.671 30.853 222.633 28.5863C224.091 27.4695 225.641 26.3878 227.253 25.3207C227.774 24.9915 227.661 25.0594 226.915 25.5243C227.125 25.3965 227.334 25.2694 227.546 25.1415C227.97 24.8897 228.401 24.6401 228.834 24.3952C229.267 24.1502 229.719 23.9099 230.175 23.6733C231.824 22.8175 229.238 24.1142 230.335 23.5899L221.911 23.5202C216.172 30.0079 209.62 36.3164 203.38 42.6969C202.055 44.0519 200.813 45.4282 199.438 46.7717C199.07 47.1315 198.683 47.4875 198.294 47.8434C198.094 48.0264 197.811 48.2147 197.67 48.4091L197.943 48.1848C198.535 47.6954 198.306 47.886 197.254 48.7567C197.093 48.9029 196.932 49.0506 196.771 49.1968C194.583 51.2009 192.426 53.2234 190.736 55.3377C189.038 57.4658 186.748 60.2599 188.373 62.5503C189.126 63.6113 191.669 63.1911 193.287 62.819C196.334 62.1171 198.759 60.9703 200.75 59.6904C215.557 50.2019 226.362 39.5951 237.488 29.0862C238.401 28.2242 238.293 27.0063 235.644 27.2153C232.468 27.4649 229.561 28.6835 227.529 29.7943C221.826 32.9107 217.397 36.4795 213.413 40.134C211.559 41.835 209.808 43.5604 208.051 45.2843L206.99 46.3201C206.803 46.5015 206.108 47.5089 205.675 47.5923L206.077 47.2793L205.081 48.1052C204.856 48.3058 204.658 48.514 204.445 48.7176C204.049 49.1004 203.655 49.4778 203.238 49.8521C202.984 50.0818 202.72 50.3045 202.453 50.5288C202.131 50.8044 201.236 51.5362 202.718 50.3106L202.005 50.9008C200.629 52.0407 199.25 53.1805 197.913 54.3311C195.452 56.4469 193.044 58.6003 191.199 60.8563C190.247 62.0229 189.237 63.2492 188.924 64.5024C188.698 65.3942 188.537 66.6068 190.148 67.2735C191.727 67.9257 194.304 67.285 195.772 66.8908C198.605 66.1321 200.776 65.026 202.717 63.8104C214.171 56.6322 222.146 47.9942 227.857 39.4382C228.604 38.319 226.376 38.012 224.556 38.2539C221.514 38.6589 218.601 39.7849 216.613 40.9225C207.943 45.9121 202.633 51.7973 196.599 57.534C195.976 58.1265 195.35 58.719 194.681 59.3C193.639 60.2033 195.279 58.8315 194.533 59.4271C194.232 59.6667 193.937 59.907 193.638 60.1466C191.998 61.4603 190.325 62.7677 188.875 64.1326C186.39 66.472 183.886 69.4108 185.334 72.0709C186.513 74.2274 194.164 71.3139 195.453 70.7543C205.286 66.4912 212.813 61.2742 219.792 55.9302C222.946 53.5143 226.043 51.0792 229.389 48.7215C230.261 48.109 231.151 47.501 232.059 46.8973C232.4 46.6722 232.744 46.4484 233.091 46.2259C233.321 46.0774 233.554 45.9297 233.788 45.7827C232.985 46.2803 232.878 46.3492 233.466 45.9894C234.432 45.4137 235.397 44.8411 236.41 44.2807C236.915 44.0021 237.428 43.7265 237.948 43.454C238.38 43.2289 240.334 42.2675 238.201 43.3093L228.309 44.5961C228.216 45.6778 227.344 47.3344 226.434 48.5768C226.851 48.0034 226.025 49.069 225.942 49.1677C225.644 49.5237 225.332 49.8774 225.015 50.2295C224.413 50.8955 223.785 51.5561 223.156 52.216C220.436 55.0729 217.595 58.0132 216.745 61.1518C216.634 61.5621 216.611 62.4393 218.023 62.4608C223.73 62.548 228.75 60.8211 232.756 59.0382C236.458 57.3946 239.54 55.4625 242.395 53.4852C243.322 52.8437 244.238 52.1984 245.17 51.5584C245.572 51.2821 246.434 50.7447 244.562 51.9197C245.178 51.537 245.812 51.1542 246.414 50.7623C246.952 50.4132 247.457 50.0542 247.966 49.6959C248.526 49.3002 249.079 48.9036 249.652 48.5125C249.897 48.3456 250.145 48.1787 250.398 48.0141C251.544 47.2655 249.754 48.3777 250.293 48.0769C250.623 47.8962 250.95 47.7125 251.275 47.5303C251.931 47.1621 249.471 48.3617 250.953 47.7102C251.503 47.476 251.181 47.6059 249.987 48.0999C248.807 48.4489 248.501 48.5431 249.07 48.3823C249.569 48.2456 249.309 48.3007 248.291 48.5477C248.548 48.4949 248.811 48.4497 249.079 48.4122L244.954 47.9391C245.069 48.5867 244.856 49.1639 244.742 49.8299C244.668 50.2571 244.538 50.7332 244.634 51.168C244.755 51.7161 245.098 51.9266 246.052 52.1701C247.938 52.65 250.015 52.6814 252.125 52.5735C256.91 52.3285 261.58 51.2782 265.9 50.3275C267.98 49.8682 270.041 49.3913 272.14 48.9496C273.014 48.7666 273.896 48.5898 274.793 48.4336C274.894 48.416 276.019 48.204 276.062 48.2308C276.027 48.2063 274.418 48.4084 275.956 48.2683C276.724 48.1979 277.509 48.1496 278.287 48.1152C278.597 48.1014 279.896 48.0754 279.621 48.0723C279.246 48.0723 280.426 48.1075 280.656 48.1236C281.177 48.1585 281.69 48.2165 282.188 48.2966C282.389 48.3295 282.581 48.3732 282.779 48.4061C283.303 48.5018 282.23 48.2323 282.681 48.3762C282.959 48.4632 283.227 48.557 283.485 48.6572C284.063 48.8972 284.583 49.1667 285.037 49.4609C287.522 51.0103 289.498 52.428 293.202 53.4025C298.305 54.746 304.082 54.8715 309.794 54.5883C315.506 54.3051 321.086 53.5794 326.643 52.9042C332.574 52.1877 338.499 51.746 344.571 51.3915C361.44 50.4071 378.417 49.8774 395.251 48.7467C399.274 48.4773 403.364 46.6668 405.443 45.0922C406.634 44.1904 408.593 41.9651 404.415 42.2453C389.725 43.232 374.933 43.7847 360.193 44.5686C353.644 44.9169 346.995 45.2086 340.557 45.8998C335.132 46.4824 329.8 47.2494 324.337 47.7554C318.981 48.2514 314.465 48.553 309.329 47.9008C305.115 47.365 302.173 46.1677 299.641 44.479C297.602 43.1172 295.412 41.972 291.671 41.7929C286.738 41.5578 282.003 42.2101 277.559 43.1647C275.225 43.6661 272.932 44.2103 270.608 44.7209C269.412 44.9842 268.208 45.2399 266.987 45.4757C266.431 45.5836 265.86 45.6732 265.308 45.7873C264.316 45.9924 265.416 45.8072 265.599 45.7766C264.909 45.8898 264.151 45.9297 263.478 46.0697C262.805 46.2098 264.033 45.9886 263.998 46.0047C263.845 46.072 263.04 46.1172 262.834 46.1379C262.343 46.1876 261.847 46.2297 261.347 46.2581C260.846 46.2864 259.792 46.2649 260.864 46.307C260.387 46.2965 259.913 46.2709 259.443 46.2305C259.074 46.193 258.466 46.1539 258.173 46.0307C258.762 46.2734 258.588 46.1302 258.69 45.8776C259.089 44.9015 259.23 43.9055 259.108 42.9128C258.962 41.8939 256.139 42.2667 254.981 42.4405C249.398 43.2772 244.613 45.5255 241.101 47.6704C239.547 48.6204 238.096 49.5964 236.662 50.5878C236.191 50.9139 235.666 51.2293 235.214 51.5615C236.973 50.2601 235.079 51.638 234.531 51.9841C234.335 52.1088 234.139 52.2336 233.946 52.3599C233.064 52.9348 232.23 53.5273 231.37 54.1114C230.833 54.4781 230.294 54.8447 229.743 55.2068C229.47 55.3875 229.125 55.5712 228.885 55.7618L229.671 55.275C229.473 55.3974 229.272 55.5184 229.067 55.6378C228.518 55.9616 227.912 56.2632 227.363 56.5855C226.637 57.0119 229.107 55.7863 227.971 56.2793C227.649 56.4202 227.31 56.5572 226.997 56.7034C229.064 55.7358 228.224 56.1744 227.595 56.4271C228.897 56.0331 229.252 55.917 228.658 56.0787C228.128 56.2181 228.447 56.1474 229.613 55.8667C229.167 55.9601 228.013 56.0841 229.874 55.8567C229.529 55.8988 228.497 55.8828 229.854 55.9042L231.131 57.2132C231.332 56.4743 231.637 55.7426 232.045 55.0231C232.252 54.6587 232.489 54.2997 232.73 53.9407C232.869 53.7355 232.999 53.5755 232.769 53.8733C232.907 53.6942 233.051 53.5158 233.196 53.3375C234.411 51.8501 235.846 50.4071 237.219 48.9526C240.129 45.8799 242.617 42.7865 242.944 39.3899C243.029 38.5134 240.495 38.6589 239.472 38.7951C237.103 39.1098 234.766 39.8431 233.052 40.6768C223.73 45.2131 216.529 50.4316 209.514 55.7947C206.349 58.2122 203.169 60.6274 199.667 62.9384C199.211 63.2393 198.743 63.5363 198.283 63.8364C197.699 64.2038 197.815 64.1326 198.632 63.6228C198.394 63.769 198.149 63.9152 197.914 64.0607C197.071 64.5685 196.207 65.0678 195.321 65.5588C194.816 65.8389 194.302 66.1158 193.779 66.3894C193.263 66.6603 191.257 67.4442 193.559 66.5218C192.381 66.9949 191.338 67.5675 190.192 68.062L200.311 66.7453C200.041 66.2488 199.917 65.7369 199.942 65.2243C199.915 65.7188 200.089 64.8155 200.127 64.7175C200.221 64.4817 200.335 64.2482 200.465 64.0163C200.547 63.8708 201.3 62.868 200.705 63.5968C200.901 63.3579 201.099 63.1199 201.312 62.8849C201.82 62.3245 202.387 61.7764 202.982 61.2352C203.323 60.9259 203.672 60.6197 204.032 60.3166C204.214 60.1635 204.507 59.7455 204.837 59.6414C204.231 60.1222 204.146 60.1857 204.581 59.832C204.752 59.6896 204.926 59.5473 205.1 59.4049C205.353 59.2007 205.605 58.9938 205.857 58.784C207.354 57.55 208.777 56.3145 210.087 55.0331C212.597 52.5765 214.915 50.0741 217.482 47.6314C218.126 47.019 218.791 46.4099 219.476 45.8041C219.818 45.504 220.165 45.2052 220.519 44.9077C219.618 45.6656 220.749 44.7339 220.939 44.5847C221.675 44.0082 222.439 43.441 223.244 42.8868C223.621 42.6273 223.994 42.2858 224.479 42.0707C222.768 42.8324 224.619 42.0034 224.987 41.7906L214.286 42.5515C213.803 43.1677 213.359 43.7885 212.895 44.4063C213.249 43.9347 212.583 44.8143 212.583 44.8128C212.402 45.0501 212.219 45.2869 212.034 45.5232C211.253 46.526 210.446 47.524 209.612 48.5171C207.961 50.4791 206.197 52.4211 204.284 54.3288C203.351 55.2607 202.381 56.1836 201.373 57.0976C200.821 57.5983 200.256 58.0956 199.678 58.5896C199.583 58.6708 198.698 59.4095 199.218 58.9823C199.738 58.5552 198.735 59.3704 198.735 59.3651C196.48 61.1818 194.008 62.9357 191.331 64.618L203.898 61.1571C203.768 61.1028 203.473 60.991 203.435 60.903C203.533 61.1219 203.596 61.2857 203.526 60.9428C203.501 60.8203 203.456 60.694 203.42 60.5715C203.396 60.4873 203.446 60.3947 203.42 60.312C203.349 60.1344 203.196 60.9504 203.42 60.4789C203.581 60.1107 203.691 59.7394 203.903 59.3727C204.027 59.1538 204.167 58.9364 204.315 58.7205C204.898 57.867 203.963 59.1155 204.452 58.5352C206.251 56.3995 208.429 54.351 210.753 52.3346C211.303 51.857 211.861 51.3813 212.425 50.9077C212.659 50.7102 212.895 50.5135 213.13 50.3168C214.059 49.539 212.232 51.0586 213.13 50.3168C214.2 49.4334 215.292 48.5561 216.325 47.662C219.383 45.0218 221.744 42.1902 224.451 39.4657C226.183 37.7234 227.992 36.0033 229.975 34.3207C229.273 34.9178 229.795 34.4685 229.949 34.3475C230.258 34.1049 230.561 33.8599 230.873 33.618C231.39 33.2199 231.922 32.8262 232.468 32.4368C233.06 32.015 233.69 31.6086 234.304 31.1944C234.948 30.7588 233.376 31.7402 234.086 31.3299C234.507 31.0865 234.918 30.8385 235.344 30.5973L225.385 31.3054C220.212 36.4596 214.672 41.5502 208.807 46.5336C208.421 46.862 208.03 47.1904 207.64 47.5188C206.897 48.1473 208.044 47.1927 207.212 47.8756C206.42 48.5262 205.621 49.1749 204.814 49.8215C203.312 51.0172 201.776 52.203 200.208 53.3788C196.969 55.7978 193.545 58.1568 189.934 60.4559L202.311 57.596C202.086 57.2648 201.949 56.9215 201.904 56.574C201.888 56.4424 201.954 55.7503 201.851 56.3359C201.893 56.0961 201.954 55.8578 202.036 55.621C202.195 55.1701 202.406 54.7237 202.667 54.2836C202.825 54.0142 202.996 53.7468 203.18 53.4814C203.25 53.3788 203.332 53.2778 203.398 53.1752C203.61 52.8353 202.976 53.6812 203.414 53.1645C205.184 51.0754 207.246 49.0652 209.424 47.0672C214.819 42.1197 219.299 36.9265 224.17 31.8573C227.549 28.3406 230.929 24.8216 234.094 21.2604C234.779 20.4888 235.203 19.4477 232.835 19.3826C230.334 19.3137 227.3 20.4184 225.668 21.1908C217.155 25.2219 211.263 30.0331 205.284 34.9347C203.966 36.0148 202.63 37.0904 201.23 38.1498C200.491 38.7076 199.733 39.2593 198.954 39.8048C198.265 40.284 196.973 40.8605 196.554 41.3963C197.313 40.9268 197.425 40.8551 196.891 41.1812C196.68 41.3083 196.466 41.4338 196.247 41.5594C195.925 41.7462 195.598 41.9314 195.267 42.1151C194.827 42.3593 194.369 42.5951 193.919 42.8347C192.872 43.3943 195.516 42.0891 193.759 42.9059C193.279 43.1294 192.789 43.3484 192.289 43.5627C190.464 44.342 193.387 43.18 192.136 43.6331C191.6 43.8283 191.072 44.0274 190.527 44.2157C190.252 44.3096 189.974 44.402 189.693 44.4928C190.744 44.1677 190.902 44.1167 190.166 44.3397L195.175 45.6679C199.199 41.1162 203.336 36.5813 207.79 32.1184C209.958 29.9469 212.212 27.7948 214.55 25.6621C215.721 24.597 216.918 23.5378 218.14 22.4845C218.807 21.9103 219.482 21.338 220.165 20.7675C219.645 21.2015 220.671 20.3548 220.693 20.3357C221.046 20.0502 221.403 19.7662 221.76 19.4822L211.975 20.1872C211.313 20.7192 210.671 21.2589 210.008 21.7879C210.091 21.7213 210.338 21.5115 209.95 21.8223L209.208 22.4171C208.281 23.1597 207.351 23.9014 206.417 24.6424C204.486 26.1734 202.554 27.7045 200.623 29.2355C196.812 32.2465 193.009 35.2575 189.215 38.2685C185.557 41.1843 181.94 44.1077 178.456 47.0718C176.756 48.5186 175.068 49.9685 173.366 51.4145C172.595 52.0683 171.821 52.7215 171.044 53.3742C170.906 53.4906 169.909 54.3158 170.411 53.9016C169.906 54.3181 169.399 54.7335 168.89 55.1479C165.028 58.2803 161.004 61.3753 156.506 64.3095L167.656 61.2383C167.355 61.0291 167.137 60.7956 167.012 60.5493C166.975 60.4727 166.851 59.7348 166.89 59.9645C166.826 59.6292 166.861 59.7294 166.84 59.9216L167.065 59.6858L166.76 59.9346C166.975 59.4914 167.135 59.7425 166.689 59.9652C165.865 60.3526 165.931 60.314 166.888 59.8496C167.638 59.5079 168.304 59.1268 168.873 58.7136C171.1 57.0295 172.43 54.9718 174.11 53.1476C177.31 49.6712 180.631 46.2213 184.074 42.798C186.96 39.9304 189.905 37.0827 192.635 34.1807C195.259 31.3911 197.867 28.5925 200.832 25.8826C201.276 25.4743 201.73 25.0691 202.192 24.6669C202.376 24.5069 202.564 24.3477 202.747 24.1877C203.33 23.6825 202.535 24.35 202.908 24.0469C203.813 23.3151 204.737 22.5924 205.72 21.8805C206.175 21.5529 206.641 21.2285 207.119 20.9075C207.33 20.7667 207.54 20.6274 207.763 20.488C208.606 19.9407 208.121 20.4712 207.746 20.488C208.104 20.4712 209.148 19.6674 209.422 19.5158C209.984 19.2058 210.565 18.9034 211.159 18.608L202.071 19.254C201.851 19.4431 201.63 19.6322 201.405 19.8197C201.481 19.757 201.74 19.5449 201.375 19.845C200.975 20.1742 200.57 20.5013 200.159 20.8264C199.335 21.4801 198.496 22.1288 197.641 22.7723C195.87 24.1127 194.026 25.434 192.159 26.7468C188.475 29.335 184.644 31.8757 181.007 34.4784C174.966 38.8005 169.838 43.4043 163.396 47.6C163.167 47.7485 162.931 47.8947 162.705 48.044C162.061 48.4673 163.536 47.5441 162.866 47.9521C162.391 48.2376 161.92 48.5255 161.435 48.8072C160.47 49.366 159.475 49.911 158.45 50.4423C158.236 50.5525 157.373 50.992 158.242 50.5518C159.111 50.1116 158.202 50.5648 158.02 50.6498C157.49 50.8988 156.953 51.1422 156.411 51.3801C156.206 51.4689 155.997 51.5554 155.791 51.6449C154.402 52.2474 156.877 51.243 156.011 51.5684C155.368 51.8103 154.724 52.0545 154.056 52.2872L161.109 51.8279C161.06 50.3681 161.522 48.9343 162.227 47.515C162.907 46.1728 163.767 44.8526 164.802 43.5627C167.03 40.7579 169.76 38.0511 172.219 35.2952C177.606 29.2477 184.082 23.2622 187.325 16.8465C188.243 15.0323 183.566 15.82 181.906 16.2158C177.958 17.1573 174.536 18.5391 171.546 20.0693C170.287 20.716 169.147 21.4126 168.137 22.1515C167.506 22.6108 166.978 23.1045 166.388 23.5776C166.323 23.6304 165.818 23.9458 166.227 23.7024C166.742 23.3962 165.554 24.0714 165.448 24.138C160.895 26.9749 156.363 29.8196 151.853 32.6718C147.542 35.3955 143.272 38.133 138.977 40.8628C136.838 42.2243 134.687 43.5821 132.524 44.936C131.967 45.2859 132.664 44.8495 132.734 44.8059C132.453 44.9804 132.173 45.1545 131.892 45.328C131.33 45.6755 130.766 46.0225 130.2 46.3691C129.069 47.0616 127.931 47.7505 126.785 48.4359C121.775 51.439 116.59 54.377 111.136 57.2002L121.338 54.8271C120.804 54.6059 121.338 54.6028 121.28 54.9412C121.295 54.8447 121.12 54.7184 121.12 54.6159C121.12 54.6005 121.071 54.214 121.092 54.2155C121.519 54.2423 120.902 54.7774 121.073 54.4758C121.144 54.351 121.155 54.2109 121.205 54.0831C121.381 53.6661 121.61 53.2545 121.89 52.8506C121.955 52.7549 122.027 52.66 122.09 52.5643C122.389 52.1088 121.921 52.8016 121.911 52.7939C121.823 52.7488 122.555 52.0055 122.603 51.9412C124.445 49.7694 126.696 47.6758 129.006 45.6089C134.821 40.4035 140.433 35.1475 146.549 30.0171C147.204 29.4651 145.733 30.6838 146.863 29.756C147.216 29.4674 147.566 29.1788 147.921 28.8902C148.51 28.41 149.103 27.9308 149.701 27.4526C151.016 26.4013 152.351 25.3551 153.707 24.314C156.415 22.2365 159.21 20.1849 162.092 18.1594L150.237 20.3464C150.184 20.5874 150.104 20.8268 149.998 21.0637C149.837 21.5153 150.013 21.092 150.098 20.9871C149.987 21.1288 149.863 21.2696 149.736 21.4089C149.462 21.7067 149.161 21.9976 148.846 22.2855C148.685 22.4347 148.51 22.5825 148.341 22.731C147.475 23.4926 149.128 22.1247 148.18 22.8604C146.558 24.1127 144.952 25.3684 143.361 26.6274C139.151 29.9451 134.831 33.2291 130.485 36.5093C122.095 42.8538 114.068 49.3009 105.743 55.6646C103.415 57.4444 101.041 59.2097 98.5836 60.9466C97.457 61.7488 96.2837 62.5396 95.1281 63.335C94.9205 63.4789 94.7144 63.6236 94.5052 63.7675C94.3475 63.8777 94.1865 63.9872 94.0224 64.0959C93.6683 64.3301 93.8147 64.2447 94.4617 63.8394C94.3571 63.9841 93.8824 64.1235 93.7391 64.2482C94.1576 63.8869 98.2199 62.6659 96.3014 63.1765L101.824 63.8195C102.799 61.7274 104.943 59.7823 107.317 57.6802C109.691 55.5781 111.926 53.4607 114.21 51.3456C118.942 46.9623 123.922 42.6472 128.847 38.3129C130.599 36.7696 132.199 35.1873 133.963 33.6433C134.253 33.3881 134.545 33.1357 134.84 32.8862C135.122 32.6451 136.5 31.5374 135.22 32.5555C135.953 31.9729 136.661 31.3835 137.409 30.8048C138.158 30.226 138.935 29.6481 139.735 29.0816C140.092 28.8264 140.455 28.5754 140.824 28.3284C141.299 28.0076 143.342 26.9252 141.307 27.9847C142.225 27.5062 143.131 26.9795 143.985 26.4751C141.908 27.6999 143.258 26.8448 143.929 26.5378C144.521 26.2676 145.471 26.09 143.028 26.8877C143.294 26.803 143.548 26.7107 143.791 26.6113C144.483 26.322 141.758 27.2138 142.78 26.9275C143.765 26.6519 143.585 26.9757 142.175 27.0438C142.355 27.0191 142.53 26.9858 142.696 26.9443C143.776 26.7598 141.216 27.1028 142.135 27.0209C143.43 26.9076 141.37 26.8678 142.295 26.9964C142.748 27.0607 143.168 27.0944 143.601 27.1962L142.408 25.9714C141.074 32.234 136.178 37.5366 130.712 43.1876C128.182 45.8026 125.755 48.4444 123.181 51.0494C121.186 53.0695 118.723 54.9787 116.714 56.9974C114.34 59.3827 111.776 62.238 112.707 64.9403C113.085 66.0426 116.277 65.4876 117.513 65.2028C120.514 64.5139 122.816 63.3901 124.813 62.1408C132.056 57.6243 137.821 52.6187 143.432 47.6184C146.205 45.1465 148.941 42.6655 151.825 40.222C151.969 40.1001 152.113 39.9783 152.258 39.8569C152.368 39.7643 152.986 39.2445 152.522 39.6334C152.091 39.9947 152.578 39.5867 152.644 39.5331C152.841 39.3723 153.036 39.2116 153.233 39.0508C153.974 38.4491 154.725 37.851 155.487 37.2565C157.016 36.0722 158.603 34.9041 160.268 33.7619C161.155 33.1495 162.081 32.5593 163.005 31.9607C163.679 31.5205 162.057 32.5348 162.766 32.1069C163.067 31.9255 163.363 31.7418 163.666 31.5611C164.152 31.2717 164.644 30.9847 165.142 30.6999C166.141 30.1293 167.168 29.5708 168.224 29.0242C168.488 28.8872 168.759 28.7517 169.029 28.6154C170.156 28.0321 168.008 29.0969 168.825 28.718C169.457 28.4233 170.08 28.124 170.719 27.8323L161.826 29.4728C162.028 29.56 162.217 29.6533 162.393 29.7522C162.752 29.9405 162.683 30.1105 162.501 29.7691C162.691 30.1242 162.9 30.4481 162.955 30.8186C162.984 31.003 162.955 31.1883 162.98 31.372C163.024 31.7203 163.114 30.9288 162.95 31.542C162.823 32.0173 162.671 32.4889 162.467 32.9581C161.996 33.9886 161.405 35.0057 160.697 36.0049C160.52 36.2598 160.334 36.5139 160.151 36.7704C159.803 37.2549 160.194 36.7137 160.251 36.641C160.153 36.7673 160.058 36.8944 159.959 37.0237C159.525 37.5851 159.074 38.1422 158.608 38.6948C154.777 43.2665 150.808 47.8863 146.054 52.2535C145.535 52.7307 145.005 53.2043 144.462 53.6743C144.245 53.8626 144.024 54.0494 143.805 54.2362C144.312 53.8029 143.82 54.2262 143.567 54.4298C142.431 55.3484 141.23 56.2449 140.123 57.1711C139.986 57.2859 139.849 57.4008 139.714 57.5148C139.579 57.6289 139.004 58.1824 139.53 57.6725C140.013 57.1972 139.58 57.6297 139.421 57.7491C139.215 57.9022 138.998 58.0553 138.801 58.2084C138.116 58.7481 139.225 57.9611 139.305 57.916C138.851 58.1655 138.931 58.1346 139.543 57.8233C140.053 57.5555 140.625 57.316 141.248 57.1091C141.88 56.8917 142.622 56.6621 143.351 56.5358C144.174 56.3934 144.164 56.4546 143.292 56.4684L145.737 57.7154C147.858 52.8651 151.104 48.6097 155.025 44.1307C158.413 40.2611 162.39 36.4956 165.628 32.5984C168.915 28.6422 172.039 24.6608 176.051 20.8517C176.719 20.2178 177.562 19.6024 178.164 18.9555C177.144 20.0509 178.003 19.091 178.367 18.8154C178.67 18.5858 178.98 18.3561 179.305 18.1265C179.455 18.0223 179.614 17.9213 179.764 17.8203C180.455 17.3387 178.155 18.7212 179.235 18.1548C179.333 18.1027 179.436 18.0461 179.528 17.991C180.521 17.3946 177.781 18.807 178.636 18.4288C179.491 18.0507 176.51 19.228 177.413 18.9111C178.217 18.6286 175.307 19.5235 176.185 19.2939C174.81 19.6552 173.931 19.7631 173.062 19.7264L171.879 18.5123C171.767 19.2004 171.497 19.8806 171.075 20.5409C170.69 21.1533 170.431 21.4105 169.808 22.14C168.601 23.537 167.429 24.9402 166.211 26.335C163.607 29.3205 160.853 32.2738 158.025 35.2149C152.372 41.0909 146.49 46.9187 140.216 52.6508C138.494 54.2247 136.741 55.7906 134.956 57.3487C134.118 58.0805 133.282 58.8116 132.471 59.5503C132.28 59.7248 132.072 59.8963 131.889 60.0739C131.398 60.5508 132.581 59.5825 131.959 60.0196C131.787 60.1398 131.625 60.2668 131.464 60.3908C130.379 61.2229 132.714 59.7118 131.38 60.4253L142.456 59.6376C143.322 58.8583 144.195 58.0798 145.093 57.3082C145.543 56.9254 146.004 56.538 146.458 56.1522C146.905 55.7776 146.915 55.7677 146.488 56.1224C146.72 55.931 146.952 55.7399 147.185 55.549C148.935 54.1165 150.727 52.6957 152.561 51.2867C156.34 48.3678 160.24 45.4857 164.091 42.5882C168.15 39.5354 172.093 36.4588 175.84 33.3156C176.629 32.6527 177.414 31.989 178.209 31.3253C177.303 32.0786 178.749 30.8882 178.908 30.7604C179.37 30.3868 179.839 30.0143 180.315 29.6427C181.264 28.904 182.246 28.1737 183.265 27.4572C183.731 27.1311 184.23 26.8134 184.675 26.4789C185.237 26.0946 185.054 26.1952 184.127 26.7805C176.491 28.4799 174.32 29.222 177.614 29.0066L174.932 27.6386C174.52 28.3194 174.084 28.9959 173.624 29.668C173.409 29.9798 173.19 30.2901 172.967 30.5988C172.86 30.7519 172.747 30.9066 172.628 31.0627C172.863 30.7481 172.594 31.101 172.502 31.2159C171.414 32.6029 170.261 33.9775 169.042 35.3396C166.64 38.0189 164.035 40.6614 161.463 43.3078C156.312 48.6043 151.756 54.0203 146.683 59.3314C145.289 60.7897 143.853 62.2403 142.349 63.671C141.572 64.4115 140.775 65.1469 139.958 65.8772C139.522 66.2661 139.08 66.6537 138.632 67.04C138.407 67.2337 137.103 68.3184 137.972 67.6042L151.793 64.4113C151.78 64.2896 151.793 64.161 151.772 64.04C151.859 64.5208 151.716 64.2697 151.772 64.1028C151.882 63.8173 151.964 63.5317 152.094 63.2485C152.242 62.9423 152.416 62.6437 152.614 62.3459C152.715 62.1928 152.833 62.0397 152.936 61.8866C152.43 62.6682 152.96 61.8721 153.064 61.745C154.03 60.5746 155.157 59.4385 156.283 58.3048C159.333 55.2658 162.185 52.1808 165.208 49.1341C171.227 43.0713 176.709 36.8645 183.213 30.915C184.127 30.0775 185.07 29.2477 186.039 28.4256C186.215 28.2763 186.735 27.7917 185.951 28.496C186.192 28.2786 186.474 28.0704 186.736 27.8591C187.212 27.4804 187.695 27.1041 188.185 26.73C189.151 25.9895 190.158 25.261 191.207 24.5445C191.782 24.1518 192.374 23.7652 192.978 23.3794C193.581 22.9935 192.947 23.0854 192.656 23.5738C192.782 23.3572 193.487 23.0755 193.771 22.9078L181.959 25.0872C181.98 24.8729 181.784 25.5878 181.739 25.695C181.597 26.0272 181.401 26.3503 181.208 26.6764C181.158 26.7591 180.801 27.2283 181.163 26.7652C181.053 26.9053 180.936 27.0438 180.818 27.1824C180.506 27.5498 180.175 27.9127 179.827 28.274C178.539 29.6137 177.219 30.9426 175.929 32.2799C173.017 35.2991 170.048 38.306 167.11 41.3198C161.572 47.0006 156.57 52.7863 151.177 58.497C149.707 60.0525 148.194 61.5988 146.599 63.126C145.759 63.9313 144.895 64.7307 144.006 65.5243C143.589 65.8964 143.166 66.2664 142.738 66.6343C142.577 66.7721 142.416 66.9094 142.255 67.0462C141.182 67.9602 143.031 66.4169 141.924 67.3194L154.753 64.9525C155.083 64.298 155.448 63.6511 155.859 63.005C156.052 62.7045 156.252 62.4049 156.459 62.1063C156.549 61.977 157.146 61.177 156.9 61.4939C157.915 60.1842 159.047 58.8912 160.233 57.6182C162.599 55.0989 165.205 52.5949 167.588 50.0466C172.599 44.6934 176.851 39.1764 181.456 33.7413C184.074 30.6532 186.783 27.5858 189.674 24.5552L176.564 26.9734C171.169 33.2781 165.446 39.5178 159.562 45.7222C156.79 48.6441 153.9 51.5401 151.193 54.4765C149.084 56.757 147.087 59.0604 144.772 61.2964C144.119 61.9282 143.438 62.5536 142.73 63.1727C142.555 63.3258 142.374 63.4789 142.199 63.632C141.682 64.0798 143.21 62.8313 142.265 63.5677C141.896 63.8555 141.533 64.1456 141.148 64.4289C140.763 64.7121 140.38 64.9801 139.979 65.2503C139.785 65.3804 139.558 65.509 139.378 65.6437C139.538 65.5259 140.665 64.8874 139.873 65.3276C139.4 65.5917 138.907 65.8512 138.438 66.1176C137.774 66.4942 139.448 65.558 139.39 65.6445C139.315 65.757 138.558 66.0173 138.373 66.0962L147.835 66.1727C156.612 56.0236 168.876 46.6431 178.433 36.6701C181.221 33.7612 183.661 30.7558 185.383 27.6631C186.017 26.5248 183.984 26.1941 182.017 26.4559C178.906 26.8693 175.953 28.0153 173.92 29.1758C165.688 33.8745 160.022 39.3409 154.214 44.7554C151.431 47.3481 148.45 49.8919 145.534 52.451C143.924 53.8649 142.315 55.278 140.671 56.6843C139.938 57.314 139.197 57.9428 138.449 58.5705C138.276 58.7149 138.103 58.8596 137.931 59.0045C138.553 58.484 137.958 58.9808 137.845 59.0734C137.375 59.4562 136.907 59.8389 136.432 60.2217C134.596 61.6991 132.701 63.1612 130.718 64.5958C129.795 65.2648 128.827 65.9193 127.875 66.58C127.203 67.0446 128.86 66.0342 128.071 66.4552C127.801 66.5991 127.52 66.7514 127.266 66.9045C126.643 67.2873 127.868 66.6175 127.875 66.6144C126.32 67.3202 129.553 66.0196 127.854 66.6466L134.176 65.4807C134.427 65.5305 135.085 65.8236 134.601 65.5312C134.38 65.398 134.774 66.0847 134.734 65.6422C134.723 65.506 134.642 65.3674 134.628 65.2288C134.618 65.1523 134.628 65.0757 134.628 64.9992C134.562 64.5284 134.491 65.535 134.591 65.2365C134.919 64.1792 135.371 63.1313 135.944 62.0979C136.791 60.6327 137.792 59.189 138.842 57.7514C138.982 57.5592 139.122 57.3686 139.265 57.1757C139.426 56.9614 140.103 56.2081 139.34 57.0693C139.714 56.649 139.997 56.2051 140.327 55.7764C141.027 54.8715 141.739 53.9687 142.464 53.068C148.495 45.5599 155.162 38.1728 161.414 30.706C162.651 29.2301 163.879 27.7527 165.015 26.2577C165.853 25.1546 166.832 24.0163 167.284 22.8558C167.693 21.8032 166.14 21.4641 164.146 21.7297C161.274 22.1125 158.442 23.1796 156.594 24.2666C147.412 29.6672 140.895 35.8548 134.44 42.0462C131.694 44.6788 128.752 47.2662 126.167 49.9363C123.608 52.5796 121.223 55.2612 118.53 57.8754C117.768 58.6159 116.978 59.3498 116.159 60.077C115.945 60.2661 114.738 61.2934 115.559 60.6128C115.14 60.9589 114.711 61.3015 114.271 61.6409C113.405 62.3038 112.465 62.9369 111.535 63.5769C110.911 64.0048 112.533 62.9851 111.857 63.3863C111.582 63.5478 111.313 63.7116 111.035 63.8716C110.486 64.1862 109.908 64.4901 109.33 64.7902L119.977 63.3847C121.365 60.845 123.061 58.3455 125.056 55.8988C127.194 53.2762 129.592 50.7026 132.153 48.1672C137.316 43.0567 143.136 38.1039 149.01 33.1725C152.256 30.4481 155.53 27.7297 158.719 24.99C159.72 24.1295 159.473 22.9109 156.872 23.1153C153.654 23.3694 150.847 24.5973 148.743 25.6988C138.637 30.9969 130.329 36.9954 122.771 43.1608C118.894 46.3239 115.161 49.526 111.401 52.7205C110.548 53.4462 109.69 54.1711 108.826 54.8953C108.422 55.2357 108.016 55.5758 107.61 55.9157C107.405 56.0856 107.202 56.2556 106.998 56.4248C107.732 55.8124 106.827 56.5656 106.676 56.695C104.83 58.2137 102.955 59.7256 101.019 61.2199C98.8766 62.8741 96.6603 64.5116 94.3427 66.1092C93.2439 66.8686 92.121 67.6198 90.974 68.3628C90.6714 68.5588 90.3672 68.7537 90.0614 68.9477C89.9246 69.0349 88.8656 69.6925 89.5786 69.2539C90.3544 68.777 89.1167 69.534 89.0797 69.5601C88.7014 69.7897 88.3184 70.0194 87.9353 70.2444L98.3808 68.3039C98.1376 67.9921 98.0314 67.6599 98.0686 67.3279C98.03 67.7336 98.1909 67.1304 98.2457 67.0048C98.3551 66.7553 98.4935 66.5095 98.648 66.2661C98.7671 66.0755 99.1309 65.6231 98.7655 66.0648C98.941 65.8481 99.1148 65.6315 99.2983 65.4172C99.6781 64.9739 100.085 64.5368 100.494 64.1005C102.619 61.8369 104.376 59.4952 106.345 57.1994C110.942 51.8348 115.714 46.5058 120.661 41.2126C123.495 38.1636 126.283 35.1039 128.753 31.9821C129.46 31.0895 129.671 29.9987 126.952 30.1556C124.017 30.3248 120.751 31.604 119.029 32.6741C110.706 37.8459 104.787 43.6438 98.8814 49.4893C92.812 55.4977 86.4578 61.4626 79.6754 67.295C78.9834 67.8905 78.3042 68.4891 77.6138 69.0847C77.4829 69.1975 77.3519 69.31 77.221 69.4223C77.221 69.4223 76.3857 70.1235 76.8332 69.7537C77.2581 69.4016 76.6577 69.8938 76.5547 69.9758C76.3154 70.1687 76.0708 70.361 75.8208 70.5529C75.4238 70.8591 75.0139 71.1623 74.5911 71.4624C74.3851 71.6078 73.2536 72.1643 73.2907 72.3358C73.2424 72.1107 74.163 71.8405 73.4629 72.2118C73.1636 72.3695 72.8658 72.5318 72.5777 72.6948C71.9951 73.0263 73.1683 72.4055 73.1635 72.407C72.8867 72.4836 71.1468 73.2123 73.2939 72.3871L80.0746 72.4721C80.6089 69.8556 83.0393 67.7619 85.439 65.3712C88.0866 62.7356 90.533 60.0487 93.0261 57.3786C98.0766 51.9664 103.081 46.5431 108.038 41.1085C110.788 38.0794 113.426 35.0265 115.791 31.9224C116.098 31.519 116.756 30.8277 115.951 30.4228C115.308 30.0951 114.229 30.2146 113.452 30.3087C110.27 30.6915 107.405 32.0403 105.591 33.2758C98.0557 38.4047 92.9585 44.205 87.5104 49.8689C85.2153 52.2543 82.7931 54.6051 80.6187 57.0165C78.3783 59.5021 76.2038 62.003 73.759 64.4419C73.0509 65.1482 72.3175 65.8489 71.5589 66.544C71.2048 66.8655 70.8438 67.1855 70.4757 67.5039C70.3389 67.6218 70.1973 67.7397 70.0605 67.8576C69.7144 68.1561 70.4837 67.5338 69.877 68.0038C69.1092 68.5994 68.3431 69.1942 67.5126 69.7706C67.3099 69.9114 67.1054 70.0515 66.8962 70.1901C66.7707 70.2735 65.8759 70.8645 66.5116 70.4511C67.062 70.0921 66.5357 70.435 66.4295 70.4978C66.1076 70.6884 65.776 70.8806 65.4412 71.0666L74.7762 69.8349C75.42 68.5144 76.8685 67.2582 78.3299 65.9867C79.9603 64.572 81.4797 63.1375 82.9669 61.6876C86.1745 58.5643 89.3178 55.4258 92.4772 52.291C98.5466 46.2665 105.067 40.3713 111.469 34.4294C115.02 31.1378 118.39 27.8017 121.202 24.35C122.037 23.3227 121.651 22.4661 118.948 22.793C115.931 23.1581 113.029 24.4587 111.363 25.656C104.175 30.8239 98.2569 36.3532 92.2584 41.8434C89.5223 44.3458 86.5994 46.8016 83.8762 49.3063C81.5489 51.4497 79.4518 53.6421 77.1052 55.7779C76.7543 56.0974 76.3986 56.4148 76.0381 56.7302C75.8546 56.8894 74.9114 57.6779 75.4393 57.2492C74.7006 57.8517 73.9345 58.4465 73.1185 59.0267C72.7241 59.3069 72.3137 59.5817 71.9017 59.8573C71.81 59.9185 71.2676 60.2576 71.8196 59.9155C72.3926 59.5603 71.6828 59.992 71.5701 60.0563C71.1468 60.3028 70.6946 60.5347 70.2616 60.7759C69.7289 61.0721 70.7622 60.5172 70.7863 60.5187C70.7171 60.5133 69.8207 60.9512 69.7515 60.9834L77.0166 61.0438C79.2795 58.1563 82.3697 55.451 85.5662 52.7763C86.1552 52.2841 87.3463 51.3027 88.2476 50.5564C89.0217 49.9118 89.7926 49.2673 90.5491 48.6181C92.1827 47.2149 93.7085 45.7857 95.2681 44.3619C101.867 38.342 108.646 32.3656 115.445 26.3955C115.829 26.0579 116.285 25.3322 115.605 24.9823C115 24.6761 113.983 24.7871 113.249 24.8759C110.167 25.2487 107.688 26.5195 105.846 27.6708C97.1415 33.1059 90.9048 39.3333 83.7957 45.2453C76.4613 51.3479 68.4783 57.6281 60.8639 63.7912L70.3518 62.532C76.4179 57.4475 82.1251 52.2688 87.747 47.0687C90.3866 44.6283 92.9199 42.1572 95.6946 39.7505C98.2698 37.5114 101.025 35.3167 103.539 33.0592C106.473 30.4243 109.124 27.6807 110.653 24.7787C111.68 22.8313 105.677 24.2788 104.593 24.7021C99.3626 26.7491 95.4982 29.2148 91.7868 31.8834C88.4938 34.2511 85.1381 36.592 81.977 39.0026C75.4345 43.9853 69.2477 49.0698 62.7373 54.0609C60.8832 55.4832 58.9583 56.881 57.0028 58.2711C56.3928 58.7052 55.815 59.1492 55.2001 59.5817C55.0521 59.6858 54.8783 59.7868 54.7463 59.894C54.4555 60.0869 54.5467 60.0359 55.0199 59.7409L54.6835 59.9384C54.7688 59.9484 53.6551 60.3801 54.6562 59.9729C55.6009 59.5901 56.1529 59.3643 57.4067 59.0765L60.6515 59.9354C63.5373 53.8044 71.1839 48.4872 76.6432 42.8447C79.6819 39.7061 82.5661 36.53 85.5066 33.3692C86.9197 31.8497 88.312 30.3248 89.7686 28.8137C91.2477 27.2827 92.7508 25.6874 93.1951 24.0002C93.6988 22.0864 88.6242 23.4146 87.1805 23.9236C75.338 28.1033 67.3936 34.1623 60.4873 40.2396C53.2752 46.5849 46.4462 53.0236 39.2181 59.3681C39.1859 59.3972 38.5437 59.9499 38.8962 59.659C39.1569 59.4416 38.3795 60.0678 38.27 60.152C37.8081 60.511 37.3349 60.867 36.8585 61.2237C35.7496 62.0505 34.623 62.8711 33.5511 63.7085C31.2367 65.5174 29.0896 67.3723 27.9179 69.4284C26.8363 71.3322 32.8123 69.8877 33.815 69.505C40.0565 67.1128 44.2879 64.0546 48.8395 60.9711C53.28 57.9627 57.9185 55.0308 62.1981 51.9664C71.3352 45.4267 79.463 38.6038 87.4846 31.7448C89.6639 29.8808 91.8495 28.0091 94.0835 26.1635C96.3899 24.2497 99.0359 22.4332 100.333 20.289C100.747 19.6085 99.7666 19.2487 98.4388 19.3222C96.546 19.427 94.436 20.1481 93.1597 20.7766C87.3012 23.6588 82.9781 27.1127 78.1143 30.3677C73.3438 33.5621 68.5186 36.7382 63.8334 39.961C54.2683 46.5444 45.2906 53.3635 37.1482 60.3656C34.8949 62.3054 32.6835 64.2643 30.7103 66.2707C28.9399 68.0658 27.1968 70.1105 25.193 71.7058L34.3574 70.0156C36.836 62.2778 45.2471 55.4594 53.1287 48.7238C61.7555 41.3504 69.4537 33.7581 76.5145 26.0196C80.0827 22.1078 84.8194 18.2466 86.5142 14.0188C86.8859 13.0887 84.6182 13.4201 83.6364 13.6834C81.9883 14.1259 79.9781 14.9909 79.5499 15.9187V15.9164Z" fill="#FFBD00"/>
<path d="M89.5405 10.2869C80.9185 18.9731 71.4676 27.4618 61.6965 35.8663C61.0785 36.3991 60.4583 36.9311 59.8359 37.4624C59.675 37.5948 59.535 37.7318 59.3692 37.8612L59.5559 37.7081C59.9733 37.3595 59.8027 37.5007 59.0441 38.1314C58.69 38.4376 58.3408 38.7438 57.9867 39.0546C56.7678 40.11 55.5451 41.1644 54.3187 42.2177C51.9077 44.2861 49.4854 46.3512 47.0519 48.4129C44.5658 50.5298 42.0673 52.6431 39.5565 54.7529C38.9803 55.2367 38.402 55.7197 37.8215 56.202L37.3467 56.5962L37.8038 56.2135C37.6992 56.3015 37.593 56.3888 37.4819 56.476L36.5307 57.2607C35.2614 58.3074 33.9818 59.351 32.6921 60.3916C30.1443 62.4462 27.5997 64.4916 25.1936 66.5845C24.9344 66.8096 24.6689 67.0339 24.4049 67.2582C25.641 66.2033 24.5965 67.0967 24.281 67.3424C23.7628 67.745 23.2204 68.1416 22.6345 68.5228L22.5025 68.6085C22.0733 68.879 22.3239 68.7234 23.2542 68.1416C23.0707 68.248 22.892 68.3567 22.7037 68.4616C22.6103 68.5129 22.517 68.5641 22.422 68.6147C21.408 69.1505 23.98 67.8844 23.1592 68.2556L22.7133 68.4547C21.8877 68.8206 24.7365 67.6892 23.568 68.1102L23.407 68.1653C22.8287 68.3592 23.2042 68.2424 24.5337 67.8147C24.318 67.8752 24.1072 67.9364 23.8899 67.9923L29.0113 68.0566C28.9888 67.7129 29.0113 67.3677 29.0515 67.0262L28.9839 67.5529C29.2172 66.0326 30.0977 64.5582 31.1647 63.1275L30.6899 63.7606C32.1658 61.8085 34.0457 59.9384 35.7051 58.0193C37.6461 55.7802 39.6193 53.548 41.6907 51.3357C45.9247 46.813 50.4795 42.3626 55.3552 37.9844C57.7458 35.841 60.2013 33.7157 62.7218 31.6085L62.9487 31.421C63.0324 31.3506 62.0989 32.1237 62.4562 31.829L62.9873 31.3904C63.3178 31.1194 63.6483 30.8484 63.9788 30.5774C64.6226 30.0569 65.2663 29.5371 65.9101 29.0181C67.2063 27.9811 68.5196 26.9484 69.8501 25.9201C75.2043 21.7894 80.8585 17.7516 86.8124 13.8067C87.5802 13.2992 88.3479 12.7924 89.1253 12.2879C89.2701 12.1935 89.4166 12.0994 89.5647 12.0055C89.6355 11.9603 89.7095 11.9151 89.7787 11.87C89.9589 11.7536 88.5072 12.6554 88.9739 12.3729C89.2958 12.1723 89.6307 11.9718 89.9638 11.7735C91.3174 10.9667 92.7128 10.1766 94.0712 9.37287C97.4286 7.38714 100.81 5.30802 102.978 2.95868C103.531 2.35531 104.003 1.73578 104.391 1.10386C104.649 0.688959 104.367 0.1179 103.337 0.0222114C102.014 -0.101801 100.58 0.24267 99.4742 0.531266C89.8978 3.04289 84.6316 7.71402 78.8085 11.8853C72.4173 16.4622 66.4654 21.1732 60.52 25.8826C54.5746 30.592 48.5567 35.2975 42.3715 39.9418C36.1225 44.637 29.7307 49.2887 23.1962 53.897C21.9086 54.7988 20.5808 55.6853 19.3914 56.6161C18.4048 57.3893 17.4681 58.1762 16.5056 58.9563C15.4128 59.8427 14.2974 60.7238 13.0887 61.5751C12.8119 61.7695 12.5318 61.9624 12.2437 62.1538C12.0924 62.2541 11.9363 62.3536 11.7834 62.4539C11.3392 62.7455 12.8602 61.7894 12.6509 61.918L12.3853 62.0818C12.0811 62.2663 11.7689 62.4485 11.447 62.6261C11.314 62.6996 11.1788 62.7723 11.0414 62.8443C10.0597 63.3579 12.49 62.1553 11.8655 62.4408C11.7045 62.5174 11.5436 62.5886 11.3826 62.6606L11.1766 62.7493C10.6938 62.9606 9.92927 63.191 12.4288 62.2556C12.1069 62.3735 11.7995 62.4852 11.4631 62.5947L18.2921 62.6805C18.4382 62.2244 18.6742 61.7759 18.9971 61.3408L18.5142 61.9838C19.6409 60.488 21.4708 59.1515 23.0481 57.759C24.8185 56.1951 26.5294 54.6151 28.2757 53.0458C31.8359 49.848 35.4089 46.6541 38.9948 43.4639C42.4858 40.3506 45.9606 37.2327 49.5144 34.1355C51.2945 32.583 53.0923 31.0359 54.9078 29.4942C55.8166 28.7231 56.7286 27.9538 57.6439 27.1862L58.2571 26.6748L58.5645 26.4192L58.0108 26.8785L58.1637 26.7506C58.653 26.3464 59.1433 25.9425 59.6347 25.5388C63.8065 22.1196 68.1211 18.7406 72.5782 15.402C73.4634 14.7429 75.3835 12.9003 72.2386 12.8881C71.0138 12.8835 69.7487 13.1392 68.7138 13.4308C66.8808 13.9424 65.2415 14.5968 63.8645 15.3668C55.999 19.8266 49.6512 24.7909 43.0523 29.6749C39.8334 32.0602 36.4534 34.3889 32.9609 36.6861C31.1368 37.887 29.2886 39.0809 27.4163 40.268C26.4506 40.8804 25.4784 41.491 24.4999 42.0998C24.3389 42.1978 25.7875 41.3037 25.2805 41.6145C25.1549 41.691 25.0278 41.7714 24.9022 41.8495L24.2375 42.2606C23.7311 42.5739 23.2225 42.8862 22.7118 43.1975C20.6355 44.4668 18.4933 45.7122 16.4171 46.9822C15.519 47.5318 14.6467 48.0891 13.681 48.6166C13.4299 48.7551 13.1659 48.8875 12.91 49.0238C12.6541 49.1601 14.6804 48.171 14.0624 48.4527C13.9127 48.5201 13.7679 48.5898 13.6166 48.6564C13.4975 48.7084 13.372 48.7574 13.2529 48.8095C13.1016 48.8761 15.3017 48.0302 14.46 48.3226C14.3409 48.3639 14.196 48.4068 14.0834 48.4535C14.188 48.4099 16.1902 47.8289 15.0571 48.1328L20.0336 49.4525C21.73 47.6421 23.6662 45.8929 25.7038 44.1651C24.4307 45.2453 25.369 44.4438 25.6844 44.1873C25.9613 43.9623 26.2403 43.738 26.5214 43.5145C27.0579 43.0873 27.6019 42.6622 28.1534 42.2391C29.2565 41.3925 30.3831 40.553 31.5333 39.7206C33.8091 38.0633 36.1525 36.4289 38.4943 34.7915C40.7814 33.1947 43.2181 31.6529 45.6195 30.0959C48.6067 28.1576 51.4329 26.1497 53.6379 23.9818C54.0064 23.619 54.7565 22.633 53.8278 22.2548C52.8235 21.8453 51.288 22.003 50.1936 22.225C42.1221 23.857 35.3092 26.5064 28.7103 29.1972C27.4533 29.7101 26.2043 30.2276 24.9489 30.7405C24.3277 30.9938 23.7032 31.2442 23.0803 31.496C22.8663 31.5825 25.2419 30.6394 24.3341 30.9969L23.9494 31.15C23.0739 31.4937 22.1983 31.839 21.3356 32.1896C19.0003 33.1388 16.8532 34.1875 14.5758 35.1643C14.2266 35.3136 13.8741 35.4621 13.5184 35.6075C13.3575 35.6741 13.1965 35.7384 13.0356 35.805L14.4841 35.2279L14.0914 35.381C13.4476 35.629 12.7845 35.8678 12.1037 36.0936L11.9025 36.1595C11.2297 36.3748 11.6348 36.2473 13.1177 35.7767C12.9132 35.8357 12.7137 35.8984 12.5077 35.9566C12.1713 36.0523 11.8269 36.1419 11.4824 36.2299C10.623 36.4496 12.7298 35.9528 12.5817 35.9804C12.3708 36.0194 12.1665 36.0707 11.9572 36.1128C11.5452 36.1947 11.1251 36.2659 10.7002 36.3294L14.7143 37.3935C14.8091 36.9044 15.0329 36.4229 15.3805 35.9604L14.8462 36.6724C15.1364 36.297 15.48 35.9315 15.8747 35.5785C15.9745 35.4881 16.0839 35.4009 16.1821 35.3105C16.1821 35.3044 15.0475 36.2368 15.6092 35.789C15.8141 35.6257 16.0233 35.4641 16.2368 35.3044C17.1655 34.6154 18.1682 33.9418 19.0985 33.2506C21.6221 31.3797 23.766 29.4077 23.7306 27.1364L23.3137 26.7009C22.2385 26.4108 21.3824 26.2209 20.1495 26.1964C18.7961 26.1601 17.4389 26.2231 16.1258 26.3832C13.2559 26.744 10.5013 27.2874 7.93675 27.9984C5.15879 28.7639 2.62547 29.9198 1.016 31.2434C0.499353 31.6721 0.0663961 32.1046 0.00201695 32.6029C-0.0591432 33.0775 0.251469 33.3547 1.23164 33.5376C2.33252 33.7435 3.59115 33.4993 4.63088 33.3608L3.15339 33.5568C3.36184 33.5293 3.5736 33.5078 3.78751 33.4925C5.52414 33.3692 7.3187 32.8425 8.68836 32.3603C10.4008 31.7578 12.218 30.9249 13.3559 30.0599L14.2732 29.2982C14.7156 28.9125 14.9204 28.4753 14.8639 28.0367C14.5147 27.4771 13.6101 27.3003 12.3886 27.3875C12.0667 27.4105 11.756 27.4587 11.4229 27.4687L12.6364 27.4733C12.513 27.4705 12.393 27.4531 12.2872 27.4227L5.5869 32.962C5.89914 32.8793 6.21622 32.802 6.53329 32.7239C7.22215 32.5547 4.64216 33.1464 5.52898 32.9535C5.73016 32.9107 5.93135 32.867 6.13575 32.8257C6.91562 32.6678 7.71611 32.5341 8.53225 32.4253L7.03221 32.6251C7.96234 32.5007 8.92287 32.4351 9.88903 32.4299L8.65296 32.4246C9.37589 32.4282 10.089 32.5046 10.7453 32.6489L9.86168 32.4192C9.97266 32.446 10.0801 32.4759 10.1836 32.5088L9.76832 32.074C9.76832 32.1413 9.76029 32.2087 9.75225 32.2768L9.8295 31.6851C9.74834 32.2158 9.51606 32.7388 9.13903 33.2398L9.67338 32.5271C9.40901 32.872 9.10211 33.2092 8.75434 33.5369C8.65938 33.6272 8.55962 33.7168 8.45822 33.8063C8.40833 33.8507 8.35682 33.8959 8.29727 33.9403C8.00435 34.1909 8.23343 34.0013 8.98452 33.3715C8.79782 33.5192 8.61434 33.6678 8.42282 33.814C7.55048 34.48 6.59925 35.1222 5.69633 35.7798C3.50261 37.3782 1.15118 39.2246 0.805145 41.1751C0.723062 41.639 0.597505 42.0661 1.59216 42.3233C2.61096 42.5859 3.77623 42.3999 4.82078 42.2391C8.7962 41.6374 12.4964 40.4463 15.6912 39.1932C18.7202 38.0043 21.5304 36.7259 24.4065 35.4575C24.9183 35.2279 25.435 35.0082 25.9613 34.79L26.3009 34.6507C27.1636 34.2978 24.7075 35.2814 24.9698 35.1804C25.8792 34.829 26.7724 34.4669 27.6689 34.1087C28.934 33.6042 30.1813 33.0898 31.4303 32.5777C32.6793 32.0656 33.9684 31.5305 35.2528 31.0153L35.4637 30.9303L34.9711 31.1263L34.2678 31.4057L34.6943 31.238C35.0162 31.1125 35.3381 30.9869 35.66 30.8629C36.3392 30.6006 37.0253 30.3424 37.7185 30.0882C38.5168 29.7974 39.3258 29.5136 40.1456 29.237C40.5158 29.113 40.8876 28.9913 41.2626 28.8703C42.1945 28.5695 39.975 29.2707 40.1263 29.2263C40.3564 29.1605 40.5769 29.0877 40.8039 29.0204C41.6231 28.7754 42.4585 28.5412 43.3099 28.3238C43.6897 28.2258 44.076 28.1339 44.4606 28.0413C45.4698 27.8001 42.7916 28.4141 43.5674 28.2487C43.8394 28.1913 44.1082 28.1331 44.3818 28.0773L40.9375 26.3166C40.5158 26.7356 40.0679 27.1479 39.5936 27.5536L39.5244 27.6118C39.1681 27.9109 39.3414 27.7675 40.0442 27.1816C39.9219 27.2781 39.806 27.3753 39.6853 27.4718C39.416 27.6841 39.1424 27.8948 38.8645 28.1041C37.7893 28.9124 36.6418 29.6986 35.4669 30.4771C33.138 32.0173 30.7076 33.5215 28.4769 35.0939C23.8094 38.3856 19.1033 41.6811 14.9267 45.1266C12.3274 47.27 9.85523 49.4433 7.75969 51.71C7.25593 52.2565 6.5896 53.1254 8.00273 53.489C9.46735 53.8664 11.4519 53.378 12.7362 53.0297C19.3109 51.2461 23.6517 48.1871 28.2146 45.4137C32.499 42.811 36.6922 40.1738 40.7943 37.5022C44.4027 35.1459 47.9516 32.7675 51.2864 30.3217C54.5054 27.9586 57.5972 25.5549 60.8048 23.188C62.601 21.8629 64.4343 20.5485 66.348 19.2609C67.2814 18.6322 68.2364 18.0114 69.2128 17.3984C69.8646 16.9874 68.4515 17.8692 68.5191 17.8286C68.6656 17.7406 68.8088 17.6503 68.9537 17.5615C69.2144 17.4023 69.4784 17.2438 69.7423 17.0853C70.2702 16.77 70.8067 16.4579 71.3518 16.1491L62.6381 16.1132C54.1448 22.45 46.2664 28.9737 38.6842 35.5624C31.2066 42.0646 23.9462 48.6265 16.6601 55.1785C14.6676 56.9698 12.7604 58.7886 10.6664 60.5539C8.61112 62.2878 6.34015 64.0936 5.72694 66.0961C5.52737 66.7506 5.88788 67.2329 7.40562 67.2391C9.35147 67.2459 11.006 66.6726 12.5559 66.1819C15.0796 65.3835 17.3522 64.2819 19.2739 63.1742C20.9501 62.2043 22.4971 61.1854 23.906 60.1237C25.9903 58.559 27.7768 56.9085 29.8787 55.35C32.8643 53.1338 36.0559 50.9758 39.0962 48.775C42.2519 46.4907 45.3726 44.1942 48.4585 41.8855C54.6658 37.2465 60.7378 32.5677 66.6746 27.8491C72.5653 23.1665 78.3787 18.461 84.5479 13.8595C87.0683 11.9794 89.6194 10.1085 92.1302 8.22844C93.3035 7.3504 94.5219 6.48768 95.832 5.65328C96.2649 5.3754 94.8759 6.23736 95.0578 6.13326C95.1592 6.07584 95.2525 6.0146 95.3507 5.95565C95.4966 5.86788 95.6447 5.7801 95.795 5.69232C96.163 5.47798 96.5423 5.26798 96.9328 5.06231C97.0857 4.98117 97.2434 4.90155 97.3996 4.82193C97.9709 4.52951 95.8529 5.57291 96.4484 5.29273C96.5289 5.25522 96.6094 5.21616 96.6866 5.18019C97.0536 5.00871 97.4334 4.84643 97.8132 4.68567L96.5723 5.18019L96.7332 5.11666L96.9827 5.02555C97.1775 4.95589 97.3754 4.89006 97.5734 4.82193C98.3637 4.54941 95.8577 5.32947 96.6946 5.10059C96.9248 5.03705 97.1517 4.97273 97.3851 4.91302L92.4713 4.34043C92.3758 4.48843 92.275 4.63489 92.1688 4.77983L92.6259 4.16742C92.242 4.66801 91.7887 5.15595 91.2691 5.62801C91.1323 5.75356 90.9729 5.87526 90.8442 6.00234C90.7621 6.08348 91.6843 5.31951 91.3447 5.58744L91.1484 5.74591C90.8115 6.0123 90.4617 6.27487 90.099 6.53361C89.4327 7.00899 88.7164 7.46523 88.0067 7.92453C87.8457 8.02405 89.2186 7.17739 88.7535 7.4591L88.5072 7.6122C88.3141 7.72907 88.1198 7.84594 87.9245 7.96281C87.534 8.19603 87.1397 8.42773 86.7416 8.6579C83.2716 10.6712 79.8434 12.6822 76.6293 14.7927C70.1109 19.0729 63.9551 23.471 58.1621 27.9869C52.0976 32.6956 46.3518 37.4999 41.0839 42.4213C35.9916 47.1782 31.2785 52.0215 26.9447 56.9514C25.0305 59.1244 23.1216 61.299 21.2181 63.475C19.2594 65.7073 17.2653 68.0589 16.7567 70.4863C16.6042 71.132 16.56 71.7824 16.6247 72.4315L16.9932 72.8142C17.1643 72.8975 17.3757 72.9597 17.6087 72.9953C17.8418 73.0309 18.0897 73.0389 18.3307 73.0186C19.5427 73.0232 20.7015 72.7668 21.7461 72.492C26.8369 71.1546 30.8959 68.9224 33.7978 66.5547C34.9486 65.6169 36.0285 64.6662 37.0747 63.7016C37.4562 63.3503 37.836 62.9989 38.2287 62.6514C38.4111 62.4916 38.5957 62.3329 38.7824 62.1752C37.4514 63.3097 38.6215 62.313 38.9434 62.0489C44.2337 57.7154 49.3084 53.3221 54.3122 48.9136C59.0876 44.7033 63.9691 40.5145 68.5352 36.2529C73.053 32.0349 77.5563 27.8147 81.8939 23.5539C86.791 18.7485 91.5502 13.9111 96.1715 9.04141C96.3904 8.81176 96.7317 8.36853 96.2714 8.13352C95.811 7.89851 94.8485 8.02405 94.3592 8.11744C92.378 8.5002 90.4209 9.34607 89.5019 10.2723L89.5405 10.2869Z" fill="#FFBD00"/>
</g>
<defs>
<clipPath id="clip0_96_26">
<rect width="407" height="77" fill="white"/>
</clipPath>
</defs>
</svg>
