<svg width="256" height="48" viewBox="0 0 256 48" fill="none" xmlns="http://www.w3.org/2000/svg">
<g clip-path="url(#clip0_117_394)">
<path d="M50.0365 9.92193C48.9563 12.2478 46.2523 14.3289 44.1567 16.471C41.7666 18.9143 39.3258 21.3456 36.7423 23.745C34.2047 26.1007 31.5324 28.4231 28.7255 30.7121C26.0438 32.8871 23.3034 35.0441 20.9547 37.306C18.2983 39.8657 16.1197 42.5685 15.157 45.3912C14.9454 46.0087 16.0357 46.0545 17.0237 45.8817C18.5423 45.6159 20.0871 44.9856 20.9203 44.3375C23.5635 42.2832 25.4212 40.0313 27.8124 37.912C30.1499 35.8391 32.6615 33.8396 35.2855 31.8382C40.6733 27.7296 46.4558 23.7664 52.4165 19.8391C54.0231 18.7807 55.656 17.7284 57.2049 16.6509C57.948 16.1341 58.6657 15.6101 59.424 15.0986C59.5758 14.996 59.7327 14.8953 59.8846 14.7927C60.3655 14.4696 59.6295 14.9235 60.2045 14.5899C60.3705 14.4945 60.5356 14.399 60.7056 14.3036C60.8362 14.2315 61.6218 13.8297 60.9648 14.149L56.4527 14.4525C55.8899 15.3682 54.7318 16.0348 53.7053 16.8761C52.4094 17.9381 51.1271 19.0038 49.8583 20.0734C47.5087 22.0533 45.1813 24.0494 42.7719 25.9992C38.0442 29.8207 32.9521 33.5438 27.3912 37.1089C26.0327 37.9803 24.7186 38.8612 23.4147 39.7512C23.0938 39.9702 22.7698 40.1883 22.4378 40.404C22.29 40.4994 22.1412 40.5948 21.9903 40.6903C22.3457 40.4674 22.0288 40.6636 21.8375 40.7748C21.4899 40.9761 21.1298 41.1721 20.7573 41.3627C21.7099 40.8745 19.4969 41.8427 20.6702 41.398L24.3795 41.4457C24.8006 40.7161 25.8474 39.8194 26.5773 39.2592C27.6696 38.4212 28.8531 37.6105 29.911 36.7625C32.4965 34.691 34.7773 32.5273 37.1614 30.4038C39.1429 28.6394 41.1187 26.8738 43.0887 25.1069C45.0658 23.3389 46.4244 22.1482 48.7387 20.5062C49.3319 20.0848 49.9535 19.673 50.5862 19.2655C50.6874 19.1996 51.0822 18.9653 50.5639 19.276C50.7451 19.1677 50.9243 19.0589 51.1075 18.9515C51.4345 18.7606 51.7686 18.5697 52.1098 18.3851C52.2788 18.2934 53.2801 17.8869 53.2608 17.7857C53.2608 17.7957 52.6372 18.0782 53.0179 17.9064C53.2203 17.8153 53.4157 17.7203 53.6182 17.6292C53.9856 17.4641 54.5657 17.2985 54.8502 17.1043C54.7793 17.152 54.0251 17.4097 54.6892 17.173C54.9484 17.0804 55.2035 16.9859 55.4647 16.8948L51.6815 16.847C51.4264 17.7929 50.5568 18.6175 49.7247 19.475C48.7893 20.4404 47.8943 21.4148 46.9802 22.3859C45.1397 24.3386 43.36 26.3085 41.4123 28.2392C37.7597 31.8688 32.9986 35.3132 31.0995 39.2787C30.7957 39.922 32.1331 40.0423 33.1393 39.8142C37.1887 38.897 39.4878 37.2912 41.9043 35.5933C44.1233 34.0338 46.1794 32.4247 48.2224 30.8132C52.3203 27.5807 56.3869 24.3291 60.8139 21.1934C61.9721 20.3726 63.1424 19.5556 64.3086 18.7372C64.5607 18.5602 64.8147 18.3836 65.0749 18.2095C65.2237 18.1102 65.3786 18.0114 65.5275 17.9131C65.736 17.7776 65.8312 17.7375 65.5588 17.8921C65.8453 17.7318 66.144 17.5738 66.4234 17.4111C66.8536 17.161 65.8555 17.6463 66.3687 17.4378C66.5368 17.3691 67.2231 17.0833 66.4173 17.3963L62.6048 17.3486C61.0691 20.25 57.3294 22.9318 54.2154 25.575C50.6611 28.5904 47.5177 31.717 44.0919 34.7654C42.0517 36.5787 39.9595 38.3794 37.8154 40.1673C37.5684 40.372 37.2981 40.8249 37.7192 41.0372C38.0948 41.2281 38.7265 41.1575 39.182 41.1031C40.9435 40.8922 42.8782 40.1062 43.7822 39.3823C48.685 35.4578 53.6829 31.56 58.4946 27.6107C63.035 23.8838 66.6511 20.2528 72.1421 16.8609L66.0994 17.6559C61.8111 21.378 57.5339 25.1074 53.3691 28.8624C51.3353 30.6958 49.3977 32.3422 47.3537 34.0262C45.2977 35.7207 43.3044 37.4367 41.8527 39.2687C41.5216 39.6863 41.2189 40.2422 42.535 40.278C43.935 40.3166 45.4708 39.7116 46.4224 39.3064C51.8708 36.9762 54.9859 33.7447 58.1727 30.6877C59.75 29.1741 61.5286 27.7119 63.198 26.2211C65.1043 24.519 66.9569 22.8034 68.8814 21.1051C71.1197 19.1309 73.0826 17.4932 75.7512 15.5958L69.5576 16.4047C66.3616 20.2834 62.0217 23.9144 57.952 27.5969C53.7315 31.4174 49.9292 35.3385 45.9233 39.2086C44.8482 40.247 43.772 41.282 42.5876 42.2937C41.3839 43.3225 40.246 44.3747 39.6771 45.5272C39.3886 46.1118 40.3614 46.264 41.3981 46.1394C42.9895 45.9486 44.51 45.3344 45.5487 44.7594C50.4586 42.026 53.5463 38.7156 56.5013 35.4511C59.4533 32.1961 62.6362 28.9793 65.8403 25.7773C66.8364 24.7814 67.8721 23.7941 68.9948 22.8287C69.096 22.7438 69.1972 22.6593 69.2924 22.5749C69.3805 22.5004 69.754 22.196 69.4888 22.4102C69.7587 22.1891 70.0375 21.9699 70.325 21.7527C70.9594 21.2662 71.6259 20.7898 72.3244 20.3234L65.9111 21.1676C63.194 24.655 59.915 28.034 56.6988 31.4231C53.439 34.8589 50.321 38.3243 46.9144 41.7277C45.1347 43.5058 42.9733 45.3067 42.5421 47.2957C42.2556 48.6147 45.7401 47.7528 46.8071 47.3491C50.6287 45.9032 53.2982 44.0794 55.6874 42.088C57.7303 40.3863 59.7108 38.6684 61.6289 36.9343C65.655 33.288 69.3683 29.572 73.3074 25.9067C73.8264 25.4231 74.3575 24.9429 74.9008 24.466C75.1883 24.214 75.4839 23.9645 75.7775 23.7144C75.8382 23.6619 76.1825 23.3804 75.8251 23.6719C75.9601 23.5628 76.0951 23.4537 76.23 23.3446C76.8375 22.8585 77.4735 22.3794 78.1383 21.9073C78.4312 21.6998 78.7295 21.494 79.0332 21.2898C79.1851 21.188 79.3383 21.0868 79.4928 20.9863C79.6447 20.888 80.3695 20.4356 79.6669 20.867L73.5503 21.2964C70.737 24.7967 67.2738 28.1681 64.182 31.6125C62.621 33.3514 61.0579 35.0894 59.5343 36.8355C58.2456 38.3148 57.1047 39.8237 55.7137 41.2806C55.0355 41.9921 54.3977 42.7122 53.9006 43.4571C53.4957 44.0774 53.0907 44.8672 53.5858 45.4947C54.6164 46.8046 59.3258 44.7894 60.1772 44.2898C66.2725 40.7108 71.2908 36.8078 76.0711 32.8208C78.3306 30.9363 80.5487 29.0404 82.8184 27.1584C83.1565 26.8787 82.4884 27.427 82.8316 27.1483C82.9935 27.0166 83.1535 26.8845 83.3155 26.7527C83.5746 26.5425 83.8351 26.3322 84.097 26.1219C84.6842 25.6495 85.2787 25.1793 85.8807 24.7113C87.0834 23.7772 88.3239 22.8547 89.6022 21.9435C91.0194 20.9357 92.4914 19.9364 94.0656 18.9801C93.9644 19.0402 93.4076 19.3776 93.9806 19.036C94.183 18.9171 94.3774 18.7974 94.5778 18.679C94.9787 18.4414 95.3837 18.206 95.7927 17.9728C96.6572 17.4819 97.5454 17.0001 98.4572 16.5273L92.1806 16.9697C84.8755 23.19 76.8172 29.2614 71.2249 35.8878C69.5991 37.8123 68.1677 39.7765 67.048 41.7802C66.6795 42.4388 67.8629 42.6306 69.014 42.4788C70.9 42.2302 72.4408 41.5621 73.7447 40.9041C79.3612 38.0676 82.6534 34.4018 85.9769 30.9068C87.5197 29.2843 89.2255 27.7095 90.9233 26.12C92.8467 24.3214 94.6902 22.5052 96.6936 20.7276C97.2585 20.2251 97.8427 19.7279 98.4309 19.2311C98.773 18.9419 98.0917 19.4979 98.4521 19.2144C98.6232 19.0799 98.7882 18.9434 98.9583 18.8088C99.264 18.567 99.5752 18.3267 99.8917 18.0878C100.521 17.6144 101.174 17.1483 101.851 16.6896C102.187 16.4624 102.535 16.2401 102.879 16.0153C103.029 15.9199 103.397 15.6335 102.778 16.074C102.989 15.9232 103.262 15.7853 103.503 15.6445L96.7797 16.524C96.5772 17.0451 96.149 17.5366 95.8109 18.0396C95.9364 17.852 96.1389 17.6101 95.9121 17.9102C95.8463 17.9942 95.7816 18.0782 95.7158 18.1627C95.5558 18.366 95.3938 18.5689 95.2298 18.7716C94.8687 19.217 94.5009 19.6624 94.1263 20.1077C92.2403 22.3482 90.2511 24.5691 88.2952 26.7952C84.2529 31.3954 79.917 36.0209 76.97 40.8105C76.5216 41.5392 76.0913 42.2841 75.9425 43.0419C75.8129 43.7028 75.7077 44.4463 77.2242 44.7498C78.3853 44.9817 80.3908 44.3165 81.2006 44.0226C85.2045 42.5681 87.9986 40.6345 90.6631 38.6417C93.0755 36.8379 95.3098 34.9811 97.4995 33.1157C101.376 29.8144 105.045 26.4688 108.81 23.1423C109.312 22.6989 109.828 22.259 110.349 21.8204C109.837 22.2523 110.592 21.6295 110.734 21.5164C111.004 21.3033 111.279 21.0914 111.559 20.8808C112.149 20.438 112.762 20.0023 113.405 19.5761C113.517 19.5017 113.629 19.4273 113.744 19.3533C113.858 19.2793 114.516 18.857 114.006 19.1834C113.56 19.4697 113.954 19.2173 114.045 19.1643C114.287 19.025 114.527 18.8856 114.772 18.7477L107.562 19.6907C106.449 21.6472 104.941 23.3307 102.926 25.3035C100.963 27.2256 98.7933 29.0991 96.7099 30.9927C94.5839 32.9224 92.5441 34.8728 90.4414 36.8083C88.2952 38.7844 86.1966 40.7728 84.3886 42.8243C83.9117 43.365 83.5989 44.0927 85.2774 44.1385C87.1107 44.1891 89.0909 43.3984 90.3391 42.873C96.3251 40.3543 99.6527 36.824 102.73 33.4116C106.105 29.6656 109.787 25.9811 113.197 22.2418C115.293 19.9426 117.329 17.632 119.307 15.31C119.554 15.0179 120.015 14.4921 119.43 14.1972C118.871 13.9147 117.67 14.0626 117.066 14.1776C114.659 14.6362 112.135 15.6836 111.061 16.8175C107.839 20.2199 104.948 23.6891 102.015 27.1493C100.563 28.8605 99.1284 30.5775 97.5602 32.2663C96.0528 33.8888 94.3764 35.4778 92.8275 37.0932C91.0113 38.9881 89.343 40.936 88.2992 42.9599C87.8548 43.8221 89.6507 43.8866 90.9131 43.6465C93.0188 43.2452 95.2146 42.4125 96.3687 41.4848C100.834 37.8977 104.312 34.0973 107.796 30.2845C111.333 26.413 115.212 22.6164 118.963 18.7907C120.966 16.7483 123.587 14.671 123.805 12.3771C123.869 11.709 121.708 11.9577 121.078 12.0674C119.294 12.3776 117.56 13.0457 116.376 13.7352C110.223 17.3185 105.822 21.4282 101.74 25.5936C97.7505 29.6646 93.7497 33.738 89.6254 37.7789C87.7951 39.5722 85.4485 41.5674 85.6864 43.6184C85.7795 44.4239 88.4137 43.9706 89.1375 43.8054C91.1126 43.355 93.2739 42.5347 94.3794 41.6285C98.4946 38.2528 101.825 34.7167 105.038 31.1349C108.115 27.7067 111.517 24.35 114.636 20.9314C116.484 18.9033 118.162 16.8332 119.446 14.7092C119.809 14.1089 118.94 13.7911 117.759 13.8564C114.215 14.0511 111.214 15.4727 109.213 16.7526C108.154 17.4297 107.183 18.1445 106.249 18.8608C105.086 19.7537 103.992 20.6661 102.9 21.5809C102.443 21.9626 101.989 22.3472 101.53 22.7295C101.318 22.906 101.108 23.0821 100.894 23.2577C101.4 22.8426 100.59 23.4963 100.459 23.6042C96.4881 26.7647 92.1573 29.8211 88.1079 32.9573C85.661 34.8556 83.2851 36.7792 81.1227 38.7529C80.4677 39.3498 80.5679 40.1935 82.4134 40.0499C84.6406 39.8762 86.6603 39.0306 88.0897 38.2614C89.7996 37.3413 90.9921 36.2872 92.1715 35.2073C93.1413 34.3187 94.1668 33.4416 95.1427 32.5569C97.1789 30.7073 99.1486 28.8418 101.052 26.9603C104.818 23.252 108.442 19.5041 111.752 15.6984C112.651 14.6648 113.473 13.6183 114.384 12.5866C115.31 11.5334 116.315 10.4454 116.499 9.29394C116.542 9.03339 116.601 8.57336 115.755 8.5371C113.252 8.42877 110.896 9.3221 109.195 10.0866C107.654 10.7814 106.361 11.5964 105.268 12.4573C103.222 14.0702 101.536 15.7724 99.9706 17.4994C98.8064 18.7835 97.7121 20.082 96.6582 21.3871C94.9919 23.4481 92.872 25.4328 91.0053 27.4547C87.7657 30.9659 84.7489 34.565 83.0694 38.3243C82.8083 38.9075 83.4744 39.1179 84.6072 39.1012C87.8326 39.0535 91.0296 37.6696 92.9034 36.553C93.8338 35.9876 94.6711 35.3895 95.408 34.764C95.5892 34.6141 95.7765 34.4657 95.9496 34.3144C95.2045 34.9668 96.2189 34.1331 96.4163 33.9804C99.3065 31.7652 101.742 29.4327 103.868 27.0348C106.274 24.3233 109.025 21.6085 110.529 18.7477C111.107 17.6502 112.116 15.6908 109.932 14.8161C108.378 14.1957 105.314 15.3968 104.339 15.8387C98.4197 18.5215 93.6151 21.6548 89.509 24.9962C87.5218 26.6134 85.6388 28.2569 83.7791 29.907C82.8812 30.7035 81.9852 31.5004 81.0741 32.293C80.6638 32.6503 80.2501 33.0071 79.833 33.3634C79.6244 33.5414 79.4149 33.7184 79.2043 33.8959C79.0838 33.9966 78.9613 34.0978 78.8408 34.1989C78.4177 34.5545 79.0575 34.0262 78.7811 34.2495C76.6552 35.9698 74.4068 37.652 71.8456 39.2367L79.4604 37.4935C79.4121 37.3603 79.3803 37.2258 79.3653 37.0908C79.3561 37.0073 79.4007 36.6546 79.349 36.8999C79.423 36.5686 79.5537 36.2406 79.7399 35.9193C79.8299 35.7584 79.9423 35.601 80.0436 35.4421C80.0891 35.3705 80.2966 35.1319 80.0273 35.4569C80.085 35.3872 80.1397 35.3166 80.1974 35.2469C80.493 34.8904 80.82 34.5397 81.1652 34.1932C82.4074 32.943 83.9279 31.7595 85.1964 30.5188C86.8162 28.9297 88.2881 27.3001 89.8532 25.6991C91.5611 23.9525 93.2223 22.1945 94.6113 20.3864C96.2249 18.2906 97.5471 16.1551 98.0219 13.9299C98.1089 13.5233 98.0563 13.3506 97.2727 13.1664C95.7097 12.8028 93.7791 13.1282 92.3274 13.4594C89.9737 13.9963 87.9885 14.8018 86.1855 15.6841C83.1484 17.1696 80.7188 18.91 78.5321 20.6895C76.8233 22.0819 75.2359 23.5006 73.683 24.9322C71.06 27.3521 68.1636 29.7085 65.5062 32.1212C63.6992 33.7628 61.9751 35.4254 60.1154 37.054C58.2881 38.6541 56.4709 40.2866 55.6327 42.0751C55.1023 43.2061 57.9966 42.7671 59.1061 42.476C62.2231 41.6585 64.4422 40.3887 66.4356 39.0296C67.9075 38.0275 69.3643 37.0178 70.7664 35.9913C73.6111 33.9083 76.3029 31.781 79.0089 29.6579C84.5576 25.304 90.4333 21.0454 96.0245 16.7034C97.299 15.7132 98.5969 14.7283 99.8491 13.7319C101.064 12.7651 102.684 11.6026 102.842 10.4459C102.88 10.1653 102.972 9.92098 102.369 9.7616C101.794 9.60985 101.001 9.7029 100.427 9.80932C98.4025 10.1954 96.5985 10.9603 95.3847 11.8069C88.6698 16.4915 82.709 21.4143 77.2778 26.4531C74.6629 28.8782 71.6603 31.225 69.4827 33.749C68.8571 34.4762 68.2071 35.2345 67.9115 36.0118C67.7263 36.4986 67.4904 37.2836 68.4177 37.6634C70.249 38.4102 73.8601 36.6852 74.835 36.1841C86.7919 30.0445 96.8364 23.1089 107.506 16.4786C109.145 15.4598 111.049 14.463 112.264 13.3158C111.802 13.7529 112.376 13.1249 112.621 13.091L112.433 13.2084C112.173 13.3675 112.182 13.3664 112.46 13.2051L112.683 13.0881L112.155 13.3492C112.819 13.0462 111.897 13.457 111.802 13.4718C111.924 13.4527 112.787 13.1612 112.061 13.3635C111.446 13.5358 111.96 13.394 112.08 13.3635C112.377 13.2852 112.67 13.2089 112.973 13.1373L109.565 12.7441C108.546 14.7483 107.099 16.4405 105.334 18.3517C103.633 20.1946 101.968 22.0447 100.272 23.8872C96.9761 27.4757 92.9226 31.1668 93.1717 35.182C93.1929 35.5408 94.1213 35.5995 94.6599 35.569C95.7208 35.5084 96.7858 35.1872 97.6078 34.8942C104.188 32.5693 109.04 29.4193 113.286 26.1419C115.147 24.7051 116.92 23.2429 118.832 21.8209C121.092 20.1388 123.537 18.5144 125.881 16.858C128.721 14.8504 131.536 12.8467 134.05 10.7427C134.658 10.2297 134.455 9.59458 132.991 9.67856C131.14 9.7845 129.549 10.5499 128.335 11.1455C122.95 13.7911 119.355 17.1777 116.11 20.4714C112.734 23.8958 109.217 27.2858 105.822 30.7059C103.587 32.9566 101.435 35.2257 99.3673 37.5131L101.646 36.1178C98.7355 37.5298 95.167 39.5593 97.7789 41.5578C98.3549 41.9978 100.364 41.4939 100.917 41.3469C102.485 40.9313 103.736 40.32 104.792 39.6438C109.984 36.323 114.133 32.6881 118.289 29.0676C119.281 28.2039 120.273 27.3402 121.284 26.4812C121.751 26.0832 122.224 25.6856 122.701 25.2882C123.106 24.9494 122.878 25.1412 122.788 25.2152C122.925 25.1031 123.062 24.9914 123.2 24.8812C123.445 24.6817 123.686 24.4808 123.932 24.2818C123.708 24.4631 123.995 24.2341 124.065 24.1768C126.451 22.289 128.882 20.4141 131.306 18.5368C134.049 16.4133 136.804 14.2921 139.493 12.1528C140.121 11.6527 141.197 10.476 138.929 10.6058C136.829 10.726 134.373 11.773 133.338 12.5923C126.301 18.1426 120.294 23.9306 115.009 29.8941C114.676 30.2692 114.294 30.7488 115.162 31.0103C116.004 31.2647 117.441 30.9378 118.16 30.724C125.293 28.5842 130.429 25.5225 134.686 22.1263C136.482 20.6947 138.172 19.233 140.034 17.82C140.952 17.1238 141.926 16.4495 142.941 15.7843C143.268 15.5791 143.197 15.6214 142.728 15.9113C142.86 15.8316 142.991 15.7523 143.125 15.6727C143.391 15.5157 143.663 15.3601 143.935 15.2074C144.207 15.0547 144.492 14.9048 144.778 14.7574C145.816 14.2239 144.189 15.0323 144.879 14.7054L139.581 14.6619C135.971 18.7062 131.85 22.6388 127.925 26.6163C127.091 27.4609 126.31 28.3189 125.445 29.1564C125.214 29.3807 124.971 29.6026 124.726 29.8245C124.6 29.9385 124.422 30.0559 124.333 30.1771L124.505 30.0373C124.877 29.7322 124.733 29.851 124.072 30.3938C123.97 30.4849 123.869 30.577 123.768 30.6682C122.391 31.9175 121.035 33.1782 119.972 34.4963C118.904 35.8229 117.463 37.5646 118.486 38.9924C118.959 39.6538 120.559 39.3918 121.576 39.1599C123.493 38.7223 125.018 38.0075 126.27 37.2096C135.584 31.2947 142.38 24.6826 149.378 18.1317C149.952 17.5943 149.885 16.8351 148.218 16.9654C146.221 17.121 144.393 17.8807 143.114 18.5731C139.527 20.5157 136.741 22.7405 134.236 25.0186C133.069 26.0789 131.968 27.1545 130.862 28.2292L130.195 28.8748C130.078 28.9879 129.641 29.6159 129.368 29.6679L129.621 29.4728L128.995 29.9877C128.853 30.1127 128.728 30.2425 128.595 30.3694C128.346 30.608 128.098 30.8433 127.836 31.0766C127.676 31.2198 127.51 31.3587 127.342 31.4985C127.139 31.6703 126.576 32.1265 127.509 31.3625L127.06 31.7304C126.195 32.4409 125.327 33.1515 124.486 33.8687C122.938 35.1877 121.423 36.5301 120.263 37.9364C119.664 38.6636 119.029 39.4281 118.832 40.2093C118.69 40.7652 118.589 41.5211 119.602 41.9367C120.595 42.3433 122.216 41.9439 123.139 41.6981C124.921 41.2252 126.287 40.5357 127.508 39.7779C134.712 35.3032 139.729 29.9185 143.32 24.5848C143.79 23.8872 142.389 23.6958 141.244 23.8466C139.331 24.099 137.498 24.801 136.248 25.5101C130.795 28.6205 127.455 32.2892 123.66 35.8653C123.268 36.2347 122.874 36.604 122.453 36.9662C121.798 37.5293 122.83 36.6742 122.36 37.0454C122.17 37.1948 121.985 37.3446 121.797 37.494C120.765 38.3129 119.713 39.1279 118.801 39.9788C117.238 41.4371 115.663 43.2691 116.574 44.9273C117.315 46.2716 122.128 44.4554 122.939 44.1066C129.123 41.449 133.858 38.1969 138.248 34.8656C140.232 33.3596 142.18 31.8416 144.284 30.3718C144.833 29.9901 145.393 29.611 145.964 29.2347C146.178 29.0944 146.395 28.9549 146.613 28.8162C146.757 28.7236 146.904 28.6315 147.051 28.5399C146.546 28.85 146.479 28.893 146.849 28.6687C147.456 28.3098 148.063 27.9529 148.7 27.6036C149.018 27.4299 149.341 27.2581 149.668 27.0882C149.939 26.9479 151.168 26.3486 149.827 26.998L143.605 27.8002C143.546 28.4745 142.998 29.5071 142.426 30.2816C142.688 29.9242 142.168 30.5885 142.116 30.65C141.928 30.8719 141.732 31.0924 141.533 31.3119C141.154 31.7271 140.759 32.1389 140.363 32.5502C138.653 34.3311 136.866 36.1641 136.331 38.1206C136.261 38.3764 136.247 38.9232 137.135 38.9366C140.725 38.991 143.882 37.9144 146.402 36.803C148.73 35.7785 150.669 34.574 152.465 33.3414C153.048 32.9415 153.624 32.5393 154.21 32.1403C154.463 31.968 155.005 31.6331 153.828 32.3656C154.215 32.127 154.614 31.8884 154.993 31.644C155.331 31.4264 155.649 31.2026 155.969 30.9793C156.321 30.7326 156.669 30.4854 157.03 30.2415C157.184 30.1375 157.339 30.0335 157.498 29.9309C158.219 29.4642 157.093 30.1576 157.433 29.97C157.64 29.8574 157.846 29.7429 158.05 29.6293C158.463 29.3998 156.915 30.1475 157.848 29.7414C158.194 29.5954 157.991 29.6764 157.24 29.9843C156.498 30.2019 156.306 30.2606 156.663 30.1604C156.977 30.0752 156.814 30.1095 156.173 30.2635C156.335 30.2306 156.5 30.2024 156.669 30.179L154.075 29.8841C154.147 30.2878 154.013 30.6476 153.941 31.0628C153.894 31.3291 153.812 31.6259 153.873 31.8969C153.949 32.2386 154.165 32.3699 154.765 32.5216C155.952 32.8208 157.258 32.8404 158.585 32.7731C161.594 32.6204 164.532 31.9657 167.249 31.373C168.557 31.0867 169.854 30.7894 171.174 30.514C171.724 30.4 172.279 30.2897 172.843 30.1924C172.906 30.1814 173.614 30.0492 173.641 30.0659C173.619 30.0507 172.607 30.1766 173.575 30.0893C174.057 30.0454 174.551 30.0154 175.04 29.9939C175.236 29.9853 176.053 29.9691 175.88 29.9672C175.644 29.9672 176.386 29.9891 176.531 29.9991C176.858 30.0209 177.181 30.057 177.494 30.107C177.621 30.1275 177.741 30.1547 177.866 30.1752C178.196 30.2349 177.521 30.0669 177.804 30.1566C177.979 30.2108 178.148 30.2693 178.31 30.3317C178.674 30.4814 179.001 30.6494 179.286 30.8328C180.849 31.7986 182.092 32.6824 184.422 33.2899C187.632 34.1274 191.265 34.2056 194.858 34.0291C198.451 33.8525 201.961 33.4001 205.456 32.9792C209.187 32.5326 212.913 32.2572 216.733 32.0363C227.343 31.4226 238.022 31.0924 248.61 30.3876C251.141 30.2196 253.713 29.091 255.021 28.1094C255.77 27.5473 257.002 26.1601 254.374 26.3347C245.135 26.9498 235.83 27.2944 226.559 27.783C222.44 28.0001 218.258 28.182 214.208 28.6129C210.796 28.976 207.442 29.4542 204.006 29.7696C200.637 30.0788 197.796 30.2668 194.566 29.8603C191.915 29.5262 190.065 28.7799 188.472 27.7272C187.19 26.8782 185.812 26.1644 183.459 26.0527C180.356 25.9062 177.378 26.3128 174.583 26.9078C173.115 27.2204 171.672 27.5597 170.211 27.878C169.458 28.0421 168.701 28.2015 167.933 28.3485C167.583 28.4158 167.224 28.4716 166.877 28.5427C166.253 28.6706 166.945 28.5551 167.06 28.536C166.626 28.6067 166.149 28.6315 165.726 28.7188C165.303 28.8061 166.075 28.6682 166.053 28.6782C165.957 28.7202 165.45 28.7484 165.321 28.7613C165.012 28.7923 164.7 28.8185 164.385 28.8362C164.071 28.8538 163.408 28.8405 164.082 28.8667C163.782 28.8601 163.483 28.8442 163.188 28.819C162.956 28.7956 162.573 28.7713 162.389 28.6945C162.76 28.8457 162.65 28.7565 162.714 28.599C162.965 27.9906 163.054 27.3697 162.977 26.7508C162.885 26.1157 161.109 26.3481 160.382 26.4564C156.87 26.978 153.86 28.3795 151.651 29.7166C150.673 30.3088 149.761 30.9173 148.859 31.5352C148.562 31.7385 148.232 31.9351 147.948 32.1422C149.054 31.331 147.863 32.1899 147.519 32.4056C147.395 32.4834 147.272 32.5612 147.15 32.6399C146.595 32.9983 146.071 33.3677 145.53 33.7318C145.192 33.9604 144.853 34.1889 144.507 34.4146C144.335 34.5273 144.118 34.6418 143.967 34.7606L144.461 34.4571C144.337 34.5335 144.211 34.6089 144.082 34.6833C143.737 34.8852 143.355 35.0732 143.01 35.2741C142.553 35.5399 144.107 34.7759 143.392 35.0832C143.19 35.171 142.976 35.2564 142.78 35.3476C144.08 34.7444 143.551 35.0178 143.155 35.1753C143.975 34.9297 144.198 34.8573 143.825 34.9582C143.491 35.045 143.691 35.001 144.425 34.826C144.145 34.8842 143.419 34.9615 144.589 34.8198C144.372 34.846 143.723 34.836 144.577 34.8494L145.38 35.6654C145.506 35.2047 145.698 34.7486 145.955 34.3001C146.085 34.073 146.234 33.8492 146.386 33.6254C146.473 33.4975 146.555 33.3977 146.41 33.5834C146.497 33.4717 146.587 33.3605 146.678 33.2493C147.443 32.3221 148.346 31.4226 149.209 30.5159C151.04 28.6005 152.605 26.6721 152.81 24.5548C152.864 24.0084 151.269 24.099 150.627 24.184C149.136 24.3801 147.667 24.8373 146.588 25.3569C140.725 28.1848 136.196 31.4379 131.783 34.7811C129.792 36.2881 127.792 37.7937 125.589 39.2344C125.303 39.4219 125.008 39.607 124.719 39.7941C124.351 40.0232 124.425 39.9788 124.938 39.661C124.788 39.7521 124.634 39.8433 124.487 39.9339C123.956 40.2505 123.413 40.5618 122.856 40.8678C122.538 41.0425 122.215 41.215 121.886 41.3856C121.561 41.5545 120.3 42.0431 121.747 41.4681C121.006 41.763 120.35 42.12 119.629 42.4283L125.994 41.6075C125.825 41.2979 125.747 40.9789 125.762 40.6593C125.745 40.9675 125.854 40.4044 125.879 40.3434C125.937 40.1964 126.009 40.0508 126.091 39.9063C126.143 39.8156 126.617 39.1905 126.242 39.6447C126.366 39.4959 126.49 39.3475 126.624 39.201C126.944 38.8516 127.3 38.51 127.675 38.1726C127.889 37.9798 128.109 37.7889 128.335 37.5999C128.449 37.5045 128.633 37.244 128.841 37.1791C128.46 37.4787 128.407 37.5184 128.68 37.2979C128.788 37.2091 128.897 37.1204 129.007 37.0316C129.165 36.9044 129.324 36.7753 129.483 36.6446C130.424 35.8753 131.319 35.1052 132.143 34.3063C133.722 32.775 135.18 31.215 136.795 29.6923C137.2 29.3105 137.618 28.9308 138.049 28.5532C138.264 28.3662 138.482 28.1799 138.705 27.9944C138.138 28.4668 138.85 27.8861 138.969 27.793C139.432 27.4337 139.913 27.0801 140.419 26.7346C140.656 26.5728 140.891 26.36 141.196 26.2259C140.119 26.7007 141.284 26.1839 141.515 26.0513L134.784 26.5256C134.481 26.9097 134.201 27.2968 133.91 27.6819C134.132 27.3879 133.713 27.9362 133.713 27.9352C133.599 28.0832 133.484 28.2308 133.368 28.3781C132.877 29.0032 132.369 29.6253 131.844 30.2444C130.806 31.4675 129.696 32.6781 128.494 33.8673C127.906 34.4482 127.296 35.0236 126.662 35.5933C126.315 35.9054 125.96 36.2154 125.596 36.5234C125.536 36.574 124.98 37.0345 125.307 36.7682C125.634 36.5019 125.003 37.0101 125.003 37.0068C123.585 38.1393 122.03 39.2326 120.346 40.2813L128.251 38.1239C128.169 38.09 127.983 38.0204 127.959 37.9655C128.021 38.102 128.06 38.2041 128.017 37.9903C128.001 37.914 127.972 37.8352 127.95 37.7589C127.935 37.7064 127.966 37.6486 127.95 37.5971C127.905 37.4864 127.809 37.9951 127.95 37.7011C128.051 37.4716 128.12 37.2401 128.254 37.0116C128.332 36.8751 128.42 36.7396 128.513 36.605C128.879 36.0729 128.291 36.8512 128.599 36.4895C129.731 35.1581 131.1 33.8811 132.562 32.6242C132.908 32.3264 133.259 32.0299 133.614 31.7347C133.761 31.6116 133.91 31.4889 134.057 31.3663C134.642 30.8815 133.493 31.8287 134.057 31.3663C134.731 30.8156 135.417 30.2687 136.067 29.7114C137.99 28.0655 139.476 26.3004 141.178 24.602C142.268 23.5159 143.406 22.4436 144.653 21.3948C144.211 21.767 144.539 21.4868 144.637 21.4114C144.831 21.2602 145.021 21.1075 145.218 20.9567C145.543 20.7085 145.877 20.4631 146.221 20.2204C146.593 19.9574 146.989 19.704 147.376 19.4459C147.781 19.1743 146.792 19.7861 147.238 19.5303C147.504 19.3786 147.762 19.224 148.03 19.0737L141.766 19.5151C138.512 22.728 135.027 25.9014 131.338 29.008C131.095 29.2127 130.849 29.4174 130.604 29.6221C130.137 30.0139 130.858 29.4188 130.335 29.8445C129.837 30.2501 129.334 30.6545 128.827 31.0576C127.882 31.8029 126.916 32.5421 125.929 33.2751C123.892 34.783 121.738 36.2536 119.467 37.6868L127.252 35.904C127.111 35.6976 127.024 35.4835 126.996 35.2669C126.986 35.1848 127.028 34.7535 126.963 35.1185C126.989 34.969 127.028 34.8204 127.079 34.6728C127.18 34.3918 127.312 34.1135 127.476 33.8392C127.575 33.6712 127.683 33.5045 127.799 33.339C127.843 33.2751 127.894 33.2121 127.936 33.1482C128.069 32.9363 127.671 33.4636 127.946 33.1415C129.059 31.8392 130.356 30.5861 131.726 29.3406C135.119 26.2565 137.938 23.0191 141.001 19.8591C143.127 17.6669 145.253 15.4732 147.243 13.2533C147.675 12.7722 147.941 12.1232 146.452 12.0827C144.878 12.0397 142.97 12.7283 141.944 13.2098C136.589 15.7228 132.883 18.722 129.122 21.7775C128.293 22.4508 127.453 23.1213 126.572 23.7817C126.108 24.1294 125.631 24.4733 125.141 24.8134C124.707 25.1121 123.895 25.4715 123.631 25.8055C124.108 25.5128 124.179 25.4681 123.843 25.6714C123.71 25.7506 123.576 25.8289 123.438 25.9071C123.235 26.0236 123.03 26.1391 122.821 26.2536C122.545 26.4058 122.257 26.5528 121.974 26.7022C121.315 27.051 122.978 26.2374 121.873 26.7465C121.571 26.8859 121.263 27.0224 120.949 27.156C119.801 27.6418 121.639 26.9174 120.852 27.1999C120.515 27.3216 120.183 27.4456 119.84 27.563C119.667 27.6216 119.492 27.6791 119.316 27.7358C119.977 27.5331 120.076 27.5013 119.613 27.6403L122.764 28.4683C125.295 25.6308 127.897 22.8039 130.698 20.0219C132.062 18.6682 133.48 17.3266 134.95 15.9972C135.687 15.3332 136.44 14.6729 137.209 14.0163C137.628 13.6584 138.053 13.3016 138.482 12.9459C138.155 13.2165 138.8 12.6887 138.815 12.6768C139.036 12.4988 139.261 12.3218 139.486 12.1447L133.331 12.5842C132.914 12.9159 132.511 13.2523 132.094 13.5821C132.146 13.5405 132.301 13.4098 132.057 13.6035L131.59 13.9743C131.007 14.4372 130.422 14.8996 129.835 15.3615C128.62 16.3159 127.405 17.2703 126.19 18.2247C123.793 20.1017 121.401 21.9787 119.015 23.8557C116.714 25.6733 114.439 27.4957 112.247 29.3434C111.178 30.2454 110.116 31.1492 109.046 32.0506C108.561 32.4581 108.074 32.8653 107.586 33.2722C107.498 33.3448 106.872 33.8592 107.188 33.601C106.87 33.8606 106.551 34.1196 106.231 34.3779C103.801 36.3306 101.271 38.2599 98.441 40.089L105.455 38.1745C105.265 38.0441 105.128 37.8986 105.05 37.745C105.026 37.6973 104.948 37.2373 104.973 37.3804C104.932 37.1714 104.954 37.2339 104.941 37.3537L105.083 37.2067L104.891 37.3618C105.026 37.0855 105.127 37.2421 104.846 37.3809C104.328 37.6224 104.37 37.5984 104.972 37.3089C105.443 37.0958 105.862 36.8582 106.22 36.6007C107.621 35.5509 108.457 34.2681 109.514 33.131C111.527 30.9639 113.616 28.8133 115.782 26.6793C117.597 24.8917 119.449 23.1165 121.166 21.3074C122.816 19.5685 124.457 17.8239 126.322 16.1346C126.601 15.8801 126.887 15.6275 127.178 15.3768C127.293 15.2771 127.411 15.1778 127.527 15.0781C127.893 14.7631 127.393 15.1792 127.628 14.9903C128.197 14.5341 128.778 14.0836 129.397 13.6398C129.683 13.4356 129.976 13.2334 130.276 13.0333C130.409 12.9455 130.542 12.8586 130.681 12.7718C131.212 12.4306 130.907 12.7613 130.671 12.7718C130.896 12.7613 131.553 12.2602 131.725 12.1657C132.078 11.9725 132.444 11.784 132.817 11.5998L127.102 12.0025C126.963 12.1204 126.824 12.2383 126.682 12.3552C126.73 12.316 126.893 12.1839 126.663 12.3709C126.412 12.5761 126.157 12.78 125.899 12.9827C125.381 13.3902 124.853 13.7946 124.315 14.1957C123.201 15.0313 122.041 15.8549 120.867 16.6733C118.549 18.2867 116.14 19.8706 113.852 21.493C110.053 24.1873 106.827 27.0572 102.775 29.6727C102.631 29.7653 102.482 29.8564 102.341 29.9495C101.936 30.2134 102.863 29.6379 102.442 29.8922C102.143 30.0702 101.847 30.2497 101.542 30.4253C100.934 30.7736 100.308 31.1134 99.6639 31.4446C99.5293 31.5133 98.9866 31.7872 99.5333 31.5128C100.08 31.2384 99.508 31.5209 99.3936 31.5739C99.0602 31.7291 98.7227 31.8809 98.3812 32.0291C98.2527 32.0845 98.1211 32.1384 97.9915 32.1942C97.1179 32.5698 98.6748 31.9437 98.1302 32.1465C97.7252 32.2973 97.3203 32.4495 96.9002 32.5946L101.336 32.3083C101.306 31.3983 101.596 30.5045 102.04 29.6197C102.468 28.783 103.009 27.9601 103.66 27.156C105.061 25.4075 106.778 23.7201 108.325 22.0022C111.713 18.2324 115.787 14.5011 117.826 10.5017C118.403 9.37077 115.462 9.86181 114.418 10.1085C111.935 10.6955 109.782 11.5568 107.901 12.5107C107.11 12.9139 106.392 13.3481 105.757 13.8087C105.36 14.095 105.028 14.4028 104.657 14.6977C104.616 14.7307 104.298 14.9273 104.556 14.7755C104.88 14.5846 104.132 15.0055 104.066 15.0471C101.202 16.8156 98.3515 18.5888 95.5143 20.3669C92.8032 22.0647 90.1174 23.7712 87.4155 25.4729C86.0704 26.3217 84.7176 27.1681 83.357 28.0121C83.0067 28.2301 83.445 27.9581 83.4886 27.9309C83.3124 28.0397 83.1359 28.1482 82.9591 28.2564C82.6055 28.473 82.2508 28.6894 81.8951 28.9054C81.1838 29.3371 80.4677 29.7666 79.7469 30.1938C76.5955 32.0659 73.3347 33.8974 69.9038 35.6573L76.3211 34.178C75.985 34.04 76.3211 34.0381 76.2847 34.2491C76.2938 34.1889 76.1834 34.1102 76.1834 34.0462C76.1834 34.0367 76.1531 33.7957 76.1662 33.7967C76.4345 33.8134 76.0468 34.1469 76.1541 33.9589C76.1987 33.8811 76.2057 33.7938 76.2371 33.7141C76.3482 33.4542 76.4922 33.1976 76.6683 32.9458C76.7088 32.8862 76.7544 32.827 76.7939 32.7674C76.9822 32.4834 76.6876 32.9153 76.6815 32.9105C76.6259 32.8824 77.0865 32.419 77.1168 32.3789C78.275 31.0251 79.6912 29.72 81.1439 28.4315C84.8016 25.1866 88.3316 21.9101 92.1786 18.7119C92.5906 18.3679 91.6653 19.1276 92.376 18.5492C92.5977 18.3693 92.8184 18.1894 93.0411 18.0095C93.4116 17.7101 93.7848 17.4114 94.1607 17.1133C94.9882 16.458 95.8281 15.8058 96.6805 15.1568C98.3839 13.8617 100.142 12.5828 101.955 11.3201L94.4979 12.6835C94.4647 12.8337 94.4147 12.9829 94.348 13.1306C94.2468 13.4122 94.3572 13.1483 94.4108 13.0829C94.341 13.1712 94.263 13.259 94.183 13.3458C94.0109 13.5315 93.8216 13.7128 93.6232 13.8922C93.5219 13.9853 93.4116 14.0774 93.3053 14.17C92.7607 14.6448 93.8004 13.792 93.2041 14.2506C92.1843 15.0313 91.174 15.8141 90.1731 16.5989C87.5248 18.6671 84.8077 20.7143 82.0743 22.7591C76.797 26.7141 71.7484 30.7331 66.5115 34.7C65.0476 35.8095 63.5544 36.9099 62.0085 37.9927C61.2999 38.4928 60.5619 38.9857 59.835 39.4816C59.7044 39.5713 59.5748 39.6614 59.4432 39.7512C59.344 39.8199 59.2428 39.8881 59.1395 39.9559C58.9168 40.1019 59.0089 40.0486 59.4159 39.796C59.3501 39.8862 59.0515 39.9731 58.9614 40.0508C59.2246 39.8256 61.7797 39.0645 60.573 39.3828L64.0464 39.7836C64.6599 38.4794 66.0083 37.2669 67.5015 35.9565C68.9948 34.6461 70.4009 33.3262 71.8374 32.0077C74.8138 29.2752 77.946 26.5852 81.0437 23.8833C82.1462 22.9213 83.1525 21.9349 84.262 20.9724C84.4442 20.8134 84.6281 20.6561 84.8137 20.5005C84.9909 20.3502 85.8575 19.6597 85.0527 20.2943C85.5133 19.9312 85.9587 19.5637 86.4295 19.203C86.9002 18.8422 87.3891 18.4819 87.8923 18.1288C88.117 17.9697 88.3455 17.8132 88.5776 17.6592C88.8763 17.4593 90.161 16.7845 88.8813 17.445C89.4584 17.1467 90.0284 16.8184 90.5659 16.5039C89.259 17.2675 90.1083 16.7344 90.5305 16.5431C90.903 16.3746 91.5003 16.2639 89.9635 16.7611C90.1308 16.7084 90.291 16.6508 90.4434 16.5889C90.8787 16.4085 89.1648 16.9644 89.8076 16.786C90.4272 16.6142 90.3138 16.816 89.427 16.8585C89.5405 16.8431 89.6504 16.8223 89.755 16.7965C90.4343 16.6815 88.8237 16.8952 89.4017 16.8442C90.2167 16.7736 88.9208 16.7487 89.5029 16.8289C89.7874 16.869 90.0516 16.89 90.324 16.9535L89.5738 16.1899C88.7345 20.0939 85.655 23.3995 82.217 26.9221C80.6256 28.5523 79.099 30.1991 77.4803 31.823C76.2249 33.0823 74.6761 34.2724 73.4127 35.5308C71.9194 37.0178 70.3067 38.7977 70.8919 40.4822C71.1298 41.1694 73.1373 40.8234 73.9148 40.6459C75.8028 40.2164 77.2505 39.5159 78.5068 38.7371C83.0624 35.9216 86.6886 32.8012 90.2177 29.6842C91.962 28.1433 93.6829 26.5967 95.4971 25.0735C95.5875 24.9974 95.6783 24.9216 95.7694 24.8458C95.8382 24.7881 96.227 24.4641 95.9354 24.7065C95.6641 24.9317 95.9708 24.6774 96.0123 24.644C96.1358 24.5438 96.2584 24.4436 96.3829 24.3434C96.8486 23.9683 97.321 23.5954 97.8002 23.2248C98.7619 22.4866 99.7601 21.7584 100.808 21.0464C101.366 20.6646 101.948 20.2967 102.529 19.9235C102.953 19.6492 101.933 20.2814 102.379 20.0147C102.568 19.9016 102.755 19.7871 102.945 19.6744C103.251 19.4941 103.56 19.3151 103.873 19.1376C104.502 18.7819 105.148 18.4337 105.812 18.093C105.978 18.0076 106.148 17.9231 106.318 17.8382C107.027 17.4746 105.676 18.1383 106.19 17.9021C106.587 17.7184 106.979 17.5318 107.381 17.35L101.788 18.3726C101.914 18.427 102.034 18.4852 102.144 18.5468C102.37 18.6642 102.326 18.7702 102.212 18.5573C102.331 18.7788 102.463 18.9806 102.497 19.2116C102.516 19.3266 102.497 19.4421 102.514 19.5566C102.541 19.7737 102.598 19.2803 102.494 19.6625C102.414 19.9589 102.319 20.2528 102.191 20.5453C101.895 21.1877 101.523 21.8217 101.077 22.4446C100.966 22.6035 100.849 22.7619 100.734 22.9218C100.515 23.2239 100.761 22.8865 100.797 22.8411C100.735 22.9199 100.675 22.9991 100.613 23.0797C100.34 23.4297 100.057 23.7769 99.7631 24.1215C97.3537 26.9713 94.8573 29.8512 91.8668 32.5736C91.5408 32.8711 91.2071 33.1663 90.8656 33.4593C90.7289 33.5767 90.5902 33.6931 90.4525 33.8096C90.7714 33.5395 90.4616 33.8034 90.3027 33.9303C89.588 34.5029 88.8328 35.0617 88.1363 35.6391C88.0502 35.7107 87.9642 35.7823 87.8791 35.8534C87.7941 35.9245 87.4327 36.2695 87.7637 35.9517C88.0674 35.6554 87.7951 35.925 87.6949 35.9994C87.5653 36.0949 87.4286 36.1903 87.3051 36.2858C86.8739 36.6222 87.5714 36.1316 87.622 36.1035C87.3365 36.259 87.3865 36.2398 87.7718 36.0457C88.0925 35.8788 88.4521 35.7294 88.8439 35.6005C89.2417 35.465 89.7085 35.3218 90.1671 35.2431C90.6844 35.1543 90.6783 35.1925 90.1296 35.2011L91.6673 35.9784C93.0016 32.9549 95.0435 30.3021 97.5096 27.5101C99.6406 25.0978 102.142 22.7505 104.179 20.3211C106.246 17.8549 108.211 15.373 110.735 12.9984C111.155 12.6033 111.686 12.2197 112.064 11.8164C111.422 12.4993 111.963 11.9009 112.192 11.7291C112.382 11.5859 112.577 11.4428 112.782 11.2996C112.876 11.2347 112.976 11.1717 113.07 11.1087C113.505 10.8086 112.058 11.6704 112.737 11.3173C112.799 11.2848 112.864 11.2495 112.922 11.2151C113.546 10.8434 111.823 11.7238 112.361 11.4881C112.898 11.2524 111.023 11.9863 111.591 11.7887C112.098 11.6126 110.267 12.1705 110.819 12.0273C109.954 12.2526 109.402 12.3199 108.855 12.2969L108.111 11.5401C108.04 11.9691 107.871 12.3931 107.605 12.8047C107.363 13.1865 107.2 13.3468 106.808 13.8016C106.049 14.6724 105.312 15.5472 104.545 16.4166C102.907 18.2777 101.175 20.1187 99.3966 21.9521C95.8413 25.6151 92.1411 29.248 88.195 32.8213C87.1118 33.8024 86.009 34.7786 84.8866 35.7498C84.3592 36.206 83.8338 36.6618 83.3236 37.1223C83.2031 37.2311 83.0725 37.338 82.9571 37.4487C82.6483 37.746 83.3924 37.1423 83.0016 37.4148C82.8933 37.4897 82.791 37.5689 82.6898 37.6462C82.0075 38.1649 83.4764 37.223 82.6372 37.6677L89.6042 37.1767C90.1488 36.6909 90.6975 36.2056 91.2624 35.7246C91.5459 35.486 91.8354 35.2445 92.1209 35.004C92.4023 34.7705 92.4087 34.7643 92.1401 34.9854C92.2859 34.8661 92.432 34.7469 92.5785 34.628C93.6792 33.735 94.8063 32.8493 95.9597 31.9709C98.3367 30.1514 100.79 28.3547 103.212 26.5485C105.765 24.6454 108.246 22.7276 110.602 20.7682C111.098 20.3549 111.592 19.9412 112.093 19.5275C111.523 19.997 112.432 19.255 112.532 19.1753C112.823 18.9424 113.118 18.7102 113.417 18.4786C114.014 18.0181 114.631 17.5628 115.272 17.1162C115.566 16.9129 115.88 16.7149 116.159 16.5063C116.513 16.2668 116.398 16.3294 115.815 16.6943C111.012 17.7537 109.646 18.2163 111.718 18.082L110.031 17.2293C109.772 17.6537 109.498 18.0754 109.208 18.4943C109.073 18.6887 108.936 18.8821 108.795 19.0746C108.728 19.17 108.657 19.2664 108.582 19.3638C108.729 19.1677 108.56 19.3877 108.503 19.4592C107.818 20.3239 107.093 21.1808 106.326 22.0299C104.816 23.7001 103.177 25.3474 101.559 26.9971C98.3195 30.2988 95.4535 33.675 92.2626 36.9858C91.3859 37.8949 90.4829 38.7992 89.5364 39.691C89.0477 40.1526 88.5466 40.6111 88.033 41.0663C87.7583 41.3087 87.4802 41.5504 87.1988 41.7912C87.0571 41.9119 86.2371 42.5881 86.7838 42.1429L95.4768 40.1525C95.4687 40.0766 95.4768 39.9964 95.4637 39.921C95.5183 40.2207 95.4282 40.0642 95.4637 39.9602C95.5325 39.7822 95.5841 39.6042 95.6661 39.4276C95.7593 39.2367 95.8686 39.0506 95.9931 38.865C96.0569 38.7696 96.1308 38.6741 96.1956 38.5787C95.8777 39.0659 96.2107 38.5696 96.2766 38.4904C96.884 37.7608 97.5926 37.0526 98.3012 36.3459C100.22 34.4514 102.014 32.5283 103.915 30.629C107.701 26.8496 111.149 22.9805 115.24 19.2717C115.815 18.7496 116.408 18.2324 117.018 17.7198C117.128 17.6268 117.455 17.3247 116.962 17.7637C117.114 17.6282 117.291 17.4984 117.456 17.3667C117.755 17.1307 118.059 16.896 118.367 16.6628C118.974 16.2012 119.608 15.7471 120.268 15.3004C120.63 15.0556 121.002 14.8146 121.382 14.5741C121.761 14.3336 121.363 14.3909 121.179 14.6954C121.258 14.5603 121.702 14.3847 121.881 14.2802L114.451 15.6388C114.464 15.5052 114.341 15.9509 114.313 16.0177C114.224 16.2248 114.1 16.4262 113.979 16.6294C113.947 16.681 113.722 16.9735 113.95 16.6848C113.881 16.7721 113.807 16.8585 113.734 16.9449C113.537 17.1739 113.329 17.4001 113.11 17.6254C112.3 18.4605 111.47 19.2889 110.658 20.1225C108.827 22.0046 106.959 23.879 105.111 25.7578C101.628 29.2991 98.4814 32.9057 95.0891 36.4656C94.1648 37.4353 93.2132 38.3993 92.2099 39.3513C91.6815 39.8533 91.1379 40.3516 90.5791 40.8463C90.3165 41.0783 90.0506 41.3089 89.7813 41.5383C89.6801 41.6242 89.5789 41.7098 89.4776 41.795C88.8024 42.3648 89.9656 41.4027 89.2691 41.9654L97.3385 40.4899C97.5461 40.0819 97.7759 39.6786 98.034 39.2759C98.1555 39.0885 98.2814 38.9018 98.4116 38.7156C98.4683 38.635 98.8439 38.1363 98.689 38.3339C99.3278 37.5174 100.039 36.7114 100.786 35.9178C102.274 34.3474 103.913 32.7864 105.412 31.1978C108.563 27.8608 111.238 24.4216 114.134 21.0335C115.782 19.1085 117.485 17.1964 119.303 15.3071L111.058 16.8146C107.664 20.7448 104.065 24.6345 100.363 28.5022C98.6201 30.3236 96.802 32.1289 95.0992 33.9594C93.773 35.381 92.5167 36.8169 91.061 38.2108C90.65 38.6046 90.2217 38.9945 89.7763 39.3804C89.6659 39.4758 89.5525 39.5713 89.4422 39.6667C89.1172 39.9459 90.078 39.1675 89.4837 39.6266C89.2519 39.806 89.0231 39.9869 88.7812 40.1635C88.5392 40.34 88.2982 40.5071 88.0462 40.6755C87.9237 40.7566 87.781 40.8368 87.6676 40.9208C87.7688 40.8473 88.4774 40.4493 87.9793 40.7237C87.6817 40.8883 87.3719 41.0501 87.0763 41.2162C86.6592 41.4509 87.7121 40.8673 87.6756 40.9213C87.628 40.9914 87.1523 41.1536 87.0358 41.2028L92.9874 41.2505C98.5078 34.9238 106.222 29.0762 112.233 22.8593C113.987 21.0459 115.521 19.1724 116.605 17.2446C117.003 16.535 115.725 16.3288 114.488 16.492C112.531 16.7497 110.673 17.4641 109.395 18.1875C104.216 21.1165 100.653 24.5242 96.9994 27.8994C95.249 29.5157 93.3742 31.1015 91.5398 32.6967C90.5275 33.5781 89.5151 34.459 88.4815 35.3356C88.0198 35.7282 87.5538 36.1202 87.0834 36.5115C86.9748 36.6015 86.8661 36.6917 86.7574 36.782C87.1492 36.4575 86.7747 36.7672 86.7038 36.825C86.4082 37.0636 86.1136 37.3022 85.8149 37.5408C84.6599 38.4618 83.4683 39.3732 82.2211 40.2675C81.64 40.6846 81.0316 41.0926 80.4323 41.5044C80.0101 41.7941 81.0519 41.1642 80.5558 41.4266C80.3857 41.5163 80.2096 41.6113 80.0496 41.7067C79.6579 41.9453 80.4282 41.5278 80.4323 41.5259C79.4544 41.9658 81.4882 41.1551 80.4191 41.5459L84.3956 40.8191C84.5536 40.8502 84.9676 41.0329 84.6629 40.8506C84.5242 40.7676 84.7722 41.1956 84.7469 40.9198C84.7398 40.8349 84.6892 40.7485 84.6801 40.6621C84.674 40.6144 84.6801 40.5667 84.6801 40.519C84.6386 40.2255 84.594 40.853 84.6568 40.6669C84.8633 40.0078 85.1475 39.3546 85.5082 38.7104C86.0407 37.797 86.6704 36.897 87.3305 36.0009C87.4185 35.8811 87.5066 35.7623 87.5967 35.642C87.6979 35.5084 88.1241 35.0388 87.6443 35.5757C87.8792 35.3137 88.0573 35.0369 88.2648 34.7697C88.7049 34.2056 89.153 33.6429 89.6092 33.0814C93.4025 28.401 97.5957 23.796 101.529 19.1414C102.306 18.2214 103.079 17.3004 103.793 16.3684C104.321 15.6808 104.936 14.9712 105.221 14.2477C105.478 13.5916 104.501 13.3802 103.247 13.5458C101.441 13.7844 99.6588 14.4496 98.4967 15.1272C92.7212 18.4939 88.6222 22.3511 84.5617 26.2106C82.8346 27.8517 80.984 29.4647 79.3582 31.1291C77.7486 32.7769 76.2482 34.4485 74.5546 36.0782C74.0754 36.5398 73.5783 36.9972 73.0634 37.4506C72.9287 37.5685 72.1695 38.2089 72.6858 37.7846C72.4226 38.0003 72.1526 38.2139 71.8759 38.4255C71.3313 38.8388 70.74 39.2334 70.1549 39.6323C69.7621 39.8991 70.7826 39.2635 70.3574 39.5135C70.1843 39.6142 70.0152 39.7163 69.8401 39.8161C69.4949 40.0122 69.1314 40.2016 68.768 40.3887L75.4647 39.5126C76.3381 37.9293 77.4049 36.3712 78.6597 34.846C80.0041 33.2111 81.5125 31.6068 83.1231 30.0263C86.3707 26.8405 90.0314 23.7531 93.7264 20.679C95.7684 18.9806 97.8275 17.2861 99.833 15.5782C100.463 15.0418 100.308 14.2821 98.6718 14.4095C96.6471 14.5679 94.8816 15.3334 93.5584 16.0201C87.2019 19.3228 81.9761 23.0621 77.2221 26.9054C74.7834 28.8772 72.4357 30.8734 70.0709 32.8647C69.5343 33.3171 68.9944 33.769 68.4511 34.2204C68.1967 34.4326 67.9416 34.6447 67.6858 34.8565C67.5572 34.9625 67.4297 35.0684 67.3011 35.1739C67.7627 34.7921 67.1938 35.2617 67.0986 35.3423C65.9375 36.2891 64.7581 37.2316 63.5402 38.163C62.1928 39.1943 60.7988 40.215 59.341 41.2109C58.6499 41.6843 57.9436 42.1526 57.2221 42.6158C57.0318 42.738 56.8405 42.8595 56.6481 42.9804C56.5621 43.0348 55.896 43.4447 56.3444 43.1712C56.8324 42.874 56.0539 43.3459 56.0306 43.3621C55.7927 43.5053 55.5518 43.6485 55.3108 43.7887L61.881 42.579C61.728 42.3847 61.6612 42.1776 61.6846 41.9706C61.6603 42.2235 61.7615 41.8475 61.7959 41.7692C61.8648 41.6137 61.9518 41.4605 62.049 41.3087C62.1239 41.1899 62.3527 40.9079 62.1229 41.1832C62.2333 41.0482 62.3426 40.9131 62.458 40.7795C62.6969 40.5032 62.953 40.2308 63.2102 39.9587C64.5465 38.5477 65.652 37.0879 66.8901 35.6568C69.782 32.3126 72.7837 28.9907 75.8949 25.691C77.6777 23.7903 79.4311 21.8829 80.985 19.9369C81.4294 19.3805 81.5621 18.7005 79.8522 18.7983C78.0057 18.9038 75.9516 19.7012 74.8684 20.3683C69.6335 23.5923 65.9101 27.2066 62.1958 30.8504C58.3782 34.596 54.3815 38.3143 50.1154 41.9501C49.6801 42.3214 49.2529 42.6945 48.8186 43.0658C48.7363 43.1361 48.6539 43.2062 48.5716 43.2762C48.5716 43.2762 48.0462 43.7133 48.3276 43.4829C48.5949 43.2633 48.2173 43.5702 48.1525 43.6213C48.002 43.7415 47.8481 43.8614 47.6909 43.981C47.4412 44.1719 47.1833 44.3609 46.9174 44.548C46.7878 44.6386 46.0761 44.9856 46.0994 45.0924C46.0691 44.9522 46.6482 44.7837 46.2078 45.0151C46.0195 45.1135 45.8322 45.2146 45.651 45.3163C45.2845 45.5229 46.0225 45.1359 46.0195 45.1368C45.8453 45.1846 44.751 45.6389 46.1015 45.1244L50.3665 45.1774C50.7026 43.5463 52.2312 42.2412 53.7406 40.7509C55.406 39.1079 56.9447 37.4329 58.5129 35.7685C61.6896 32.3947 64.837 29.0139 67.9551 25.6261C69.6852 23.7378 71.3444 21.8347 72.8316 19.8997C73.0249 19.6482 73.439 19.2173 72.9328 18.9648C72.5278 18.7606 71.8496 18.8351 71.3606 18.8937C69.3592 19.1323 67.5572 19.9732 66.4163 20.7434C61.6765 23.9406 58.4704 27.5563 55.0436 31.0871C53.5999 32.5741 52.0764 34.0396 50.7087 35.5427C49.2995 37.0922 47.9318 38.6512 46.394 40.1716C45.9486 40.6119 45.4873 41.0487 45.0102 41.482C44.7875 41.6824 44.5603 41.8819 44.3289 42.0804C44.2428 42.1539 44.1537 42.2273 44.0677 42.3008C43.85 42.4869 44.3339 42.099 43.9522 42.392C43.4694 42.7632 42.9875 43.134 42.4651 43.4934C42.3375 43.5812 42.209 43.6685 42.0774 43.7549C41.9984 43.8069 41.4356 44.1753 41.8355 43.9176C42.1817 43.6938 41.8506 43.9076 41.7838 43.9467C41.5813 44.0655 41.3728 44.1853 41.1622 44.3013L47.0338 43.5334C47.4388 42.7103 48.3499 41.9272 49.2691 41.1346C50.2946 40.2527 51.2503 39.3584 52.1857 38.4546C54.2033 36.5076 56.1804 34.5511 58.1677 32.597C61.9852 28.8414 66.0863 25.1665 70.1134 21.4625C72.3466 19.4106 74.4665 17.3309 76.2351 15.1792C76.7605 14.5388 76.5175 14.0048 74.8178 14.2086C72.9196 14.4362 71.0944 15.247 70.0466 15.9933C65.5254 19.2149 61.803 22.6617 58.03 26.0842C56.309 27.6442 54.4706 29.175 52.7577 30.7364C51.2938 32.0726 49.9747 33.4393 48.4987 34.7706C48.278 34.9698 48.0543 35.1677 47.8275 35.3643C47.7121 35.4635 47.1189 35.955 47.4509 35.6878C46.9863 36.0634 46.5044 36.4342 45.9911 36.7959C45.7431 36.9705 45.4849 37.1418 45.2258 37.3136C45.1681 37.3518 44.8269 37.5632 45.1742 37.3499C45.5346 37.1285 45.0881 37.3976 45.0172 37.4377C44.751 37.5914 44.4665 37.7359 44.1942 37.8863C43.8591 38.0709 44.509 37.725 44.5242 37.7259C44.4807 37.7226 43.9168 37.9956 43.8733 38.0156L48.443 38.0533C49.8664 36.2533 51.8101 34.5669 53.8206 32.8995C54.1911 32.5927 54.9403 31.9809 55.5072 31.5157C55.9942 31.1139 56.4791 30.7121 56.9549 30.3074C57.9824 29.4327 58.9421 28.5418 59.9231 27.6542C64.0737 23.9015 68.3377 20.176 72.6139 16.4543C72.8559 16.2439 73.1424 15.7915 72.7151 15.5734C72.3345 15.3825 71.6947 15.4517 71.233 15.5071C69.2944 15.7395 67.7354 16.5316 66.5762 17.2493C61.1014 20.6374 57.1786 24.5195 52.707 28.2049C48.0938 32.0091 43.0725 35.924 38.2831 39.766L44.2509 38.981C48.0665 35.8114 51.6563 32.5832 55.1924 29.3416C56.8526 27.8202 58.4461 26.2798 60.1914 24.7795C61.8111 23.3837 63.5442 22.0156 65.1255 20.6083C66.971 18.9658 68.6384 17.2555 69.6001 15.4465C70.246 14.2325 66.47 15.1349 65.7886 15.3987C62.4985 16.6748 60.0678 18.2118 57.7333 19.8753C55.6621 21.3513 53.5514 22.8106 51.5631 24.3133C47.4479 27.4194 43.5564 30.5889 39.4615 33.7003C38.2952 34.5869 37.0845 35.4583 35.8545 36.3249C35.4708 36.5954 35.1073 36.8722 34.7206 37.1418C34.6275 37.2067 34.5182 37.2697 34.4352 37.3365C34.2523 37.4568 34.3096 37.425 34.6072 37.2411L34.3957 37.3642C34.4493 37.3704 33.7488 37.6396 34.3785 37.3857C34.9727 37.1471 35.3199 37.0063 36.1086 36.8269L38.1495 37.3623C39.9646 33.5404 44.7743 30.2258 48.2082 26.7084C50.1195 24.7518 51.9336 22.7719 53.7832 20.8016C54.672 19.8543 55.5477 18.9038 56.4639 17.9618C57.3943 17.0074 58.3397 16.0129 58.6192 14.9612C58.936 13.7682 55.7441 14.5961 54.836 14.9134C47.3872 17.5189 42.3902 21.296 38.0462 25.0844C33.5099 29.0399 29.2145 33.0537 24.668 37.0087C24.6478 37.0268 24.2438 37.3714 24.4655 37.19C24.6295 37.0545 24.1406 37.4449 24.0717 37.4974C23.7812 37.7212 23.4836 37.9431 23.1839 38.1654C22.4864 38.6808 21.7778 39.1924 21.1035 39.7144C19.6478 40.842 18.2973 41.9983 17.5603 43.28C16.88 44.4668 20.6388 43.5664 21.2695 43.3278C25.1954 41.8365 27.8569 39.9301 30.7198 38.008C33.5129 36.1326 36.4305 34.3049 39.1223 32.3947C44.8694 28.318 49.9818 24.0647 55.0273 19.789C56.3981 18.627 57.7728 17.4602 59.178 16.3097C60.6287 15.1167 62.293 13.9843 63.1089 12.6477C63.3691 12.2235 62.7526 11.9992 61.9174 12.045C60.7269 12.1104 59.3997 12.5599 58.5969 12.9517C54.912 14.7483 52.1928 16.9014 49.1335 18.9305C46.1329 20.9218 43.0978 22.9017 40.1509 24.9108C34.1345 29.0147 28.4876 33.2656 23.3661 37.6305C21.9488 38.8397 20.5578 40.0609 19.3167 41.3116C18.2031 42.4306 17.1068 43.7052 15.8464 44.6997L21.6107 43.6461C23.1697 38.8225 28.4602 34.5721 33.4177 30.3732C38.8439 25.7769 43.686 21.044 48.1272 16.22C50.3716 13.7815 53.3509 11.3745 54.4169 8.73896C54.6508 8.15916 53.2244 8.36579 52.6068 8.52994C51.5702 8.80576 50.3058 9.345 50.0365 9.92336V9.92193Z" fill="#FFBD00"/>
<path d="M56.3203 6.41265C50.8971 11.8274 44.9526 17.1191 38.8066 22.3582C38.4179 22.6904 38.0278 23.022 37.6363 23.3532C37.5351 23.4358 37.447 23.5212 37.3428 23.6018L37.4602 23.5064C37.7227 23.2891 37.6154 23.3771 37.1383 23.7703C36.9155 23.9612 36.6959 24.152 36.4732 24.3458C35.7065 25.0037 34.9374 25.6609 34.166 26.3176C32.6495 27.607 31.1259 28.8943 29.5953 30.1795C28.0315 31.4991 26.46 32.8165 24.8807 34.1317C24.5183 34.4333 24.1545 34.7344 23.7894 35.035L23.4908 35.2808L23.7783 35.0422C23.7125 35.0971 23.6457 35.1515 23.5758 35.2059L22.9775 35.695C22.1791 36.3475 21.3743 36.9981 20.5631 37.6467C18.9605 38.9275 17.36 40.2026 15.8465 41.5073C15.6835 41.6476 15.5165 41.7874 15.3505 41.9272C16.128 41.2696 15.471 41.8265 15.2725 41.9797C14.9466 42.2307 14.6054 42.4779 14.2369 42.7156L14.1539 42.769C13.8839 42.9376 14.0415 42.8406 14.6267 42.4779C14.5113 42.5442 14.3988 42.612 14.2804 42.6774C14.2217 42.7093 14.163 42.7413 14.1032 42.7728C13.4655 43.1069 15.0832 42.3176 14.5669 42.549L14.2865 42.6731C13.7671 42.9012 15.559 42.1959 14.824 42.4583L14.7228 42.4927C14.359 42.6136 14.5953 42.5407 15.4315 42.2741C15.2958 42.3118 15.1632 42.35 15.0265 42.3848L18.2478 42.4249C18.2337 42.2107 18.2478 41.9955 18.2732 41.7826L18.2306 42.1109C18.3774 41.1632 18.9312 40.2441 19.6024 39.3522L19.3037 39.7469C20.232 38.53 21.4145 37.3642 22.4582 36.1679C23.6791 34.7721 24.9202 33.3806 26.2231 32.0015C28.8863 29.1822 31.7512 26.4079 34.818 23.6786C36.3216 22.3425 37.8661 21.0176 39.4515 19.7041L39.5942 19.5871C39.6469 19.5432 39.0597 20.0252 39.2845 19.8415L39.6185 19.5681C39.8264 19.3991 40.0343 19.2302 40.2421 19.0613C40.6471 18.7368 41.052 18.4128 41.457 18.0892C42.2722 17.4428 43.0983 16.799 43.9352 16.158C47.3029 13.583 50.8593 11.066 54.6044 8.60681C55.0872 8.29043 55.5701 7.97452 56.0591 7.66004C56.1502 7.60119 56.2423 7.54249 56.3355 7.48396C56.38 7.4558 56.4265 7.42765 56.4701 7.39949C56.5835 7.32696 55.6703 7.8891 55.9639 7.71302C56.1664 7.58799 56.377 7.46296 56.5865 7.33937C57.4379 6.8364 58.3156 6.34392 59.1701 5.84286C61.2818 4.60501 63.4088 3.30894 64.7724 1.84441C65.1205 1.46828 65.4173 1.08208 65.6612 0.688162C65.8232 0.42952 65.646 0.0735356 64.9981 0.0138857C64.166 -0.0634205 63.264 0.151314 62.5685 0.331218C56.545 1.89691 53.2326 4.80878 49.5699 7.40903C45.5499 10.2622 41.8062 13.1989 38.0666 16.1346C34.327 19.0703 30.5418 22.0037 26.6513 24.8989C22.7207 27.8257 18.7003 30.7255 14.5902 33.5982C13.7803 34.1603 12.9452 34.7129 12.197 35.2932C11.5765 35.7752 10.9873 36.2657 10.3819 36.752C9.69448 37.3046 8.99293 37.8539 8.23265 38.3845C8.05853 38.5057 7.88238 38.6259 7.70117 38.7452C7.60601 38.8078 7.5078 38.8698 7.41162 38.9323C7.13222 39.1141 8.0889 38.5181 7.9573 38.5983L7.79024 38.7004C7.59891 38.8154 7.40253 38.929 7.20006 39.0397C7.11637 39.0855 7.03133 39.1308 6.94495 39.1757C6.32741 39.4959 7.85605 38.7462 7.46326 38.9242C7.36202 38.9719 7.26079 39.0163 7.15955 39.0612L7.02997 39.1165C6.72626 39.2482 6.2454 39.3919 7.81758 38.8087C7.61511 38.8822 7.42175 38.9519 7.21017 39.0201L11.5056 39.0736C11.5975 38.7893 11.7459 38.5097 11.949 38.2385L11.6453 38.6393C12.3539 37.7069 13.505 36.8737 14.4971 36.0057C15.6106 35.0307 16.6868 34.0458 17.7852 33.0675C20.0245 31.0741 22.2719 29.0831 24.5274 27.0944C26.7232 25.1537 28.9089 23.21 31.1441 21.2793C32.2638 20.3115 33.3946 19.3471 34.5365 18.386C35.1082 17.9053 35.6819 17.4258 36.2575 16.9473L36.6432 16.6285L36.8366 16.4691L36.4883 16.7555L36.5845 16.6758C36.8923 16.4238 37.2007 16.172 37.5098 15.9204C40.1338 13.7889 42.8476 11.6825 45.6511 9.60128C46.2079 9.19042 47.4156 8.04181 45.4375 8.03417C44.6671 8.03131 43.8714 8.19068 43.2205 8.3725C42.0675 8.6914 41.0364 9.09936 40.1703 9.57933C35.2229 12.3595 31.2302 15.4541 27.0796 18.4987C25.0549 19.9856 22.9289 21.4372 20.7321 22.8693C19.5848 23.6179 18.4223 24.3622 17.2446 25.1021C16.6372 25.4839 16.0257 25.8645 15.4102 26.2441C15.309 26.3052 16.2201 25.7478 15.9012 25.9415C15.8222 25.9893 15.7423 26.0394 15.6633 26.088L15.2452 26.3443C14.9266 26.5396 14.6067 26.7343 14.2855 26.9284C12.9796 27.7196 11.6321 28.496 10.3262 29.2876C9.76132 29.6303 9.2126 29.9777 8.60519 30.3065C8.44726 30.3928 8.28123 30.4754 8.12027 30.5603C7.95931 30.6453 9.23385 30.0287 8.8451 30.2043C8.75095 30.2463 8.65987 30.2898 8.5647 30.3313C8.48979 30.3637 8.41083 30.3943 8.33591 30.4267C8.24075 30.4682 9.62463 29.9409 9.09518 30.1232C9.02026 30.149 8.92917 30.1757 8.8583 30.2048C8.9241 30.1776 10.1834 29.8154 9.47075 30.0049L12.6009 30.8276C13.6679 29.699 14.8858 28.6086 16.1674 27.5316C15.3667 28.2049 15.9569 27.7053 16.1553 27.5454C16.3294 27.4051 16.5049 27.2653 16.6817 27.1259C17.0192 26.8597 17.3614 26.5947 17.7083 26.3309C18.4021 25.8031 19.1107 25.2798 19.8342 24.7609C21.2657 23.7278 22.7396 22.709 24.2126 21.6883C25.6512 20.6928 27.1839 19.7317 28.6943 18.7611C30.5732 17.5528 32.3509 16.3012 33.7378 14.9497C33.9696 14.7235 34.4414 14.1089 33.8573 13.8732C33.2256 13.6179 32.2598 13.7162 31.5714 13.8546C26.4944 14.872 22.2092 16.5235 18.0585 18.2009C17.2679 18.5206 16.4823 18.8432 15.6927 19.1629C15.3019 19.3209 14.9091 19.4769 14.5173 19.6339C14.3827 19.6878 15.8769 19.0999 15.306 19.3228L15.064 19.4182C14.5133 19.6325 13.9625 19.8477 13.4199 20.0663C11.951 20.658 10.6005 21.3118 9.16804 21.9207C8.94836 22.0137 8.72667 22.1063 8.50294 22.1969C8.40171 22.2385 8.30047 22.2785 8.19924 22.3201L9.11035 21.9603L8.86334 22.0557C8.4584 22.2103 8.04131 22.3592 7.61308 22.5L7.48654 22.541C7.06338 22.6753 7.31816 22.5957 8.25087 22.3024C8.1223 22.3392 7.99676 22.3783 7.86718 22.4146C7.6556 22.4742 7.43897 22.53 7.22233 22.5849C6.68173 22.7219 8.00688 22.4122 7.91375 22.4293C7.78113 22.4537 7.65257 22.4857 7.52097 22.5119C7.26181 22.563 6.99758 22.6073 6.73032 22.647L9.25513 23.3103C9.31478 23.0054 9.45556 22.7052 9.67421 22.4169L9.33813 22.8607C9.52062 22.6268 9.73677 22.3989 9.98503 22.1788C10.0478 22.1225 10.1166 22.0681 10.1784 22.0118C10.1784 22.008 9.4647 22.5892 9.81801 22.31C9.94691 22.2082 10.0785 22.1076 10.2128 22.008C10.7969 21.5785 11.4276 21.1586 12.0127 20.7277C13.6001 19.5614 14.9486 18.3321 14.9263 16.9163L14.6641 16.6447C13.9878 16.4639 13.4493 16.3455 12.6738 16.3303C11.8225 16.3077 10.9689 16.3469 10.143 16.4467C8.3378 16.6717 6.60523 17.0103 4.99212 17.4536C3.2448 17.9308 1.65136 18.6514 0.639014 19.4764C0.31405 19.7437 0.0417231 20.0133 0.00122906 20.3239C-0.0372402 20.6198 0.158132 20.7926 0.774653 20.9066C1.4671 21.035 2.25877 20.8827 2.91275 20.7964L1.98342 20.9185C2.11453 20.9014 2.24773 20.888 2.38228 20.8785C3.4746 20.8016 4.60337 20.4733 5.46488 20.1727C6.54202 19.7971 7.68496 19.2779 8.40069 18.7387L8.97773 18.2639C9.25599 18.0234 9.38475 17.7508 9.34925 17.4775C9.12957 17.1286 8.56064 17.0184 7.79227 17.0728C7.5898 17.0871 7.39442 17.1172 7.18486 17.1234L7.94818 17.1262C7.87054 17.1245 7.79506 17.1137 7.7285 17.0947L3.51408 20.5478C3.71047 20.4962 3.90992 20.448 4.10935 20.3993C4.54264 20.2939 2.91984 20.6628 3.47765 20.5425C3.60419 20.5158 3.73074 20.4886 3.8593 20.4628C4.34984 20.3644 4.85334 20.281 5.36668 20.2132L4.42317 20.3378C5.00821 20.2602 5.61238 20.2193 6.22009 20.2161L5.44261 20.2128C5.89732 20.215 6.34586 20.2627 6.75866 20.3526L6.20288 20.2094C6.27269 20.2261 6.3403 20.2447 6.40535 20.2652L6.14416 19.9942C6.14416 20.0362 6.13911 20.0782 6.13405 20.1207L6.18264 19.7518C6.13159 20.0826 5.98549 20.4087 5.74834 20.721L6.08445 20.2767C5.91816 20.4917 5.72512 20.7019 5.50638 20.9061C5.44665 20.9624 5.3839 21.0183 5.32012 21.0741C5.28874 21.1018 5.25634 21.1299 5.21888 21.1576C5.03464 21.3138 5.17873 21.1956 5.65116 20.803C5.53373 20.8951 5.41832 20.9877 5.29785 21.0789C4.74916 21.494 4.15084 21.8944 3.58291 22.3043C2.20308 23.3007 0.724046 24.4517 0.506391 25.6676C0.454761 25.9568 0.375787 26.2231 1.00142 26.3834C1.64224 26.5471 2.37518 26.4311 3.0322 26.3309C5.5327 25.9558 7.8601 25.2133 9.86961 24.4321C11.7749 23.6911 13.5424 22.8941 15.3515 22.1034C15.6734 21.9603 15.9984 21.8233 16.3294 21.6873L16.543 21.6004C17.0856 21.3805 15.5408 21.9937 15.7058 21.9307C16.2778 21.7116 16.8396 21.4859 17.4035 21.2626C18.1992 20.9481 18.9838 20.6274 19.7694 20.3082C20.555 19.989 21.3659 19.6554 22.1737 19.3342L22.3063 19.2813L21.9966 19.4034L21.5541 19.5776L21.8224 19.4731C22.0249 19.3948 22.2273 19.3166 22.4298 19.2393C22.857 19.0757 23.2886 18.9148 23.7246 18.7563C24.2267 18.575 24.7356 18.3981 25.2512 18.2257C25.4841 18.1484 25.7179 18.0725 25.9538 17.9971C26.54 17.8096 25.1439 18.2467 25.2391 18.219C25.3839 18.178 25.5225 18.1327 25.6653 18.0907C26.1806 17.938 26.706 17.7919 27.2415 17.6564C27.4805 17.5953 27.7234 17.5381 27.9654 17.4803C28.6001 17.33 26.9156 17.7127 27.4035 17.6096C27.5746 17.5738 27.7437 17.5376 27.9158 17.5027L25.7493 16.4052C25.4841 16.6664 25.2024 16.9234 24.904 17.1763L24.8605 17.2126C24.6364 17.399 24.7454 17.3096 25.1875 16.9444C25.1105 17.0046 25.0377 17.0652 24.9617 17.1253C24.7923 17.2576 24.6202 17.389 24.4454 17.5195C23.7692 18.0234 23.0474 18.5135 22.3084 18.9988C20.8435 19.9589 19.3148 20.8966 17.9117 21.8767C14.9759 23.9287 12.0158 25.983 9.38875 28.1309C7.7538 29.4671 6.19883 30.8218 4.88075 32.2348C4.56388 32.5755 4.14477 33.1172 5.03362 33.3438C5.95485 33.5791 7.2031 33.2746 8.01095 33.0575C12.1464 31.9456 14.8767 30.0388 17.7467 28.3099C20.4416 26.6874 23.0791 25.0434 25.6593 23.378C27.9289 21.9092 30.1612 20.4265 32.2588 18.9019C34.2835 17.4288 36.2281 15.9304 38.2458 14.4549C39.3755 13.6288 40.5286 12.8095 41.7323 12.0069C42.3195 11.6149 42.9201 11.2279 43.5343 10.8458C43.9443 10.5896 43.0555 11.1393 43.098 11.114C43.1901 11.0591 43.2802 11.0028 43.3713 10.9475C43.5353 10.8482 43.7013 10.7494 43.8674 10.6506C44.1994 10.454 44.5369 10.2595 44.8797 10.067L39.3988 10.0446C34.0567 13.9949 29.1012 18.0615 24.332 22.1688C19.6287 26.2221 15.062 30.3127 10.479 34.397C9.22576 35.5137 8.02613 36.6475 6.70906 37.7479C5.41629 38.8288 3.98787 39.9545 3.60216 41.2028C3.47663 41.6108 3.70339 41.9115 4.65804 41.9153C5.88197 41.9196 6.92267 41.5622 7.89756 41.2563C9.48492 40.7586 10.9144 40.0719 12.1231 39.3814C13.1774 38.7767 14.1505 38.1416 15.0366 37.4797C16.3476 36.5043 17.4713 35.4755 18.7935 34.5039C20.6714 33.1224 22.6789 31.7772 24.5912 30.4052C26.5761 28.9813 28.539 27.5497 30.48 26.1105C34.3843 23.2186 38.2036 20.302 41.9378 17.3605C45.643 14.4415 49.2996 11.5082 53.1799 8.63973C54.7653 7.46773 56.3699 6.30146 57.9492 5.12946C58.6872 4.58211 59.4535 4.04431 60.2776 3.52416C60.5499 3.35094 59.6762 3.88827 59.7906 3.82337C59.8544 3.78758 59.9131 3.7494 59.9748 3.71265C60.0666 3.65794 60.1598 3.60322 60.2543 3.5485C60.4858 3.41489 60.7243 3.28397 60.97 3.15577C61.0662 3.10518 61.1654 3.05555 61.2636 3.00592C61.623 2.82363 60.2907 3.47406 60.6653 3.2994C60.7159 3.27602 60.7665 3.25167 60.8151 3.22925C61.0459 3.12235 61.2849 3.02119 61.5238 2.92098L60.7432 3.22925L60.8444 3.18965L61.0014 3.13285C61.1239 3.08943 61.2484 3.04839 61.3729 3.00592C61.87 2.83604 60.2937 3.32231 60.8202 3.17963C60.9649 3.14002 61.1077 3.09993 61.2545 3.0627L58.1637 2.70576C58.1037 2.79802 58.0402 2.88932 57.9734 2.97967L58.261 2.59791C58.0195 2.90997 57.7344 3.21414 57.4075 3.50841C57.3215 3.58667 57.2213 3.66254 57.1403 3.74176C57.0886 3.79234 57.6687 3.3161 57.4551 3.48312L57.3316 3.5819C57.1197 3.74797 56.8997 3.91165 56.6716 4.07294C56.2524 4.36928 55.802 4.65369 55.3555 4.94001C55.2543 5.00204 56.1178 4.47426 55.8253 4.64987L55.6703 4.74531C55.5489 4.81816 55.4267 4.89102 55.3039 4.96387C55.0582 5.10925 54.8102 5.25369 54.5598 5.39717C52.3772 6.6522 50.2209 7.9058 48.1992 9.22143C44.0992 11.8896 40.2273 14.6313 36.5835 17.4464C32.769 20.3817 29.1549 23.3766 25.8415 26.4445C22.6384 29.4098 19.6739 32.429 16.948 35.5022C15.7439 36.8568 14.5433 38.2124 13.346 39.5689C12.114 40.9604 10.8597 42.4264 10.5398 43.9396C10.4439 44.3421 10.4161 44.7475 10.4568 45.1521L10.6886 45.3907C10.7962 45.4426 10.9291 45.4814 11.0757 45.5036C11.2223 45.5258 11.3782 45.5308 11.5299 45.5181C12.2922 45.521 13.0211 45.3611 13.6781 45.1898C16.8801 44.3562 19.4333 42.9646 21.2585 41.4887C21.9824 40.9041 22.6616 40.3114 23.3197 39.7101C23.5596 39.4911 23.7985 39.2721 24.0455 39.0554C24.1603 38.9559 24.2764 38.8569 24.3938 38.7586C23.5566 39.4658 24.2926 38.8445 24.4951 38.6799C27.8226 35.9785 31.0146 33.2398 34.162 30.4916C37.1656 27.867 40.2361 25.2558 43.1081 22.5992C45.9498 19.9699 48.7823 17.3391 51.5106 14.683C54.5908 11.6874 57.5844 8.67187 60.4912 5.63625C60.6288 5.49309 60.8435 5.21678 60.5539 5.07028C60.2644 4.92378 59.659 5.00205 59.3512 5.06026C58.105 5.29886 56.874 5.82616 56.296 6.40357L56.3203 6.41265Z" fill="#FFBD00"/>
</g>
<defs>
<clipPath id="clip0_117_394">
<rect width="256" height="48" fill="white"/>
</clipPath>
</defs>
</svg>
