<svg width="25" height="25" viewBox="0 0 25 25" fill="none" xmlns="http://www.w3.org/2000/svg">
<g clip-path="url(#clip0_29_27)">
<path d="M21.0938 12.5H8.98438V7.46581C8.98438 5.53221 10.5322 3.92577 12.4658 3.90624C14.4189 3.88671 16.0156 5.47362 16.0156 7.42186V8.20311C16.0156 8.85253 16.5381 9.37499 17.1875 9.37499H18.75C19.3994 9.37499 19.9219 8.85253 19.9219 8.20311V7.42186C19.9219 3.3203 16.5771 -0.0146614 12.4756 -1.29629e-05C8.37402 0.0146355 5.07812 3.39354 5.07812 7.4951V12.5H3.90625C2.6123 12.5 1.5625 13.5498 1.5625 14.8437V22.6562C1.5625 23.9502 2.6123 25 3.90625 25H21.0938C22.3877 25 23.4375 23.9502 23.4375 22.6562V14.8437C23.4375 13.5498 22.3877 12.5 21.0938 12.5Z" fill="#D9D9D9"/>
</g>
<defs>
<clipPath id="clip0_29_27">
<rect width="25" height="25" fill="white"/>
</clipPath>
</defs>
</svg>
