<svg width="108" height="108" viewBox="0 0 108 108" fill="none" xmlns="http://www.w3.org/2000/svg">
<path d="M65.2851 0.232056C55.0968 1.70862 46.807 9.76643 44.8242 20.1235C44.107 23.8571 44.5499 29.2992 45.8577 32.7586C47.1445 36.1969 47.4398 36.6399 56.046 48.2414C59.6742 53.1352 62.6484 57.2063 62.6484 57.2696C62.6484 57.3328 56.7843 57.375 49.6335 57.375C35.5218 57.375 34.9734 57.4172 32.5265 58.5352C28.4343 60.4125 25.7554 64.6102 25.7343 69.1242C25.7343 74.1024 28.7507 78.2789 33.8343 80.3461C34.6148 80.6414 37.6101 80.6836 66.0234 80.7891C97.2421 80.8946 97.3476 80.8946 98.2968 81.3375C99.457 81.8649 100.469 82.8563 101.102 84.0375C101.756 85.261 101.756 87.7078 101.102 88.9313C100.491 90.0703 98.9718 91.3992 97.9171 91.7156C97.3054 91.9055 88.0874 91.9688 61.1296 91.9688H25.1437L24.6796 90.7242C23.2453 86.8641 19.6804 83.7633 15.6093 82.8141C7.42494 80.8735 -0.44303 87.5602 0.06322 95.9977C0.464001 102.431 5.56869 107.536 12.0023 107.937C17.5078 108.274 22.6968 104.941 24.6374 99.8367L25.207 98.2969H61.6359H98.0648L99.7312 97.7696C104.266 96.3352 107.515 92.2219 107.937 87.4125C108.401 81.9071 104.878 76.8024 99.3515 74.9672C98.2546 74.5875 96.5038 74.5664 66.9726 74.461L35.7538 74.3555L34.7624 73.7649C32.5476 72.4781 31.5773 69.9469 32.3156 67.4578C32.632 66.4031 33.9609 64.8844 35.0999 64.2727L35.9648 63.8086L52.9874 63.7031C69.8624 63.5977 70.0101 63.5977 70.6007 63.1547C71.0859 62.7961 86.0624 42.4617 89.0367 38.1375C94.0359 30.8602 94.5632 21.2414 90.4288 13.1836C88.1085 8.71174 84.0585 4.68283 79.5656 2.4469C75.621 0.464081 69.8413 -0.421852 65.2851 0.232056ZM72.0351 6.64455C75.8742 7.31955 79.1648 9.11252 81.8648 11.9813C87.0328 17.4867 88.3617 25.5867 85.1554 32.168C84.4804 33.518 82.0757 36.9985 76.6968 44.4024C72.5624 50.0766 69.1031 54.7594 68.9976 54.8016C68.8499 54.8438 55.6453 37.2305 53.8101 34.5305C50.2242 29.236 49.7812 22.4016 52.6288 16.5164C56.2148 9.15471 63.914 5.23127 72.0351 6.64455ZM15.4406 89.3742C16.664 89.9227 17.9296 91.1672 18.5835 92.5172C18.9843 93.3399 19.0898 93.8883 19.0898 95.2383C19.0898 97.2211 18.6046 98.4024 17.2757 99.7524C15.9257 101.081 14.7445 101.566 12.7617 101.566C10.7788 101.566 9.5976 101.081 8.24759 99.7524C4.8515 96.3563 6.26478 90.5977 10.8421 89.1C12.0023 88.6992 14.2171 88.8469 15.4406 89.3742Z" fill="#FFBD00"/>
<path d="M67.3943 14.8078C64.5677 15.1664 61.5091 17.4446 60.2646 20.1024C58.0498 24.7641 60.0115 30.3117 64.6943 32.6321C66.1498 33.3492 66.4873 33.4336 68.3435 33.4969C70.0521 33.5813 70.6427 33.518 71.8029 33.1172C79.2701 30.6492 80.5568 20.4821 73.9544 16.2C71.9927 14.9344 69.8623 14.4703 67.3943 14.8078ZM70.4529 21.4946C72.3302 22.8024 72.4146 25.1649 70.6638 26.6625C70.1365 27.1055 69.7779 27.211 68.8919 27.211C67.4154 27.211 66.4873 26.5992 65.9388 25.2703C65.5802 24.4055 65.5591 24.1524 65.7912 23.4352C66.1287 22.2961 66.8037 21.5578 67.8162 21.1992C68.7865 20.8828 69.6935 20.9672 70.4529 21.4946Z" fill="#FFBD00"/>
</svg>
