<svg width="100" height="100" viewBox="0 0 100 100" fill="none" xmlns="http://www.w3.org/2000/svg">
<path d="M81.2891 0.976562C77.0898 1.5625 72.5195 4.17969 70.4101 7.20703L69.8633 8.00781H35.9961C-1.26953 8.00781 1.19141 7.92969 0.390625 9.21875C0 9.86328 0 10.0781 0 53.6328V97.4023L0.449219 98.0664C0.703125 98.4375 1.19141 98.8281 1.5625 98.9648C2.08984 99.1406 11.7383 99.1992 42.0117 99.1992L81.7773 99.2188L82.3047 98.8086C82.9492 98.3008 83.0078 97.2656 82.4219 96.6797C82.0312 96.2891 81.7773 96.2891 42.4805 96.2891H2.92969V93.2617V90.2344H48.7305H94.5312V93.2617V96.2891H91.1523C87.2266 96.2891 86.9141 96.3867 86.9141 97.6562C86.9141 98.2422 87.0312 98.4961 87.4219 98.8086C87.9101 99.1992 88.2031 99.2188 91.6406 99.2188C95.6641 99.2188 96.2891 99.1016 97.0312 98.1445L97.4609 97.5977V62.0117V26.4258L98.2226 24.7852C100.254 20.4688 100.508 16.25 99.043 11.9727C97.5781 7.71484 93.9648 3.84766 89.8828 2.16797C87.2656 1.09375 83.8672 0.625 81.2891 0.976562ZM86.8555 4.21875C87.4805 4.375 88.7305 4.86328 89.6484 5.3125C90.9766 5.95703 91.6406 6.46484 92.9883 7.79297C94.375 9.19922 94.8047 9.78516 95.5664 11.3281C97.5586 15.4102 97.5586 19.3359 95.5664 23.4375C94.8047 25 94.4141 25.5469 92.9883 26.9531C91.1719 28.7695 89.5703 29.7461 87.2656 30.4492C82.4023 31.9336 76.7969 30.332 73.3398 26.5039C72.1094 25.1367 70.6641 22.4219 70.2148 20.6055C69.8242 19.082 69.8242 15.6641 70.2148 14.1602C71.6211 8.75 75.9961 4.80469 81.543 3.88672C82.793 3.69141 85.4297 3.84766 86.8555 4.21875ZM68.0664 11.2695C67.832 11.875 67.5976 12.5781 67.3828 13.418L67.168 14.2578H43.7891C20.5078 14.2578 20.3906 14.2578 19.9609 14.6484C19.375 15.1953 19.375 16.25 19.9609 16.7969C20.3711 17.1875 20.5664 17.1875 33.8281 17.1875H47.2656V36.9141V56.6406H46.1914H45.1172V54.7266C45.1172 52.4805 44.8437 51.9531 43.6523 51.9531C42.4609 51.9531 42.1875 52.4805 42.1875 54.7266V56.6406H34.5703H26.9531V49.4141V42.1875H28.5156H30.0781V44.7266C30.0781 47.4414 30.2344 48.0664 30.9961 48.418C31.6211 48.7109 37.5195 48.7109 38.1445 48.418C38.9062 48.0664 39.0625 47.4414 39.0625 44.7266V42.1875H40.625H42.1875V44.5898C42.1875 46.7383 42.2266 47.0508 42.5781 47.4219C43.125 48.0078 44.1797 48.0078 44.7266 47.4219C45.1172 47.0117 45.1172 46.7969 45.1172 34.6094C45.1172 26.9141 45.0391 22.1094 44.9219 21.875C44.8242 21.6797 44.4531 21.4258 44.1211 21.3086C43.2812 21.0156 7.67578 20.9961 6.91406 21.2891C5.82031 21.7188 5.87891 20.8008 5.85937 39.3945V56.6406H4.39453H2.92969V36.9141V17.1875H8.75C14.3359 17.1875 14.5898 17.168 15 16.7969C15.5859 16.25 15.5859 15.1953 15 14.6484C14.5898 14.2773 14.3359 14.2578 8.75 14.2578H2.92969V12.5977V10.9375H35.5664C66.582 10.9375 68.2031 10.957 68.0664 11.2695ZM66.9922 18.3984C66.9922 19.082 67.0703 19.9609 67.168 20.3516L67.3437 21.0742L60.3516 21.1328C53.7891 21.1914 53.3398 21.2109 52.9492 21.5625L52.5391 21.9336V39.2969V56.6406H51.3672H50.1953V36.9141V17.1875H58.5937H66.9922V18.3984ZM11.9531 26.7578C12.0312 30.5469 11.8164 30.3711 16.4062 30.3711C20.9961 30.3711 20.7812 30.5469 20.8594 26.7578L20.9375 24.0234H22.4805H24.0234V31.6406V39.2578H16.4062H8.78906V31.6406V24.0234H10.332H11.875L11.9531 26.7578ZM17.8711 25.7812V27.4414H16.4062H14.9414L14.8828 25.9961C14.8437 25.1953 14.8633 24.4336 14.9219 24.2773C15 24.082 15.3906 24.0234 16.4453 24.0625L17.8711 24.1211V25.7812ZM30.0781 26.5625C30.0781 29.2773 30.2344 29.9023 30.9961 30.2539C31.2695 30.3906 32.7148 30.4688 34.5703 30.4688C36.4258 30.4688 37.8711 30.3906 38.1445 30.2539C38.9062 29.9023 39.0625 29.2773 39.0625 26.5625V24.0234H40.625H42.1875V31.6406V39.2578H34.5703H26.9531V31.6406V24.0234H28.5156H30.0781V26.5625ZM36.0937 25.8203L36.1523 27.5391H34.5703H33.0078V25.918C33.0078 25.0195 33.0664 24.2188 33.1445 24.1406C33.2227 24.0625 33.9062 24.043 34.668 24.0625L36.0352 24.1211L36.0937 25.8203ZM58.5937 26.7578C58.5937 29.4141 58.6133 29.5312 59.082 29.9805C59.5508 30.4688 59.6094 30.4688 62.9883 30.4688C66.3672 30.4688 66.4258 30.4688 66.8945 29.9805C67.3633 29.5312 67.3828 29.4141 67.3828 26.7578V24.0234H67.8516C68.1836 24.0234 68.3789 24.1992 68.5547 24.6094C68.6914 24.9219 69.1797 25.7617 69.6484 26.4844L70.5078 27.793V33.5156V39.2578H62.9883H55.4687V31.6406V24.0234H57.0312H58.5937V26.7578ZM64.4531 25.7812V27.5391H62.9883H61.5234V25.7812V24.0234H62.9883H64.4531V25.7812ZM94.5312 43.1641V56.6406H93.0664H91.6016V44.2773V31.8945L93.0273 30.8203C93.7891 30.2148 94.4531 29.7266 94.4922 29.707C94.5117 29.6875 94.5312 35.7422 94.5312 43.1641ZM74.4141 31.25C75.3906 31.9336 77.793 32.9883 79.3945 33.418C81.4062 33.9648 85.1758 34.0234 87.168 33.5352C87.9101 33.3594 88.5351 33.2031 88.5937 33.2031C88.6328 33.2031 88.6719 34.5703 88.6719 36.2305V39.2578H81.0547H73.4375V35.0586C73.4375 32.1484 73.4961 30.8594 73.6523 30.8594C73.7695 30.8594 74.1211 31.0352 74.4141 31.25ZM11.9531 44.9414C12.0117 47.6758 12.0117 47.6953 12.5586 48.1641C13.0859 48.6133 13.2031 48.6328 16.3086 48.6328C18.2422 48.6328 19.707 48.5547 19.9805 48.418C20.7422 48.0664 20.8984 47.4414 20.8984 44.7266V42.1875H22.4609H24.0234V49.4141V56.6406H16.4062H8.78906V49.4141V42.1875H10.332H11.875L11.9531 44.9414ZM17.9297 44.0039L17.9883 45.7227L16.4648 45.6641L14.9414 45.6055L14.8828 44.1602C14.8437 43.3594 14.8633 42.5977 14.9219 42.4414C15 42.2461 15.3906 42.1875 16.4453 42.2266L17.8711 42.2852L17.9297 44.0039ZM36.0937 43.9844L36.1523 45.7031H34.5703H33.0078V44.082C33.0078 43.1836 33.0664 42.3828 33.1445 42.3047C33.2227 42.2266 33.9062 42.207 34.668 42.2266L36.0352 42.2852L36.0937 43.9844ZM58.5937 44.9219C58.5937 47.5781 58.6133 47.6953 59.082 48.1445C59.5508 48.6328 59.6094 48.6328 62.9883 48.6328C66.3672 48.6328 66.4258 48.6328 66.8945 48.1445C67.3633 47.6953 67.3828 47.5781 67.3828 44.9219V42.1875H68.9453H70.5078V49.4141V56.6406H62.9883H55.4687V49.4141V42.1875H57.0312H58.5937V44.9219ZM64.4531 43.9453V45.7031H62.9883H61.5234V43.9453V42.1875H62.9883H64.4531V43.9453ZM76.7578 45.0781C76.8945 48.8281 76.6406 48.6328 81.1914 48.6328C84.5312 48.6328 84.5898 48.6328 85.0586 48.1445C85.5273 47.6953 85.5469 47.5781 85.5469 44.9219V42.1875H87.1094H88.6719V49.4141V56.6406H81.0547H73.4375V49.5508C73.4375 45.6445 73.4961 42.3828 73.5742 42.3047C73.6523 42.2266 74.375 42.207 75.1953 42.2266L76.6601 42.2852L76.7578 45.0781ZM82.6172 43.9453V45.7031H81.1523H79.6875V43.9453V42.1875H81.1523H82.6172V43.9453ZM47.2656 61.2305V62.8906H25.0977H2.92969V61.2305V59.5703H25.0977H47.2656V61.2305ZM94.5312 61.2305V62.8906H72.3633H50.1953V61.2305V59.5703H72.3633H94.5312V61.2305ZM47.2656 76.5625V87.3047H46.1914H45.1172V79.1211C45.1172 71.3672 45.0977 70.918 44.7461 70.4883L44.375 70.0195H25.4883H6.60156L6.23047 70.4883C5.87891 70.918 5.85937 71.3672 5.85937 79.1211V87.3047H4.39453H2.92969V76.5625V65.8203H25.0977H47.2656V76.5625ZM94.5312 76.5625V87.3047H93.0664H91.6016V79.0234V70.7227L91.0937 70.332C90.5664 69.9219 90.4883 69.9219 72.0703 69.9219C53.6523 69.9219 53.5742 69.9219 53.0469 70.332L52.5391 70.7227V79.0234V87.3047H51.3672H50.1953V76.5625V65.8203H72.3633H94.5312V76.5625ZM11.9531 75.5859C12.0312 79.375 11.8164 79.1992 16.4258 79.1992H19.9609L20.4297 78.6523C20.8789 78.125 20.8984 77.9688 20.8984 75.4688V72.8516H22.4609H24.0234V80.0781V87.3047H16.4062H8.78906V80.0781V72.8516H10.332H11.875L11.9531 75.5859ZM17.9297 74.5508L17.8711 76.2695H16.4062H14.9414L14.8828 74.8242C14.8437 74.0234 14.8633 73.2617 14.9219 73.1055C15 72.9297 15.4492 72.8516 16.5039 72.8516H17.9883L17.9297 74.5508ZM30.1172 75.5859C30.1953 79.375 29.9805 79.1992 34.5703 79.1992C39.1602 79.1992 38.9453 79.375 39.0234 75.5859L39.1016 72.8516H40.6445H42.1875V80.0781V87.3047H34.5703H26.9531V80.0781V72.8516H28.4961H30.0391L30.1172 75.5859ZM36.0937 74.5508L36.0352 76.2695H34.5703H33.1055L33.0469 74.5508L32.9883 72.8516H34.5703H36.1523L36.0937 74.5508ZM58.5937 75.5664C58.5937 79.3555 58.418 79.1797 62.5195 79.2578C65.9961 79.3359 66.4258 79.2773 66.9922 78.7109C67.3437 78.3594 67.3828 78.0469 67.3828 75.5859V72.8516H68.9453H70.5078V80.0781V87.3047H62.9883H55.4687V80.0781V72.8516H57.0312H58.5937V75.5664ZM64.4531 74.6094V76.3672H62.9883H61.5234V74.6094V72.8516H62.9883H64.4531V74.6094ZM76.7578 75.5664C76.7578 79.3555 76.582 79.1797 80.6836 79.2578C84.1601 79.3359 84.5898 79.2773 85.1562 78.7109C85.5078 78.3594 85.5469 78.0469 85.5469 75.5859V72.8516H87.1094H88.6719V80.0781V87.3047H81.0547H73.4375V80.2148C73.4375 76.3086 73.4961 73.0469 73.5742 72.9883C73.6328 72.9102 74.3945 72.8516 75.2344 72.8516H76.7578V75.5664ZM82.6172 74.6094V76.3672H81.1523H79.6875V74.6094V72.8516H81.1523H82.6172V74.6094Z" fill="#FFBD00"/>
<path d="M86.0352 16.0156L82.5195 19.5312L80.1758 17.168C77.5977 14.5703 76.8555 14.1016 76.0156 14.4922C75.4297 14.7852 75.0781 15.5469 75.2539 16.2305C75.3125 16.4844 76.8164 18.125 78.5742 19.8633C81.4648 22.7539 81.8359 23.0469 82.4414 23.0469C83.0664 23.0469 83.4766 22.6953 87.4805 18.6719C91.5625 14.5703 91.8359 14.2578 91.6992 13.7305C91.5039 12.8906 91.0352 12.5 90.2734 12.5C89.6289 12.5 89.2773 12.793 86.0352 16.0156Z" fill="#FFBD00"/>
<path d="M30.5662 52.7344C30.0779 53.2812 30.117 54.2188 30.6443 54.7461C31.0545 55.1562 31.2303 55.1758 34.5701 55.1758C37.91 55.1758 38.0857 55.1562 38.4959 54.7461C39.0232 54.2188 39.0623 53.2812 38.574 52.7344C38.242 52.3633 37.9881 52.3438 34.5701 52.3438C31.1521 52.3438 30.8982 52.3633 30.5662 52.7344Z" fill="#FFBD00"/>
<path d="M12.9883 34.9414C12.0313 35.3516 11.7383 36.5625 12.4024 37.3047C12.7344 37.6758 12.9883 37.6953 16.4063 37.6953C19.6289 37.6953 20.0977 37.6563 20.3711 37.3438C20.9375 36.7188 20.9766 36.0352 20.4492 35.4297L19.961 34.8633L16.6602 34.8242C14.8633 34.8047 13.2031 34.8438 12.9883 34.9414Z" fill="#FFBD00"/>
<path d="M31.1524 34.9414C30.1953 35.3516 29.9024 36.5625 30.5664 37.3047C30.8985 37.6758 31.1524 37.6953 34.5703 37.6953C37.9883 37.6953 38.2422 37.6758 38.5742 37.3047C39.0625 36.7578 39.0235 35.8203 38.4961 35.293C38.1055 34.8828 37.8906 34.8633 34.8047 34.8242C33.0078 34.8047 31.3672 34.8438 31.1524 34.9414Z" fill="#FFBD00"/>
<path d="M59.4533 35.0391C58.5158 35.4492 58.2814 36.6016 58.9845 37.3047C59.3556 37.6758 59.629 37.6953 62.9884 37.6953C66.3478 37.6953 66.6212 37.6758 66.9923 37.3047C67.7345 36.5625 67.422 35.3516 66.3869 34.9805C65.4689 34.668 60.215 34.707 59.4533 35.0391Z" fill="#FFBD00"/>
<path d="M77.7927 34.9023C76.8162 35.0977 76.4255 36.582 77.1482 37.3047C77.5193 37.6758 77.7927 37.6953 81.1521 37.6953C84.6091 37.6953 84.7654 37.6758 85.156 37.2656C85.8787 36.4844 85.5857 35.3516 84.5505 34.9805C83.9646 34.7852 78.7498 34.707 77.7927 34.9023Z" fill="#FFBD00"/>
<path d="M12.4021 52.7344C11.9139 53.2812 11.9529 54.2188 12.4803 54.7461C12.8904 55.1562 13.0662 55.1758 16.4061 55.1758C19.7459 55.1758 19.9217 55.1562 20.3318 54.7461C20.8592 54.2188 20.8982 53.2812 20.41 52.7344C20.0779 52.3633 19.824 52.3438 16.4061 52.3438C12.9881 52.3438 12.7342 52.3633 12.4021 52.7344Z" fill="#FFBD00"/>
<path d="M58.9845 52.7344C58.5548 53.1641 58.4767 53.9062 58.7892 54.4922C59.1017 55.0781 60.0978 55.2734 62.9884 55.2734C65.879 55.2734 66.8751 55.0781 67.1876 54.4922C67.5001 53.9062 67.422 53.1641 66.9923 52.7344C66.6212 52.3633 66.3478 52.3438 62.9884 52.3438C59.629 52.3438 59.3556 52.3633 58.9845 52.7344Z" fill="#FFBD00"/>
<path d="M77.1486 52.7344C76.7189 53.1641 76.6408 53.9062 76.9533 54.4922C77.2658 55.0781 78.2619 55.2734 81.1525 55.2734C84.0431 55.2734 85.0392 55.0781 85.3517 54.4922C85.6642 53.9062 85.5861 53.1641 85.1564 52.7344C84.7853 52.3633 84.5119 52.3438 81.1525 52.3438C77.7931 52.3438 77.5197 52.3633 77.1486 52.7344Z" fill="#FFBD00"/>
<path d="M12.6564 83.4766C11.8556 84.082 11.9338 85.6836 12.7931 86.0156C12.9689 86.0742 14.6291 86.1328 16.4845 86.1328C20.1173 86.1328 20.547 86.0352 20.7814 85.0586C20.9181 84.4922 20.4884 83.5156 20.0197 83.3203C19.8439 83.2617 18.1838 83.2031 16.3478 83.2031C13.9064 83.2227 12.8908 83.2812 12.6564 83.4766Z" fill="#FFBD00"/>
<path d="M30.8397 83.457C30.2343 83.9258 30.0194 84.5508 30.2929 85.1758C30.4101 85.5078 30.6835 85.8398 30.8788 85.9375C31.0741 86.0547 32.7343 86.1328 34.5702 86.1328C36.4061 86.1328 38.0663 86.0547 38.2616 85.9375C38.4569 85.8398 38.7304 85.5078 38.8476 85.1758C39.121 84.5508 38.9061 83.9258 38.3007 83.457C37.871 83.125 31.2694 83.125 30.8397 83.457Z" fill="#FFBD00"/>
<path d="M59.0821 83.6914C58.4181 84.3359 58.4376 85.1953 59.1017 85.7227C59.59 86.0938 59.8829 86.1328 63.0275 86.1328C66.3673 86.1328 66.4259 86.1328 66.8946 85.6445C67.1681 85.3906 67.3829 84.9414 67.3829 84.668C67.3829 84.3945 67.1681 83.9453 66.8946 83.6914C66.4259 83.2031 66.3673 83.2031 62.9884 83.2031C59.6095 83.2031 59.5509 83.2031 59.0821 83.6914Z" fill="#FFBD00"/>
<path d="M77.2656 83.6133C76.5625 84.1602 76.5625 85.1758 77.2656 85.7227C77.7539 86.0938 78.0469 86.1328 81.1914 86.1328C84.5312 86.1328 84.5898 86.1328 85.0586 85.6445C85.332 85.3906 85.5469 84.9414 85.5469 84.668C85.5469 84.3945 85.332 83.9453 85.0586 83.6914C84.5898 83.2031 84.5312 83.2031 81.1914 83.2031C78.0469 83.2031 77.7539 83.2422 77.2656 83.6133Z" fill="#FFBD00"/>
</svg>
