<svg width="108" height="108" viewBox="0 0 108 108" fill="none" xmlns="http://www.w3.org/2000/svg">
<path d="M39.7617 18.9633L17.1914 32.8641L17.1281 39.3187L17.0859 45.7734H8.54297H0V47.3555V48.9375H13.6055H27.2109V64.2305V79.5234H13.6055H0V81.1055V82.6875L13.5633 82.7297L27.1055 82.793L27.1688 87.8977L27.2109 93.0234H13.6055H0V94.6055V96.1875L17.0016 96.2297L34.0242 96.293L34.2773 97.1789C34.8891 99.2461 36.6188 101.187 38.8125 102.262C39.8461 102.769 40.2047 102.832 42.1875 102.832C44.1492 102.832 44.55 102.769 45.6047 102.262C47.7352 101.271 49.4016 99.4148 50.1188 97.2633L50.4562 96.1875H79.2281H108V81.1055V66.0234H106.418H104.836V79.5234V93.0234H101.355H97.875V71.0859V49.1484H64.125H30.375V47.4609V45.7734H25.3125H20.25V43.9805V42.1875H31.2188H42.1875V40.6055V39.0234H31.2188H20.25V37.2305V35.4375H62.543H104.836V37.2305V39.0234H75.1992H45.5625V40.6055V42.1875H75.1992H104.836V52.418V62.6484H106.418H108V47.8195V32.9695L85.3242 19.0266C72.8578 11.3484 62.5852 5.0625 62.4797 5.0625C62.3953 5.0625 52.1859 11.3273 39.7617 18.9633ZM83.5945 21.6844L100.638 32.168L81.6539 32.2312C71.2125 32.2523 54.0633 32.2523 43.5375 32.2312L24.3844 32.168L43.432 20.4398L62.5008 8.71172L64.5258 9.95625C65.6438 10.6312 74.2289 15.9047 83.5945 21.6844ZM94.7109 54.1055V55.8984H62.543H30.375V54.1055V52.3125H62.543H94.7109V54.1055ZM94.7109 76.043V93.0234H92.918H91.125V86.2734V79.5234H87.75H84.375V72.7734V66.0234H76.043H67.7109V72.7734V79.5234H64.3359H60.9609V86.2734V93.0234H59.168H57.375V85.0711V77.0977L50.1609 69.8836L42.9258 62.6484H36.6609H30.375V60.8555V59.0625H62.543H94.7109V76.043ZM46.6172 70.9805L51.7852 76.1484H41.0695H30.375V70.9805V65.8125H35.9227H41.4492L46.6172 70.9805ZM74.4609 71.8242V74.4609H76.043H77.625V71.8242V69.1875H79.418H81.2109V74.3555V79.5234H76.043H70.875V74.3555V69.1875H72.668H74.4609V71.8242ZM54.2109 86.168V93.0234H52.3336H50.4562L50.0977 91.9898C49.3805 89.7961 47.2078 87.5813 45.0352 86.843C41.9133 85.7461 38.4539 86.5898 36.218 88.9945C35.2266 90.0492 34.1719 91.9266 34.1719 92.6438C34.1719 92.9812 33.9398 93.0234 32.2734 93.0234H30.375V86.168V79.3125H42.293H54.2109V86.168ZM67.7109 85.3242V87.9609H69.293H70.875V85.3242V82.6875H72.668H74.4609V87.8555V93.0234H69.293H64.125V87.8555V82.6875H65.918H67.7109V85.3242ZM81.2109 85.3242V87.9609H82.793H84.375V85.3242V82.6875H86.168H87.9609V87.8555V93.0234H82.793H77.625V87.8555V82.6875H79.418H81.2109V85.3242ZM44.4867 90.0703C45.3727 90.5133 46.4484 91.6102 46.8914 92.4961C48.1148 94.943 46.9547 98.107 44.3813 99.3727C42.9891 100.027 40.943 99.9 39.5297 99.0141C36.7242 97.3055 36.2812 93.4242 38.6227 91.0828C40.2469 89.4586 42.5461 89.0578 44.4867 90.0703Z" fill="#FFBD00"/>
<path d="M54 27.1055V28.6875H55.6875H57.375V27.1055V25.5234H55.6875H54V27.1055Z" fill="#FFBD00"/>
<path d="M60.75 27.1055V28.6875H62.4375H64.125V27.1055V25.5234H62.4375H60.75V27.1055Z" fill="#FFBD00"/>
<path d="M67.5 27.1055V28.6875H69.1875H70.875V27.1055V25.5234H69.1875H67.5V27.1055Z" fill="#FFBD00"/>
<path d="M32.0625 82.793V84.375H35.4375H38.8125V82.793V81.2109H35.4375H32.0625V82.793Z" fill="#FFBD00"/>
<path d="M40.5 94.6055V96.1875H42.1875H43.875V94.6055V93.0234H42.1875H40.5V94.6055Z" fill="#FFBD00"/>
<path d="M6.75 87.8555V89.4375H15.1875H23.625V87.8555V86.2734H15.1875H6.75V87.8555Z" fill="#FFBD00"/>
</svg>
