<svg width="177" height="25" viewBox="0 0 177 25" fill="none" xmlns="http://www.w3.org/2000/svg">
<path d="M11.2543 2.1613L8.42005 7.90783L2.07891 8.83231C0.941752 8.99724 0.486023 10.3992 1.31068 11.2021L5.89835 15.6726L4.81328 21.9877C4.61797 23.1292 5.82022 23.9842 6.82717 23.4504L12.4999 20.4686L18.1727 23.4504C19.1796 23.9799 20.3819 23.1292 20.1865 21.9877L19.1015 15.6726L23.6891 11.2021C24.5138 10.3992 24.0581 8.99724 22.9209 8.83231L16.5798 7.90783L13.7456 2.1613C13.2378 1.137 11.7664 1.12398 11.2543 2.1613Z" fill="#FFBD00"/>
<path d="M49.2543 2.1613L46.4201 7.90783L40.0789 8.83231C38.9418 8.99724 38.486 10.3992 39.3107 11.2021L43.8983 15.6726L42.8133 21.9877C42.618 23.1292 43.8202 23.9842 44.8272 23.4504L50.4999 20.4686L56.1727 23.4504C57.1796 23.9799 58.3819 23.1292 58.1865 21.9877L57.1015 15.6726L61.6891 11.2021C62.5138 10.3992 62.0581 8.99724 60.9209 8.83231L54.5798 7.90783L51.7456 2.1613C51.2378 1.137 49.7664 1.12398 49.2543 2.1613Z" fill="#FFBD00"/>
<path d="M87.2543 2.1613L84.4201 7.90783L78.0789 8.83231C76.9418 8.99724 76.486 10.3992 77.3107 11.2021L81.8983 15.6726L80.8133 21.9877C80.618 23.1292 81.8202 23.9842 82.8272 23.4504L88.4999 20.4686L94.1727 23.4504C95.1796 23.9799 96.3819 23.1292 96.1865 21.9877L95.1015 15.6726L99.6891 11.2021C100.514 10.3992 100.058 8.99724 98.9209 8.83231L92.5798 7.90783L89.7456 2.1613C89.2378 1.137 87.7664 1.12398 87.2543 2.1613Z" fill="#FFBD00"/>
<path d="M125.254 2.1613L122.42 7.90783L116.079 8.83231C114.942 8.99724 114.486 10.3992 115.311 11.2021L119.898 15.6726L118.813 21.9877C118.618 23.1292 119.82 23.9842 120.827 23.4504L126.5 20.4686L132.173 23.4504C133.18 23.9799 134.382 23.1292 134.187 21.9877L133.101 15.6726L137.689 11.2021C138.514 10.3992 138.058 8.99724 136.921 8.83231L130.58 7.90783L127.746 2.1613C127.238 1.137 125.766 1.12398 125.254 2.1613Z" fill="#FFBD00"/>
<path d="M163.254 2.1613L160.42 7.90783L154.079 8.83231C152.942 8.99724 152.486 10.3992 153.311 11.2021L157.898 15.6726L156.813 21.9877C156.618 23.1292 157.82 23.9842 158.827 23.4504L164.5 20.4686L170.173 23.4504C171.18 23.9799 172.382 23.1292 172.187 21.9877L171.101 15.6726L175.689 11.2021C176.514 10.3992 176.058 8.99724 174.921 8.83231L168.58 7.90783L165.746 2.1613C165.238 1.137 163.766 1.12398 163.254 2.1613Z" fill="#FFBD00"/>
</svg>
