<svg width="79" height="77" viewBox="0 0 79 77" fill="none" xmlns="http://www.w3.org/2000/svg">
<path d="M48.5262 2.78223C48.1405 3.14317 48.1405 3.17324 48.1405 6.01562C48.1405 8.85801 48.1405 8.88809 48.5262 9.24902C48.7268 9.45957 49.0046 9.625 49.1434 9.625C49.344 9.625 49.3749 9.92578 49.3749 11.7305C49.3749 12.8885 49.3286 13.8359 49.2823 13.8359C49.236 13.8359 47.1067 12.3471 44.5454 10.5123C40.5491 7.66992 39.8239 7.20371 39.4227 7.24883C38.7438 7.32403 6.35691 30.424 6.23347 30.9203C6.03289 31.6873 6.27976 31.958 8.71765 33.7477L11.1093 35.4922V46.6061V57.7199L10.3841 57.8252C9.45828 57.9455 7.97703 58.7125 7.46785 59.299C6.86609 59.9908 6.31062 61.1639 6.21804 61.9309C6.14089 62.6227 6.11003 62.6527 5.1071 63.1791C1.52742 65.0439 1.65085 69.9617 5.32312 71.7363L6.0946 72.1123H39.4999H72.9052L73.6766 71.7363C74.6641 71.2551 75.5899 70.3527 76.0682 69.4053C76.6083 68.3074 76.6083 66.4125 76.0682 65.3447C75.5745 64.3672 74.6178 63.4498 73.6458 63.0137C72.8897 62.6828 72.8589 62.6527 72.7663 61.9158C72.6428 61.0887 72.1337 59.9908 71.5319 59.299C71.0227 58.7125 69.5415 57.9455 68.6311 57.8252L67.8905 57.7199V46.6061V35.4922L70.2821 33.7477C72.72 31.958 72.9669 31.6873 72.7663 30.9203C72.7046 30.6496 71.1616 29.4766 67.1962 26.6643L61.7341 22.7842L61.7186 16.1971C61.7186 10.3619 61.7495 9.625 61.9501 9.625C62.0889 9.625 62.3667 9.45957 62.5673 9.24902C62.953 8.88809 62.953 8.85801 62.953 6.01562C62.953 3.17324 62.953 3.14317 62.5673 2.78223L62.1969 2.40625H55.5467H48.8966L48.5262 2.78223ZM60.4842 6.01562V7.21875H55.5467H50.6092V6.01562V4.8125H55.5467H60.4842V6.01562ZM59.2499 15.2797C59.2499 19.7463 59.2036 20.9043 59.0647 20.8141C58.9567 20.7539 57.2903 19.5809 55.3616 18.2123L51.8436 15.7158V12.6779V9.625H55.5467H59.2499V15.2797ZM54.5284 20.6035C62.7216 26.4387 69.418 31.2361 69.4335 31.2812C69.4335 31.3264 68.8163 31.8227 68.0448 32.3791L66.6561 33.3867L53.2786 23.8971C41.552 15.5955 39.8239 14.4225 39.4227 14.4676C39.0987 14.5127 34.7938 17.4754 25.6594 23.9572L12.3591 33.4018L10.955 32.3791C10.1989 31.8227 9.56628 31.3264 9.56628 31.2812C9.58171 31.1609 39.4073 9.94082 39.5307 9.9709C39.577 9.98594 46.3352 14.7684 54.5284 20.6035ZM52.4762 26.3334L65.4217 35.5072V52.6518V69.7812H62.953H60.4842V55.7197V41.6432L60.0985 41.2822L59.7282 40.9062H50.6092H41.4903L41.12 41.2822L40.7342 41.6432V55.7197V69.7812H27.1561H13.578V52.6518V35.5072L26.5081 26.3334C33.6057 21.2953 39.4382 17.1596 39.469 17.1596C39.4999 17.1445 45.3477 21.2803 52.4762 26.3334ZM58.0155 56.5469V69.7812H50.6092H43.203V56.5469V43.3125H50.6092H58.0155V56.5469ZM11.1093 64.9838V69.7963L8.82566 69.7512C6.57292 69.7061 6.52664 69.7061 5.95574 69.2699C4.10417 67.9014 4.93738 65.2094 7.28269 64.9988C7.82273 64.9537 8.2239 64.8184 8.45535 64.6078C8.7948 64.3221 8.81023 64.2168 8.71765 63.2393C8.57878 61.7354 9.01082 60.848 10.1063 60.3668C11.171 59.9006 11.1093 59.6299 11.1093 64.9838ZM68.878 60.3668C69.1557 60.4871 69.5878 60.833 69.8346 61.1488C70.2512 61.6902 70.2821 61.7955 70.2512 63.0137C70.2204 64.2018 70.2512 64.3521 70.5598 64.6229C70.7759 64.8184 71.1925 64.9537 71.7171 64.9988C73.1675 65.1342 73.9852 65.9914 73.9852 67.375C73.9852 68.3225 73.7383 68.8037 72.9206 69.3902C72.5503 69.676 72.2417 69.7061 70.1895 69.7512L67.8905 69.7963V64.9838C67.8905 59.6449 67.8288 59.9457 68.878 60.3668Z" fill="white" fill-opacity="0.75"/>
<path d="M18.9014 41.2822L18.5156 41.6432V50.5312V59.4193L18.9014 59.7803L19.2717 60.1562H27.1562H35.0408L35.4111 59.7803L35.7969 59.4193V50.5312V41.6432L35.4111 41.2822L35.0408 40.9062H27.1562H19.2717L18.9014 41.2822ZM25.9219 46.3203V49.3281H23.4531H20.9844V46.3203V43.3125H23.4531H25.9219V46.3203ZM33.3281 46.3203V49.3281H30.8594H28.3906V46.3203V43.3125H30.8594H33.3281V46.3203ZM25.9219 54.7422V57.75H23.4531H20.9844V54.7422V51.7344H23.4531H25.9219V54.7422ZM33.3281 54.7422V57.75H30.8594H28.3906V54.7422V51.7344H30.8594H33.3281V54.7422Z" fill="white" fill-opacity="0.75"/>
<path d="M46.0574 54.5166C45.2859 55.2535 45.826 56.5469 46.9061 56.5469C47.5387 56.5469 48.1404 55.9604 48.1404 55.3438C48.1404 54.7271 47.5387 54.1406 46.9061 54.1406C46.6129 54.1406 46.2889 54.276 46.0574 54.5166Z" fill="white" fill-opacity="0.75"/>
</svg>
