<svg width="98" height="71" viewBox="0 0 98 71" fill="none" xmlns="http://www.w3.org/2000/svg">
<path d="M5.99102 3.74687C5.74219 3.78519 5.37852 4.05341 5.16797 4.32163C4.78516 4.8006 4.78516 5.04966 4.78516 20.3765V35.9333L3.31133 36.0291C2.46914 36.0866 1.55039 36.259 1.225 36.4315C0.0191406 37.0637 0 37.217 0 45.9533C0 52.7546 0.0382813 53.9424 0.30625 54.4789C0.823047 55.5901 1.35898 55.8008 3.84727 55.8775L6.06758 55.9541L6.16328 57.9466C6.23984 59.7475 6.31641 60.054 6.94805 61.3377C7.82852 63.1194 9.43633 64.6904 11.2355 65.5526C12.4797 66.1465 12.652 66.1656 14.8531 66.1656C17.1117 66.1656 17.1691 66.1656 18.5855 65.4568C21.7629 63.8858 23.677 60.7054 23.5047 57.2377L23.4473 55.9158H24.2129H24.9785V57.4868C24.9785 58.4447 25.1125 59.4984 25.323 60.169C26.0887 62.7171 28.443 65.1119 30.9313 65.8783C34.1086 66.8553 37.7836 65.9932 39.9465 63.7325C41.5926 62.0274 42.6645 59.0769 42.4156 56.9695L42.3008 55.9541L44.0043 55.8775C46.0332 55.8008 46.5117 55.5134 46.5117 54.3639C46.5117 53.2336 46.0906 53.042 43.4875 53.042H41.3055L40.0996 51.7392C38.3004 49.785 36.1758 48.8271 33.6875 48.8271C31.1992 48.8271 29.0746 49.785 27.2754 51.7392L26.0695 53.042L24.1938 53.0228H22.2988L21.5332 52.0457C20.0977 50.2257 17.8773 49.0762 15.3891 48.8846C12.7285 48.6738 10.1063 49.7659 8.26875 51.835L7.17773 53.042H5.03398H2.87109V50.6472V48.2523H35.123H67.3941L67.3367 50.5897L67.2793 52.9462L59.2211 53.042C52.7898 53.1186 51.1055 53.1953 50.8566 53.406C50.3781 53.7892 50.4355 54.9962 50.9332 55.456C51.316 55.8008 51.852 55.82 63.6234 55.8775L75.8926 55.9158L75.8352 57.2377C75.6629 60.7437 77.6918 64.0199 80.9648 65.5717C82.1324 66.1273 82.343 66.1656 84.525 66.1656C86.7836 66.1656 86.841 66.1656 88.2574 65.4568C90.1332 64.5372 91.4922 63.1769 92.4109 61.3185C93.0617 59.9966 93.1191 59.7092 93.1766 57.9274L93.2531 55.9733L94.3633 55.8583C95.8371 55.7242 96.775 55.2452 97.3875 54.3256C97.8277 53.6551 97.9043 53.3102 97.9617 51.8158C98.0191 50.264 97.9809 50.0341 97.6172 49.6318C97.0813 49.057 96.0477 49.057 95.5117 49.6318C95.2055 49.9574 95.1289 50.3023 95.1289 51.3177C95.1289 52.0457 95.0332 52.678 94.8992 52.8121C94.7652 52.9462 94.1527 53.042 93.4445 53.042H92.2387L90.8605 51.6434C88.7934 49.536 86.6113 48.6738 83.9508 48.8846C81.4625 49.0762 79.2422 50.2257 77.8066 52.0457C77.0984 52.927 76.9645 53.0228 76.218 53.0228L75.4141 53.042L75.4523 42.2557L75.5098 31.4885L81.6348 31.4311C87.6641 31.3928 87.7789 31.3928 88.6211 31.8142C89.559 32.2932 89.559 32.2932 93.0809 37.8109L95.0332 40.8571L95.0906 42.6197C95.1672 44.6888 95.4734 45.187 96.5645 45.187C97.6937 45.187 98 44.6505 98 42.7155C97.9809 41.6618 97.866 40.723 97.6555 40.0908C97.2727 38.9987 92.7363 31.7759 91.6645 30.5498C91.2816 30.1091 90.4586 29.4961 89.8461 29.1895L88.7168 28.6148L82.209 28.5573C78.6297 28.519 75.4141 28.5381 75.0695 28.6148C74.4188 28.7297 73.2703 29.6302 72.8684 30.3199C72.6961 30.6073 72.6195 33.0979 72.543 39.3436L72.4473 47.965L71.3563 48.0224L70.2461 48.0799V45.7234C70.2461 44.4206 70.1504 43.0604 70.0547 42.6772C69.8059 41.7767 69.0977 41.1253 68.1981 40.9912L67.4707 40.8763L67.375 29.8026C67.2793 19.1121 67.2602 18.7097 66.9156 18.4415C66.284 18.0009 65.3461 18.0967 64.9059 18.6714C64.5422 19.1312 64.5039 19.4378 64.5039 21.4494V23.7293L56.0438 23.691L47.5645 23.6335V15.1079V6.58235L49.4402 6.52487L51.2969 6.4674V9.34119C51.2969 12.4257 51.4309 13.0196 52.1965 13.3645C52.4836 13.4986 53.9957 13.5752 56.1586 13.5752C60.8672 13.5752 60.5418 13.8435 60.6758 9.7052L60.7715 6.58235L62.6473 6.52487L64.5039 6.4674V9.80099C64.5039 12.8855 64.5422 13.1729 64.9059 13.6519C65.4035 14.2841 66.418 14.3416 66.9922 13.7668C67.3559 13.4028 67.375 13.1346 67.375 9.05381C67.375 6.60151 67.2984 4.58985 67.1836 4.37911C67.0879 4.18752 66.7242 3.93846 66.3988 3.82351C65.9586 3.67024 57.3453 3.61276 36.0992 3.63192C19.7723 3.65108 6.2207 3.70855 5.99102 3.74687ZM11.4844 9.34119C11.4844 10.9122 11.5609 12.4257 11.6566 12.6748C11.9629 13.4794 12.652 13.6136 16.5566 13.5369C21.1504 13.4603 20.8633 13.7285 20.8633 9.53278V6.48655H22.7773H24.6914V15.1079V23.7293L16.2313 23.691L7.75195 23.6335L7.69453 15.2995C7.67539 10.7206 7.69453 6.85057 7.75195 6.71646C7.80937 6.56319 8.38359 6.48655 9.66602 6.48655H11.4844V9.34119ZM17.9922 8.594V10.7015H16.1738H14.3555V8.72811C14.3555 7.63607 14.4129 6.67814 14.4895 6.62067C14.5469 6.54403 15.3699 6.48655 16.3078 6.48655H17.9922V8.594ZM31.3906 9.36035C31.3906 12.4257 31.5246 13.0196 32.2902 13.3645C32.5773 13.4986 34.0895 13.5752 36.2523 13.5752C40.9609 13.5752 40.6355 13.8435 40.7695 9.7052L40.8652 6.58235L42.741 6.52487L44.5977 6.4674V15.1079V23.7293L36.1375 23.691L27.6582 23.6335L27.6008 15.2995C27.5816 10.7206 27.6008 6.85057 27.6582 6.71646C27.7156 6.56319 28.2898 6.48655 29.5723 6.48655H31.3906V9.36035ZM37.8984 8.594V10.7015H36.0801H34.2617V8.72811C34.2617 7.63607 34.3191 6.67814 34.3957 6.62067C34.4531 6.54403 35.2762 6.48655 36.2141 6.48655H37.8984V8.594ZM57.8047 8.594V10.7015H55.9863H54.168V8.72811C54.168 7.63607 54.2254 6.67814 54.302 6.62067C54.3594 6.54403 55.1824 6.48655 56.1203 6.48655H57.8047V8.594ZM11.5227 29.6685C11.5801 32.2932 11.6375 32.7722 11.9246 33.0596C12.2309 33.3661 12.7285 33.4044 16.0781 33.4619L19.9062 33.5194L20.3848 33.0404C20.8633 32.5614 20.8633 32.504 20.8633 29.5727V26.6031H22.7773H24.6914V33.7876V40.9721H18.777H12.8816L11.7715 39.1903C11.159 38.2324 10.4699 37.217 10.2594 36.9679C9.78086 36.4315 8.82383 35.9908 8.13477 35.9908H7.65625V31.297V26.6031H9.55117H11.4652L11.5227 29.6685ZM17.9922 28.6148V30.6264H16.1738H14.3555V28.6148V26.6031H16.1738H17.9922V28.6148ZM31.3906 29.3811C31.3906 32.4273 31.582 33.1553 32.3859 33.3853C32.6348 33.4427 34.3957 33.5002 36.3289 33.5002C39.7934 33.5002 39.8316 33.5002 40.291 33.0212C40.7504 32.5614 40.7695 32.4848 40.7695 29.5727V26.6031H42.6836H44.5977V33.7876V40.9721H36.0801H27.5625V33.7876V26.6031H29.4766H31.3906V29.3811ZM37.8984 28.6148V30.6264H36.0801H34.2617V28.6148V26.6031H36.0801H37.8984V28.6148ZM51.2969 29.3811C51.2969 32.3315 51.4309 32.9446 52.1965 33.2895C52.4836 33.4236 54.0148 33.5002 56.1969 33.5002C59.6996 33.5002 59.7379 33.5002 60.1973 33.0212C60.6566 32.5614 60.6758 32.4848 60.6758 29.5727V26.6031H62.5898H64.5039V33.7876V40.9721L56.0438 40.9337L47.5645 40.8763L47.507 33.7301L47.4688 26.6031H49.3828H51.2969V29.3811ZM57.8047 28.6148V30.6264H55.9863H54.168V28.6148V26.6031H55.9863H57.8047V28.6148ZM9.93398 41.6809C10.9293 43.2519 11.8672 44.708 12.0203 44.9379L12.2883 45.3785H7.57969H2.87109V42.1216V38.8646H5.5125H8.13477L9.93398 41.6809ZM67.375 44.6122V45.3785L41.516 45.3402L15.6379 45.2827L15.1785 44.5547L14.7383 43.8459H41.0566H67.375V44.6122ZM72.5047 51.9308L72.4473 52.9462L71.3563 53.0037L70.2461 53.0611V51.9883V50.9345H71.4137H72.5621L72.5047 51.9308ZM17.3414 52.2948C21.1504 54.134 21.8012 59.2302 18.6047 62.0465C17.5902 62.9661 16.3652 63.3876 14.834 63.3876C13.073 63.3876 11.9438 62.9278 10.6996 61.6825C9.47461 60.4564 8.99609 59.3069 8.99609 57.6592C8.99609 54.9962 10.4316 52.927 12.8816 52.0457C14.2023 51.5668 16.0781 51.6817 17.3414 52.2948ZM36.2906 52.3331C38.2812 53.3485 39.4871 55.3027 39.5063 57.5443C39.5254 58.6938 39.4297 59.0769 38.8937 60.169C37.841 62.3148 36.1184 63.3876 33.6875 63.3876C31.2566 63.3876 29.534 62.3148 28.4813 60.169C27.9453 59.0769 27.8496 58.6938 27.8687 57.5443C27.8879 54.9004 29.5148 52.7354 32.1562 51.8733C33.0941 51.5668 35.257 51.7967 36.2906 52.3331ZM86.9176 52.2182C88.1809 52.7738 89.0996 53.6742 89.7695 54.9962C90.2289 55.9541 90.3438 56.4139 90.3438 57.4485C90.3438 59.3069 89.9035 60.4181 88.6402 61.6825C87.377 62.947 86.2668 63.3876 84.4102 63.3876C80.6969 63.3876 77.9406 59.805 78.8402 56.1648C79.3187 54.2681 80.9074 52.563 82.7641 51.9691C83.8168 51.6242 85.8266 51.7392 86.9176 52.2182Z" fill="white" fill-opacity="0.75"/>
<path d="M13.0158 53.9424C10.5466 55.2069 9.93413 58.2148 11.7333 60.2648C13.3794 62.1423 16.3845 62.104 17.9541 60.2073C20.0978 57.6209 18.4517 53.8275 15.083 53.5018C14.2216 53.406 13.8962 53.4826 13.0158 53.9424ZM15.638 56.7204C16.4611 57.4868 15.9826 58.7896 14.8916 58.7896C13.7048 58.7896 13.1498 57.5059 13.9728 56.6821C14.4705 56.184 15.083 56.2032 15.638 56.7204Z" fill="white" fill-opacity="0.75"/>
<path d="M32.2521 53.7125C31.8119 53.8658 31.142 54.3447 30.6826 54.862C28.2517 57.5251 30.0892 61.6633 33.6877 61.6633C36.3482 61.6633 38.2432 59.326 37.6881 56.7204C37.5158 55.8966 37.3053 55.4943 36.5971 54.7662C35.3338 53.4634 33.9174 53.1186 32.2521 53.7125ZM34.281 56.5097C35.1807 56.9886 35.0658 58.483 34.1279 58.7129C33.0369 59.0003 32.1564 58.1573 32.5392 57.1802C32.8264 56.3947 33.5728 56.1073 34.281 56.5097Z" fill="white" fill-opacity="0.75"/>
<path d="M83.2426 53.6933C82.8598 53.8275 82.2855 54.1148 81.9602 54.3447C81.252 54.862 80.3906 56.5288 80.3906 57.4101C80.3906 59.7858 82.209 61.6633 84.5059 61.6633C88.8316 61.6633 90.2098 55.9157 86.3434 53.9424C85.2141 53.3868 84.3145 53.3102 83.2426 53.6933ZM85.3672 56.6821C86.152 57.4676 85.6543 58.7895 84.5633 58.7895C83.3766 58.7895 82.8406 57.4293 83.7594 56.7012C84.391 56.2031 84.8695 56.184 85.3672 56.6821Z" fill="white" fill-opacity="0.75"/>
<path d="M78.6871 34.1516C77.8258 34.6305 77.7301 35.0903 77.7109 38.7113C77.7109 40.8571 77.7875 42.2748 77.9215 42.5813C78.4 43.5967 78.8977 43.6734 85.2906 43.6159L91.1477 43.5584L91.7027 42.9262C92.0281 42.5622 92.2578 42.1024 92.2578 41.7575C92.2578 41.087 88.1043 34.5156 87.4344 34.1516C86.8027 33.7875 79.3379 33.7875 78.6871 34.1516ZM87.1855 38.5963C87.8172 39.6118 88.3723 40.5122 88.3914 40.608C88.4297 40.7038 86.707 40.7804 84.525 40.7804H80.582V38.7688V36.7571H83.3191H86.0371L87.1855 38.5963Z" fill="white" fill-opacity="0.75"/>
<path d="M78.5724 44.4589C78.3619 44.5739 78.0748 44.8038 77.9599 44.9571C77.6537 45.3211 77.6346 47.9267 77.9217 48.4631C78.4002 49.3827 79.9314 49.3061 80.3717 48.329C80.6396 47.7159 80.6396 45.7234 80.3717 45.1103C80.2377 44.8421 79.8931 44.5356 79.5678 44.4206C79.2615 44.3248 78.9935 44.229 78.9744 44.229C78.9553 44.229 78.783 44.344 78.5724 44.4589Z" fill="white" fill-opacity="0.75"/>
</svg>
