<svg width="130" height="130" viewBox="0 0 130 130" fill="none" xmlns="http://www.w3.org/2000/svg">
<path d="M45.884 37.0967C44.8024 37.376 43.8814 38.1387 43.4102 39.1807L43.0996 39.8467V64.5V89.1533L43.4102 89.8193C43.7636 90.6035 44.5132 91.3555 45.2629 91.71L45.7769 91.9463H64.9998H84.2227L84.7367 91.71C85.4864 91.3555 86.236 90.6035 86.5894 89.8193L86.9 89.1533V66.7559V44.3584L86.643 43.875C86.2896 43.1875 80.8921 37.7627 80.1639 37.3545L79.6178 37.0537L62.9115 37.0322C53.7231 37.0322 46.066 37.0537 45.884 37.0967ZM78.7289 40.6738C78.7717 42.2852 78.8039 42.5967 79.0073 43.0479C79.35 43.7998 80.0997 44.5518 80.8814 44.9063C81.5133 45.1963 81.6418 45.2178 83.3445 45.25L85.133 45.293V66.96C85.133 87.7461 85.1223 88.6377 84.9295 89.0459C84.6939 89.5615 84.4583 89.7871 83.9228 90.0127C83.5801 90.1523 81.4383 90.1738 64.9784 90.1738C47.2012 90.1738 46.398 90.1631 45.9911 89.9697C45.477 89.7334 45.2521 89.4971 45.0273 88.96C44.888 88.6162 44.8666 85.9199 44.8666 64.5C44.8666 43.0801 44.888 40.3838 45.0273 40.04C45.2521 39.5029 45.477 39.2666 45.9911 39.0303C46.398 38.8369 47.1262 38.8262 62.5581 38.8262H78.6861L78.7289 40.6738ZM83.0233 43.4238C81.2777 43.5098 80.5387 42.79 80.528 41.0283V40.1689L82.1344 41.7803L83.7408 43.3916L83.0233 43.4238Z" fill="#03045E"/>
<path d="M61.0372 46.2598C60.8872 46.3135 60.3625 46.7646 59.8592 47.2695L58.9382 48.1826L58.6812 47.8926C58.5312 47.7314 58.1778 47.4951 57.878 47.3555C57.3532 47.1084 57.289 47.0977 54.0227 47.0977C50.7671 47.0977 50.6922 47.1084 50.1674 47.3555C49.8675 47.4844 49.4713 47.7852 49.2678 48.0107C48.561 48.8164 48.561 48.8379 48.561 52.5225C48.561 55.4873 48.5825 55.9062 48.7538 56.3574C48.9894 56.9805 49.8033 57.7432 50.4137 57.9258C50.6922 58.0117 51.8702 58.0547 54.0441 58.0547C57.6424 58.0547 57.9315 58.0117 58.6169 57.3457C58.8311 57.1416 59.1095 56.7656 59.2488 56.5186C59.4736 56.0889 59.4844 55.9385 59.5165 53.1133L59.5486 50.1592L60.8872 48.8057C62.076 47.5918 62.2152 47.4199 62.2152 47.0762C62.2152 46.4746 61.6048 46.0557 61.0372 46.2598ZM57.3639 49.1924L57.6638 49.4502L56.3037 50.8252L54.9437 52.1895L54.194 51.4697C53.4123 50.7178 53.2088 50.6318 52.6948 50.9111C52.3521 51.083 52.2557 51.2656 52.2557 51.749C52.2557 52.0283 52.4377 52.2646 53.4123 53.2422C54.9544 54.7891 54.9008 54.7891 56.4322 53.2744C57.0534 52.6514 57.5995 52.1465 57.6424 52.1465C57.6852 52.1465 57.7173 52.9199 57.7173 53.8545C57.7173 55.541 57.7173 55.5732 57.4389 55.8955L57.1605 56.2285H54.0762H50.9813L50.6814 55.9707L50.3816 55.7129V52.5762V49.4395L50.6814 49.1816L50.9813 48.9238H54.0227H57.0641L57.3639 49.1924Z" fill="#03045E"/>
<path d="M64.4215 49.1602C64.0145 49.5361 64.0038 50.084 64.4107 50.4814L64.6678 50.75H72.7532H80.8386L81.117 50.5029C81.5347 50.1484 81.5347 49.5254 81.1277 49.1816L80.8386 48.9238H72.7639H64.6892L64.4215 49.1602Z" fill="#03045E"/>
<path d="M64.3789 53.79C64.1433 54.0371 64.0683 54.5205 64.2075 54.8857C64.3896 55.3477 64.6359 55.3691 69.5728 55.3691C74.6382 55.3691 74.6703 55.3584 74.9381 54.7891C75.1094 54.4453 75.0345 54.0479 74.7453 53.7578C74.5418 53.5537 74.3705 53.543 69.5728 53.543H64.6038L64.3789 53.79Z" fill="#03045E"/>
<path d="M50.6816 59.9775C50.0712 60.1387 49.3537 60.6328 49.0431 61.1377C48.5505 61.9111 48.4863 62.4805 48.5291 65.8213C48.5612 68.5283 48.5826 68.8936 48.7647 69.2266C49.1288 69.9141 49.4394 70.2471 50.0177 70.5693L50.596 70.8916H54.0229C57.3963 70.8916 57.4605 70.8916 57.9531 70.6445C58.6064 70.3223 59.174 69.6455 59.3774 68.9688C59.613 68.1953 59.613 62.6309 59.3774 61.8574C59.174 61.1807 58.6171 60.5146 57.9638 60.1924C57.4605 59.9346 57.3855 59.9346 54.2371 59.9131C52.47 59.9023 50.8744 59.9346 50.6816 59.9775ZM57.0643 61.8252C57.6854 62.04 57.7175 62.2441 57.7175 65.4023C57.7175 68.4746 57.6854 68.7002 57.1714 68.9688C56.7216 69.1943 51.3135 69.1836 50.8637 68.958C50.3925 68.7109 50.3282 68.2812 50.3282 65.4131C50.3282 62.4697 50.3925 62.083 50.8958 61.8682C51.3349 61.6748 56.5288 61.6426 57.0643 61.8252Z" fill="#03045E"/>
<path d="M64.6141 61.8574C64.0679 62.0938 63.9501 62.8779 64.3892 63.2969L64.6355 63.5332H72.7745H80.9241L81.1383 63.2861C81.4489 62.9424 81.5024 62.7275 81.3632 62.3408C81.1383 61.6963 81.3203 61.707 72.7423 61.707C66.4454 61.7178 64.8818 61.7393 64.6141 61.8574Z" fill="#03045E"/>
<path d="M64.4107 66.5947C64.0038 66.9922 64.0145 67.54 64.4215 67.9053L64.6892 68.1523H69.5618H74.4452L74.7558 67.8408C74.9378 67.6475 75.0663 67.4111 75.0663 67.2393C75.0663 67.0674 74.9378 66.8311 74.7558 66.6377L74.4452 66.3262H69.5511H64.6678L64.4107 66.5947Z" fill="#03045E"/>
<path d="M50.1678 73.0293C49.5788 73.2979 49.0112 73.8779 48.7328 74.4795C48.4758 75.0596 48.4758 81.4404 48.7328 82.0205C49.0112 82.6221 49.5788 83.2021 50.1678 83.4707C50.6926 83.7178 50.7782 83.7285 53.9589 83.7285C56.1435 83.7285 57.3537 83.6855 57.6321 83.5996C58.1676 83.4385 58.9386 82.7617 59.2492 82.1816C59.4741 81.752 59.4848 81.6445 59.4848 78.25C59.4848 74.877 59.4741 74.748 59.2492 74.3291C59.1207 74.0928 58.8315 73.7168 58.6066 73.502C57.8891 72.8037 57.6642 72.7715 53.9803 72.7715C50.7782 72.7715 50.6926 72.7822 50.1678 73.0293ZM57.3644 74.8555L57.6642 75.1133V78.25V81.3867L57.3644 81.6445L57.0645 81.9023H54.0231H50.9817L50.6819 81.6445L50.382 81.3867V78.25V75.1133L50.6819 74.8555L50.9817 74.5977H54.0231H57.0645L57.3644 74.8555Z" fill="#03045E"/>
<path d="M64.4215 74.834C64.0145 75.21 64.0038 75.7578 64.4107 76.1553L64.6678 76.4238H72.7103C78.2684 76.4238 80.8279 76.3916 80.9778 76.3057C81.2883 76.1445 81.5132 75.5322 81.3954 75.1992C81.1491 74.5654 81.5454 74.5977 72.7425 74.5977H64.6892L64.4215 74.834Z" fill="#03045E"/>
<path d="M64.3784 79.4639C64.1321 79.7324 64.0679 80.2695 64.2499 80.6133C64.4641 81.0107 64.8925 81.043 69.5724 81.043C73.2992 81.043 74.1773 81.0107 74.4772 80.8818C74.9055 80.71 75.109 80.3018 75.0126 79.8398C74.8734 79.2061 74.9484 79.2168 69.551 79.2168H64.6033L64.3784 79.4639Z" fill="#03045E"/>
<circle cx="65" cy="65" r="64" stroke="#FFBD00" stroke-width="2"/>
</svg>
