<svg width="130" height="130" viewBox="0 0 130 130" fill="none" xmlns="http://www.w3.org/2000/svg">
<circle cx="65" cy="65" r="64" stroke="#FFBD00" stroke-width="2"/>
<g clip-path="url(#clip0_116_327)">
<path d="M43.7305 36.293L43.4376 36.5742V39.9258V43.2656H42.1016C40.8594 43.2656 40.7305 43.2891 40.4376 43.5352C39.793 44.0859 39.8282 44.1562 43.3321 48.7266C45.3009 51.3047 46.6719 52.9922 46.8712 53.0859C47.129 53.2148 47.2462 53.2148 47.504 53.0859C47.879 52.9102 54.0548 44.7656 54.1602 44.3086C54.2188 44.0859 54.1602 43.9102 53.9259 43.6406L53.6094 43.2656H52.2852H50.9493L50.9141 39.8555L50.879 36.4453L50.5977 36.2227C50.3399 36.0117 50.1055 36 47.1641 36H44.0118L43.7305 36.293ZM49.0626 41.0977C49.0626 43.2422 49.1094 44.4023 49.1915 44.6016C49.3673 44.9766 49.8477 45.1406 50.7266 45.1406H51.418L49.3555 47.8594C48.2188 49.3594 47.2344 50.5898 47.1759 50.5898C47.1173 50.5898 46.1329 49.3711 44.9844 47.8945L42.8985 45.1992L43.8126 45.1406C45.3126 45.0352 45.2423 45.2109 45.2891 41.2148L45.3243 37.875H47.1876H49.0626V41.0977Z" fill="#03045E"/>
<path d="M61.5666 36.1406C61.1916 36.4336 61.133 36.9258 61.133 40.1133V43.2656H59.8674C58.4963 43.2656 58.1681 43.3828 57.9572 43.9336C57.8049 44.3438 57.8283 44.3672 61.2619 49.0078C64.3908 53.2148 64.5666 53.4023 65.1877 53.0742C65.34 53.0039 66.8869 51.0469 68.633 48.7266C72.0431 44.2031 72.0783 44.1328 71.5041 43.5586C71.2346 43.2773 71.1408 43.2656 69.9221 43.2656H68.633V39.9258V36.5742L68.34 36.293L68.0588 36H64.9064C62.5744 36 61.7189 36.0352 61.5666 36.1406ZM66.758 41.2031C66.758 45.1992 66.6877 45.0117 68.0939 45.1289L69.008 45.1992L66.9338 47.9297C65.7971 49.4297 64.8244 50.625 64.7658 50.5898C64.6603 50.5313 60.6642 45.2813 60.6642 45.2109C60.6642 45.1875 61.0744 45.1406 61.5666 45.1172C62.9494 45.0234 62.8908 45.2109 62.8908 41.2031V37.875H64.8244H66.758V41.2031Z" fill="#03045E"/>
<path d="M75.6992 48.5392C75.5586 48.5978 75.3945 48.7501 75.3242 48.879C75.2305 49.0431 75.1953 53.8243 75.1953 64.4649V79.8282H56.0352H36.875V64.7345C36.875 54.6681 36.8281 49.5118 36.7578 49.2189C36.5586 48.4923 35.8086 48.3048 35.293 48.8321L35 49.1134V69.2579C35 88.922 35 89.4142 35.2227 89.6837C35.4336 89.9532 35.5156 89.9649 37.2734 90.0001L39.1016 90.0353V90.4689C39.1016 90.7149 39.1953 91.2657 39.3242 91.6876C39.9219 93.8556 41.7734 95.5196 44 95.9064C46.3555 96.3048 48.8633 95.086 49.9648 93.0001C50.3867 92.2032 50.7031 91.1251 50.7031 90.4689V90.0235H51.5H52.2852L52.4375 90.9259C52.9531 94.172 55.8359 96.3751 58.9766 95.9181C61.6602 95.5314 63.9453 93.0821 63.9453 90.586V90.0235H71.6797C75.9336 90.0235 79.4141 90.0587 79.4141 90.1056C79.4375 90.8204 79.7305 91.9806 80.0703 92.6837C81.793 96.2814 86.5273 97.1017 89.3281 94.3126C90.3594 93.2696 90.8633 92.2032 91.0742 90.5743L91.1445 90.0235H92.5391C94.0742 90.0235 94.4492 89.9181 94.6367 89.4493C94.9766 88.5587 95.1641 68.3439 94.8359 67.254C94.625 66.5626 90.1836 59.3204 89.6445 58.7931C89.4219 58.5821 88.9883 58.2774 88.6953 58.1251C88.1445 57.8556 88.1328 57.8556 82.5547 57.8204L76.9531 57.7853V53.3439V48.9024L76.6484 48.6681C76.3086 48.3985 76.1094 48.3751 75.6992 48.5392ZM88.2031 59.9767C88.6133 60.211 89.1055 60.9728 92.2578 66.1642L93.2422 67.7931V71.3439V74.9064H85.0977H76.9531V67.3712C76.9531 63.2228 76.9883 59.7892 77.0352 59.7423C77.082 59.6954 79.5195 59.672 82.4609 59.6954C87.5938 59.7306 87.8047 59.7423 88.2031 59.9767ZM93.125 78.2462V79.8282H85.0391H76.9531V78.2462V76.6642H85.0391H93.125V78.2462ZM93.125 84.8673V88.1485H92.0703H91.0156L90.7695 87.6446C90.1016 86.3204 88.8594 85.2071 87.5234 84.7267C86.7031 84.422 85.1914 84.3282 84.3008 84.5157C82.7656 84.8321 81.125 86.086 80.4219 87.4806L80.0938 88.1485H71.9609H63.8398L63.4531 87.422C62.0234 84.7267 58.5664 83.6134 55.8594 84.9845C54.6641 85.5821 53.4336 86.836 53.0469 87.8439C52.9414 88.1485 52.9297 88.1485 51.7109 88.1485H50.4805L50.0938 87.422C48.6289 84.6446 45.0195 83.5782 42.2188 85.0782C41.4102 85.5118 40.2852 86.6603 39.875 87.4806L39.5469 88.1485H38.2109H36.875V84.8673V81.586H65H93.125V84.8673ZM45.957 86.3321C47.7148 86.7892 48.8164 88.1485 48.9219 89.9649C48.9805 91.1368 48.6992 91.9806 47.9492 92.8009C47.1641 93.6915 46.4023 94.0431 45.1719 94.1017C44.2695 94.1485 44.0938 94.1251 43.4961 93.8439C42.2656 93.2814 41.5039 92.4142 41.1523 91.172C40.5781 89.0978 41.8672 86.8946 44.0117 86.3204C44.7383 86.1212 45.1367 86.1212 45.957 86.3321ZM59.9023 86.5548C60.6289 86.8829 61.4844 87.6798 61.8242 88.3595C62.9023 90.4806 61.918 93.0704 59.7266 93.9024C58.8594 94.2306 57.3359 94.172 56.5859 93.7853C55.5312 93.2462 54.6523 92.1798 54.4062 91.1368C54.3594 90.9376 54.3242 90.4689 54.3242 90.0821C54.3477 87.2696 57.3359 85.3829 59.9023 86.5548ZM86.9844 86.4962C88.1797 87.0353 88.9883 87.9962 89.3281 89.3087C89.8086 91.1954 88.7539 93.211 86.9258 93.9024C86 94.254 84.5352 94.1837 83.6914 93.7501C81.5 92.6134 80.8203 89.8946 82.2266 87.8556C83.2227 86.4024 85.3789 85.7931 86.9844 86.4962Z" fill="#03045E"/>
<path d="M79.4141 63.2109C79.1914 63.457 79.1797 63.5977 79.1797 68.0156V72.5742L79.4727 72.8555L79.7539 73.1484H84.2773C88.6367 73.1484 88.8008 73.1367 89.0234 72.9141C89.2461 72.6914 89.2578 72.5273 89.2578 70.4414V68.2148L87.8984 65.8477C87.1484 64.5469 86.4219 63.3633 86.293 63.2109C86.0586 62.9531 86.0234 62.9531 82.8594 62.9531C79.7188 62.9531 79.6484 62.9531 79.4141 63.2109ZM86.3047 66.8086L87.5117 68.9062L87.4766 70.125L87.4414 71.332L84.2539 71.3672L81.0547 71.3906V68.0508V64.7109H83.082H85.0977L86.3047 66.8086Z" fill="#03045E"/>
<path d="M38.4102 55.875C38.1758 56.1797 38.1641 56.3086 38.1641 60.8555V65.5195L38.4453 65.8477L38.7266 66.1758H43.5547H48.3828L48.6641 65.8477L48.957 65.5078L48.9219 60.7617L48.8867 56.0156L48.6055 55.793C48.3477 55.582 48.0781 55.5703 43.4961 55.5703H38.6445L38.4102 55.875ZM47.0703 60.8438V64.3594H43.5547H40.0391V60.8438V57.3281H43.5547H47.0703V60.8438Z" fill="#03045E"/>
<path d="M50.9258 55.7931L50.6445 56.0157V60.8321V65.6368L50.9141 65.9063L51.1836 66.1759L55.6602 66.211C58.1211 66.2345 60.3125 66.211 60.5234 66.1759C60.7344 66.1407 61.0156 66.0001 61.1445 65.8712C61.3555 65.6602 61.3672 65.4493 61.3672 60.9141C61.3672 56.3087 61.3555 56.1798 61.1211 55.8751L60.8867 55.5704H56.0352C51.4414 55.5704 51.1836 55.5821 50.9258 55.7931ZM59.4922 60.8438V64.3595H55.9766H52.4609V60.8438V57.3282H55.9766H59.4922V60.8438Z" fill="#03045E"/>
<path d="M63.4297 55.8164L63.125 56.0508V60.8438C63.125 65.3789 63.1367 65.6367 63.3477 65.8945L63.5703 66.1758H68.457H73.3438L73.5664 65.8945C73.7773 65.6367 73.7891 65.3789 73.7891 60.832C73.7891 56.1914 73.7773 56.0273 73.5547 55.8047C73.332 55.582 73.168 55.5703 68.5273 55.5703C63.8633 55.5703 63.7344 55.582 63.4297 55.8164ZM72.0078 60.8672L72.0312 64.3594H68.457H64.8828V60.8438V57.3281L68.4336 57.3516L71.9727 57.3867L72.0078 60.8672Z" fill="#03045E"/>
<path d="M38.7383 67.5352C38.5742 67.5938 38.375 67.7813 38.293 67.9453C38.1992 68.1445 38.1641 69.6445 38.1641 72.8672V77.4961L38.457 77.7773L38.7383 78.0703H43.5312C48.0898 78.0703 48.3477 78.0586 48.6055 77.8477L48.8867 77.625V72.8086V68.0039L48.6172 67.7344L48.3477 67.4648L43.6953 67.4414C40.9062 67.4297 38.9258 67.4648 38.7383 67.5352ZM47.0703 72.7969V76.3125H43.5547H40.0391V72.7969V69.2813H43.5547H47.0703V72.7969Z" fill="#03045E"/>
<path d="M51.1719 67.5586C50.5977 67.8516 50.586 67.957 50.6094 72.8789L50.6446 77.4609L50.9258 77.7656L51.2071 78.0703H56.0469H60.8868L61.1211 77.7656C61.3555 77.4609 61.3672 77.332 61.3672 72.7734C61.3672 69.9492 61.3204 68.0039 61.2501 67.875C61.0274 67.4531 60.5352 67.4062 55.9297 67.4062C52.5782 67.4062 51.3946 67.4414 51.1719 67.5586ZM59.4922 72.7969V76.3125H55.9766H52.461V72.7969V69.2812H55.9766H59.4922V72.7969Z" fill="#03045E"/>
<path d="M63.6289 67.5234C63.4883 67.582 63.3242 67.7344 63.2539 67.8633C63.1719 68.0156 63.125 69.7031 63.125 72.8438C63.125 77.4492 63.1367 77.6133 63.3594 77.8359C63.582 78.0586 63.7461 78.0703 68.457 78.0703C73.168 78.0703 73.332 78.0586 73.5547 77.8359C73.7773 77.6133 73.7891 77.4492 73.7891 72.8438C73.7891 69.9727 73.7422 68.0039 73.6719 67.875C73.6133 67.7578 73.3906 67.6055 73.1914 67.5352C72.7344 67.3828 64.0156 67.3711 63.6289 67.5234ZM72.0078 72.7617L71.9727 76.2539L68.4336 76.2891L64.8828 76.3125V72.7969V69.2812H68.457H72.0312L72.0078 72.7617Z" fill="#03045E"/>
</g>
<defs>
<clipPath id="clip0_116_327">
<rect width="60" height="60" fill="white" transform="translate(35 36)"/>
</clipPath>
</defs>
</svg>
