<svg width="183" height="49" viewBox="0 0 183 49" fill="none" xmlns="http://www.w3.org/2000/svg">
<path d="M60.8551 0.656405C58.3698 0.469201 13.1128 0.216797 13.1128 0.216797C13.3163 2.55466 14.7851 6.3499 16.9937 8.40613C19.4084 10.6544 22.1102 11.4591 26.2114 11.9848L15.7612 35.4248C15.7612 35.4248 18.215 35.5492 20.6983 35.5346C22.1581 35.526 23.6038 35.5347 24.6269 35.2494C25.1738 35.0972 25.4514 34.9792 25.7935 34.7615C26.0727 34.5839 26.4044 34.3608 26.882 33.8253C27.9447 32.6338 33.2685 21.1898 35.3216 18.0639C37.0819 15.3838 39.8172 12.8635 42.9524 12.2227C45.7114 11.6587 57.346 12.0138 61.1231 12.0255C66.15 12.0409 70.826 12.1686 70.826 12.1686C70.826 12.1686 70.7442 9.01978 69.7274 7.10152C68.7106 5.18327 67.9744 4.31068 67.0779 3.4274C66.3208 2.6984 65.5619 2.13528 64.7611 1.71101C63.5908 1.09104 62.3307 0.767551 60.8551 0.656405Z" fill="white"/>
<path d="M70.8447 14.3415L46.386 14.1226C46.386 14.1226 41.8456 14.1552 39.0413 17.5454C36.237 20.9356 35.2576 23.7507 35.2576 23.7507C32.8484 27.8742 30.3695 35.1779 26.1392 37.2168C24.6158 37.752 24.1016 38.1669 17.263 37.9489C10.4245 37.7309 7.15225 37.4722 3.52005 40.3878C1.14548 42.294 0.608312 46.5431 0 48.8312C0 48.8312 7.26792 48.8546 11.5677 48.777C15.8675 48.6993 21.0344 48.8395 26.8493 48.4412C32.6641 48.0429 36.0605 43.4155 38.2603 39.8708C42.1029 35.0336 45.3814 25.5016 50.7036 25.0059C55.7433 24.7741 55.64 25.3417 62.879 24.8365C66.9764 24.3504 69.2043 21.4709 70.2428 17.9722C70.6325 16.6225 70.8447 14.3414 70.8447 14.3414V14.3415Z" fill="#7D7D7D"/>
<path d="M150.856 0C150.479 0 150.142 0.0594855 149.846 0.178558C149.553 0.293817 149.307 0.449308 149.106 0.64522C148.906 0.837262 148.754 1.06048 148.65 1.31399C148.547 1.56753 148.495 1.83051 148.495 2.10326C148.495 2.45283 148.553 2.74474 148.668 2.97907C148.787 3.20956 148.943 3.40327 149.136 3.56076C149.328 3.71441 149.546 3.84156 149.788 3.94143C150.034 4.04129 150.286 4.13135 150.544 4.212C150.802 4.29268 151.053 4.3756 151.295 4.46012C151.541 4.54462 151.76 4.64995 151.953 4.77671C152.145 4.89962 152.299 5.05514 152.414 5.24337C152.534 5.42775 152.594 5.66403 152.594 5.95212C152.594 6.21719 152.547 6.46711 152.455 6.70141C152.363 6.9319 152.228 7.1316 152.051 7.30062C151.878 7.46964 151.664 7.60389 151.41 7.70375C151.156 7.7998 150.868 7.8478 150.544 7.8478C150.309 7.8478 150.1 7.82489 149.915 7.77879C149.73 7.73268 149.567 7.67702 149.424 7.61173C149.282 7.54257 149.157 7.46948 149.049 7.39264C148.941 7.31199 148.849 7.23941 148.772 7.1741C148.695 7.10494 148.63 7.04712 148.576 7.00102C148.522 6.95491 148.478 6.932 148.443 6.932C148.381 6.932 148.327 6.96094 148.281 7.01854L148.12 7.27159C148.412 7.60195 148.753 7.86332 149.142 8.05539C149.53 8.24362 149.994 8.33801 150.533 8.33801C150.948 8.33801 151.318 8.27416 151.641 8.14741C151.965 8.01681 152.238 7.84053 152.461 7.61776C152.684 7.39495 152.853 7.13361 152.969 6.83396C153.088 6.5305 153.148 6.20801 153.148 5.86613C153.148 5.53191 153.088 5.25311 152.969 5.0303C152.853 4.80366 152.7 4.61377 152.507 4.46012C152.315 4.30647 152.095 4.17932 151.849 4.07945C151.606 3.97572 151.356 3.88187 151.098 3.79738C150.841 3.71285 150.589 3.6283 150.342 3.54378C150.1 3.45544 149.882 3.34793 149.69 3.22117C149.497 3.09441 149.342 2.94053 149.222 2.75998C149.107 2.57944 149.049 2.35083 149.049 2.07423C149.049 1.86295 149.088 1.66162 149.165 1.46955C149.245 1.27748 149.361 1.10832 149.511 0.962352C149.665 0.816386 149.853 0.701261 150.077 0.616738C150.304 0.532243 150.566 0.489666 150.862 0.489666C151.158 0.489666 151.407 0.526242 151.607 0.599211C151.811 0.672208 151.98 0.75294 152.114 0.841305C152.249 0.9258 152.355 1.00438 152.432 1.07737C152.513 1.1465 152.578 1.18144 152.628 1.18144C152.694 1.18144 152.744 1.14868 152.778 1.0834L152.917 0.818301C152.64 0.541708 152.332 0.335975 151.994 0.201563C151.659 0.0670941 151.279 0 150.856 0ZM81.4194 0.0920178V0.593734H84.3059V8.24545H84.8948V0.593734H87.7637V0.0920178H81.4194ZM98.4005 0.0920178V8.24545H98.9893V4.55762H100.057C100.215 4.55762 100.33 4.57507 100.403 4.60965C100.48 4.64423 100.551 4.70371 100.617 4.78821L103.232 8.09592C103.275 8.14971 103.317 8.18789 103.359 8.21094C103.405 8.23399 103.459 8.24545 103.521 8.24545H104.035L101.223 4.7192C101.15 4.62318 101.068 4.54621 100.975 4.4886C101.333 4.45018 101.654 4.36942 101.939 4.24651C102.224 4.11975 102.466 3.96042 102.667 3.76835C102.871 3.57243 103.026 3.34597 103.134 3.08862C103.242 2.83124 103.296 2.54696 103.296 2.23581C103.296 1.53282 103.063 1.0008 102.597 0.639742C102.132 0.274812 101.427 0.0920178 100.484 0.0920178H98.4005ZM116.779 0.0920178L113.436 8.24545H113.886C113.94 8.24545 113.986 8.23018 114.024 8.19944C114.063 8.1687 114.09 8.13213 114.106 8.08989L115.064 5.72153H119.076L120.04 8.08989C120.059 8.136 120.087 8.17473 120.121 8.20546C120.156 8.23233 120.2 8.24545 120.254 8.24545H120.71L117.367 0.0920178H116.779ZM131.052 0.0920178V8.24545H131.566V1.383C131.566 1.2793 131.56 1.1696 131.548 1.05437L136.86 8.13043C136.914 8.20724 136.985 8.24545 137.073 8.24545H137.356V0.0920178H136.837V6.932C136.837 7.03955 136.842 7.15086 136.854 7.26612L131.566 0.201563C131.531 0.155515 131.498 0.126604 131.467 0.115022C131.437 0.0996824 131.395 0.0920178 131.341 0.0920178H131.052ZM98.9893 0.559227H100.484C101.212 0.559227 101.766 0.699472 102.147 0.979879C102.528 1.26031 102.719 1.69027 102.719 2.27032C102.719 2.5546 102.667 2.80994 102.563 3.03659C102.459 3.26323 102.306 3.45748 102.106 3.61882C101.91 3.78015 101.668 3.90458 101.379 3.99291C101.094 4.07744 100.771 4.11999 100.409 4.11999H98.9893V0.559227ZM117.073 0.679726C117.1 0.771933 117.127 0.86033 117.153 0.944825C117.18 1.02551 117.208 1.0986 117.235 1.16392L118.903 5.2839H115.243L116.911 1.16994C116.938 1.10078 116.965 1.02551 116.992 0.944825C117.019 0.86033 117.046 0.771933 117.073 0.679726ZM117.195 15.3522C116.091 15.3522 115.08 15.5445 114.162 15.9289C113.243 16.3134 112.455 16.8567 111.795 17.559C111.136 18.2539 110.621 19.0966 110.251 20.0873C109.888 21.0705 109.707 22.1647 109.707 23.3698C109.707 24.5822 109.888 25.6836 110.251 26.6742C110.621 27.6574 111.136 28.5002 111.795 29.2025C112.455 29.8974 113.243 30.4371 114.162 30.8216C115.08 31.1986 116.091 31.3868 117.195 31.3868C118.313 31.3868 119.332 31.1986 120.25 30.8216C121.169 30.4371 121.957 29.8974 122.616 29.2025C123.276 28.5002 123.787 27.6574 124.15 26.6742C124.513 25.6836 124.694 24.5822 124.694 23.3698C124.694 22.1647 124.513 21.0705 124.15 20.0873C123.787 19.0966 123.276 18.2503 122.616 17.548C121.957 16.8457 121.169 16.3059 120.25 15.9289C119.332 15.5445 118.313 15.3522 117.195 15.3522ZM81.4194 15.5296V31.2209H82.5526V24.9001H85.4743C86.3409 24.9001 87.1188 24.7853 87.8076 24.5561C88.4965 24.3196 89.0817 23.9941 89.5631 23.5801C90.0445 23.1587 90.411 22.6598 90.6629 22.0832C90.9221 21.5065 91.0519 20.8745 91.0519 20.1869C91.0519 18.6936 90.5817 17.5443 89.6411 16.7385C88.7078 15.9326 87.3186 15.5296 85.4743 15.5296H81.4194ZM96.0353 15.5296V31.2209H97.1685V24.1234H99.2236C99.5273 24.1234 99.7497 24.1571 99.8904 24.2237C100.039 24.2902 100.175 24.4044 100.301 24.5671L105.334 30.9322C105.416 31.0357 105.497 31.1097 105.579 31.154C105.668 31.1984 105.772 31.2209 105.89 31.2209H106.878L101.468 24.434C101.327 24.2492 101.168 24.1012 100.99 23.9903C101.679 23.9164 102.297 23.7614 102.845 23.5248C103.394 23.2808 103.86 22.9742 104.245 22.6046C104.638 22.2276 104.938 21.7914 105.145 21.2961C105.353 20.8008 105.456 20.2534 105.456 19.6546C105.456 18.3017 105.008 17.2778 104.112 16.5829C103.216 15.8806 101.86 15.5296 100.046 15.5296H96.0353ZM117.195 16.3282C118.143 16.3282 119.006 16.4904 119.784 16.8157C120.561 17.1336 121.224 17.5958 121.772 18.202C122.328 18.8082 122.757 19.5474 123.061 20.4197C123.365 21.292 123.516 22.2756 123.516 23.3698C123.516 24.4713 123.365 25.4579 123.061 26.3302C122.757 27.1952 122.328 27.9308 121.772 28.537C121.224 29.1432 120.561 29.6054 119.784 29.9233C119.006 30.2412 118.143 30.3998 117.195 30.3998C116.261 30.3998 115.406 30.2412 114.628 29.9233C113.858 29.6054 113.191 29.1432 112.628 28.537C112.073 27.9308 111.639 27.1952 111.328 26.3302C111.025 25.4579 110.873 24.4713 110.873 23.3698C110.873 22.2756 111.025 21.292 111.328 20.4197C111.639 19.5474 112.073 18.8082 112.628 18.202C113.191 17.5958 113.858 17.1336 114.628 16.8157C115.406 16.4904 116.261 16.3282 117.195 16.3282ZM82.5526 16.4279H85.4743C86.9482 16.4279 88.0558 16.7529 88.7965 17.4034C89.5446 18.054 89.9187 18.9819 89.9187 20.1869C89.9187 20.734 89.815 21.2406 89.6076 21.7063C89.4076 22.1647 89.1147 22.5636 88.7296 22.9037C88.3518 23.2437 87.8893 23.51 87.3412 23.7022C86.7931 23.8944 86.1705 23.9903 85.4743 23.9903H82.5526V16.4279ZM97.1685 16.4279H100.046C101.446 16.4279 102.512 16.6978 103.246 17.2374C103.979 17.7771 104.345 18.6051 104.345 19.7214C104.345 20.2684 104.246 20.7597 104.046 21.1959C103.846 21.632 103.553 22.0055 103.168 22.3159C102.79 22.6264 102.323 22.8667 101.768 23.0368C101.22 23.1994 100.598 23.281 99.9013 23.281H97.1685V16.4279ZM86.2299 36.1405C85.5377 36.1405 84.9236 36.2474 84.3872 36.4604C83.8507 36.6677 83.3976 36.9467 83.0284 37.2979C82.6592 37.6491 82.3797 38.0494 82.1894 38.4985C81.999 38.9476 81.904 39.4083 81.904 39.8804C81.904 40.4676 81.9845 40.9628 82.146 41.3658C82.3075 41.7631 82.518 42.097 82.7776 42.3676C83.043 42.6324 83.3431 42.8481 83.6776 43.015C84.0122 43.1762 84.3552 43.3145 84.7071 43.4296C85.0589 43.539 85.402 43.6399 85.7366 43.732C86.0712 43.8241 86.3687 43.9304 86.6283 44.0513C86.8937 44.1722 87.1067 44.325 87.2682 44.5092C87.4297 44.6935 87.5107 44.9325 87.5107 45.2262C87.5107 45.7328 87.3637 46.1042 87.0695 46.3402C86.7754 46.5705 86.3628 46.6853 85.8321 46.6853C85.4398 46.6853 85.0993 46.6309 84.8108 46.5215C84.5224 46.4122 84.2658 46.2908 84.0409 46.1584C83.8217 46.026 83.6226 45.9052 83.4438 45.7958C83.2708 45.6864 83.0978 45.632 82.9247 45.632C82.7921 45.632 82.668 45.6635 82.5526 45.7268C82.4373 45.7901 82.3477 45.8735 82.2843 45.9771L81.4194 47.3415C81.6675 47.5891 81.9585 47.8137 82.2931 48.0152C82.6276 48.2167 82.9852 48.3924 83.3659 48.5421C83.7466 48.6861 84.1392 48.7984 84.543 48.879C84.9526 48.9595 85.3531 49 85.7454 49C86.4606 49 87.0983 48.8931 87.6578 48.6801C88.2231 48.4614 88.6962 48.1649 89.0769 47.7906C89.4634 47.4106 89.7575 46.9674 89.9593 46.4608C90.1612 45.9541 90.2623 45.41 90.2623 44.8285C90.2623 44.3046 90.1812 43.8584 90.0197 43.4899C89.8582 43.1157 89.6446 42.7992 89.3793 42.5401C89.1197 42.281 88.8202 42.0679 88.4799 41.9009C88.1453 41.734 87.8017 41.5902 87.4498 41.4693C87.098 41.3427 86.7519 41.2304 86.4116 41.1325C86.077 41.0289 85.7775 40.9165 85.5121 40.7956C85.2525 40.6747 85.042 40.531 84.8805 40.364C84.719 40.1971 84.6379 39.9869 84.6379 39.7336C84.6379 39.3363 84.7705 39.0224 85.0358 38.7921C85.3069 38.556 85.7165 38.4377 86.2645 38.4377C86.5818 38.4377 86.8643 38.4811 87.1123 38.5675C87.3604 38.6481 87.58 38.7404 87.7703 38.8441C87.9664 38.9477 88.1395 39.0426 88.2894 39.1289C88.4452 39.2095 88.5892 39.25 88.7219 39.25C88.8718 39.25 88.9929 39.215 89.0852 39.1459C89.1832 39.0768 89.2758 38.9735 89.3623 38.8353L90.0888 37.4792C89.8639 37.2719 89.6074 37.0877 89.3189 36.9265C89.0363 36.7595 88.7307 36.6188 88.4019 36.5037C88.0731 36.3827 87.7241 36.2934 87.3549 36.2358C86.9915 36.1725 86.6164 36.1405 86.2299 36.1405ZM99.7801 36.1405C98.7994 36.1405 97.9053 36.3048 97.0977 36.6329C96.2901 36.9611 95.598 37.4134 95.0212 37.9891C94.4501 38.5648 94.006 39.2442 93.6888 40.0272C93.3773 40.8102 93.2212 41.6562 93.2212 42.5659C93.2212 43.4755 93.3773 44.3221 93.6888 45.1051C94.006 45.8881 94.4501 46.5705 95.0212 47.152C95.598 47.7277 96.2901 48.1794 97.0977 48.5076C97.9053 48.8358 98.7994 49 99.7801 49C100.761 49 101.652 48.8358 102.454 48.5076C103.261 48.1794 103.95 47.7277 104.521 47.152C105.092 46.5705 105.534 45.8881 105.846 45.1051C106.163 44.3221 106.321 43.4755 106.321 42.5659C106.321 41.662 106.163 40.8184 105.846 40.0354C105.534 39.2524 105.092 38.573 104.521 37.9973C103.95 37.4216 103.261 36.9699 102.454 36.6417C101.652 36.3077 100.761 36.1405 99.7801 36.1405ZM161.888 36.1405C160.907 36.1405 160.013 36.3048 159.205 36.6329C158.398 36.9611 157.706 37.4134 157.129 37.9891C156.558 38.5648 156.114 39.2442 155.796 40.0272C155.485 40.8102 155.329 41.6562 155.329 42.5659C155.329 43.4755 155.485 44.3221 155.796 45.1051C156.114 45.8881 156.558 46.5705 157.129 47.152C157.706 47.7277 158.398 48.1794 159.205 48.5076C160.013 48.8358 160.907 49 161.888 49C162.868 49 163.76 48.8358 164.561 48.5076C165.369 48.1794 166.058 47.7277 166.629 47.152C167.2 46.5705 167.642 45.8881 167.953 45.1051C168.271 44.3221 168.429 43.4755 168.429 42.5659C168.429 41.662 168.271 40.8184 167.953 40.0354C167.642 39.2524 167.2 38.573 166.629 37.9973C166.058 37.4216 165.369 36.9699 164.561 36.6417C163.76 36.3077 162.868 36.1405 161.888 36.1405ZM109.886 36.2791V48.862H117.483V46.5298H112.811V36.2791H109.886ZM120.858 36.2791V43.732C120.858 44.5035 120.982 45.2118 121.23 45.8566C121.478 46.5014 121.835 47.057 122.303 47.5233C122.77 47.9897 123.338 48.352 124.007 48.6111C124.676 48.8702 125.432 49 126.274 49C127.11 49 127.863 48.8702 128.532 48.6111C129.201 48.352 129.769 47.9897 130.237 47.5233C130.704 47.057 131.061 46.5014 131.309 45.8566C131.563 45.2118 131.69 44.5035 131.69 43.732V36.2791H128.766V43.732C128.766 44.1753 128.708 44.5726 128.593 44.9238C128.483 45.2693 128.322 45.5628 128.108 45.8046C127.895 46.0464 127.632 46.2336 127.321 46.366C127.015 46.4927 126.666 46.5561 126.274 46.5561C125.882 46.5561 125.53 46.4927 125.218 46.366C124.912 46.2336 124.653 46.0464 124.439 45.8046C124.226 45.557 124.062 45.2605 123.947 44.9151C123.837 44.5639 123.782 44.1665 123.782 43.7232V36.2791H120.858ZM134.892 36.2791V38.5932H138.44V48.862H141.364V38.5932H144.912V36.2791H134.892ZM148.546 36.2791V48.862H151.488V36.2791H148.546ZM171.994 36.2791V48.862H174.573V42.1173C174.573 41.933 174.567 41.7369 174.555 41.5296C174.543 41.3166 174.529 41.1009 174.512 40.8822L180.456 48.3783C180.6 48.5626 180.75 48.6894 180.906 48.7585C181.062 48.8275 181.252 48.862 181.477 48.862H183V36.2791H180.421V42.9372C180.421 43.1387 180.427 43.3549 180.439 43.5852C180.45 43.8097 180.468 44.0428 180.491 44.2846L174.503 36.7282C174.423 36.6304 174.35 36.5525 174.287 36.4949C174.223 36.4373 174.157 36.3944 174.088 36.3656C174.019 36.3312 173.941 36.3077 173.854 36.2961C173.768 36.2845 173.661 36.2791 173.534 36.2791H171.994ZM99.7801 38.55C100.34 38.55 100.838 38.6423 101.277 38.8266C101.715 39.0108 102.085 39.2759 102.385 39.6213C102.69 39.9668 102.924 40.3895 103.085 40.8904C103.247 41.3855 103.327 41.9441 103.327 42.5659C103.327 43.1934 103.247 43.758 103.085 44.2589C102.924 44.754 102.69 45.1743 102.385 45.5198C102.085 45.8652 101.715 46.1297 101.277 46.314C100.838 46.4924 100.34 46.5818 99.7801 46.5818C99.2148 46.5818 98.7096 46.4924 98.2655 46.314C97.8271 46.1297 97.455 45.8652 97.1493 45.5198C96.8493 45.1743 96.6188 44.754 96.4573 44.2589C96.2958 43.758 96.2153 43.1934 96.2153 42.5659C96.2153 41.9441 96.2958 41.3855 96.4573 40.8904C96.6188 40.3895 96.8493 39.9668 97.1493 39.6213C97.455 39.2759 97.8271 39.0108 98.2655 38.8266C98.7096 38.6423 99.2148 38.55 99.7801 38.55ZM161.888 38.55C162.447 38.55 162.946 38.6423 163.385 38.8266C163.823 39.0108 164.192 39.2759 164.492 39.6213C164.798 39.9668 165.031 40.3895 165.193 40.8904C165.355 41.3855 165.436 41.9441 165.436 42.5659C165.436 43.1934 165.355 43.758 165.193 44.2589C165.031 44.754 164.798 45.1743 164.492 45.5198C164.192 45.8652 163.823 46.1297 163.385 46.314C162.946 46.4924 162.447 46.5818 161.888 46.5818C161.322 46.5818 160.818 46.4924 160.374 46.314C159.935 46.1297 159.563 45.8652 159.258 45.5198C158.958 45.1743 158.727 44.754 158.565 44.2589C158.404 43.758 158.323 43.1934 158.323 42.5659C158.323 41.9441 158.404 41.3855 158.565 40.8904C158.727 40.3895 158.958 39.9668 159.258 39.6213C159.563 39.2759 159.935 39.0108 160.374 38.8266C160.818 38.6423 161.322 38.55 161.888 38.55Z" fill="white" fill-opacity="0.75"/>
</svg>
