<svg width="36" height="36" fill="none" xmlns="http://www.w3.org/2000/svg"><path d="M18 .563C27.633.563 35.438 8.367 35.438 18c0 9.633-7.805 17.438-17.438 17.438S.562 27.633.562 18 8.367.562 18 .562Zm-2.032 10.096 5.309 5.091H8.437c-.935 0-1.687.752-1.687 1.688v1.125c0 .935.752 1.687 1.688 1.687h12.839l-5.309 5.09a1.69 1.69 0 0 0-.028 2.412l.773.767c.661.66 1.73.66 2.384 0l9.33-9.324a1.68 1.68 0 0 0 0-2.383l-9.33-9.338a1.68 1.68 0 0 0-2.384 0l-.773.767a1.698 1.698 0 0 0 .028 2.418Z" fill="#03045E"/></svg>