<svg width="251" height="47" fill="none" xmlns="http://www.w3.org/2000/svg"><g clip-path="url('#clip0_116_153')"><path d="M.946 11.148c32.308-.921 64.607-1.945 96.898-3.071l96.898-3.29c18.276-.614 36.551-1.357 54.827-1.856V0c-28.117 3.366-56.233 7.104-84.246 10.7L81.728 21.388l-47.44 6.054c-1.942.244-2.082 3.187 0 3.136l94.228-2.189 26.749-.614-.422-3.123c-20.448 3.6-40.858 7.193-61.23 10.777-1.852.333-1.277 3.072.422 3.162l48.718 2.252-.434-3.276c-7.822 2.035-15.733 3.84-23.465 6.182-1.712.525-1.469 3.315.435 3.225 1.278 0 2.658-.166 3.974-.179a1.481 1.481 0 0 0 1.483-1.485 1.486 1.486 0 0 0-1.483-1.484c-1.278 0-2.645-.09-3.974-.128l.447 3.225c7.885-1.753 15.656-4.07 23.464-6.13a1.674 1.674 0 0 0 .647-2.872 1.67 1.67 0 0 0-1.094-.418l-48.717-2.125.421 3.149c20.448-3.627 40.858-7.232 61.229-10.816 1.764-.307 1.278-3.161-.421-3.123l-94.24 2.227-26.736.627v3.136l84.169-10.816 84.233-10.79C218.449 6.95 234.22 4.98 249.978 2.83c1.635-.218 1.278-2.944-.384-2.88-32.295 1.395-64.603 2.342-96.898 3.494-32.295 1.152-64.603 2.304-96.898 3.52C37.522 7.671 19.247 8.393.97 9.126c-1.278 0-1.278 2.01 0 1.971l-.025.051Z" fill="#FFBD00"/></g><defs><clipPath id="clip0_116_153"><path fill="#fff" d="M0 0h251v47H0z"/></clipPath></defs></svg>