<svg width="407" height="77" fill="none" xmlns="http://www.w3.org/2000/svg"><g clip-path="url('#clip0_96_26')" fill="#FFBD00"><path d="M79.55 15.916c-1.717 3.732-6.016 7.07-9.348 10.506-3.8 3.92-7.68 7.82-11.788 11.669A264.07 264.07 0 0 1 45.67 49.267c-4.264 3.49-8.62 6.95-12.354 10.578-4.224 4.106-7.687 8.442-9.218 12.97-.336.99 1.397 1.064 2.968.787 2.414-.426 4.87-1.438 6.195-2.477 4.202-3.296 7.156-6.908 10.957-10.308 3.716-3.325 7.71-6.533 11.881-9.743 8.566-6.591 17.76-12.949 27.236-19.249 2.554-1.698 5.15-3.386 7.613-5.114 1.181-.83 2.322-1.67 3.528-2.49.241-.165.49-.326.732-.491.764-.518-.406.21.509-.325.264-.154.526-.307.796-.46.208-.115 1.457-.76.412-.248l-7.173.487c-.895 1.47-2.736 2.539-4.368 3.888a575.308 575.308 0 0 0-6.116 5.129C75.53 35.377 71.83 38.579 68 41.707A274.442 274.442 0 0 1 43.547 59.53a263.72 263.72 0 0 0-6.322 4.238c-.51.352-1.025.702-1.553 1.048a89.93 89.93 0 0 1-.711.459c.565-.358.061-.043-.243.135-.553.323-1.125.638-1.717.944 1.514-.783-2.004.77-.139.056l5.897.077c.67-1.17 2.334-2.609 3.495-3.508 1.736-1.344 3.618-2.645 5.3-4.005 4.11-3.323 7.736-6.794 11.527-10.2 3.15-2.83 6.291-5.663 9.423-8.497 3.143-2.837 5.303-4.747 8.983-7.38a78.247 78.247 0 0 1 2.937-1.99c.16-.107.788-.482-.036.016.289-.174.573-.348.865-.52.52-.307 1.05-.613 1.593-.91.269-.146 1.86-.799 1.83-.96 0 .015-.991.468-.386.193.322-.146.632-.299.954-.445.585-.265 1.507-.53 1.959-.842-.113.077-1.312.49-.256.11.412-.148.818-.3 1.233-.446l-6.015-.076c-.405 1.517-1.788 2.84-3.11 4.215-1.488 1.549-2.91 3.112-4.364 4.67-2.926 3.132-5.756 6.292-8.852 9.39-5.807 5.822-13.377 11.347-16.396 17.709-.483 1.032 1.643 1.224 3.243.858 6.438-1.47 10.093-4.047 13.935-6.77 3.528-2.502 6.797-5.083 10.045-7.669 6.515-5.185 12.98-10.401 20.018-15.431 1.842-1.317 3.702-2.627 5.556-3.94.401-.284.805-.568 1.219-.847.236-.16.483-.318.719-.475.332-.218.483-.282.05-.034.456-.257.93-.51 1.375-.772.684-.4-.903.378-.087.043.267-.11 1.358-.569.077-.066l-6.061-.077c-2.442 4.654-8.387 8.956-13.338 13.197-5.651 4.837-10.648 9.852-16.095 14.742a418.306 418.306 0 0 1-9.979 8.666c-.392.328-.822 1.055-.153 1.395.598.307 1.602.193 2.326.106 2.8-.338 5.876-1.599 7.314-2.76 7.794-6.296 15.74-12.548 23.39-18.884 7.219-5.978 12.968-11.803 21.697-17.244l-9.606 1.275C98.27 34.294 91.47 40.276 84.848 46.3c-3.233 2.941-6.314 5.582-9.563 8.284-3.269 2.718-6.438 5.47-8.746 8.41-.526.67-1.008 1.561 1.085 1.619 2.226.062 4.667-.91 6.18-1.559 8.662-3.738 13.615-8.922 18.681-13.826 2.508-2.428 5.336-4.773 7.99-7.165 3.03-2.73 5.976-5.483 9.035-8.207 3.559-3.167 6.68-5.794 10.922-8.838l-9.846 1.298c-5.082 6.222-11.981 12.047-18.452 17.954-6.71 6.129-12.755 12.419-19.123 18.627-1.71 1.666-3.42 3.326-5.304 4.95-1.913 1.65-3.722 3.338-4.627 5.186-.459.938 1.088 1.182 2.736.982 2.53-.306 4.948-1.291 6.6-2.213 7.805-4.385 12.714-9.696 17.412-14.933 4.693-5.221 9.754-10.381 14.847-15.518 1.584-1.597 3.231-3.181 5.016-4.73.161-.136.322-.272.473-.407.14-.12.734-.608.312-.264.429-.355.872-.707 1.33-1.055a59.672 59.672 0 0 1 3.178-2.293l-10.196 1.354c-4.32 5.595-9.533 11.015-14.646 16.452-5.183 5.511-10.14 11.07-15.556 16.53-2.83 2.852-6.265 5.742-6.951 8.932-.456 2.116 5.084.733 6.78.086 6.076-2.32 10.32-5.245 14.119-8.44a309.108 309.108 0 0 0 9.446-8.267c6.401-5.85 12.305-11.81 18.567-17.69.825-.776 1.67-1.546 2.533-2.311.457-.405.927-.805 1.394-1.206.097-.084.644-.536.076-.068l.644-.525a66.3 66.3 0 0 1 5.187-3.783c.241-.158 1.394-.884.277-.192l-9.725.69c-4.472 5.614-9.978 11.022-14.894 16.548-2.482 2.79-4.967 5.577-7.389 8.378-2.049 2.373-3.863 4.794-6.074 7.13-1.078 1.142-2.092 2.297-2.883 3.492-.644.996-1.287 2.263-.5 3.27 1.638 2.1 9.126-1.132 10.48-1.934 9.69-5.741 17.668-12.002 25.268-18.398 3.592-3.023 7.119-6.064 10.727-9.084.538-.448-.525.431.021-.016.258-.21.512-.423.769-.634.412-.337.827-.675 1.243-1.012.933-.758 1.879-1.512 2.836-2.263a179.893 179.893 0 0 1 5.916-4.44c2.253-1.617 4.594-3.22 7.096-4.754-.161.097-1.046.638-.135.09.322-.19.631-.383.95-.573.637-.381 1.281-.759 1.931-1.133 1.375-.787 2.787-1.56 4.236-2.318l-9.979.71C134.938 37.2 122.127 46.94 113.236 57.57c-2.585 3.087-4.86 6.238-6.64 9.452-.586 1.057 1.295 1.365 3.125 1.121 2.999-.399 5.448-1.47 7.521-2.526 8.93-4.55 14.164-10.43 19.448-16.037 2.452-2.603 5.164-5.13 7.864-7.68 3.058-2.884 5.988-5.798 9.174-8.65.898-.806 1.826-1.603 2.761-2.4.544-.464-.539.428.034-.027.272-.216.535-.435.805-.65a77.432 77.432 0 0 1 4.598-3.4c.535-.364 1.088-.721 1.635-1.082.239-.153.825-.612-.16.094.336-.241.769-.463 1.152-.689l-10.689 1.411c-.322.836-1.002 1.625-1.54 2.431.2-.3.522-.688.161-.207l-.312.405c-.254.326-.512.652-.773.977-.574.714-1.159 1.429-1.754 2.143-2.999 3.594-6.161 7.157-9.271 10.728-6.426 7.38-13.32 14.8-18.005 22.483-.713 1.169-1.397 2.364-1.634 3.58-.206 1.06-.373 2.252 2.038 2.74 1.846.371 5.035-.696 6.322-1.168 6.366-2.333 10.808-5.435 15.044-8.631 3.835-2.894 7.387-5.873 10.869-8.865 6.162-5.296 11.995-10.663 17.982-15.999a130.89 130.89 0 0 1 2.447-2.12c-.815.692.386-.307.611-.488a61.84 61.84 0 0 1 4.246-3.113c.179-.119.357-.238.539-.357.182-.119 1.228-.796.417-.273-.708.46-.082.055.063-.03.385-.224.766-.447 1.156-.668l-11.463 1.512c-1.77 3.139-4.167 5.84-7.371 9.004-3.121 3.084-6.57 6.089-9.883 9.126-3.38 3.096-6.623 6.225-9.966 9.33-3.412 3.17-6.748 6.36-9.623 9.65-.758.868-1.255 2.035 1.413 2.109 2.915.08 6.063-1.188 8.048-2.03 9.517-4.04 14.807-9.704 19.7-15.178 5.366-6.01 11.22-11.92 16.64-17.919a436.472 436.472 0 0 0 9.713-11.12c.393-.468 1.127-1.311.197-1.784-.889-.454-2.799-.216-3.758-.032-3.828.736-7.84 2.416-9.548 4.235-5.123 5.458-9.718 11.023-14.382 16.574-2.308 2.745-4.589 5.5-7.082 8.209-2.396 2.602-5.062 5.151-7.524 7.743-2.887 3.04-5.54 6.164-7.199 9.41-.707 1.384 2.148 1.487 4.155 1.102 3.348-.644 6.839-1.98 8.674-3.467 7.099-5.755 12.628-11.851 18.168-17.968 5.623-6.21 11.789-12.3 17.754-18.438 3.183-3.276 7.35-6.608 7.698-10.288.101-1.072-3.335-.673-4.336-.497-2.836.498-5.593 1.57-7.476 2.676-9.782 5.748-16.779 12.34-23.268 19.022-6.343 6.531-12.704 13.065-19.261 19.548-2.91 2.876-6.641 6.077-6.262 9.367.148 1.292 4.336.565 5.486.3 3.141-.722 6.577-2.038 8.334-3.492 6.543-5.415 11.838-11.088 16.947-16.833 4.891-5.5 10.3-10.884 15.257-16.369 2.939-3.253 5.606-6.574 7.649-9.981.576-.963-.805-1.473-2.683-1.368-5.634.312-10.406 2.593-13.586 4.646-1.684 1.086-3.229 2.233-4.713 3.382-1.849 1.432-3.589 2.896-5.324 4.363-.727.613-1.448 1.23-2.179 1.843-.336.283-.671.566-1.011.847.805-.666-.483.383-.692.556-6.312 5.07-13.198 9.973-19.635 15.004-3.891 3.045-7.668 6.13-11.106 9.297-1.041.958-.882 2.311 2.052 2.08 3.541-.278 6.752-1.634 9.025-2.868 2.718-1.476 4.614-3.167 6.489-4.9 1.542-1.425 3.172-2.832 4.724-4.251a306.882 306.882 0 0 0 9.394-8.978c5.988-5.949 11.75-11.961 17.013-18.066 1.429-1.658 2.736-3.337 4.184-4.992 1.471-1.69 3.069-3.435 3.362-5.282.068-.418.161-1.156-1.183-1.214-3.98-.174-7.725 1.26-10.429 2.485a29.783 29.783 0 0 0-6.243 3.804c-3.253 2.587-5.934 5.317-8.423 8.088a143.59 143.59 0 0 0-5.266 6.237c-2.649 3.306-6.019 6.49-8.987 9.733-5.15 5.633-9.947 11.406-12.617 17.437-.415.935.644 1.273 2.445 1.246 5.128-.077 10.211-2.297 13.19-4.088a31.175 31.175 0 0 0 3.982-2.87c.288-.24.585-.478.861-.72-1.185 1.046.428-.292.742-.537a84.408 84.408 0 0 0 11.847-11.142c3.824-4.35 8.199-8.704 10.59-13.294.919-1.76 2.522-4.903-.949-6.307-2.471-.995-7.343.932-8.893 1.64-9.41 4.305-17.049 9.33-23.577 14.691-3.159 2.594-6.153 5.23-9.11 7.878-1.427 1.278-2.852 2.556-4.3 3.827a225.512 225.512 0 0 1-2.973 2.571l-.578.487c-.672.57.345-.277-.095.081-3.379 2.76-6.954 5.458-11.026 8l12.106-2.796a2.871 2.871 0 0 1-.151-.646c-.014-.134.056-.7-.026-.306a5.594 5.594 0 0 1 .622-1.574c.143-.258.322-.51.483-.765.072-.115.402-.498-.026.024.091-.112.178-.225.27-.337.47-.572.99-1.135 1.539-1.69 1.975-2.006 4.392-3.904 6.409-5.895 2.575-2.549 4.915-5.163 7.403-7.731 2.716-2.802 5.357-5.622 7.565-8.523 2.565-3.362 4.667-6.788 5.422-10.357.139-.652.055-.93-1.191-1.225-2.485-.583-5.554-.061-7.862.47-3.742.861-6.898 2.153-9.765 3.569-4.828 2.383-8.691 5.175-12.167 8.03-2.717 2.233-5.241 4.509-7.71 6.805-4.17 3.882-8.775 7.662-13 11.533-2.873 2.633-5.614 5.3-8.57 7.913-2.905 2.567-5.794 5.185-7.127 8.055-.843 1.814 3.758 1.11 5.522.642 4.956-1.31 8.484-3.348 11.653-5.528a247.177 247.177 0 0 0 6.885-4.874c4.523-3.341 8.802-6.754 13.105-10.16 8.821-6.984 18.163-13.816 27.052-20.78 2.026-1.59 4.089-3.17 6.08-4.768 1.932-1.55 4.507-3.415 4.758-5.271.061-.45.208-.842-.752-1.098-.914-.243-2.174-.094-3.087.077-3.219.62-6.087 1.846-8.016 3.204-10.676 7.515-20.153 15.412-28.788 23.495-4.157 3.89-8.931 7.655-12.393 11.704-.994 1.167-2.028 2.383-2.498 3.63-.294.78-.669 2.04.805 2.65 2.912 1.197 8.653-1.57 10.203-2.374 19.009-9.849 34.979-20.975 51.941-31.61 2.606-1.635 5.633-3.234 7.564-5.074-.734.7.179-.306.568-.36l-.299.188c-.413.255-.398.253.044-.006l.354-.187-.839.418c1.056-.486-.41.173-.562.197.195-.03 1.566-.498.412-.174-.978.277-.16.05.031 0 .472-.125.937-.248 1.42-.363l-5.42-.63c-1.619 3.215-3.92 5.93-6.726 8.995-2.703 2.956-5.351 5.924-8.047 8.88-5.24 5.757-11.685 11.678-11.289 18.119.034.575 1.51.67 2.366.62 1.687-.097 3.38-.612 4.687-1.082 10.462-3.73 18.176-8.782 24.926-14.04 2.958-2.305 5.778-4.65 8.817-6.932 3.594-2.698 7.48-5.304 11.206-7.96 4.517-3.221 8.991-6.436 12.989-9.81.966-.824.644-1.843-1.684-1.708-2.943.17-5.472 1.398-7.403 2.353-8.561 4.244-14.276 9.677-19.436 14.96-5.366 5.494-10.958 10.932-16.356 16.418a319.762 319.762 0 0 0-10.262 10.92l3.623-2.238c-4.627 2.265-10.301 5.52-6.148 8.727.916.706 4.111-.103 4.989-.339a21.322 21.322 0 0 0 6.161-2.732c8.254-5.327 14.851-11.158 21.458-16.966 1.577-1.385 3.154-2.77 4.761-4.149.743-.638 1.494-1.276 2.253-1.913.644-.544.282-.236.139-.118.217-.18.436-.359.655-.535.389-.32.772-.643 1.163-.962-.356.291.1-.076.211-.168 3.794-3.029 7.659-6.036 11.513-9.048 4.361-3.406 8.741-6.81 13.015-10.24 1-.803 2.709-2.69-.896-2.483-3.338.193-7.243 1.873-8.889 3.187a225.043 225.043 0 0 0-29.14 27.755c-.529.602-1.136 1.371.243 1.79 1.339.409 3.623-.116 4.766-.459 11.34-3.432 19.507-8.344 26.275-13.792 2.855-2.296 5.541-4.641 8.503-6.908a82.417 82.417 0 0 1 4.62-3.265c.521-.33.408-.262-.338.203l.631-.383c.424-.251.855-.5 1.288-.746.433-.245.885-.485 1.341-.722 1.649-.855-.937.441.16-.083l-8.424-.07c-5.739 6.488-12.291 12.796-18.531 19.177-1.325 1.355-2.567 2.731-3.942 4.075-.368.36-.755.715-1.144 1.071-.2.183-.483.372-.624.566l.273-.224c.592-.49.363-.299-.689.572l-.483.44c-2.188 2.004-4.345 4.026-6.035 6.14-1.698 2.129-3.988 4.923-2.363 7.213.753 1.061 3.296.641 4.914.269 3.047-.702 5.472-1.849 7.463-3.129 14.807-9.488 25.612-20.095 36.738-30.604.913-.862.805-2.08-1.844-1.87-3.176.249-6.083 1.467-8.115 2.578-5.703 3.117-10.132 6.686-14.116 10.34-1.854 1.701-3.605 3.426-5.362 5.15l-1.061 1.036c-.187.181-.882 1.189-1.315 1.272l.402-.313-.996.826c-.225.2-.423.409-.636.613-.396.382-.79.76-1.207 1.134-.254.23-.518.453-.785.677-.322.275-1.217 1.007.265-.218l-.713.59c-1.376 1.14-2.755 2.28-4.092 3.43-2.461 2.116-4.869 4.27-6.714 6.525-.952 1.167-1.962 2.393-2.275 3.646-.226.892-.387 2.105 1.224 2.772 1.579.652 4.156.011 5.624-.383 2.833-.759 5.004-1.865 6.945-3.08 11.454-7.179 19.429-15.817 25.14-24.373.747-1.119-1.481-1.426-3.301-1.184-3.042.405-5.955 1.53-7.943 2.669-8.67 4.99-13.98 10.874-20.014 16.611a57.195 57.195 0 0 1-1.918 1.766c-1.042.903.598-.468-.148.127-.301.24-.596.48-.895.72-1.64 1.313-3.313 2.62-4.763 3.986-2.485 2.339-4.989 5.278-3.541 7.938 1.179 2.156 8.83-.757 10.119-1.317 9.833-4.263 17.36-9.48 24.339-14.824 3.154-2.416 6.251-4.85 9.597-7.209.872-.612 1.762-1.22 2.67-1.824a92.687 92.687 0 0 1 1.729-1.114c-.803.497-.91.566-.322.206.966-.575 1.931-1.148 2.944-1.708a81.468 81.468 0 0 1 1.538-.827c.432-.225 2.386-1.187.253-.145l-9.892 1.287c-.093 1.082-.965 2.738-1.875 3.98.417-.573-.409.493-.492.592-.298.356-.61.71-.927 1.062-.602.666-1.23 1.326-1.859 1.986-2.72 2.857-5.561 5.797-6.411 8.936-.111.41-.134 1.287 1.278 1.309 5.707.087 10.727-1.64 14.733-3.423 3.702-1.643 6.784-3.575 9.639-5.553.927-.641 1.843-1.287 2.775-1.927.402-.276 1.264-.813-.608.362.616-.383 1.25-.766 1.852-1.158.538-.349 1.043-.708 1.552-1.066.56-.396 1.113-.792 1.686-1.183.245-.167.493-.334.746-.499 1.146-.748-.644.364-.105.063.33-.18.657-.364.982-.547.656-.368-1.804.832-.322.18.55-.234.228-.104-.966.39-1.18.349-1.486.443-.917.282.499-.136.239-.081-.779.166.257-.053.52-.098.788-.136l-4.125-.473c.115.648-.098 1.225-.212 1.89-.074.428-.204.904-.108 1.339.121.548.464.759 1.418 1.002 1.886.48 3.963.511 6.073.404 4.785-.245 9.455-1.296 13.775-2.246 2.08-.46 4.141-.937 6.24-1.378a79.32 79.32 0 0 1 2.653-.516c.101-.018 1.226-.23 1.269-.203-.035-.025-1.644.177-.106.037.768-.07 1.553-.118 2.331-.153.31-.014 1.609-.04 1.334-.043-.375 0 .805.035 1.035.052a16.69 16.69 0 0 1 1.532.173c.201.033.393.076.591.11.524.095-.549-.175-.098-.03.278.086.546.18.804.28a9.69 9.69 0 0 1 1.552.804c2.485 1.55 4.461 2.967 8.165 3.942 5.103 1.343 10.88 1.468 16.592 1.185 5.712-.283 11.292-1.009 16.849-1.684 5.931-.716 11.856-1.158 17.928-1.513 16.869-.984 33.846-1.514 50.68-2.644 4.023-.27 8.113-2.08 10.192-3.655 1.191-.902 3.15-3.127-1.028-2.847-14.69.987-29.482 1.54-44.222 2.324-6.549.348-13.198.64-19.636 1.33-5.425.583-10.757 1.35-16.22 1.856-5.356.496-9.872.798-15.008.146-4.214-.536-7.156-1.733-9.688-3.422-2.039-1.362-4.229-2.507-7.97-2.686-4.933-.235-9.668.417-14.112 1.372-2.334.501-4.627 1.045-6.951 1.556-1.196.263-2.4.519-3.621.755-.556.108-1.127.197-1.679.311-.992.205.108.02.291-.01-.69.113-1.448.153-2.121.293-.673.14.555-.081.52-.065-.153.067-.958.112-1.164.133-.491.05-.987.092-1.487.12-.501.028-1.555.007-.483.049-.477-.01-.951-.036-1.421-.077-.369-.037-.977-.076-1.27-.2.589.243.415.1.517-.152.399-.977.54-1.972.418-2.965-.146-1.02-2.969-.646-4.127-.472-5.583.836-10.368 3.084-13.88 5.23a93.59 93.59 0 0 0-4.439 2.917c-.471.326-.996.641-1.448.974 1.759-1.302-.135.076-.683.422-.196.125-.392.25-.585.376-.882.575-1.716 1.167-2.576 1.751-.537.367-1.076.734-1.627 1.096-.273.18-.618.364-.858.555l.786-.487c-.198.122-.399.243-.604.363-.549.324-1.155.625-1.704.948-.726.426 1.744-.8.608-.307-.322.141-.661.278-.974.424 2.067-.967 1.227-.529.598-.276 1.302-.394 1.657-.51 1.063-.348-.53.14-.211.068.955-.212-.446.093-1.6.217.261-.01-.345.042-1.377.026-.02.047l1.277 1.31c.201-.74.506-1.471.914-2.19.207-.365.444-.724.685-1.083.139-.206.269-.366.039-.068.138-.179.282-.357.427-.535 1.215-1.488 2.65-2.93 4.023-4.385 2.91-3.073 5.398-6.167 5.725-9.563.085-.877-2.449-.731-3.472-.595-2.369.315-4.706 1.048-6.42 1.882-9.322 4.536-16.523 9.755-23.538 15.118-3.165 2.417-6.345 4.832-9.847 7.143-.456.301-.924.598-1.384.898-.584.368-.468.297.349-.213-.238.146-.483.292-.718.438a82.906 82.906 0 0 1-4.135 2.328c-.516.271-2.522 1.055-.22.133-1.178.473-2.221 1.045-3.367 1.54l10.119-1.317a2.864 2.864 0 0 1-.369-1.52c-.027.494.147-.41.185-.507.094-.236.208-.47.338-.702.082-.145.835-1.148.24-.42.196-.238.394-.476.607-.711a24.564 24.564 0 0 1 1.67-1.65c.341-.31.69-.615 1.05-.918.182-.154.475-.572.805-.676-.606.481-.691.545-.256.191.171-.142.345-.285.519-.427.253-.204.505-.411.757-.621 1.497-1.234 2.92-2.47 4.23-3.75 2.51-2.457 4.828-4.96 7.395-7.403a64.377 64.377 0 0 1 3.037-2.724c-.901.759.23-.173.42-.322.736-.577 1.5-1.144 2.305-1.698.377-.26.75-.601 1.235-.816-1.711.761.14-.068.508-.28l-10.701.76c-.483.617-.927 1.237-1.391 1.855.354-.471-.312.408-.312.407a104.5 104.5 0 0 1-2.971 3.704 90.19 90.19 0 0 1-5.328 5.812 83.214 83.214 0 0 1-4.606 4.26c-.095.082-.98.82-.46.393.52-.427-.483.388-.483.383a77.674 77.674 0 0 1-7.404 5.253l12.567-3.46c-.13-.055-.425-.167-.463-.255.098.219.161.383.091.04-.025-.123-.07-.249-.106-.371-.024-.085.026-.177 0-.26-.071-.178-.224.638 0 .167.161-.368.271-.74.483-1.106.124-.22.264-.437.412-.652.583-.854-.352.395.137-.186 1.799-2.135 3.977-4.184 6.301-6.2.55-.478 1.108-.954 1.672-1.427.234-.198.47-.395.705-.591.929-.778-.898.742 0 0 1.07-.884 2.162-1.76 3.195-2.655 3.058-2.64 5.419-5.472 8.126-8.196 1.732-1.743 3.541-3.463 5.524-5.145-.702.597-.18.148-.026.026.309-.242.612-.487.924-.729a54.149 54.149 0 0 1 1.595-1.181c.592-.422 1.222-.828 1.836-1.243.644-.435-.928.546-.218.136.421-.243.832-.491 1.258-.733l-9.959.708a284.461 284.461 0 0 1-16.578 15.229c-.386.328-.777.656-1.167.985-.743.628.404-.326-.428.357-.792.65-1.591 1.299-2.398 1.946a201.28 201.28 0 0 1-4.606 3.557 167.505 167.505 0 0 1-10.274 7.077l12.377-2.86a2.358 2.358 0 0 1-.407-1.022c-.016-.132.05-.824-.053-.238.042-.24.103-.478.185-.715.159-.45.37-.897.631-1.337.158-.27.329-.537.513-.803.07-.102.152-.203.218-.306.212-.34-.422.506.016-.01 1.77-2.09 3.832-4.1 6.01-6.098 5.395-4.947 9.875-10.14 14.746-15.21 3.379-3.516 6.759-7.035 9.924-10.597.685-.771 1.109-1.812-1.259-1.877-2.501-.07-5.535 1.035-7.167 1.808-8.513 4.03-14.405 8.842-20.384 13.744a132.858 132.858 0 0 1-4.054 3.215 78.866 78.866 0 0 1-2.276 1.655c-.689.479-1.981 1.056-2.4 1.591.759-.47.871-.54.337-.215a59.287 59.287 0 0 1-1.624.934c-.44.244-.898.48-1.348.72-1.047.56 1.597-.746-.16.07-.48.224-.97.443-1.47.658-1.825.779 1.098-.383-.153.07-.536.195-1.064.394-1.609.583a53.26 53.26 0 0 1-.834.277c1.051-.325 1.209-.376.473-.153l5.009 1.328c4.024-4.552 8.161-9.087 12.615-13.55a200.238 200.238 0 0 1 6.76-6.456 179.696 179.696 0 0 1 5.615-4.895c-.52.434.506-.412.528-.431.353-.286.71-.57 1.067-.854l-9.785.705c-.662.532-1.304 1.072-1.967 1.6.083-.066.33-.275-.058.035l-.742.595c-.927.743-1.857 1.484-2.791 2.225l-5.794 4.593a6687.974 6687.974 0 0 0-11.408 9.034c-3.658 2.915-7.275 5.839-10.759 8.803-1.7 1.447-3.388 2.896-5.09 4.342-.771.654-1.545 1.307-2.322 1.96-.138.117-1.135.942-.633.528-.505.416-1.012.831-1.521 1.246-3.862 3.132-7.886 6.227-12.384 9.161l11.15-3.07c-.301-.21-.519-.443-.644-.69-.037-.076-.161-.814-.122-.584-.064-.336-.029-.236-.05-.043l.225-.236-.305.249c.215-.444.375-.193-.071.03-.824.388-.758.349.199-.115.75-.342 1.416-.723 1.985-1.136 2.227-1.684 3.557-3.742 5.237-5.566 3.2-3.477 6.521-6.927 9.964-10.35 2.886-2.868 5.831-5.715 8.561-8.617 2.624-2.79 5.232-5.588 8.197-8.298.444-.409.898-.814 1.36-1.216.184-.16.372-.32.555-.48.583-.505-.212.163.161-.14a66.288 66.288 0 0 1 2.812-2.166 52.18 52.18 0 0 1 1.399-.974c.211-.14.421-.28.644-.419.843-.547.358-.017-.017 0 .358-.017 1.402-.82 1.676-.972.562-.31 1.143-.613 1.737-.908l-9.088.646a57.115 57.115 0 0 1-.696.591c-.4.33-.805.656-1.216.981-.824.654-1.663 1.303-2.518 1.946a194.212 194.212 0 0 1-5.482 3.975c-3.684 2.588-7.515 5.129-11.152 7.731-6.041 4.322-11.169 8.926-17.611 13.122-.229.148-.465.295-.691.444-.644.423.831-.5.161-.092-.475.286-.946.574-1.431.855a72.936 72.936 0 0 1-2.985 1.635c-.214.11-1.077.55-.208.11.869-.44-.04.013-.222.098-.53.249-1.067.492-1.609.73-.205.089-.414.175-.62.265-1.389.602 1.086-.402.22-.077-.643.242-1.287.486-1.955.72l7.053-.46c-.049-1.46.413-2.894 1.118-4.313a22.8 22.8 0 0 1 2.575-3.952c2.228-2.805 4.958-5.512 7.417-8.268 5.387-6.047 11.863-12.033 15.106-18.449.918-1.814-3.759-1.026-5.419-.63-3.948.941-7.37 2.323-10.36 3.853a25.528 25.528 0 0 0-3.409 2.082c-.631.46-1.159.954-1.749 1.427-.065.052-.57.368-.161.124.515-.306-.673.37-.779.436a2397.665 2397.665 0 0 0-13.595 8.534c-4.311 2.724-8.581 5.461-12.876 8.19-2.139 1.362-4.29 2.72-6.453 4.074-.557.35.14-.087.21-.13-.281.174-.561.349-.842.522a383.745 383.745 0 0 1-5.107 3.108c-5.01 3.003-10.195 5.941-15.649 8.764l10.202-2.373c-.534-.221 0-.224-.058.114.015-.096-.16-.223-.16-.325 0-.016-.049-.402-.028-.4.427.026-.19.561-.019.26.071-.125.082-.265.132-.393a6.83 6.83 0 0 1 .685-1.232c.065-.096.137-.191.2-.287.299-.455-.169.238-.179.23-.088-.045.644-.788.692-.853 1.842-2.172 4.093-4.265 6.403-6.332 5.815-5.206 11.427-10.462 17.543-15.592.655-.552-.816.667.314-.261.353-.289.703-.577 1.058-.866a242.005 242.005 0 0 1 5.786-4.576 248.928 248.928 0 0 1 8.385-6.155l-11.855 2.187c-.053.241-.133.48-.239.718-.161.451.015.028.1-.077a7.516 7.516 0 0 1-.362.422c-.274.298-.575.589-.89.877-.161.149-.336.296-.505.445-.866.762.787-.606-.161.13a511.73 511.73 0 0 0-4.819 3.766c-4.21 3.318-8.53 6.602-12.876 9.882-8.39 6.345-16.417 12.792-24.742 19.156a236.983 236.983 0 0 1-7.16 5.282c-1.126.802-2.3 1.593-3.455 2.388-.207.144-.414.289-.623.432-.157.11-.319.22-.483.329-.354.234-.207.149.44-.257-.105.145-.58.285-.723.41.419-.362 4.48-1.583 2.562-1.072l5.523.642c.975-2.092 3.119-4.037 5.493-6.139 2.374-2.102 4.609-4.22 6.893-6.334 4.732-4.384 9.712-8.699 14.637-13.033 1.752-1.543 3.352-3.126 5.116-4.67.29-.255.582-.507.877-.757.282-.24 1.66-1.349.38-.33.733-.583 1.441-1.172 2.189-1.751a69.412 69.412 0 0 1 2.326-1.723c.357-.256.72-.507 1.089-.754.475-.32 2.518-1.403.483-.343a58.352 58.352 0 0 0 2.678-1.51c-2.077 1.225-.727.37-.056.063.592-.27 1.542-.448-.901.35.266-.085.52-.177.763-.277.692-.289-2.033.603-1.011.316.985-.275.805.049-.605.117.18-.025.355-.058.521-.1 1.08-.184-1.48.159-.561.077 1.295-.113-.765-.153.16-.025.453.065.873.098 1.306.2l-1.193-1.225c-1.334 6.263-6.23 11.566-11.696 17.217-2.53 2.615-4.957 5.256-7.531 7.861-1.995 2.02-4.458 3.93-6.467 5.948-2.374 2.386-4.938 5.241-4.007 7.943.378 1.103 3.57.548 4.806.263 3.001-.69 5.303-1.813 7.3-3.062 7.243-4.517 13.008-9.522 18.619-14.523 2.773-2.471 5.509-4.953 8.393-7.396l.433-.365c.11-.093.728-.612.264-.224-.431.362.056-.046.122-.1l.589-.482c.741-.602 1.492-1.2 2.254-1.794a102.336 102.336 0 0 1 4.781-3.495c.887-.612 1.813-1.203 2.737-1.801.674-.44-.948.574-.239.146.301-.181.597-.365.9-.546a84.914 84.914 0 0 1 4.558-2.537c.264-.137.535-.272.805-.409 1.127-.583-1.021.482-.204.103.632-.295 1.255-.594 1.894-.886l-8.893 1.64c.202.088.391.181.567.28.359.189.29.358.108.017.19.355.399.68.454 1.05.029.184 0 .37.025.553.044.348.134-.443-.03.17a9.983 9.983 0 0 1-.483 1.416 18.79 18.79 0 0 1-1.77 3.047c-.177.255-.363.509-.546.765-.348.485.043-.056.1-.129-.098.126-.193.253-.292.383a50.61 50.61 0 0 1-1.351 1.67c-3.831 4.572-7.8 9.192-12.554 13.56-.519.477-1.049.95-1.592 1.42-.217.189-.438.375-.657.562.507-.433.015-.01-.238.194-1.136.918-2.337 1.815-3.444 2.741l-.409.344c-.135.114-.71.667-.184.157.483-.475.05-.042-.109.077-.206.153-.423.306-.62.46-.685.54.424-.248.504-.293-.454.25-.374.219.238-.093.51-.267 1.082-.507 1.705-.714.632-.217 1.374-.447 2.103-.573.823-.143.813-.081-.059-.068l2.445 1.247c2.121-4.85 5.367-9.105 9.288-13.584 3.388-3.87 7.365-7.635 10.603-11.533 3.287-3.956 6.411-7.937 10.423-11.746.668-.634 1.511-1.25 2.113-1.896-1.02 1.095-.161.135.203-.14.303-.23.613-.46.938-.69.15-.104.309-.205.459-.306.691-.481-1.609.901-.529.335.098-.052.201-.109.293-.164.993-.596-1.747.816-.892.438.855-.378-2.126.799-1.223.482.804-.282-2.106.612-1.228.383-1.375.361-2.254.47-3.123.432l-1.183-1.214c-.112.688-.382 1.369-.804 2.029-.385.612-.644.87-1.267 1.599-1.207 1.397-2.379 2.8-3.597 4.195-2.604 2.985-5.358 5.939-8.186 8.88-5.653 5.876-11.535 11.704-17.809 17.436a308.455 308.455 0 0 1-5.26 4.698c-.838.732-1.674 1.463-2.485 2.201-.191.175-.399.346-.582.524-.491.477.692-.491.07-.054-.172.12-.334.247-.495.37-1.085.833 1.25-.678-.084.035l11.076-.787c.866-.78 1.739-1.558 2.637-2.33.45-.383.911-.77 1.365-1.156.447-.374.457-.384.03-.03l.697-.573a222.234 222.234 0 0 1 5.376-4.262c3.779-2.92 7.679-5.801 11.53-8.699 4.059-3.053 8.002-6.13 11.749-9.272.789-.663 1.574-1.327 2.369-1.99-.906.753.54-.438.699-.566.462-.373.931-.746 1.407-1.117a75.507 75.507 0 0 1 2.95-2.186c.466-.326.965-.644 1.41-.978.562-.384.379-.284-.548.302-7.636 1.699-9.807 2.441-6.513 2.226l-2.682-1.368a43.13 43.13 0 0 1-2.304 3.424c.235-.315-.034.038-.126.153a83.024 83.024 0 0 1-3.46 4.124c-2.402 2.679-5.007 5.321-7.579 7.968-5.151 5.296-9.707 10.712-14.78 16.023a128.83 128.83 0 0 1-4.334 4.34 101.907 101.907 0 0 1-3.717 3.369c-.225.194-1.529 1.278-.66.564l13.821-3.193c-.013-.121 0-.25-.021-.371.087.48-.056.23 0 .063.11-.286.192-.571.322-.854a7.62 7.62 0 0 1 .52-.903c.101-.153.219-.306.322-.46-.506.782.024-.014.128-.141.966-1.17 2.093-2.306 3.219-3.44 3.05-3.04 5.902-6.124 8.925-9.17 6.019-6.064 11.501-12.27 18.005-18.22a98.684 98.684 0 0 1 2.826-2.49c.176-.149.696-.633-.088.071.241-.217.523-.426.785-.637.476-.379.959-.755 1.449-1.129a68.1 68.1 0 0 1 3.022-2.186c.575-.392 1.167-.779 1.771-1.165.603-.386-.031-.294-.322.195.126-.217.831-.498 1.115-.666l-11.812 2.18c.021-.215-.175.5-.22.607-.142.332-.338.655-.531.981-.05.083-.407.552-.045.09a23.563 23.563 0 0 1-1.336 1.509c-1.288 1.339-2.608 2.668-3.898 4.005-2.912 3.02-5.881 6.026-8.819 9.04-5.538 5.68-10.54 11.466-15.933 17.177a129.899 129.899 0 0 1-4.578 4.629 99.346 99.346 0 0 1-3.861 3.508l-.483.412c-1.073.914.776-.63-.331.273l12.829-2.367a22.43 22.43 0 0 1 1.706-2.846c.09-.129.687-.929.441-.612 1.015-1.31 2.147-2.603 3.333-3.876 2.366-2.52 4.972-5.023 7.355-7.571 5.011-5.354 9.263-10.87 13.868-16.306 2.618-3.088 5.327-6.155 8.218-9.186l-13.11 2.418c-5.395 6.305-11.118 12.545-17.002 18.75-2.772 2.921-5.662 5.817-8.369 8.754-2.109 2.28-4.106 4.583-6.421 6.82a55.055 55.055 0 0 1-2.042 1.876c-.175.153-.356.306-.531.459-.517.448 1.011-.8.066-.064-.369.288-.732.578-1.117.86-.385.284-.768.552-1.169.822-.194.13-.421.259-.601.394.16-.118 1.287-.757.495-.316-.473.264-.966.523-1.435.79-.664.376 1.01-.56.952-.474-.075.113-.832.373-1.017.452l9.462.077c8.777-10.15 21.041-19.53 30.598-29.503 2.788-2.909 5.228-5.914 6.95-9.007.634-1.138-1.399-1.469-3.366-1.207-3.111.413-6.064 1.56-8.097 2.72-8.232 4.698-13.898 10.165-19.706 15.58-2.783 2.592-5.764 5.136-8.68 7.695-1.61 1.414-3.219 2.827-4.863 4.233a252.109 252.109 0 0 1-2.74 2.32c.622-.52.027-.023-.086.07-.47.382-.938.765-1.413 1.148a139.956 139.956 0 0 1-5.714 4.374c-.923.669-1.891 1.323-2.843 1.984-.672.465.985-.546.196-.125-.27.144-.551.296-.805.45-.623.382.602-.287.609-.29-1.555.705 1.678-.595-.021.032l6.322-1.166c.251.05.909.343.425.05-.221-.133.173.554.133.111-.011-.136-.092-.275-.106-.413-.01-.077 0-.153 0-.23-.066-.47-.137.536-.037.238.328-1.058.78-2.106 1.353-3.14.847-1.464 1.848-2.908 2.898-4.346.14-.192.28-.382.423-.575.161-.215.838-.968.075-.107.374-.42.657-.864.987-1.293.7-.905 1.412-1.807 2.137-2.708 6.031-7.508 12.698-14.895 18.95-22.362 1.237-1.476 2.465-2.953 3.601-4.448.838-1.103 1.817-2.242 2.269-3.402.409-1.053-1.144-1.392-3.138-1.126-2.872.383-5.704 1.45-7.552 2.537-9.182 5.4-15.699 11.588-22.154 17.78-2.746 2.632-5.688 5.22-8.273 7.89-2.559 2.643-4.944 5.324-7.637 7.938a71.908 71.908 0 0 1-2.371 2.202c-.214.19-1.421 1.216-.6.536-.419.346-.848.688-1.288 1.028-.866.663-1.806 1.296-2.736 1.936-.624.428.998-.592.322-.19-.275.16-.544.325-.822.485-.549.314-1.127.618-1.705.918l10.647-1.405c1.388-2.54 3.084-5.04 5.079-7.486 2.138-2.623 4.536-5.196 7.097-7.732 5.163-5.11 10.983-10.063 16.857-14.995 3.246-2.724 6.52-5.442 9.709-8.182 1.001-.86.754-2.08-1.847-1.875-3.218.254-6.025 1.482-8.129 2.584-10.106 5.298-18.414 11.296-25.972 17.462-3.877 3.163-7.61 6.365-11.37 9.56a459.36 459.36 0 0 1-2.575 2.174l-1.216 1.02-.612.51c.734-.613-.171.14-.322.27a232.393 232.393 0 0 1-5.657 4.525 153.024 153.024 0 0 1-6.676 4.89 135.432 135.432 0 0 1-4.282 2.838c-.136.087-1.195.745-.482.306a92.436 92.436 0 0 1-1.643.99l10.445-1.94c-.243-.312-.35-.644-.312-.976-.039.406.122-.198.177-.323.11-.25.248-.495.402-.739.12-.19.483-.643.118-.201.175-.217.349-.433.532-.648.38-.443.787-.88 1.196-1.317 2.125-2.263 3.882-4.605 5.851-6.9a497.847 497.847 0 0 1 14.316-15.987c2.834-3.05 5.622-6.11 8.092-9.23.707-.893.918-1.984-1.801-1.827-2.935.169-6.201 1.448-7.923 2.518-8.323 5.172-14.242 10.97-20.148 16.815-6.069 6.009-12.423 11.974-19.206 17.806-.692.596-1.37 1.194-2.061 1.79l-.393.337s-.835.702-.388.332c.425-.352-.175.14-.278.222a38.516 38.516 0 0 1-1.964 1.487c-.206.145-1.337.701-1.3.873-.049-.225.872-.495.172-.124-.3.157-.597.32-.885.483-.583.331.59-.29.585-.288-.276.077-2.016.805.13-.02l6.782.085c.534-2.616 2.964-4.71 5.364-7.1 2.648-2.636 5.094-5.323 7.587-7.993a1946.88 1946.88 0 0 0 15.012-16.27c2.75-3.03 5.388-6.083 7.753-9.187.307-.403.965-1.094.16-1.5-.643-.327-1.722-.207-2.499-.113-3.182.383-6.047 1.731-7.861 2.967-7.535 5.129-12.632 10.929-18.08 16.593-2.296 2.385-4.718 4.736-6.892 7.148-2.24 2.485-4.415 4.986-6.86 7.425a71.808 71.808 0 0 1-2.2 2.102c-.354.322-.715.642-1.083.96-.137.118-.279.236-.415.354-.347.298.423-.324-.184.146-.768.595-1.534 1.19-2.364 1.767-.203.14-.408.28-.617.42-.125.082-1.02.674-.384.26.55-.359.024-.016-.082.047-.322.19-.654.383-.989.569l9.335-1.232c.644-1.32 2.093-2.577 3.554-3.848a108.22 108.22 0 0 0 4.637-4.3c3.207-3.123 6.35-6.261 9.51-9.396 6.07-6.024 12.59-11.92 18.992-17.862 3.551-3.291 6.921-6.627 9.733-10.079.835-1.027.449-1.884-2.254-1.557-3.017.365-5.919 1.666-7.585 2.863-7.188 5.168-13.106 10.697-19.105 16.187-2.736 2.503-5.659 4.959-8.382 7.463-2.327 2.144-4.424 4.336-6.77 6.472-.352.32-.707.637-1.068.952-.183.16-1.127.948-.599.52a44.028 44.028 0 0 1-2.32 1.777c-.395.28-.805.555-1.217.83-.092.062-.634.4-.082.059.573-.356-.137.076-.25.14-.423.247-.875.479-1.308.72-.533.296.5-.259.524-.257-.069-.006-.965.432-1.035.464l7.266.06c2.263-2.887 5.353-5.592 8.55-8.267.588-.492 1.78-1.473 2.68-2.22.775-.644 1.546-1.289 2.302-1.938 1.634-1.403 3.16-2.832 4.72-4.256 6.598-6.02 13.377-11.996 20.176-17.967.384-.337.84-1.063.16-1.413-.605-.306-1.622-.195-2.356-.106-3.082.373-5.561 1.643-7.403 2.795-8.705 5.435-14.941 11.662-22.05 17.574-7.335 6.103-15.318 12.383-22.932 18.546l9.488-1.259c6.066-5.084 11.773-10.263 17.395-15.463 2.64-2.44 5.173-4.912 7.948-7.319 2.575-2.239 5.33-4.433 7.844-6.69 2.934-2.636 5.585-5.38 7.114-8.281 1.027-1.948-4.976-.5-6.06-.077-5.23 2.047-9.095 4.513-12.806 7.181-3.293 2.368-6.649 4.709-9.81 7.12-6.543 4.982-12.73 10.067-19.24 15.058a196.25 196.25 0 0 1-5.734 4.21c-.61.434-1.188.878-1.803 1.31-.148.105-.322.206-.454.313-.29.193-.2.142.274-.153l-.337.197c.086.01-1.028.442-.027.035.945-.383 1.497-.609 2.75-.896l3.245.858c2.886-6.13 10.533-11.448 15.992-17.09 3.039-3.139 5.923-6.315 8.864-9.476 1.413-1.52 2.805-3.044 4.262-4.555 1.479-1.531 2.982-3.127 3.426-4.814.504-1.914-4.57-.585-6.014-.076-11.843 4.18-19.787 10.238-26.694 16.316-7.212 6.345-14.04 12.784-21.269 19.128-.032.03-.674.582-.322.291.26-.217-.517.409-.626.493-.462.359-.935.715-1.412 1.072-1.108.827-2.235 1.647-3.307 2.485-2.314 1.808-4.461 3.663-5.633 5.72-1.082 1.903 4.894.459 5.897.076 6.242-2.392 10.473-5.45 15.025-8.534 4.44-3.008 9.078-5.94 13.358-9.005 9.137-6.54 17.265-13.362 25.287-20.221 2.179-1.864 4.365-3.736 6.599-5.582 2.306-1.913 4.952-3.73 6.249-5.874.414-.68-.566-1.04-1.894-.967-1.893.105-4.003.826-5.28 1.455-5.858 2.882-10.18 6.336-15.045 9.59-4.77 3.195-9.595 6.371-14.28 9.594-9.566 6.583-18.543 13.403-26.686 20.405-2.253 1.94-4.465 3.898-6.438 5.905-1.77 1.795-3.513 3.84-5.517 5.435l9.164-1.69c2.479-7.738 10.89-14.557 18.772-21.292 8.627-7.374 16.325-14.966 23.386-22.704 3.568-3.912 8.304-7.773 10-12.001.37-.93-1.897-.599-2.879-.336-1.648.443-3.658 1.308-4.086 2.236v-.003Z"/><path d="M89.54 10.287c-8.622 8.686-18.072 17.175-27.844 25.58-.617.532-1.238 1.064-1.86 1.595-.161.133-.301.27-.467.4l.187-.154c.417-.349.247-.207-.512.423-.354.307-.703.613-1.057.924-1.22 1.055-2.442 2.11-3.668 3.163a1543.25 1543.25 0 0 1-7.267 6.195 1503.14 1503.14 0 0 1-7.495 6.34 435.9 435.9 0 0 1-1.736 1.449l-.474.394.457-.382c-.105.087-.211.175-.322.262l-.951.785a464.172 464.172 0 0 1-3.839 3.13c-2.548 2.055-5.092 4.1-7.498 6.194-.26.225-.525.449-.79.673 1.237-1.055.192-.161-.123.084-.518.403-1.06.8-1.646 1.18l-.133.087c-.429.27-.178.114.752-.467-.183.106-.362.215-.55.32l-.282.153c-1.014.535 1.558-.73.737-.36l-.446.2c-.825.366 2.023-.766.855-.345l-.161.055c-.578.194-.203.077 1.127-.35-.216.06-.427.121-.644.177l5.121.065c-.022-.344 0-.69.04-1.03l-.067.526c.233-1.52 1.114-2.995 2.18-4.425l-.474.633c1.476-1.953 3.356-3.823 5.015-5.742 1.941-2.239 3.914-4.471 5.986-6.683a220.53 220.53 0 0 1 13.664-13.352 281.547 281.547 0 0 1 7.367-6.376l.227-.187c.083-.07-.85.703-.493.408l.531-.439.992-.813 1.931-1.559c1.296-1.037 2.61-2.07 3.94-3.098a289.836 289.836 0 0 1 16.962-12.113c.768-.508 1.536-1.015 2.313-1.52l.44-.282c.07-.045.145-.09.214-.135.18-.116-1.272.785-.805.503.322-.2.657-.401.99-.6 1.353-.806 2.749-1.596 4.107-2.4 3.358-1.986 6.739-4.065 8.907-6.414a12.22 12.22 0 0 0 1.413-1.855c.258-.415-.024-.986-1.054-1.082-1.323-.124-2.757.22-3.863.51-9.576 2.51-14.842 7.182-20.666 11.353-6.39 4.577-12.343 9.288-18.288 13.998-5.945 4.709-11.963 9.415-18.149 14.059a786.888 786.888 0 0 1-19.175 13.955c-1.287.902-2.615 1.788-3.805 2.72-.986.772-1.923 1.56-2.885 2.34-1.093.886-2.209 1.767-3.417 2.618-.277.194-.557.387-.845.579l-.46.3c-.445.291 1.076-.665.867-.536l-.266.164a26.413 26.413 0 0 1-1.344.762c-.981.514 1.449-.689.825-.403-.162.076-.322.148-.483.22l-.206.088c-.483.212-1.248.442 1.252-.493-.322.117-.63.23-.966.339l6.83.086c.145-.457.381-.905.704-1.34l-.483.643c1.127-1.496 2.957-2.833 4.534-4.225 1.77-1.564 3.481-3.144 5.228-4.713 3.56-3.198 7.133-6.392 10.719-9.582 3.49-3.113 6.966-6.231 10.52-9.328a539.598 539.598 0 0 1 8.129-6.95l.613-.511.308-.256-.554.46.153-.128a376.418 376.418 0 0 1 14.414-11.349c.885-.66 2.805-2.502-.34-2.514-1.224-.005-2.49.251-3.524.543-1.833.511-3.472 1.166-4.85 1.936C56 19.827 49.651 24.79 43.052 29.675c-3.219 2.385-6.599 4.714-10.091 7.011A384.784 384.784 0 0 1 24.5 42.1c-.161.098 1.288-.796.78-.486l-.378.236-.665.41c-.506.314-1.014.626-1.525.938-2.076 1.269-4.219 2.514-6.295 3.784-.898.55-1.77 1.107-2.736 1.635-.251.138-.515.27-.771.407-.256.136 1.77-.853 1.152-.571-.15.067-.294.137-.445.203-.12.052-.245.101-.364.154-.151.066 2.049-.78 1.207-.487-.12.04-.264.084-.377.13.105-.043 2.107-.624.974-.32l4.977 1.32c1.696-1.81 3.632-3.56 5.67-5.288-1.273 1.08-.335.279-.02.022a114.706 114.706 0 0 1 2.469-1.948c1.103-.847 2.23-1.686 3.38-2.518 2.276-1.658 4.62-3.292 6.961-4.93 2.287-1.596 4.724-3.138 7.126-4.695 2.987-1.938 5.813-3.946 8.018-6.114.368-.363 1.119-1.349.19-1.727-1.005-.41-2.54-.252-3.634-.03-8.072 1.632-14.885 4.281-21.484 6.972-1.257.513-2.506 1.03-3.761 1.544-.621.253-1.246.503-1.869.755-.214.087 2.162-.857 1.254-.5l-.385.154c-.875.344-1.75.689-2.613 1.04-2.336.949-4.483 1.998-6.76 2.974-.35.15-.702.298-1.058.444-.16.066-.322.13-.482.197l1.448-.577-.393.153c-.643.248-1.306.487-1.987.713l-.201.066c-.673.215-.268.087 1.215-.383-.205.059-.404.121-.61.18-.337.095-.681.185-1.026.273-.859.22 1.248-.277 1.1-.25-.211.04-.416.09-.625.133-.412.082-.832.153-1.257.216l4.014 1.065c.095-.49.319-.971.666-1.434l-.534.712c.29-.375.634-.74 1.029-1.093.1-.09.209-.178.307-.269 0-.006-1.134.927-.573.479.205-.163.414-.325.628-.485.929-.689 1.931-1.362 2.862-2.053 2.523-1.871 4.667-3.843 4.632-6.115l-.417-.435c-1.076-.29-1.932-.48-3.165-.505a27.343 27.343 0 0 0-4.023.187c-2.87.361-5.625.904-8.19 1.615-2.777.766-5.31 1.922-6.92 3.245-.517.43-.95.862-1.014 1.36-.061.474.25.752 1.23.935 1.1.206 2.36-.039 3.399-.177l-1.478.196c.209-.028.42-.05.635-.065 1.736-.123 3.53-.65 4.9-1.132 1.713-.602 3.53-1.435 4.668-2.3l.917-.762c.443-.385.647-.823.59-1.261-.348-.56-1.253-.737-2.474-.65-.322.023-.633.072-.966.082l1.213.004a1.395 1.395 0 0 1-.349-.05l-6.7 5.539c.312-.083.63-.16.946-.238.69-.17-1.89.422-1.004.23.201-.043.402-.087.607-.128.78-.158 1.58-.292 2.396-.4l-1.5.2c.93-.125 1.89-.19 2.857-.196l-1.236-.005c.723.003 1.436.08 2.092.224l-.883-.23c.11.027.218.057.322.09l-.416-.435c0 .067-.008.135-.016.203l.077-.592c-.08.53-.313 1.054-.69 1.555l.534-.713a8.492 8.492 0 0 1-.919 1.01c-.095.09-.194.18-.296.27-.05.044-.101.089-.16.133-.294.25-.065.061.687-.569-.187.148-.37.297-.562.443-.873.666-1.824 1.308-2.727 1.966-2.193 1.598-4.545 3.445-4.89 5.395-.083.464-.208.891.786 1.148 1.019.263 2.184.077 3.229-.084 3.975-.602 7.675-1.793 10.87-3.046 3.03-1.189 5.84-2.467 8.716-3.735.511-.23 1.028-.45 1.554-.668l.34-.14c.863-.352-1.593.631-1.331.53.91-.351 1.802-.713 2.699-1.071 1.265-.505 2.512-1.02 3.761-1.531 1.25-.512 2.538-1.048 3.823-1.563l.21-.085-.492.196-.703.28.426-.168.966-.375a107.489 107.489 0 0 1 4.486-1.626c.37-.124.742-.246 1.117-.367.931-.3-1.288.4-1.137.356.23-.066.45-.138.678-.206a64.04 64.04 0 0 1 2.506-.696c.38-.098.766-.19 1.15-.283 1.01-.24-1.668.373-.893.208.272-.058.541-.116.815-.172l-3.444-1.76c-.422.419-.87.83-1.344 1.237l-.07.058c-.356.299-.183.155.52-.43-.122.096-.238.193-.359.29-.269.212-.543.423-.82.632a70.234 70.234 0 0 1-3.398 2.373c-2.329 1.54-4.76 3.045-6.99 4.617-4.668 3.292-9.374 6.587-13.55 10.033-2.6 2.143-5.072 4.316-7.167 6.583-.504.547-1.17 1.415.243 1.779 1.464.377 3.449-.111 4.733-.46 6.575-1.783 10.916-4.842 15.479-7.615a473.787 473.787 0 0 0 12.58-7.912c3.608-2.356 7.157-4.735 10.491-7.18 3.22-2.363 6.311-4.767 9.519-7.134 1.796-1.325 3.63-2.64 5.543-3.927a106.34 106.34 0 0 1 2.865-1.863c.652-.41-.761.471-.694.43.147-.087.29-.178.435-.267.26-.159.524-.317.788-.476a81.004 81.004 0 0 1 1.61-.936l-8.714-.036c-8.493 6.337-16.372 12.86-23.954 19.45-7.477 6.502-14.738 13.063-22.024 19.615-1.992 1.792-3.9 3.61-5.994 5.376-2.055 1.734-4.326 3.54-4.94 5.542-.199.655.162 1.137 1.68 1.143 1.945.007 3.6-.566 5.15-1.057 2.524-.799 4.796-1.9 6.718-3.008a45.858 45.858 0 0 0 4.632-3.05c2.084-1.565 3.87-3.216 5.973-4.774 2.985-2.216 6.177-4.374 9.217-6.575a738.082 738.082 0 0 0 9.363-6.89A772.657 772.657 0 0 0 66.674 27.85c5.89-4.683 11.704-9.388 17.873-13.99 2.52-1.88 5.071-3.75 7.582-5.63a59.495 59.495 0 0 1 3.702-2.576c.433-.278-.956.584-.774.48.101-.057.194-.118.293-.177a30.505 30.505 0 0 1 1.582-.893c.153-.082.31-.161.467-.241.57-.292-1.547.75-.952.47l.239-.112a33.73 33.73 0 0 1 1.126-.494l-1.24.494.16-.063.25-.091c.194-.07.392-.136.59-.204.79-.273-1.715.507-.878.279.23-.064.457-.128.69-.188l-4.914-.573a8.994 8.994 0 0 1-.302.44l.457-.613c-.384.501-.837.989-1.357 1.461-.137.126-.296.247-.425.374-.082.081.84-.682.5-.415l-.196.159c-.337.266-.686.529-1.049.788-.666.475-1.383.931-2.092 1.39-.161.1 1.212-.747.746-.465l-.246.153a96.833 96.833 0 0 1-1.766 1.046c-3.47 2.013-6.898 4.024-10.112 6.135-6.518 4.28-12.674 8.678-18.467 13.194-6.064 4.709-11.81 9.513-17.078 14.434-5.092 4.757-9.806 9.6-14.14 14.53a2506.595 2506.595 0 0 0-5.726 6.524c-1.959 2.232-3.953 4.584-4.461 7.011a5.881 5.881 0 0 0-.132 1.945l.368.383c.171.084.383.146.616.181.233.036.48.044.722.024 1.212.004 2.37-.252 3.415-.527 5.09-1.337 9.15-3.57 12.052-5.937a70.795 70.795 0 0 0 3.277-2.853c.381-.352.761-.703 1.154-1.05.182-.16.367-.32.553-.477-1.33 1.135-.16.138.161-.126 5.29-4.334 10.365-8.727 15.37-13.135 4.775-4.21 9.656-8.4 14.222-12.661 4.518-4.218 9.021-8.438 13.359-12.7A571.64 571.64 0 0 0 96.17 9.042c.22-.23.56-.672.1-.907-.46-.235-1.422-.11-1.912-.017-1.981.383-3.938 1.23-4.857 2.155l.038.015Z"/></g><defs><clipPath id="clip0_96_26"><path fill="#fff" d="M0 0h407v77H0z"/></clipPath></defs></svg>