<svg width="141" height="118" fill="none" xmlns="http://www.w3.org/2000/svg"><ellipse cx="37.182" cy="44.155" rx="37.182" ry="34.258" fill="#FFBD00" fill-opacity=".6"/><path d="M46.023 2.166c-1.152.392-2.028 1.13-2.811 2.282l-.646.968-5.808.115c-5.37.115-5.9.162-7.144.669-1.867.737-3.872 2.65-4.84 4.609l-.737 1.521-.07 42.383c-.046 38.235-.023 42.522.323 43.674.922 3.273 3.595 5.739 6.96 6.453.853.185 8.159.254 24.591.254h23.393v.622c.023 1.752 2.097 4.172 4.033 4.655.553.139 1.567.254 2.259.254h1.221l.553 1.175c1.637 3.642 6.2 5.324 9.726 3.596 1.567-.761 3.296-2.582 3.664-3.872l.277-.899H116.247l.553 1.175c1.637 3.642 6.2 5.324 9.726 3.596 1.544-.761 3.296-2.582 3.664-3.849l.254-.876 1.89-.092c2.696-.161 4.217-1.06 5.347-3.181.415-.737.438-1.567.507-11.062l.069-10.279-3.25-4.31-3.226-4.31h-8.297V34.801h.553c.876 0 3.572-.899 5.209-1.752 3.157-1.613 5.508-4.01 7.144-7.352 3.25-6.568 2.028-13.85-3.203-19.013-3.112-3.089-6.477-4.564-10.855-4.771-8.459-.415-15.373 5.255-17.17 14.035l-.116.646H97.74l-.138-1.913c-.207-3.434-1.751-6.177-4.31-7.72-2.189-1.315-2.95-1.43-9.01-1.43h-5.463l-.276-.691c-.392-.968-2.075-2.397-3.181-2.72-1.36-.415-28.186-.368-29.339.046ZM74.51 5.67c.853.345 1.037 1.29 1.037 5.508v4.079l-.668.668-.691.669-13.621-.046-13.644-.07-.438-.553c-.392-.484-.438-.945-.438-4.909 0-4.31 0-4.355.577-4.909l.553-.576h13.482c7.398 0 13.644.07 13.851.139Zm49.712.115c4.402.945 8.343 4.494 9.634 8.711 1.475 4.771.323 9.38-3.227 12.93-4.494 4.517-10.924 5.14-16.225 1.59-6.729-4.494-7.628-13.92-1.866-19.682 3.088-3.088 7.513-4.425 11.684-3.55Zm-81.862 5.277v1.844h-4.24c-4.01 0-4.264.023-5.002.53-.415.277-1.014.876-1.29 1.291l-.53.784v79.604l.506.76c.3.415.83.991 1.176 1.245.645.483.737.483 23.462.553l22.793.046V101.406l-23.784-.046-23.808-.069-.922-.507c-.507-.277-1.244-.83-1.66-1.268-1.566-1.636-1.451 1.89-1.451-44.204 0-36.944.046-41.83.346-42.567.576-1.383 1.405-2.282 2.696-2.927 1.175-.6 1.245-.6 6.453-.6h5.255v1.845Zm47.73-1.567c1.175.346 2.627 1.59 3.273 2.812l.507.945.069 28.394.046 28.416h-3.688V15.995l-.507-1.014c-.968-1.866-1.221-1.959-6.2-2.028l-4.355-.069V9.22h4.978c3.134 0 5.324.092 5.877.276Zm-47.27 7.398c0 .53 1.614 2.236 2.628 2.766l.945.507h28.855l1.129-.691c.668-.415 1.406-1.153 1.82-1.775l.692-1.083h3.872l3.849-.023v53.468h-7.375v23.969h-44.25V16.594h3.918c3.088 0 3.918.069 3.918.3Zm62.32 3.665c.046.161.23 1.014.46 1.913 1.406 5.969 6.661 11.016 12.676 12.145l1.521.3v42.522H116.109v-7.376H97.671v-49.78h3.688c2.765 0 3.71.068 3.78.276Zm-14.843 56.88v3.687h14.75V73.75h7.375v25.812h-29.5V73.75h7.375v3.688Zm11.063-1.844v1.844h-7.375V73.75h7.375v1.844Zm30.883 8.596 2.304 3.088V99.563H116.109V81.126h13.828l2.305 3.065ZM88.13 104.31c-.438.576-.922 1.406-1.083 1.867l-.254.807-1.498-.093c-1.913-.115-2.374-.576-2.374-2.396v-1.245h6.016l-.807 1.06Zm29.5 0c-.438.576-.922 1.406-1.06 1.844l-.277.784h-15.142l-.437-.992c-.254-.553-.784-1.382-1.199-1.843l-.737-.853h19.659l-.807 1.06Zm16.916.115c0 .991-.115 1.268-.668 1.844-.576.576-.853.669-1.959.669h-1.268l-.437-.992c-.254-.553-.784-1.382-1.199-1.843l-.737-.853h6.268v1.175Zm-38.534 1.268c.945.691 1.706 2.328 1.567 3.388-.322 2.719-3.572 4.287-5.67 2.742-2.258-1.682-2.143-4.609.231-6.222.668-.461 1.014-.53 2.028-.461.715.069 1.475.299 1.844.553Zm29.5 0c.945.691 1.705 2.328 1.567 3.388-.322 2.719-3.572 4.287-5.669 2.742-2.259-1.682-2.144-4.609.23-6.222.668-.461 1.014-.53 2.028-.461.715.069 1.475.299 1.844.553Z" fill="#03045E"/><path d="m122.746 16.525-4.793 4.793-1.222-1.221-1.221-1.199-1.314 1.337-1.314 1.314 2.489 2.489 2.466 2.466 6.177-6.177 6.153-6.153-1.221-1.222c-.668-.645-1.268-1.198-1.314-1.198-.069 0-2.258 2.143-4.886 4.77ZM47.29 28.97a821.397 821.397 0 0 1-4.862 6.5c-.23.322-.415.23-1.383-.715l-1.13-1.107-1.313 1.337L37.29 36.3l2.604 2.604 2.627 2.604 6.154-8.227 6.176-8.228-.53-.415c-.3-.23-.968-.737-1.498-1.106l-.922-.691-4.61 6.13ZM58.953 25.813v1.843H82.92V23.97H58.953v1.843ZM58.953 33.188v1.843h16.593V31.344H58.953v1.843ZM79.234 33.188v1.843H82.92V31.344H79.234v1.843ZM58.953 40.563v1.843H82.92V38.72H58.953v1.843ZM47.29 51.095a821.397 821.397 0 0 1-4.862 6.5c-.23.322-.415.23-1.383-.715l-1.13-1.107-1.313 1.337-1.313 1.314 2.604 2.604 2.627 2.604 6.154-8.227 6.176-8.228-.53-.415c-.3-.23-.968-.737-1.498-1.106l-.922-.691-4.61 6.13ZM58.953 47.938v1.843H82.92V46.094H58.953v1.843ZM58.953 55.313v1.843h16.593V53.47H58.953v1.843ZM79.234 55.313v1.843H82.92V53.47H79.234v1.843ZM58.953 62.688v1.843H82.92V60.844H58.953v1.843ZM38.671 81.125v9.219h22.125V71.906H38.671v9.219Zm18.438 0v5.531h-14.75V75.594h14.75v5.531ZM64.484 73.75v1.844h11.062v-3.688H64.484v1.844ZM64.484 81.125v1.844h11.062V79.28H64.484v1.844ZM64.484 88.5v1.844h11.062v-3.688H64.484V88.5Z" fill="#03045E"/></svg>