<svg width="79" height="77" fill="none" xmlns="http://www.w3.org/2000/svg"><path d="M48.526 2.782c-.386.361-.386.391-.386 3.234 0 2.842 0 2.872.386 3.233.2.21.479.376.617.376.201 0 .232.3.232 2.105 0 1.159-.046 2.106-.093 2.106-.046 0-2.175-1.489-4.737-3.324-3.996-2.842-4.721-3.308-5.122-3.263-.68.075-33.066 23.175-33.19 23.671-.2.767.047 1.038 2.485 2.828l2.391 1.744V57.72l-.725.105c-.926.12-2.407.887-2.916 1.474-.602.692-1.157 1.865-1.25 2.632-.077.692-.108.722-1.11 1.248-3.58 1.865-3.457 6.783.215 8.557l.772.376h66.81l.772-.376c.987-.48 1.913-1.383 2.391-2.33.54-1.099.54-2.994 0-4.061-.493-.978-1.45-1.895-2.422-2.331-.756-.331-.787-.361-.88-1.098-.123-.827-.632-1.925-1.234-2.617-.51-.587-1.99-1.353-2.9-1.474l-.742-.105V35.492l2.392-1.744c2.438-1.79 2.685-2.06 2.484-2.828-.061-.27-1.604-1.443-5.57-4.256l-5.462-3.88-.015-6.587c0-5.835.03-6.572.231-6.572.139 0 .417-.165.617-.376.386-.36.386-.391.386-3.233 0-2.843 0-2.873-.386-3.234l-.37-.376h-13.3l-.37.376Zm11.958 3.234v1.203H50.61V4.812h9.875v1.204ZM59.25 15.28c0 4.466-.046 5.624-.185 5.534-.108-.06-1.775-1.233-3.703-2.602l-3.518-2.496V9.625h7.406v5.655Zm-4.722 5.324c8.194 5.835 14.89 10.632 14.905 10.677 0 .045-.617.542-1.388 1.098l-1.389 1.008-13.377-9.49c-11.727-8.301-13.455-9.474-13.856-9.43-.324.046-4.63 3.008-13.764 9.49l-13.3 9.445-1.404-1.023c-.756-.556-1.389-1.053-1.389-1.098.016-.12 29.841-21.34 29.965-21.31.046.015 6.804 4.797 14.997 10.633Zm-2.052 5.73 12.946 9.173v34.275h-4.938V41.642l-.386-.36-.37-.377H41.49l-.37.376-.386.361V69.781H13.578V35.507l12.93-9.174c7.098-5.038 12.93-9.173 12.961-9.173.03-.015 5.879 4.12 13.007 9.173Zm5.54 30.213V69.78H43.203V43.313H58.016v13.234Zm-46.907 8.437v4.812l-2.283-.045c-2.253-.045-2.3-.045-2.87-.481-1.852-1.369-1.019-4.06 1.327-4.271.54-.045.94-.18 1.172-.391.34-.286.355-.391.263-1.369-.14-1.504.293-2.391 1.388-2.872 1.065-.466 1.003-.737 1.003 4.617Zm57.769-4.617c.278.12.71.466.957.782.416.541.447.646.416 1.865-.03 1.188 0 1.338.309 1.609.216.195.632.33 1.157.376 1.45.135 2.268.992 2.268 2.376 0 .948-.247 1.429-1.064 2.015-.37.286-.68.316-2.732.361l-2.298.045v-4.812c0-5.34-.062-5.038.987-4.617Z" fill="#fff" fill-opacity=".75"/><path d="m18.901 41.282-.385.361V59.42l.385.361.37.376h15.77l.37-.376.386-.36V41.642l-.386-.36-.37-.377H19.272l-.37.376Zm7.02 5.038v3.008H20.985v-6.016H25.922v3.008Zm7.407 0v3.008H28.391v-6.016H33.329v3.008Zm-7.406 8.422v3.008h-4.938v-6.016H25.922v3.008Zm7.406 0v3.008H28.391v-6.016H33.329v3.008ZM46.057 54.517c-.771.736-.231 2.03.85 2.03.632 0 1.233-.587 1.233-1.203 0-.617-.601-1.203-1.234-1.203-.293 0-.617.135-.849.376Z" fill="#fff" fill-opacity=".75"/></svg>