<svg width="108" height="108" fill="none" xmlns="http://www.w3.org/2000/svg"><path d="M24.363.148C15.462 1.518 8.627 8.395 7.403 17.17c-.126.886-.231 2.7-.231 3.987v2.363l-1.097.4c-2.384.844-4.071 2.384-5.21 4.767-.717 1.477-.76 1.71-.76 3.586 0 1.456.106 2.3.401 3.059.992 2.637 3.059 4.662 5.569 5.505l1.392.486.359 1.645c.675 3.08 2.257 6.455 4.303 9.134 1.983 2.573 5.505 5.442 8.29 6.729l1.097.506v3.691l-3.418.106c-3.944.126-5.062.358-7.91 1.73C5.4 67.183 2.152 71.127.591 76.506c-.486 1.624-.486 1.814-.486 13.88 0 12.129 0 12.234.465 13.225.632 1.393 2.214 3.017 3.628 3.692l1.18.591h50.415l1.202-.57c1.477-.675 2.806-2.025 3.523-3.544l.548-1.16V90.387c0-13.627.021-13.437-1.497-16.749-.401-.865-.717-1.582-.717-1.624 0-.042 1.518-.084 3.354-.084h3.353l.57-.675c.654-.76.612-1.667-.127-2.384-.38-.4-.738-.422-5.168-.485l-4.746-.063-1.413-1.14c-1.73-1.413-4.493-2.89-6.581-3.501-1.245-.359-2.342-.464-5-.548l-3.438-.106v-1.856h41.45v1.962c0 2.004.02 2.067 1.54 5.041.041.106-2.448.169-5.506.169h-5.59l-.654.548c-.844.696-.907 1.751-.127 2.51l.507.528h35.69l.507-.528c.675-.654.675-1.582.021-2.362l-.506-.59-4.852-.064-4.852-.063.76-1.477c.696-1.35.78-1.666.844-3.586l.084-2.088h2.278c1.245 0 2.573-.106 2.974-.253 1.435-.485 2.447-1.371 3.122-2.742L108 56.89V37.568l-2.426-9.724c-1.329-5.358-2.615-10.083-2.826-10.526-.232-.422-.802-1.14-1.266-1.561-1.56-1.392-1.688-1.413-14.513-1.413H75.516v-1.456c0-1.624-.443-2.51-1.667-3.333l-.717-.485H50.857l-.928-1.223c-2.742-3.544-6.455-6.012-10.8-7.214-1.54-.443-2.236-.485-7.91-.528-3.417-.042-6.497-.02-6.856.043Zm14.196 4.05c5.548 1.645 9.809 5.99 11.328 11.517.4 1.519.696 6.223.38 6.223-.127 0-.739-.232-1.35-.507-.633-.274-2.194-.844-3.502-1.244-9.914-3.207-22.127-2.932-31.599.696-1.265.485-2.489.928-2.679.991-.822.253-.337-4.893.739-7.783 1.73-4.768 6.117-8.691 11.032-9.957 1.961-.485 2.194-.506 8.31-.464 5.253.064 5.95.106 7.341.528Zm33.37 27.337v18.88H61.173c-5.906 0-10.758-.043-10.758-.085 0-.064.38-.78.823-1.646.97-1.793 1.814-4.134 2.194-6.053l.274-1.35 1.223-.38c3.65-1.118 6.244-4.662 6.244-8.522 0-3.755-2.763-7.573-6.16-8.522l-.949-.274-.126-3.502c-.106-3.354-.232-4.05-1.097-6.96l-.148-.465H71.93v18.88Zm7.215-5.758c.084 8.67.063 8.606 1.455 10.188.401.443 1.181 1.033 1.772 1.286l1.055.507h20.988v5.42l-1.751.106c-1.434.064-1.94.19-2.763.675-1.835 1.076-2.806 2.996-2.595 5.21.127 1.372.528 2.237 1.498 3.207 1.055 1.076 2.131 1.497 3.987 1.582l1.624.084v1.16c0 .992-.084 1.245-.612 1.772l-.611.612H97.221l-1.034-1.013c-3.417-3.375-8.796-3.375-12.34-.02l-1.096 1.033h-7.235v-19.68c0-10.843.063-19.765.147-19.829.064-.084.865-.147 1.772-.147h1.624l.085 7.847Zm20.081-7.193c.359.422.928 2.362 2.299 7.867 1.013 4.008 1.835 7.383 1.835 7.51 0 .148-3.311.21-9.703.21h-9.724l-.506-.526-.528-.507V17.91l7.932.063 7.93.063.465.549Zm-64.42 3.143c4.556.4 9.492 1.603 13.162 3.248l1.266.57-1.16 1.16c-2.025 2.067-3.185 2.362-6.265 1.56-3.396-.885-5.168-1.096-9.956-1.202-5.253-.126-8.058.127-11.982 1.097-3.691.886-4.683.696-6.77-1.434-1.309-1.35-1.435-1.181 1.623-2.363 6.097-2.341 12.952-3.248 20.082-2.636ZM7.172 32.379c0 4.029-.063 4.957-.295 4.957-.465 0-2.215-1.688-2.722-2.616-.632-1.202-.632-3.48 0-4.661.612-1.14 2.194-2.595 2.87-2.637.084 0 .147 2.236.147 4.957Zm47.63-4.662c.864.443 1.856 1.603 2.341 2.658.717 1.603.527 3.46-.506 5.02-.507.739-1.94 1.92-2.363 1.94-.21 0-.274-1.138-.274-4.956 0-2.721.042-4.957.105-4.957.085 0 .38.126.697.295ZM11.96 30.586c1.962 1.709 4.746 2.173 7.868 1.308 3.692-1.034 5.105-1.203 10.652-1.203 5.59 0 6.793.127 10.547 1.118 3.586.95 6.16.57 8.185-1.223.527-.464 1.012-.844 1.097-.844.084 0 .105 2.49.042 5.527-.106 6.307-.338 7.657-1.835 10.863-1.076 2.32-2.32 4.029-4.24 5.885-1.899 1.793-3.017 2.595-5.295 3.67-2.932 1.414-4.62 1.751-8.395 1.751-3.755 0-5.337-.316-8.332-1.73-2.194-1.033-3.438-1.856-5.147-3.48-3.48-3.312-5.548-7.383-6.138-11.96-.232-1.856-.296-10.526-.085-10.526.064 0 .549.38 1.076.844Zm92.454 18.035v1.793h-1.076c-1.666 0-2.489-.612-2.51-1.856 0-.464.169-.865.527-1.203.422-.442.718-.527 1.793-.527h1.266v1.793ZM71.93 55.793v1.793H57.586c-7.89 0-14.344-.042-14.344-.063 0-.043.506-.422 1.118-.844a19.726 19.726 0 0 0 2.046-1.73l.928-.949H71.93v1.793Zm20.65 2.552c2.532 1.371 3.502 4.43 2.215 7.003-1.012 2.046-2.868 3.101-5.126 2.954-1.581-.127-2.446-.486-3.459-1.52-1.097-1.096-1.519-2.13-1.519-3.817.022-1.646.338-2.49 1.456-3.65 1.687-1.813 4.219-2.193 6.433-.97Zm-65.158 2.616c1.92.295 4.851.253 6.855-.105.928-.17 1.709-.317 1.751-.317.021 0 .042 2.995.042 6.645v6.644l-5.42-.042-5.443-.063-.063-6.329c-.021-3.48 0-6.454.063-6.602.063-.148.274-.232.464-.169.211.064.992.211 1.75.338Zm-5.906 9.429c.02 4.873.316 5.758 2.215 6.623.759.359 1.476.401 6.855.401 5.379 0 6.096-.042 6.855-.4 1.92-.887 2.215-1.73 2.215-6.56v-3.798h5.274V104.414H16.242V66.656h5.274v3.734Zm-8.86 15.672v18.352H9.598c-2.11 0-3.291-.084-3.755-.295-.907-.359-2.004-1.646-2.152-2.489-.063-.38-.105-5.78-.063-11.982l.063-11.285.57-1.687c.95-2.785 2.32-4.81 4.556-6.687 1.034-.886 3.27-2.257 3.692-2.278.084 0 .147 8.248.147 18.352Zm37.315-17.718c2.742 1.476 4.915 3.776 6.265 6.644 1.287 2.785 1.35 3.523 1.35 15.589 0 7.15-.084 11.053-.232 11.453-.295.802-1.202 1.751-2.025 2.089-.485.211-1.624.295-3.755.295h-3.058V86.062c0-10.103.063-18.351.126-18.351s.675.295 1.33.633Z" fill="#FFBD00"/><path d="M83.847 41.597c-1.075.57-1.307 2.067-.464 2.869.443.422.718.464 3.017.464 2.362 0 2.573-.042 2.974-.486.232-.253.506-.675.57-.928.19-.611-.338-1.603-1.034-1.92-.696-.315-4.493-.315-5.063 0ZM87.433 21.769c-1.075.57-1.308 2.067-.464 2.847.76.718 9.661 5.97 10.104 5.97.507 0 1.245-.38 1.582-.823.38-.485.338-1.603-.084-2.088-.506-.548-9.935-6.16-10.378-6.16-.19 0-.528.127-.76.254ZM37.336 45.077c-.169.064-.844.654-1.477 1.308-1.645 1.688-2.383 2.004-4.999 2.089-1.94.063-2.278.02-3.29-.443-.697-.317-1.604-.992-2.279-1.71-.949-1.012-1.223-1.18-1.877-1.18-.991 0-1.687.696-1.687 1.687 0 .95 1.307 2.658 2.826 3.67 1.94 1.287 3.249 1.646 6.033 1.646 2.763 0 4.155-.38 6.054-1.624 1.181-.78 2.72-2.574 2.932-3.375.169-.718-.422-1.709-1.203-1.983-.38-.127-.675-.232-.696-.211-.02 0-.168.063-.337.126Z" fill="#FFBD00"/></svg>