<svg width="139" height="117" fill="none" xmlns="http://www.w3.org/2000/svg"><ellipse cx="36.867" cy="44.535" rx="36.867" ry="33.968" fill="#FFBD00" fill-opacity=".6"/><g clip-path="url('#clip0_116_197')" fill="#03045E"><path d="M96.477.366c-3.177.57-6.65 2.033-9.187 3.839-1.713 1.234-4.341 3.93-5.53 5.667l-1.074 1.554h-2.285c-5.21.023-11.288 1.28-16.636 3.473l-2.216.891-1.417-1.165c-2.65-2.217-5.325-3.2-8.66-3.2-3.726 0-6.696 1.212-9.279 3.771-4.501 4.502-5.21 11.266-1.69 16.66l1.028 1.599-1.851 3.656c-2.811 5.599-4.32 10.74-4.936 16.75l-.274 2.81h-2.377c-2.628 0-3.588.344-4.502 1.555-.457.594-.457 1.028-.525 20.2L25.02 98.01l-.914.252c-1.12.297-2.262 1.234-2.65 2.216-.206.48-.32 1.668-.32 3.337 0 3.222.433 4.319 2.056 5.118.96.503 1.28.526 5.736.526h4.73l1.074 1.6c5.187 7.792 16.727 7.883 21.732.137l1.12-1.714h10.763l10.74-.023.365.731c1.166 2.445 4.594 5.233 7.564 6.17 2.148.686 5.828.731 7.701.092 3.154-1.052 6.262-3.497 7.541-5.896l.549-1.074 3.222-.069c3.13-.068 3.268-.091 4.067-.708 1.417-1.074 1.531-1.531 1.531-5.576 0-3.153-.068-3.93-.617-6.17l-.617-2.56 2.628-2.696c1.44-1.485 3.108-3.336 3.725-4.113l1.12-1.44 3.519 4.708c1.942 2.582 3.611 4.616 3.725 4.524 1.211-1.348 11.289-15.196 11.746-16.178 2.376-5.028 1.325-10.9-2.697-14.9-1.782-1.782-4.022-3.062-6.193-3.542l-1.257-.274v-2.925c0-6.901-1.759-13.87-5.141-20.475l-1.44-2.81.914-2.08c1.486-3.474 1.874-5.462 1.874-9.575-.023-3.908-.343-5.507-1.714-8.798-3.976-9.575-14.51-15.31-24.725-13.46Zm8.432 3.976c6.444 1.622 11.586 6.558 13.62 13.025.457 1.485.525 2.171.525 5.256 0 6.924-.411 7.724-10.74 20.91-4.273 5.438-7.838 9.894-7.93 9.871-.114-.046-11.517-14.465-14.853-18.807-5.69-7.404-5.233-17.984 1.028-24.702 2.72-2.902 5.553-4.593 9.415-5.576 2.308-.571 6.559-.571 8.935.023ZM53.242 15.95c1.668.8 3.496 2.377 4.319 3.794 1.416 2.422 1.668 5.873.57 8.363-.296.686-2.376 3.702-4.615 6.696l-4.068 5.461-4.181-5.598c-2.4-3.2-4.365-6.056-4.617-6.696-.32-.845-.434-1.714-.434-3.519 0-2.262.046-2.514.754-3.93.823-1.691 2.286-3.314 3.794-4.182 2.468-1.44 5.85-1.6 8.478-.389Zm25.616-.365c-1.92 6.444-1.21 13.276 1.965 18.738.64 1.097 14.329 18.853 19.493 25.274.046.046 3.839-4.73 8.455-10.626 4.616-5.873 8.546-10.832 8.706-11.015.252-.297.457 0 1.372 1.943 2.673 5.736 4.204 12.5 4.204 18.578v2.034l-1.188.274c-9.164 2.125-13.14 13.323-7.381 20.84.434.595.8 1.212.8 1.372 0 .411-2.56 3.61-4.434 5.599-1.051 1.12-1.508 1.462-1.599 1.21-.069-.182-1.143-4.455-2.4-9.46-2.559-10.215-2.627-10.42-4.844-11.654l-1.234-.709-9.643-.068-9.667-.069V63.55c0-4.09-.022-4.342-.525-5.073-.274-.411-.869-1.005-1.28-1.28l-.777-.525H57.675c-11.654 0-21.252-.069-21.298-.183-.16-.297.274-4.205.777-6.673.777-3.93 2.628-9.049 4.365-12.065l.571-.983 3.61 4.822c1.989 2.65 3.703 4.776 3.794 4.753.389-.137 10.992-14.51 11.632-15.745 1.553-3.039 1.919-6.81.936-9.803-.251-.823-.48-1.554-.48-1.645 0-.252 4.57-1.966 6.856-2.583 2.788-.73 6.764-1.348 9.575-1.44.937-.045.982-.022.845.458ZM43.804 67.526l.069 7.199 4.638-2.354 4.616-2.331 4.685 2.354c2.582 1.28 4.73 2.33 4.799 2.33.068 0 .114-3.244.114-7.198v-7.198h15.082v37.705H57.584l-.778-1.257c-3.633-5.781-11.014-7.792-17.161-4.684-.686.343-1.737 1.028-2.33 1.53-1.166.938-3.04 3.246-3.269 3.977-.137.388-.365.434-2.765.434h-2.605V60.328h15.082l.046 7.198Zm15.036-3.085c0 2.263-.045 4.114-.114 4.114s-1.325-.595-2.81-1.349l-2.674-1.348-2.628 1.348c-1.44.732-2.697 1.326-2.788 1.326-.114.023-.183-1.828-.183-4.09v-4.114H58.84v4.113Zm70.223.754c1.988.983 3.451 2.446 4.433 4.457.595 1.21.64 1.508.64 3.93 0 2.17-.091 2.81-.48 3.656-.571 1.234-8.523 11.929-8.797 11.837-.115-.045-1.989-2.49-4.205-5.438-4.365-5.85-4.89-6.856-5.096-9.53-.251-3.77 1.988-7.495 5.439-9.049 1.576-.708 2.239-.822 4.387-.777 1.76.069 2.171.16 3.679.914Zm-28.541 7.062c.342.32.708 1.028.914 1.828l.32 1.325h-4.708c-5.918 0-6.741.297-7.7 2.582-.39.96-.48 4.845-.115 6.079.228.8 1.12 1.92 1.942 2.376.297.183 2.628.32 6.947.389l6.513.114 1.325 5.256c.709 2.88 1.326 5.393 1.326 5.53 0 .229-.594.297-2.217.297h-2.239l-.686-1.165c-1.531-2.582-4.616-4.89-7.792-5.827-1.897-.572-5.233-.526-7.176.114-1.6.503-3.862 1.76-4.821 2.674-.32.297-.64.548-.732.548-.091 0-.16-5.096-.16-11.312V71.754H99.95l.572.503Zm2.285 7.426c.068.229.228.869.365 1.44.137.571.297 1.211.366 1.417.114.388-.251.411-5.256.411H92.89v-3.656h4.89c4.479 0 4.913.046 5.028.388Zm-53.29 15.54c4.844 2.307 6.855 7.723 4.662 12.522-.8 1.76-2.628 3.611-4.456 4.525-1.417.685-1.646.731-4.022.731-2.331 0-2.628-.046-4.022-.708-6.033-2.857-7.267-10.901-2.354-15.38 2.057-1.873 4.022-2.582 6.878-2.445 1.486.069 2.171.229 3.314.754Zm45.292.022c3.907 1.828 6.17 6.01 5.416 10.009-.572 3.131-2.423 5.622-5.233 6.993-1.44.708-1.646.754-4.045.754-2.263 0-2.651-.069-3.84-.617-2.764-1.303-4.89-4.045-5.438-7.084-.685-3.771 1.348-7.907 4.776-9.735 1.828-.982 2.788-1.188 5.005-1.097 1.508.069 2.17.229 3.359.777Zm-62.248 8.501v1.828H25.02v-3.656h7.541v1.828Zm45.246 0v1.828H58.84v-3.656h18.967v1.828Zm30.164 0v1.828h-3.885v-3.656h3.885v1.828Z"/><path d="M97.345 7.884c-5.324 1.165-9.438 4.821-11.243 9.986-.8 2.24-.96 5.576-.411 8.044.96 4.319 4.044 8.295 7.93 10.169 3.701 1.805 7.677 2.08 11.539.845 7.061-2.285 11.472-9.78 10.032-17.047-1.645-8.318-9.78-13.78-17.847-11.997Zm7.952 4.639c3.977 1.965 6.33 5.735 6.33 10.077 0 2.011-.365 3.52-1.257 5.256-.731 1.485-2.513 3.405-3.976 4.342-5.553 3.565-13.185 1.394-16.11-4.57-2.56-5.256-.869-11.22 4.09-14.511 2.011-1.349 3.474-1.714 6.444-1.623 2.491.069 2.628.115 4.479 1.029ZM47.277 19.287c-1.028.457-2.33 1.69-2.856 2.696-1.417 2.788-.32 6.056 2.513 7.541 3.702 1.943 8.113-.777 8.113-4.959 0-2.422-1.577-4.684-3.725-5.324-1.166-.366-3.154-.32-4.045.046Zm3.085 3.679c1.988 1.028.549 4.022-1.577 3.29-1.256-.457-1.576-2.08-.57-3.062.639-.662 1.233-.708 2.147-.228ZM66.381 50.959v1.828h3.885v-3.656h-3.885v1.828ZM73.922 50.959v1.828h3.885v-3.656h-3.885v1.828ZM81.463 50.959v1.828h3.885v-3.656h-3.885v1.828ZM123.099 68.303c-4.685 1.646-5.096 8.044-.686 10.33 4.411 2.261 9.506-2.172 7.838-6.856-1.028-2.948-4.25-4.525-7.152-3.474Zm3.016 3.93c.434.344.594.663.594 1.303 0 1.714-1.896 2.514-3.085 1.303-1.668-1.645.64-4.068 2.491-2.605ZM44.49 98.285c-2.605.502-4.365 2.742-4.388 5.53 0 1.576.434 2.742 1.44 3.77 2.788 2.902 7.335 2.24 9.14-1.302 2.103-4.205-1.53-8.912-6.192-7.998Zm2.193 3.999c.732.502.983 1.302.709 2.148-.457 1.256-2.08 1.576-3.062.571-1.554-1.531.57-3.976 2.353-2.719ZM89.873 98.262c-.48.091-1.348.457-1.943.822-3.61 2.24-3.359 7.724.48 9.758 1.326.686 3.77.686 5.073 0 1.92-1.028 3.063-2.948 3.063-5.187 0-3.382-3.291-6.056-6.673-5.393Zm2.376 4.342c.572.594.663.822.549 1.439-.343 1.76-2.65 2.148-3.45.594-.48-.914-.435-1.302.32-2.056.89-.869 1.69-.869 2.581.023Z"/></g><defs><clipPath id="clip0_116_197"><path fill="#fff" transform="translate(21.135)" d="M0 0h117v117H0z"/></clipPath></defs></svg>