<svg width="98" height="71" fill="none" xmlns="http://www.w3.org/2000/svg"><path d="M5.991 3.747c-.249.038-.612.306-.823.575-.383.479-.383.728-.383 16.055v15.556l-1.474.096c-.842.058-1.76.23-2.086.402C.019 37.065 0 37.218 0 45.953c0 6.802.038 7.99.306 8.526.517 1.111 1.053 1.322 3.541 1.398l2.22.077.096 1.993c.077 1.8.153 2.107.785 3.39.88 1.782 2.488 3.353 4.287 4.216 1.245.594 1.417.613 3.618.613 2.259 0 2.316 0 3.732-.71 3.178-1.57 5.092-4.75 4.92-8.218l-.058-1.322H24.978v1.57c0 .959.134 2.012.345 2.683.766 2.548 3.12 4.943 5.608 5.71 3.178.976 6.853.114 9.015-2.147 1.647-1.705 2.718-4.655 2.47-6.763l-.115-1.015 1.703-.077c2.03-.076 2.508-.364 2.508-1.513 0-1.13-.421-1.322-3.025-1.322h-2.181L40.1 51.739c-1.8-1.954-3.924-2.912-6.413-2.912-2.488 0-4.612.958-6.412 2.912l-1.205 1.303-1.876-.02h-1.895l-.766-.976c-1.435-1.82-3.656-2.97-6.144-3.161-2.66-.211-5.283.88-7.12 2.95l-1.091 1.207H2.87v-4.79h64.523l-.057 2.338-.058 2.356-8.058.096c-6.431.077-8.115.153-8.364.364-.479.383-.422 1.59.076 2.05.383.345.919.364 12.69.421l12.27.039-.058 1.322c-.172 3.506 1.857 6.782 5.13 8.334 1.167.555 1.378.594 3.56.594 2.259 0 2.316 0 3.732-.71 1.876-.919 3.235-2.28 4.154-4.138.65-1.321.708-1.609.766-3.39l.076-1.955 1.11-.115c1.474-.134 2.412-.613 3.025-1.532.44-.67.516-1.016.574-2.51.057-1.552.019-1.782-.345-2.184-.536-.575-1.57-.575-2.105 0-.306.325-.383.67-.383 1.686 0 .728-.096 1.36-.23 1.494-.134.134-.746.23-1.454.23h-1.206l-1.379-1.399c-2.067-2.107-4.249-2.97-6.91-2.758-2.487.191-4.708 1.34-6.143 3.16-.709.882-.843.978-1.589.978l-.804.019.038-10.786.058-10.768 6.125-.057c6.03-.038 6.144-.038 6.986.383.938.48.938.48 4.46 5.997l1.952 3.046.058 1.763c.076 2.069.382 2.567 1.474 2.567 1.129 0 1.435-.536 1.435-2.471-.02-1.054-.134-1.993-.344-2.625-.383-1.092-4.92-8.315-5.992-9.541-.382-.44-1.205-1.054-1.818-1.36l-1.13-.575-6.507-.058c-3.58-.038-6.795-.019-7.14.058-.65.115-1.799 1.015-2.2 1.705-.173.287-.25 2.778-.326 9.024l-.096 8.621-1.09.057-1.11.058v-2.357c0-1.302-.097-2.663-.192-3.046-.25-.9-.957-1.552-1.857-1.686l-.727-.115-.096-11.073c-.096-10.69-.115-11.093-.46-11.361-.631-.441-1.569-.345-2.01.23-.363.46-.401.766-.401 2.777v2.28l-8.46-.038-8.48-.057V6.582l1.876-.057 1.857-.058v2.874c0 3.085.134 3.679.9 4.024.287.134 1.799.21 3.962.21 4.708 0 4.383.269 4.517-3.87l.096-3.123 1.875-.057 1.857-.058v3.334c0 3.085.038 3.372.402 3.85.497.633 1.512.69 2.086.116.364-.364.383-.632.383-4.713 0-2.452-.077-4.464-.191-4.675-.096-.191-.46-.44-.785-.555-.44-.154-9.054-.211-30.3-.192-16.327.02-29.878.077-30.108.115Zm5.493 5.594c0 1.571.077 3.085.173 3.334.306.804.995.939 4.9.862 4.593-.077 4.306.191 4.306-4.004V6.487h3.828V23.729l-8.46-.038-8.48-.057-.056-8.335c-.02-4.578 0-8.448.057-8.583.057-.153.632-.23 1.914-.23h1.818v2.855Zm6.508-.747v2.107h-3.637V8.728c0-1.092.058-2.05.134-2.107.058-.077.88-.134 1.819-.134h1.684v2.107Zm13.399.766c0 3.066.134 3.66.9 4.005.286.134 1.799.21 3.961.21 4.709 0 4.383.269 4.517-3.87l.096-3.123 1.876-.057 1.857-.058V23.73l-8.46-.038-8.48-.057-.057-8.335c-.02-4.578 0-8.448.057-8.583.058-.153.632-.23 1.914-.23h1.819V9.36Zm6.507-.766v2.107h-3.636V8.728c0-1.092.057-2.05.134-2.107.057-.077.88-.134 1.818-.134h1.684v2.107Zm19.907 0v2.107h-3.637V8.728c0-1.092.057-2.05.134-2.107.057-.077.88-.134 1.818-.134h1.685v2.107ZM11.523 29.669c.057 2.624.114 3.103.402 3.39.306.307.803.345 4.153.403l3.828.057.479-.479c.478-.479.478-.536.478-3.467v-2.97h3.828v14.369H12.882l-1.11-1.782c-.613-.958-1.302-1.973-1.513-2.222-.478-.537-1.435-.977-2.124-.977h-.479v-9.388h3.809l.058 3.066Zm6.47-1.054v2.011h-3.637v-4.023h3.636v2.012Zm13.398.766c0 3.046.191 3.774.995 4.004.249.058 2.01.115 3.943.115 3.464 0 3.503 0 3.962-.479.46-.46.479-.536.479-3.448v-2.97h3.828v14.369H27.563V26.603h3.828v2.778Zm6.507-.766v2.011h-3.636v-4.023h3.636v2.012Zm13.399.766c0 2.95.134 3.564.9 3.908.287.135 1.818.211 4 .211 3.503 0 3.54 0 4-.479.46-.46.479-.536.479-3.448v-2.97h3.828v14.369l-8.46-.038-8.48-.058-.057-7.146-.038-7.127h3.828v2.778Zm6.508-.766v2.011h-3.637v-4.023h3.637v2.012ZM9.934 41.68a318.496 318.496 0 0 0 2.086 3.257l.268.44H2.871v-6.513H8.135l1.799 2.816Zm57.441 2.931v.767l-25.859-.039-25.878-.057-.46-.728-.44-.71h52.637v.767Zm5.13 7.319-.058 1.015-1.09.058-1.11.057v-2.126h2.315l-.057.996Zm-55.164.364c3.81 1.839 4.46 6.935 1.264 9.752-1.015.92-2.24 1.34-3.771 1.34-1.761 0-2.89-.46-4.134-1.705-1.225-1.226-1.704-2.375-1.704-4.023 0-2.663 1.436-4.732 3.886-5.613 1.32-.48 3.196-.364 4.46.249Zm18.95.038c1.99 1.016 3.196 2.97 3.215 5.211.02 1.15-.076 1.533-.612 2.625-1.053 2.146-2.776 3.219-5.206 3.219-2.431 0-4.154-1.073-5.207-3.219-.536-1.092-.631-1.475-.612-2.625.019-2.644 1.646-4.809 4.287-5.67.938-.307 3.101-.077 4.135.46Zm50.627-.115c1.263.556 2.182 1.456 2.851 2.778.46.958.575 1.418.575 2.453 0 1.858-.44 2.97-1.704 4.233-1.263 1.265-2.373 1.706-4.23 1.706-3.713 0-6.47-3.583-5.57-7.223.479-1.897 2.067-3.602 3.924-4.196 1.053-.345 3.063-.23 4.154.25Z" fill="#fff" fill-opacity=".75"/><path d="M13.016 53.942c-2.47 1.265-3.082 4.273-1.283 6.323 1.646 1.877 4.651 1.839 6.221-.058 2.144-2.586.498-6.38-2.871-6.705-.861-.096-1.187-.02-2.067.44Zm2.622 2.778c.823.767.345 2.07-.746 2.07-1.187 0-1.742-1.284-.92-2.108.498-.498 1.111-.479 1.666.038ZM32.252 53.712c-.44.154-1.11.633-1.57 1.15a4.032 4.032 0 0 0 3.006 6.801c2.66 0 4.555-2.337 4-4.943-.172-.823-.383-1.226-1.09-1.954-1.264-1.303-2.68-1.647-4.346-1.053Zm2.029 2.798c.9.479.785 1.973-.153 2.203-1.091.287-1.972-.556-1.589-1.533.287-.785 1.034-1.073 1.742-.67ZM83.243 53.693a6.213 6.213 0 0 0-1.283.652c-.708.517-1.57 2.184-1.57 3.065 0 2.376 1.819 4.253 4.116 4.253 4.326 0 5.704-5.747 1.837-7.72-1.129-.556-2.029-.633-3.1-.25Zm2.124 2.99c.785.785.287 2.106-.804 2.106-1.186 0-1.722-1.36-.804-2.088.632-.498 1.11-.517 1.608-.019ZM78.687 34.152c-.861.478-.957.938-.976 4.56 0 2.145.076 3.563.21 3.87.479 1.015.977 1.091 7.37 1.034l5.857-.058.555-.632c.325-.364.555-.824.555-1.169 0-.67-4.154-7.241-4.824-7.605-.631-.364-8.096-.364-8.747 0Zm8.499 4.444c.631 1.016 1.186 1.916 1.205 2.012.039.096-1.684.172-3.866.172h-3.943v-4.023h5.455l1.148 1.84ZM78.572 44.459c-.21.115-.497.345-.612.498-.306.364-.325 2.97-.038 3.506.478.92 2.01.843 2.45-.134.268-.613.268-2.606 0-3.219-.134-.268-.479-.574-.804-.69-.306-.095-.575-.191-.594-.191-.019 0-.191.115-.402.23Z" fill="#fff" fill-opacity=".75"/></svg>