<svg width="108" height="108" viewBox="0 0 108 108" fill="none" xmlns="http://www.w3.org/2000/svg">
<path d="M24.3633 0.147636C15.4617 1.51873 8.62734 8.39529 7.40391 17.1703C7.27734 18.0562 7.17188 19.8703 7.17188 21.157V23.5195L6.075 23.9203C3.69141 24.764 2.00391 26.3039 0.864844 28.6875C0.147656 30.164 0.105469 30.3961 0.105469 32.2734C0.105469 33.7289 0.210938 34.5726 0.50625 35.332C1.49766 37.9687 3.56484 39.9937 6.075 40.8375L7.46719 41.3226L7.82578 42.968C8.50078 46.0476 10.0828 49.4226 12.1289 52.1016C14.1117 54.675 17.6344 57.5437 20.4188 58.8305L21.5156 59.3367V61.193V63.0281L18.0984 63.1336C14.1539 63.2601 13.0359 63.4922 10.1883 64.8633C5.4 67.1836 2.15156 71.1281 0.590625 76.507C0.105469 78.1312 0.105469 78.3211 0.105469 90.3867C0.105469 102.516 0.105469 102.621 0.569531 103.612C1.20234 105.005 2.78437 106.629 4.19766 107.304L5.37891 107.895H30.5859H55.793L56.9953 107.325C58.4719 106.65 59.8008 105.3 60.518 103.781L61.0664 102.621V90.3867C61.0664 76.7602 61.0875 76.95 59.5688 73.6383C59.168 72.7734 58.8516 72.0562 58.8516 72.0141C58.8516 71.9719 60.3703 71.9297 62.2055 71.9297H65.5594L66.1289 71.2547C66.7828 70.4953 66.7406 69.5883 66.0023 68.8711C65.6227 68.4703 65.2641 68.4492 60.8344 68.3859L56.0883 68.3226L54.675 67.1836C52.9453 65.7703 50.182 64.2937 48.0938 63.682C46.8492 63.3234 45.7523 63.218 43.0945 63.1336L39.6562 63.0281V62.1V61.1719H60.3914H81.1055V63.1336C81.1055 65.1375 81.1266 65.2008 82.6453 68.175C82.6875 68.2805 80.1984 68.3437 77.1398 68.3437H71.55L70.8961 68.8922C70.0523 69.5883 69.9891 70.643 70.7695 71.4023L71.2758 71.9297H89.1211H106.966L107.473 71.4023C108.148 70.7484 108.148 69.8203 107.494 69.0398L106.988 68.4492L102.136 68.3859L97.2844 68.3226L98.0438 66.8461C98.7398 65.4961 98.8242 65.1797 98.8875 63.2601L98.9719 61.1719H101.25C102.495 61.1719 103.823 61.0664 104.224 60.9187C105.659 60.4336 106.671 59.5476 107.346 58.1766L108 56.8898V47.2289V37.568L105.574 27.8437C104.245 22.4859 102.959 17.7609 102.748 17.3179C102.516 16.8961 101.946 16.1789 101.482 15.757C99.9211 14.3648 99.7945 14.3437 86.9695 14.3437H75.5156V12.8883C75.5156 11.264 75.0727 10.3781 73.8492 9.55545L73.132 9.07029H61.9945H50.857L49.9289 7.84686C47.1867 4.30311 43.4742 1.83514 39.1289 0.63279C37.5891 0.189819 36.893 0.147636 31.2188 0.105446C27.8016 0.0632629 24.7219 0.0843506 24.3633 0.147636ZM38.5594 4.19764C44.107 5.84295 48.368 10.1883 49.8867 15.7148C50.2875 17.2336 50.5828 21.9375 50.2664 21.9375C50.1398 21.9375 49.5281 21.7055 48.9164 21.4312C48.2836 21.157 46.7227 20.5875 45.4148 20.1867C35.5008 16.9805 23.2875 17.2547 13.8164 20.8828C12.5508 21.368 11.3273 21.8109 11.1375 21.8742C10.3148 22.1273 10.8 16.9805 11.8758 14.0906C13.6055 9.32342 17.993 5.39998 22.9078 4.13435C24.8695 3.6492 25.1016 3.62811 31.2188 3.6703C36.4711 3.73357 37.1672 3.77576 38.5594 4.19764ZM71.9297 31.5351V50.4141H61.1719C55.2656 50.4141 50.4141 50.3719 50.4141 50.3297C50.4141 50.2664 50.7938 49.5492 51.2367 48.6844C52.207 46.8914 53.0508 44.55 53.4305 42.6305L53.7047 41.2805L54.9281 40.9008C58.5773 39.7828 61.1719 36.2391 61.1719 32.3789C61.1719 28.6242 58.4086 24.8062 55.0125 23.857L54.0633 23.5828L53.9367 20.0812C53.8312 16.7273 53.7047 16.0312 52.8398 13.1203L52.6922 12.6562H62.3109H71.9297V31.5351ZM79.1438 25.7766C79.2281 34.4461 79.207 34.3828 80.5992 35.9648C81 36.4078 81.7805 36.9984 82.3711 37.2515L83.4258 37.7578H93.9305H104.414V40.4789V43.1789L102.663 43.2844C101.229 43.3476 100.723 43.4742 99.9 43.9594C98.0648 45.0351 97.0945 46.9547 97.3055 49.1695C97.432 50.5406 97.8328 51.4055 98.8031 52.3758C99.8578 53.4516 100.934 53.8734 102.79 53.9578L104.414 54.0422V55.2023C104.414 56.1937 104.33 56.4469 103.802 56.9742L103.191 57.5859H100.195H97.2211L96.1875 56.5734C92.7703 53.1984 87.3914 53.1984 83.8477 56.5523L82.7508 57.5859H79.1438H75.5156V37.9055C75.5156 27.0633 75.5789 18.1406 75.6633 18.0773C75.7266 17.993 76.5281 17.9297 77.4352 17.9297H79.0594L79.1438 25.7766ZM99.225 18.5836C99.5836 19.0055 100.153 20.9461 101.524 26.4515C102.537 30.4594 103.359 33.8344 103.359 33.9609C103.359 34.1086 100.048 34.1719 93.6562 34.1719H83.932L83.4258 33.6445L82.8984 33.1383V25.5234V17.9086L90.8297 17.9719L98.7609 18.0351L99.225 18.5836ZM34.8047 21.7265C39.3609 22.1273 44.2969 23.3297 47.9672 24.975L49.2328 25.5445L48.0727 26.7047C46.0477 28.7719 44.8875 29.0672 41.8078 28.2656C38.4117 27.3797 36.6398 27.1687 31.8516 27.0633C26.5992 26.9367 23.7938 27.1898 19.8703 28.1601C16.1789 29.0461 15.1875 28.8562 13.0992 26.7258C11.7914 25.3758 11.6648 25.5445 14.7234 24.3633C20.8195 22.0219 27.675 21.1148 34.8047 21.7265ZM7.17188 32.3789C7.17188 36.4078 7.10859 37.3359 6.87656 37.3359C6.4125 37.3359 4.66172 35.6484 4.15547 34.7203C3.52266 33.518 3.52266 31.2398 4.15547 30.0586C4.76719 28.9195 6.34922 27.4641 7.02422 27.4219C7.10859 27.4219 7.17188 29.6578 7.17188 32.3789ZM54.8016 27.7172C55.6664 28.1601 56.6578 29.3203 57.143 30.375C57.8602 31.9781 57.6703 33.8344 56.6367 35.3953C56.1305 36.1336 54.6961 37.3148 54.2742 37.3359C54.0633 37.3359 54 36.1969 54 32.3789C54 29.6578 54.0422 27.4219 54.1055 27.4219C54.1898 27.4219 54.4852 27.5484 54.8016 27.7172ZM11.9602 30.5859C13.9219 32.2945 16.7063 32.7586 19.8281 31.8937C23.5195 30.8601 24.9328 30.6914 30.4805 30.6914C36.0703 30.6914 37.2727 30.818 41.0273 31.8094C44.6133 32.7586 47.1867 32.3789 49.2117 30.5859C49.7391 30.1219 50.2242 29.7422 50.3086 29.7422C50.393 29.7422 50.4141 32.2312 50.3508 35.2687C50.2453 41.5758 50.0133 42.9258 48.5156 46.132C47.4398 48.4523 46.1953 50.1609 44.2758 52.0172C42.3773 53.8101 41.2594 54.6117 38.9813 55.6875C36.0492 57.1008 34.3617 57.4383 30.5859 57.4383C26.8313 57.4383 25.2492 57.1219 22.2539 55.7086C20.0602 54.675 18.8156 53.8523 17.107 52.2281C13.6266 48.9164 11.5594 44.8453 10.9688 40.268C10.7367 38.4117 10.6734 29.7422 10.8844 29.7422C10.9477 29.7422 11.4328 30.1219 11.9602 30.5859ZM104.414 48.6211V50.4141H103.338C101.672 50.4141 100.849 49.8023 100.828 48.5578C100.828 48.0937 100.997 47.693 101.355 47.3555C101.777 46.9125 102.073 46.8281 103.148 46.8281H104.414V48.6211ZM71.9297 55.793V57.5859H57.5859C49.6969 57.5859 43.2422 57.5437 43.2422 57.5226C43.2422 57.4805 43.7484 57.1008 44.3602 56.6789C44.9508 56.257 45.8789 55.4766 46.4062 54.9492L47.3344 54H59.632H71.9297V55.793ZM92.5805 58.3453C95.1117 59.7164 96.082 62.775 94.7953 65.3484C93.7828 67.3945 91.9266 68.4492 89.6695 68.3016C88.0875 68.175 87.2227 67.8164 86.2102 66.7828C85.1133 65.6859 84.6914 64.6523 84.6914 62.9648C84.7125 61.3195 85.0289 60.4758 86.1469 59.3156C87.8344 57.5016 90.3656 57.1219 92.5805 58.3453ZM27.4219 60.9609C29.3414 61.2562 32.2734 61.2141 34.2773 60.8555C35.2055 60.6867 35.9859 60.5391 36.0281 60.5391C36.0492 60.5391 36.0703 63.5344 36.0703 67.1836V73.8281L30.6492 73.7859L25.207 73.7226L25.1438 67.3945C25.1227 63.9141 25.1438 60.9398 25.207 60.7922C25.2703 60.6445 25.4813 60.5601 25.6711 60.6234C25.882 60.6867 26.6625 60.8344 27.4219 60.9609ZM21.5156 70.3898C21.5367 75.2625 21.832 76.1484 23.7305 77.0133C24.4898 77.3719 25.207 77.4141 30.5859 77.4141C35.9648 77.4141 36.682 77.3719 37.4414 77.0133C39.3609 76.1273 39.6562 75.2836 39.6562 70.4531V66.6562H42.293H44.9297V85.5352V104.414H30.5859H16.2422V85.5352V66.6562H18.8789H21.5156V70.3898ZM12.6562 86.0625V104.414H9.59766C7.48828 104.414 6.30703 104.33 5.84297 104.119C4.93594 103.76 3.83906 102.473 3.69141 101.63C3.62812 101.25 3.58594 95.85 3.62812 89.6484L3.69141 78.3633L4.26094 76.6758C5.21016 73.8914 6.58125 71.8664 8.81719 69.9891C9.85078 69.1031 12.0867 67.732 12.5086 67.7109C12.593 67.7109 12.6562 75.9586 12.6562 86.0625ZM49.9711 68.3437C52.7133 69.8203 54.8859 72.1195 56.2359 74.9883C57.5227 77.7726 57.5859 78.5109 57.5859 90.5766C57.5859 97.7273 57.5016 101.63 57.3539 102.03C57.0586 102.832 56.1516 103.781 55.3289 104.119C54.8438 104.33 53.7047 104.414 51.5742 104.414H48.5156V86.0625C48.5156 75.9586 48.5789 67.7109 48.6422 67.7109C48.7055 67.7109 49.3172 68.0062 49.9711 68.3437Z" fill="#FFBD00"></path>
<path d="M83.8474 41.5969C82.7716 42.1664 82.5396 43.6641 83.3834 44.4656C83.8263 44.8875 84.1005 44.9297 86.3998 44.9297C88.7623 44.9297 88.9732 44.8875 89.374 44.4445C89.606 44.1914 89.8802 43.7695 89.9435 43.5164C90.1334 42.9047 89.606 41.9133 88.9099 41.5969C88.2138 41.2805 84.417 41.2805 83.8474 41.5969Z" fill="#FFBD00"></path>
<path d="M87.4334 21.7688C86.3576 22.3383 86.1255 23.8359 86.9693 24.6164C87.7287 25.3336 96.6302 30.5859 97.0732 30.5859C97.5795 30.5859 98.3177 30.2062 98.6552 29.7633C99.0349 29.2781 98.9927 28.1602 98.5709 27.675C98.0646 27.1266 88.6357 21.5156 88.1927 21.5156C88.0029 21.5156 87.6654 21.6422 87.4334 21.7688Z" fill="#FFBD00"></path>
<path d="M37.3359 45.0774C37.1672 45.1407 36.4922 45.7313 35.8594 46.3852C34.2141 48.0727 33.4758 48.3891 30.8602 48.4735C28.9195 48.5368 28.582 48.4946 27.5695 48.0305C26.8734 47.7141 25.9664 47.0391 25.2914 46.3219C24.3422 45.3094 24.068 45.1407 23.4141 45.1407C22.4227 45.1407 21.7266 45.8368 21.7266 46.8282C21.7266 47.7774 23.0344 49.486 24.5531 50.4985C26.4937 51.7852 27.8016 52.1438 30.5859 52.1438C33.3492 52.1438 34.7414 51.7641 36.6398 50.5196C37.8211 49.7391 39.3609 47.9461 39.5719 47.1446C39.7406 46.4274 39.15 45.436 38.3695 45.1618C37.9898 45.0352 37.6945 44.9297 37.6734 44.9508C37.6523 44.9508 37.5047 45.0141 37.3359 45.0774Z" fill="#FFBD00"></path>
</svg>
