<svg width="100" height="100" fill="none" xmlns="http://www.w3.org/2000/svg"><path d="M81.29.977c-4.2.586-8.77 3.203-10.88 6.23l-.547.8H35.996C-1.27 8.008 1.191 7.93.391 9.22 0 9.863 0 10.079 0 53.633v43.77l.45.663c.253.371.741.762 1.112.899.528.176 10.176.234 40.45.234l39.765.02.528-.41c.644-.508.703-1.543.117-2.13-.39-.39-.645-.39-39.941-.39H2.93v-6.055H94.53v6.055h-3.379c-3.925 0-4.238.098-4.238 1.367 0 .586.117.84.508 1.153.488.39.781.41 4.219.41 4.023 0 4.648-.117 5.39-1.075l.43-.546V26.426l.762-1.64c2.031-4.317 2.285-8.536.82-12.813-1.465-4.258-5.078-8.125-9.16-9.805C87.266 1.094 83.867.625 81.289.977Zm5.566 3.242c.625.156 1.875.644 2.792 1.093 1.329.645 1.993 1.153 3.34 2.481 1.387 1.406 1.817 1.992 2.578 3.535 1.993 4.082 1.993 8.008 0 12.11-.761 1.562-1.152 2.109-2.578 3.515-1.816 1.817-3.418 2.793-5.722 3.496-4.864 1.485-10.47-.117-13.926-3.945-1.23-1.367-2.676-4.082-3.125-5.899-.39-1.523-.39-4.94 0-6.445 1.406-5.41 5.781-9.355 11.328-10.273 1.25-.196 3.887-.04 5.313.332Zm-18.79 7.05a18.799 18.799 0 0 0-.683 2.149l-.215.84H43.789c-23.281 0-23.398 0-23.828.39-.586.547-.586 1.602 0 2.149.41.39.605.39 13.867.39h13.438v39.454h-2.149v-1.914c0-2.246-.273-2.774-1.465-2.774-1.191 0-1.465.527-1.465 2.774v1.914H26.953V42.187h3.125v2.54c0 2.714.156 3.34.918 3.691.625.293 6.524.293 7.149 0 .761-.352.917-.977.917-3.691v-2.54h3.126v2.403c0 2.148.039 2.46.39 2.832.547.586 1.602.586 2.149 0 .39-.41.39-.625.39-12.813 0-7.695-.078-12.5-.195-12.734-.098-.195-.469-.45-.8-.566-.84-.293-36.446-.313-37.208-.02-1.094.43-1.035-.488-1.055 18.105v17.247H2.93V17.187h5.82c5.586 0 5.84-.019 6.25-.39.586-.547.586-1.602 0-2.149-.41-.37-.664-.39-6.25-.39H2.93v-3.32h32.636c31.016 0 32.637.019 32.5.332Zm-1.074 7.13c0 .683.078 1.562.176 1.953l.176.722-6.992.059c-6.563.058-7.012.078-7.403.43l-.41.37v34.708h-2.344V17.187H66.992v1.211Zm-55.039 8.359c.078 3.789-.137 3.613 4.453 3.613s4.375.176 4.453-3.613l.078-2.735h3.086v15.235H8.79V24.023h3.086l.078 2.735Zm5.918-.977v1.66h-2.93l-.058-1.445c-.04-.8-.02-1.562.039-1.719.078-.195.469-.254 1.523-.215l1.426.06v1.66Zm12.207.782c0 2.714.156 3.34.918 3.69.274.138 1.719.216 3.574.216 1.856 0 3.301-.078 3.575-.215.761-.352.917-.977.917-3.692v-2.539h3.126v15.235H26.953V24.023h3.125v2.54Zm6.016-.743.058 1.72h-3.144v-1.622c0-.898.058-1.7.136-1.777.079-.078.762-.098 1.524-.078l1.367.058.059 1.7Zm22.5.938c0 2.656.02 2.773.488 3.223.469.488.527.488 3.906.488 3.38 0 3.438 0 3.906-.489.47-.449.489-.566.489-3.222v-2.735h.469c.332 0 .527.176.703.586.136.313.625 1.153 1.093 1.875l.86 1.309v11.465h-15.04V24.023h3.126v2.735Zm5.86-.977v1.758h-2.931v-3.516h2.93v1.758ZM94.53 43.164v13.477H91.602V31.894l1.425-1.074a33.115 33.115 0 0 1 1.465-1.113c.02-.02.04 6.035.04 13.457ZM74.414 31.25c.977.684 3.379 1.738 4.98 2.168 2.012.547 5.782.605 7.774.117.742-.176 1.367-.332 1.426-.332.039 0 .078 1.367.078 3.027v3.028H73.437v-4.2c0-2.91.06-4.199.215-4.199.117 0 .47.176.762.391Zm-62.46 13.691c.058 2.735.058 2.754.605 3.223.527.45.644.469 3.75.469 1.933 0 3.398-.078 3.671-.215.762-.352.918-.977.918-3.691v-2.54h3.125v14.454H8.79V42.187h3.086l.078 2.754Zm5.976-.937.058 1.719-1.523-.059-1.524-.059-.058-1.445c-.04-.8-.02-1.562.039-1.719.078-.195.469-.254 1.523-.214l1.426.058.059 1.719Zm18.164-.02.058 1.72h-3.144v-1.622c0-.898.058-1.7.136-1.777.079-.078.762-.098 1.524-.078l1.367.058.059 1.7Zm22.5.938c0 2.656.02 2.773.488 3.223.469.488.527.488 3.906.488 3.38 0 3.438 0 3.906-.489.47-.449.489-.566.489-3.222v-2.734h3.125V56.64h-15.04V42.187h3.126v2.735Zm5.86-.977v1.758h-2.931v-3.516h2.93v1.758Zm12.304 1.133c.136 3.75-.117 3.555 4.433 3.555 3.34 0 3.399 0 3.868-.489.468-.449.488-.566.488-3.222v-2.734h3.125V56.64H73.437v-7.09c0-3.907.06-7.168.137-7.246.078-.078.801-.098 1.621-.078l1.465.058.098 2.793Zm5.86-1.133v1.758h-2.931v-3.516h2.93v1.758ZM47.265 61.23v1.66H2.93v-3.32h44.336v1.66Zm47.265 0v1.66H50.195v-3.32h44.336v1.66ZM47.266 76.564v10.742h-2.149V79.12c0-7.754-.02-8.203-.37-8.633l-.372-.469H6.602l-.372.47c-.351.429-.37.878-.37 8.632v8.184H2.93V65.82h44.336v10.743Zm47.265 0v10.742H91.602V70.723l-.508-.391c-.528-.41-.606-.41-19.024-.41s-18.496 0-19.023.41l-.508.39v16.583h-2.344V65.82h44.336v10.743Zm-82.578-.977c.078 3.789-.137 3.613 4.473 3.613h3.535l.469-.547c.449-.527.468-.683.468-3.183v-2.617h3.125v14.453H8.79V72.852h3.086l.078 2.734Zm5.977-1.035-.059 1.718h-2.93l-.058-1.445c-.04-.8-.02-1.562.039-1.718.078-.176.527-.254 1.582-.254h1.484l-.058 1.699Zm12.187 1.035c.078 3.789-.137 3.613 4.453 3.613s4.375.176 4.453-3.613l.079-2.734h3.085v14.453H26.953V72.852h3.086l.078 2.734Zm5.977-1.035-.059 1.718h-2.93l-.058-1.718-.059-1.7h3.164l-.058 1.7Zm22.5 1.015c0 3.79-.176 3.614 3.925 3.692 3.477.078 3.907.02 4.473-.547.352-.352.39-.664.39-3.125v-2.734h3.126v14.453h-15.04V72.852h3.126v2.714Zm5.86-.957v1.758h-2.931V72.852h2.93v1.757Zm12.304.957c0 3.79-.176 3.614 3.926 3.692 3.476.078 3.906.02 4.472-.547.352-.352.39-.664.39-3.125v-2.734h3.126v14.453H73.437v-7.09c0-3.906.06-7.168.137-7.227.059-.078.82-.136 1.66-.136h1.524v2.714Zm5.86-.957v1.758h-2.931V72.852h2.93v1.757Z" fill="#FFBD00"/><path d="M86.035 16.016 82.52 19.53l-2.343-2.363c-2.578-2.598-3.32-3.066-4.16-2.676-.586.293-.938 1.055-.762 1.738.058.254 1.562 1.895 3.32 3.633 2.89 2.89 3.262 3.184 3.867 3.184.625 0 1.036-.352 5.04-4.375 4.082-4.102 4.355-4.414 4.218-4.942-.195-.84-.664-1.23-1.426-1.23-.644 0-.996.293-4.238 3.516ZM30.566 52.734c-.488.547-.449 1.485.078 2.012.41.41.586.43 3.926.43 3.34 0 3.516-.02 3.926-.43.527-.527.566-1.465.078-2.012-.332-.37-.586-.39-4.004-.39-3.418 0-3.672.02-4.004.39ZM12.988 34.941c-.957.41-1.25 1.621-.586 2.364.332.37.586.39 4.004.39 3.223 0 3.692-.039 3.965-.351.567-.625.606-1.309.078-1.914l-.488-.567-3.3-.039c-1.798-.02-3.458.02-3.673.117ZM31.152 34.941c-.957.41-1.25 1.621-.586 2.364.332.37.586.39 4.004.39 3.418 0 3.672-.02 4.004-.39.489-.547.45-1.485-.078-2.012-.39-.41-.605-.43-3.691-.469-1.797-.02-3.438.02-3.653.117ZM59.453 35.04c-.937.41-1.172 1.562-.469 2.265.372.37.645.39 4.004.39 3.36 0 3.633-.02 4.004-.39.742-.742.43-1.953-.605-2.325-.918-.312-6.172-.273-6.934.06ZM77.793 34.902c-.977.196-1.368 1.68-.645 2.403.371.37.645.39 4.004.39 3.457 0 3.613-.02 4.004-.43.723-.78.43-1.913-.606-2.285-.585-.195-5.8-.273-6.757-.078ZM12.402 52.734c-.488.547-.45 1.485.078 2.012.41.41.586.43 3.926.43 3.34 0 3.516-.02 3.926-.43.527-.527.566-1.465.078-2.012-.332-.37-.586-.39-4.004-.39-3.418 0-3.672.02-4.004.39ZM58.984 52.734c-.43.43-.507 1.172-.195 1.758.313.586 1.309.781 4.2.781 2.89 0 3.886-.195 4.199-.78.312-.587.234-1.329-.196-1.759-.37-.37-.644-.39-4.004-.39-3.359 0-3.632.02-4.004.39ZM77.149 52.734c-.43.43-.508 1.172-.196 1.758.313.586 1.309.781 4.2.781 2.89 0 3.886-.195 4.199-.78.312-.587.234-1.329-.196-1.759-.37-.37-.644-.39-4.004-.39-3.359 0-3.632.02-4.003.39ZM12.656 83.477c-.8.605-.722 2.207.137 2.539.176.058 1.836.117 3.692.117 3.632 0 4.062-.098 4.296-1.074.137-.567-.293-1.543-.761-1.739-.176-.058-1.836-.117-3.672-.117-2.442.02-3.457.078-3.692.274ZM30.84 83.457c-.606.469-.82 1.094-.547 1.719.117.332.39.664.586.761.195.118 1.855.196 3.691.196 1.836 0 3.496-.078 3.692-.195.195-.098.468-.43.586-.762.273-.625.058-1.25-.547-1.719-.43-.332-7.032-.332-7.461 0ZM59.082 83.691c-.664.645-.644 1.504.02 2.032.488.37.78.41 3.926.41 3.34 0 3.398 0 3.867-.489.273-.253.488-.703.488-.976 0-.274-.215-.723-.488-.977-.47-.488-.528-.488-3.907-.488s-3.437 0-3.906.488ZM77.266 83.613a1.318 1.318 0 0 0 0 2.11c.488.37.78.41 3.925.41 3.34 0 3.399 0 3.868-.489.273-.253.488-.703.488-.976 0-.274-.215-.723-.488-.977-.47-.488-.528-.488-3.868-.488-3.144 0-3.437.04-3.925.41Z" fill="#FFBD00"/></svg>