<svg width="141" height="118" viewBox="0 0 141 118" fill="none" xmlns="http://www.w3.org/2000/svg">
<ellipse cx="37.1825" cy="44.1549" rx="37.1825" ry="34.2581" fill="#FFBD00" fill-opacity="0.6"></ellipse>
<path d="M46.0233 2.16641C44.871 2.55821 43.9952 3.29571 43.2116 4.44805L42.5663 5.41602L36.7585 5.53126C31.3886 5.64649 30.8585 5.69258 29.6139 6.19962C27.7471 6.93712 25.7421 8.85001 24.7741 10.809L24.0366 12.3301L23.9675 54.7133C23.9214 92.9481 23.9444 97.2348 24.2901 98.3871C25.212 101.66 27.8854 104.126 31.2503 104.84C32.103 105.025 39.4089 105.094 55.8413 105.094H79.2339V105.716C79.2569 107.468 81.3311 109.888 83.2671 110.371C83.8202 110.51 84.8343 110.625 85.5257 110.625H86.7471L87.3003 111.8C88.9366 115.442 93.4999 117.124 97.026 115.396C98.5932 114.635 100.322 112.814 100.69 111.524L100.967 110.625H108.619H116.247L116.8 111.8C118.437 115.442 123 117.124 126.526 115.396C128.07 114.635 129.822 112.814 130.19 111.547L130.444 110.671L132.334 110.579C135.03 110.418 136.551 109.519 137.681 107.398C138.096 106.661 138.119 105.831 138.188 96.3359L138.257 86.057L135.007 81.7473L131.781 77.4375H127.632H123.484V56.1191V34.8008H124.037C124.913 34.8008 127.609 33.902 129.246 33.0492C132.403 31.4359 134.754 29.0391 136.39 25.6973C139.64 19.1289 138.418 11.8461 133.187 6.6836C130.075 3.59532 126.71 2.12032 122.332 1.9129C113.873 1.49805 106.959 7.16759 105.162 15.9484L105.046 16.5938H101.382H97.7405L97.6022 14.6809C97.3948 11.2469 95.8507 8.5043 93.2925 6.96016C91.103 5.64649 90.3425 5.53126 84.2811 5.53126H78.819L78.5425 4.83985C78.1507 3.87188 76.4682 2.44298 75.362 2.12032C74.0022 1.70547 47.1757 1.75157 46.0233 2.16641ZM74.5093 5.66954C75.362 6.01524 75.5464 6.96016 75.5464 11.1777V15.257L74.878 15.9254L74.1866 16.5938L60.5659 16.5477L46.9221 16.4785L46.4843 15.9254C46.0925 15.4414 46.0464 14.9805 46.0464 11.0164C46.0464 6.70665 46.0464 6.66055 46.6225 6.10743L47.1757 5.53126H60.6581C68.0561 5.53126 74.3018 5.6004 74.5093 5.66954ZM124.221 5.78477C128.623 6.72969 132.564 10.2789 133.855 14.4965C135.33 19.2672 134.178 23.8766 130.628 27.4258C126.134 31.943 119.704 32.5652 114.403 29.016C107.674 24.5219 106.775 15.0957 112.537 9.33399C115.625 6.24571 120.05 4.90899 124.221 5.78477ZM42.3589 11.0625V12.9063H38.1182C34.1081 12.9063 33.8546 12.9293 33.1171 13.4363C32.7022 13.7129 32.103 14.3121 31.8264 14.727L31.2964 15.5106V55.3125V95.1145L31.8034 95.875C32.103 96.2899 32.6331 96.866 32.9788 97.1195C33.6241 97.6035 33.7163 97.6035 56.4405 97.6727L79.2339 97.7188V99.5625V101.406L55.4495 101.36L31.6421 101.291L30.7202 100.784C30.2132 100.507 29.4757 99.9543 29.0608 99.5164C27.4936 97.8801 27.6089 101.406 27.6089 55.3125C27.6089 18.3684 27.655 13.4824 27.9546 12.7449C28.5307 11.3621 29.3604 10.4633 30.6511 9.81798C31.8264 9.21876 31.8956 9.21876 37.1042 9.21876H42.3589V11.0625ZM90.0889 9.49532C91.2643 9.84102 92.7163 11.0856 93.3616 12.307L93.8686 13.252L93.9378 41.6457L93.9839 70.0625H92.1401H90.2964V43.0285V15.9945L89.7893 14.9805C88.8214 13.1137 88.5678 13.0215 83.5897 12.9523L79.2339 12.8832V11.0395V9.21876H84.212C87.3464 9.21876 89.5358 9.31094 90.0889 9.49532ZM42.8198 16.8934C42.8198 17.4234 44.4331 19.1289 45.4471 19.659L46.3921 20.166H60.8194H75.2468L76.376 19.4746C77.0444 19.0598 77.7819 18.3223 78.1968 17.7L78.8882 16.6168H82.76L86.6089 16.5938V43.3281V70.0625H82.9214H79.2339V82.0469V94.0313H57.1089H34.9839V55.3125V16.5938H38.9018C41.9901 16.5938 42.8198 16.6629 42.8198 16.8934ZM105.139 20.5578C105.185 20.7191 105.369 21.5719 105.599 22.4707C107.005 28.4398 112.26 33.4871 118.275 34.6164L119.796 34.916V56.1652V77.4375H117.953H116.109V73.75V70.0625H106.89H97.6714V45.1719V20.2813H101.359C104.124 20.2813 105.069 20.3504 105.139 20.5578ZM90.2964 77.4375V81.125H97.6714H105.046V77.4375V73.75H108.734H112.421V86.6563V99.5625H97.6714H82.9214V86.6563V73.75H86.6089H90.2964V77.4375ZM101.359 75.5938V77.4375H97.6714H93.9839V75.5938V73.75H97.6714H101.359V75.5938ZM132.242 84.1902L134.546 87.2785V93.409V99.5625H125.328H116.109V90.3438V81.125H123.023H129.937L132.242 84.1902ZM88.13 104.31C87.6921 104.886 87.2081 105.716 87.0468 106.177L86.7932 106.984L85.2952 106.891C83.3823 106.776 82.9214 106.315 82.9214 104.495V103.25H85.9175H88.9366L88.13 104.31ZM117.63 104.31C117.192 104.886 116.708 105.716 116.57 106.154L116.293 106.938H108.734H101.151L100.714 105.946C100.46 105.393 99.93 104.564 99.5151 104.103L98.7776 103.25H108.596H118.437L117.63 104.31ZM134.546 104.425C134.546 105.416 134.431 105.693 133.878 106.269C133.302 106.845 133.025 106.938 131.919 106.938H130.651L130.214 105.946C129.96 105.393 129.43 104.564 129.015 104.103L128.278 103.25H131.412H134.546V104.425ZM96.012 105.693C96.9569 106.384 97.7175 108.021 97.5792 109.081C97.2565 111.8 94.0069 113.368 91.9096 111.823C89.651 110.141 89.7663 107.214 92.1401 105.601C92.8085 105.14 93.1542 105.071 94.1682 105.14C94.8827 105.209 95.6432 105.439 96.012 105.693ZM125.512 105.693C126.457 106.384 127.217 108.021 127.079 109.081C126.757 111.8 123.507 113.368 121.41 111.823C119.151 110.141 119.266 107.214 121.64 105.601C122.308 105.14 122.654 105.071 123.668 105.14C124.383 105.209 125.143 105.439 125.512 105.693Z" fill="#03045E"></path>
<path d="M122.746 16.5246L117.953 21.3184L116.731 20.0969L115.51 18.8984L114.196 20.2352L112.882 21.5488L115.371 24.0379L117.837 26.5039L124.014 20.3273L130.167 14.1738L128.946 12.9523C128.278 12.307 127.678 11.7539 127.632 11.7539C127.563 11.7539 125.374 13.8973 122.746 16.5246Z" fill="#03045E"></path>
<path d="M47.2909 28.9699C44.7788 32.3578 42.5894 35.2617 42.428 35.4692C42.1976 35.7918 42.0132 35.6996 41.0452 34.7547L39.9159 33.6485L38.6022 34.9852L37.2886 36.2989L39.8929 38.9031L42.5202 41.5074L48.6737 33.2797L54.8503 25.052L54.3202 24.6371C54.0206 24.4067 53.3522 23.8996 52.8222 23.5309L51.9003 22.8395L47.2909 28.9699Z" fill="#03045E"></path>
<path d="M58.9526 25.8125V27.6562H70.937H82.9214V25.8125V23.9688H70.937H58.9526V25.8125Z" fill="#03045E"></path>
<path d="M58.9526 33.1875V35.0312H67.2495H75.5464V33.1875V31.3438H67.2495H58.9526V33.1875Z" fill="#03045E"></path>
<path d="M79.2339 33.1875V35.0312H81.0776H82.9214V33.1875V31.3438H81.0776H79.2339V33.1875Z" fill="#03045E"></path>
<path d="M58.9526 40.5625V42.4062H70.937H82.9214V40.5625V38.7188H70.937H58.9526V40.5625Z" fill="#03045E"></path>
<path d="M47.2909 51.0949C44.7788 54.4828 42.5894 57.3867 42.428 57.5942C42.1976 57.9168 42.0132 57.8246 41.0452 56.8797L39.9159 55.7735L38.6022 57.1102L37.2886 58.4239L39.8929 61.0281L42.5202 63.6324L48.6737 55.4047L54.8503 47.177L54.3202 46.7621C54.0206 46.5317 53.3522 46.0246 52.8222 45.6559L51.9003 44.9645L47.2909 51.0949Z" fill="#03045E"></path>
<path d="M58.9526 47.9375V49.7812H70.937H82.9214V47.9375V46.0938H70.937H58.9526V47.9375Z" fill="#03045E"></path>
<path d="M58.9526 55.3125V57.1562H67.2495H75.5464V55.3125V53.4688H67.2495H58.9526V55.3125Z" fill="#03045E"></path>
<path d="M79.2339 55.3125V57.1562H81.0776H82.9214V55.3125V53.4688H81.0776H79.2339V55.3125Z" fill="#03045E"></path>
<path d="M58.9526 62.6875V64.5312H70.937H82.9214V62.6875V60.8438H70.937H58.9526V62.6875Z" fill="#03045E"></path>
<path d="M38.6714 81.125V90.3438H49.7339H60.7964V81.125V71.9062H49.7339H38.6714V81.125ZM57.1089 81.125V86.6562H49.7339H42.3589V81.125V75.5938H49.7339H57.1089V81.125Z" fill="#03045E"></path>
<path d="M64.4839 73.75V75.5938H70.0151H75.5464V73.75V71.9062H70.0151H64.4839V73.75Z" fill="#03045E"></path>
<path d="M64.4839 81.125V82.9688H70.0151H75.5464V81.125V79.2812H70.0151H64.4839V81.125Z" fill="#03045E"></path>
<path d="M64.4839 88.5V90.3438H70.0151H75.5464V88.5V86.6562H70.0151H64.4839V88.5Z" fill="#03045E"></path>
</svg>
