<svg width="108" height="108" fill="none" xmlns="http://www.w3.org/2000/svg"><path d="M65.285.232C55.097 1.71 46.807 9.766 44.825 20.124c-.718 3.733-.275 9.175 1.033 12.635 1.287 3.438 1.582 3.88 10.188 15.482 3.628 4.894 6.602 8.965 6.602 9.029 0 .063-5.864.105-13.015.105-14.111 0-14.66.042-17.107 1.16-4.092 1.878-6.77 6.075-6.792 10.59 0 4.977 3.017 9.154 8.1 11.221.78.295 3.776.338 32.19.443 31.218.106 31.324.106 32.273.549 1.16.527 2.172 1.518 2.805 2.7.654 1.223.654 3.67 0 4.893-.611 1.14-2.13 2.468-3.185 2.785-.612.19-9.83.253-36.787.253H25.144l-.464-1.245c-1.435-3.86-5-6.96-9.07-7.91C7.424 80.874-.444 87.56.062 95.998a12.739 12.739 0 0 0 11.94 11.939c5.505.337 10.694-2.996 12.634-8.1l.57-1.54h72.858l1.666-.527c4.535-1.435 7.784-5.548 8.206-10.358.464-5.505-3.059-10.61-8.585-12.445-1.097-.38-2.848-.4-32.38-.506l-31.218-.105-.992-.591c-2.214-1.287-3.185-3.818-2.446-6.307.316-1.055 1.645-2.574 2.784-3.185l.865-.464 17.022-.106c16.875-.105 17.023-.105 17.614-.548.485-.359 15.461-20.693 18.436-25.017 4.999-7.278 5.526-16.897 1.392-24.954-2.32-4.472-6.37-8.501-10.863-10.737C75.62.464 69.84-.422 65.286.232Zm6.75 6.413c3.84.675 7.13 2.468 9.83 5.336 5.168 5.506 6.497 13.606 3.29 20.187-.675 1.35-3.08 4.83-8.458 12.234-4.135 5.675-7.594 10.357-7.7 10.4-.147.042-13.352-17.572-15.187-20.271-3.586-5.295-4.029-12.13-1.181-18.015 3.586-7.361 11.285-11.285 19.406-9.871Zm-56.594 82.73c1.223.548 2.489 1.792 3.143 3.142.4.823.506 1.371.506 2.721 0 1.983-.485 3.164-1.814 4.514-1.35 1.329-2.531 1.814-4.514 1.814s-3.164-.485-4.514-1.814c-3.396-3.396-1.983-9.154 2.594-10.652 1.16-.4 3.375-.253 4.599.274Z" fill="#FFBD00"/><path d="M67.394 14.808c-2.826.358-5.885 2.637-7.13 5.294-2.214 4.662-.253 10.21 4.43 12.53 1.456.717 1.793.802 3.65.865 1.708.084 2.299.021 3.459-.38 7.467-2.468 8.754-12.635 2.151-16.917-1.961-1.266-4.092-1.73-6.56-1.392Zm3.059 6.687c1.877 1.307 1.962 3.67.21 5.168-.526.442-.885.548-1.771.548-1.477 0-2.405-.612-2.953-1.94-.359-.866-.38-1.119-.148-1.836.338-1.139 1.013-1.877 2.025-2.236.97-.316 1.877-.232 2.637.296Z" fill="#FFBD00"/></svg>