<svg width="130" height="130" viewBox="0 0 130 130" fill="none" xmlns="http://www.w3.org/2000/svg">
<circle cx="65" cy="65" r="64" stroke="#FFBD00" stroke-width="2"></circle>
<g clip-path="url('#clip0_116_304')">
<path d="M34.5651 35.3738C34.0753 35.8637 34.0753 36.3277 34.5651 36.8176C34.939 37.1785 34.9776 37.1914 36.3183 37.1914C38.0714 37.1914 38.5612 36.9465 38.5612 36.0957C38.5612 35.2449 38.0714 35 36.3183 35C34.9776 35 34.939 35.0129 34.5651 35.3738Z" fill="#03045E"></path>
<path d="M41.204 35.2964C40.7013 35.7347 40.7013 36.4566 41.204 36.882L41.5521 37.1914H47.5076C51.0654 37.1914 53.9271 37.2558 54.6232 37.3332C61.8033 38.2097 67.1915 44.3457 67.1915 51.6418C67.1915 52.789 67.2173 52.9308 67.5009 53.266C67.7974 53.614 67.8747 53.6269 69.1767 53.6914L70.556 53.7558L67.849 57.623C66.3536 59.75 65.0775 61.4902 65.0001 61.4902C64.9228 61.4902 63.6466 59.75 62.1513 57.623L59.4443 53.7558L60.8236 53.6914C62.1255 53.6269 62.2029 53.614 62.4994 53.266C62.7958 52.9308 62.8087 52.8019 62.8087 51.3324C62.8087 48.7027 62.2802 47.2203 60.8236 45.7636C59.8568 44.7968 58.529 44.1007 57.2658 43.9074C56.1701 43.7269 50.8204 43.7269 50.3564 43.8945C49.8794 44.0878 49.6732 44.3843 49.6603 44.9386C49.6603 45.248 49.7505 45.48 49.931 45.6476C50.1759 45.8667 50.4982 45.8925 53.6435 45.9699C57.6525 46.0472 58.0779 46.1503 59.2122 47.2589C60.0888 48.1097 60.4755 49.0121 60.5786 50.3914L60.656 51.5H58.89C57.7943 51.5 57.0079 51.5515 56.8404 51.6546C56.0411 52.0671 56.0411 52.7117 56.8146 53.8203C57.3431 54.5679 57.3689 54.6582 57.1755 54.7742C57.0466 54.8386 54.056 56.566 50.524 58.6156L44.1044 62.3281L39.8247 59.866C37.4658 58.4996 35.4935 57.3523 35.4419 57.3007C35.3775 57.2492 38.4712 55.3929 42.2869 53.1886C46.1154 50.9714 49.3638 49.0507 49.5185 48.9089C49.931 48.5222 49.8923 47.7359 49.454 47.3878C49.2607 47.2332 48.9513 47.1171 48.7451 47.1171C48.2939 47.1171 32.8767 55.973 32.3482 56.5402C31.9357 56.9785 31.9099 57.4039 32.2451 57.8421C32.3869 58.0097 34.5911 59.3632 37.1435 60.8457C39.7087 62.3281 41.797 63.5656 41.797 63.6042C41.797 63.6429 40.1857 64.6097 38.2134 65.7441C32.5158 69.0183 32.2837 69.1601 32.1161 69.5597C31.9099 70.0753 32.0517 70.5136 32.5544 70.8746C32.7736 71.0421 35.2099 72.473 37.9556 74.0585L42.9443 76.946L42.9829 82.5921C43.0216 88.032 43.0345 88.2382 43.2794 88.4832C43.4212 88.625 48.2681 91.4867 54.0431 94.8382C62.4478 99.7109 64.6392 100.923 65.0001 100.923C65.3611 100.923 67.5525 99.7109 75.9572 94.8382C81.7322 91.4867 86.579 88.625 86.7208 88.4832C86.9658 88.2382 86.9786 88.032 87.0173 82.5921L87.056 76.946L92.0447 74.0585C94.7904 72.473 97.2267 71.0421 97.4458 70.8746C97.9486 70.5136 98.0904 70.0753 97.8841 69.5597C97.7036 69.1601 97.8841 69.2632 92.1736 65.9632C89.9951 64.7128 88.2033 63.6429 88.2033 63.6042C88.2033 63.5656 90.2915 62.3281 92.8568 60.8457C95.4091 59.3632 97.6134 58.0097 97.7552 57.8421C98.0904 57.4039 98.0646 56.9785 97.6521 56.5402C97.2525 56.1277 76.6146 44.1394 76.1247 44.0492C75.7896 43.9847 73.3404 45.2738 72.9665 45.725C72.6056 46.1375 72.6572 46.9109 73.0697 47.2332C73.5595 47.6199 73.9204 47.5683 75.0419 46.9625L76.0345 46.421L85.2513 51.7449C90.3044 54.6839 94.5068 57.1203 94.5583 57.1718C94.6099 57.2234 92.6892 58.3964 90.2786 59.7886L85.8958 62.3281L79.4763 58.6156C75.9443 56.566 72.9536 54.8386 72.8247 54.7742C72.6314 54.6582 72.6572 54.5679 73.1857 53.8203C73.8689 52.8406 73.9462 52.3121 73.4435 51.8222C73.147 51.5128 73.0826 51.5 71.2521 51.5H69.3829V50.9199C69.3829 49.9015 69.0091 47.8003 68.5966 46.5113C67.0497 41.6257 63.0021 37.5007 58.2326 35.9152C55.7318 35.0902 55.7704 35.0902 48.3583 35.0386L41.5779 34.9871L41.204 35.2964ZM61.3908 60.3429C62.8474 62.4441 64.1751 64.2617 64.3427 64.4035C64.5103 64.5324 64.8068 64.6484 65.0001 64.6484C65.1935 64.6484 65.49 64.5324 65.6576 64.4035C65.8251 64.2617 67.1529 62.4441 68.6095 60.3429C70.0661 58.2546 71.3036 56.5402 71.3681 56.5273C71.5357 56.5273 83.5626 63.5011 83.5626 63.6042C83.5626 63.6429 79.3861 66.105 74.2814 69.057L65.0001 74.4324L55.7189 69.057C50.6142 66.105 46.4505 63.6429 46.4763 63.5785C46.515 63.4496 58.4517 56.5402 58.6193 56.5402C58.6966 56.5402 59.9341 58.2546 61.3908 60.3429ZM53.4244 70.2687C58.5161 73.2207 62.6798 75.6699 62.6798 75.7085C62.6669 75.8375 54.1978 80.6972 53.9915 80.6972C53.7208 80.6972 35.3517 70.0109 35.4548 69.9078C35.5708 69.8046 44.0271 64.9062 44.1044 64.9062C44.1302 64.9062 48.3197 67.3167 53.4244 70.2687ZM90.2013 67.3683C92.5474 68.7218 94.4939 69.8691 94.5454 69.9078C94.6486 70.0109 76.2665 80.6972 75.9958 80.6972C75.7509 80.6972 67.3204 75.8117 67.3591 75.6957C67.3849 75.5925 85.7411 64.9191 85.8829 64.9062C85.9216 64.9062 87.8681 66.0148 90.2013 67.3683ZM63.8013 97.8675C63.7755 97.8933 59.5732 95.4828 54.4556 92.5308L45.1486 87.1425V82.7082C45.1486 78.8667 45.1744 78.2996 45.3419 78.364C45.4451 78.4027 47.34 79.4855 49.5572 80.7746C52.3029 82.373 53.7208 83.1207 53.9786 83.1207C54.2493 83.1335 55.7447 82.3343 59.0704 80.4007L63.7755 77.6808L63.8142 87.7484C63.8271 93.2914 63.8271 97.8417 63.8013 97.8675ZM70.9943 80.4523C74.2685 82.3472 75.7509 83.1335 76.0216 83.1207C76.2794 83.1207 77.6974 82.373 80.4431 80.7746C82.6603 79.4855 84.5552 78.4027 84.6583 78.364C84.8259 78.2996 84.8517 78.8667 84.8517 82.7082V87.1425L75.6091 92.4921C70.5302 95.4312 66.3279 97.8675 66.2634 97.8804C66.2119 97.9062 66.1603 93.3687 66.1603 87.7871C66.1603 82.2183 66.199 77.6808 66.2634 77.7066C66.315 77.7324 68.4419 78.9699 70.9943 80.4523Z" fill="#03045E"></path>
<path d="M80.9457 82.4502C80.5461 82.6823 80.3398 83.3913 80.3398 84.5256C80.3398 85.2862 80.4043 85.7245 80.5719 86.0467C80.9973 86.8975 82.0027 86.8975 82.4281 86.0467C82.7246 85.4795 82.7504 83.662 82.4797 83.0174C82.209 82.36 81.5258 82.1151 80.9457 82.4502Z" fill="#03045E"></path>
<path d="M76.3824 84.8094C76.0215 85.1188 76.0215 85.1317 76.0215 86.6914C76.0215 88.2512 76.0215 88.2641 76.3824 88.5735C76.8594 88.9731 77.4266 88.9731 77.8262 88.5606C78.1355 88.2641 78.1484 88.1739 78.1484 86.7688C78.1484 85.9567 78.1098 85.1961 78.0711 85.0801C77.968 84.8352 77.3621 84.5 77.0012 84.5C76.8594 84.5 76.5758 84.6418 76.3824 84.8094Z" fill="#03045E"></path>
<path d="M39.2187 39.5504C38.5484 39.8855 38.4453 40.6977 38.9867 41.2777L39.2574 41.5742H44.0527C48.7191 41.5742 48.8609 41.5613 49.1961 41.3035C49.441 41.1102 49.5312 40.9168 49.5312 40.6074C49.5312 39.3957 49.5054 39.3828 44.0914 39.3828C40.7011 39.3828 39.4636 39.4215 39.2187 39.5504Z" fill="#03045E"></path>
<path d="M43.6532 43.9461C43.3954 44.0621 43.2021 44.2684 43.1118 44.5262C42.9443 44.9902 43.0087 45.248 43.3825 45.6605C43.6275 45.9313 43.7564 45.957 45.1486 45.957C46.4892 45.957 46.6954 45.9313 47.0048 45.6863C47.2626 45.4801 47.34 45.3125 47.34 44.9516C47.3271 44.0234 46.8372 43.7656 45.1743 43.7656C44.5298 43.7785 43.8853 43.843 43.6532 43.9461Z" fill="#03045E"></path>
</g>
<defs>
<clipPath id="clip0_116_304">
<rect width="66" height="66" fill="white" transform="translate(32 35)"></rect>
</clipPath>
</defs>
</svg>
