<svg width="130" height="130" viewBox="0 0 130 130" fill="none" xmlns="http://www.w3.org/2000/svg">
<circle cx="65" cy="65" r="64" stroke="#FFBD00" stroke-width="2"></circle>
<g clip-path="url('#clip0_116_318')">
<path d="M53.0782 40.4514C52.437 40.6607 51.3378 41.7861 51.1415 42.4535C51.0237 42.8592 50.9845 46.5625 50.9845 57.8426V72.6951L49.6497 73.4541C48.9038 73.8598 47.4251 74.815 46.3652 75.5609C45.3052 76.3068 44.3892 76.9219 44.3368 76.9219C44.2714 76.9219 43.9312 76.477 43.5517 75.9404C42.8319 74.9066 42.4525 74.6711 41.8898 74.9328C41.5888 75.0768 33.1091 80.9654 31.6566 82.0516C30.4526 82.9283 30.1648 82.3656 36.5376 91.4734C42.2823 99.6652 42.3085 99.7045 43.0282 99.5082C43.4993 99.3904 53.7718 92.1408 53.955 91.8137C54.1905 91.3687 54.1644 91.1725 53.7325 90.492L53.34 89.8639L53.9288 89.4975C55.7216 88.359 58.1556 88.058 61.2831 88.5814C63.7302 89.0002 65.8632 88.974 67.6036 88.5291C69.1216 88.1365 90.3208 80.442 91.1976 79.9578C92.48 79.2643 93.1343 78.165 93.2259 76.5816C93.2782 75.6264 93.239 75.4301 92.9249 74.7234C92.5585 73.899 91.5902 72.8521 91.0536 72.682L90.7657 72.5904V57.7902C90.7657 46.5494 90.7265 42.8592 90.6087 42.4535C90.3993 41.7338 89.3132 40.6477 88.5935 40.4383C87.8607 40.2289 53.7718 40.2289 53.0782 40.4514ZM65.6407 44.4688V46.5625H59.3595H53.0782V44.7959C53.0782 43.0816 53.0913 43.0031 53.4054 42.7021L53.7194 42.375H59.6866H65.6407V44.4688ZM74.0157 46.8504V51.3258L72.6548 49.991C71.4902 48.8395 71.2415 48.6562 70.8751 48.6562C70.5087 48.6562 70.2601 48.8395 69.0954 49.991L67.7345 51.3258V46.8504V42.375H70.8751H74.0157V46.8504ZM88.3448 42.7021C88.6589 43.0031 88.672 43.0816 88.672 44.7959V46.5625H82.3907H76.1095V44.4688V42.375H82.0636H88.0308L88.3448 42.7021ZM65.6407 51.4697C65.6407 54.2963 65.6407 54.2963 65.9679 54.6104C66.1642 54.8197 66.4259 54.9375 66.7007 54.9375C67.0671 54.9375 67.3681 54.702 69.0038 53.0793L70.8751 51.2211L72.7464 53.0793C74.3821 54.702 74.6831 54.9375 75.0495 54.9375C75.3243 54.9375 75.586 54.8197 75.7823 54.6104C76.1095 54.2963 76.1095 54.2963 76.1095 51.4697V48.6562H82.3907H88.672V60.4205V72.1848L88.2532 72.2764C88.0177 72.3287 86.9708 72.6951 85.9239 73.0746L84.0265 73.7812H80.3232C76.8423 73.7812 76.5937 73.7682 76.2927 73.5326C75.7431 73.1008 74.9187 72.9045 69.5665 71.9623C62.487 70.7191 62.5655 70.7322 60.2101 70.7322C57.92 70.7453 55.931 71.0332 54.0989 71.609L53.0782 71.923V60.2896V48.6562H59.3595H65.6407V51.4697ZM62.0421 72.8652C63.8087 73.0223 74.4868 74.9197 74.9448 75.1553C75.73 75.574 76.2011 76.6078 75.9786 77.4584C75.7038 78.4529 74.9318 79.0418 73.898 79.0287C73.5708 79.0287 70.8228 78.5838 67.7999 78.0473C64.7901 77.4977 62.3038 77.0789 62.2777 77.092C62.2122 77.1705 61.9374 79.0287 61.9898 79.0811C62.1468 79.225 73.4007 81.1355 74.1073 81.1355C75.5991 81.1225 76.9208 80.298 77.6536 78.924L78.0593 78.165L83.4245 76.2152C88.1224 74.5141 88.8552 74.2785 89.3655 74.3309C91.1321 74.5271 91.7995 76.6994 90.4778 77.9295C90.1114 78.2697 68.4019 86.1998 66.8839 86.5531C65.4706 86.8672 63.5077 86.8541 61.5056 86.4877C58.0378 85.8857 55.3028 86.2652 52.8296 87.7178L52.1099 88.1496L48.8646 83.5041C47.0849 80.9523 45.6193 78.8193 45.6193 78.7539C45.6193 78.5969 49.1917 76.0975 50.4349 75.4039C52.8296 74.0299 55.7739 73.1139 58.5482 72.8652C60.1577 72.7344 60.5634 72.7344 62.0421 72.8652ZM46.7577 84.1453C49.3357 87.8355 51.4425 90.9238 51.4425 91.0154C51.4425 91.0939 50.003 92.1801 48.2364 93.4232C46.4698 94.6533 44.5724 95.9881 44.0228 96.3807L43.0152 97.0873L38.2911 90.3219C35.687 86.6055 33.554 83.5041 33.5409 83.4256C33.5148 83.2947 41.6673 77.4846 41.9159 77.4584C41.9944 77.4453 44.1667 80.4682 46.7577 84.1453Z" fill="#03045E"></path>
</g>
<defs>
<clipPath id="clip0_116_318">
<rect width="62" height="60" fill="white" transform="translate(31 40)"></rect>
</clipPath>
</defs>
</svg>
