<svg width="130" height="130" fill="none" xmlns="http://www.w3.org/2000/svg"><circle cx="65" cy="65" r="64" stroke="#FFBD00" stroke-width="2"/><g clip-path="url('#clip0_116_327')" fill="#03045E"><path d="m43.73 36.293-.292.281v6.692h-1.336c-1.243 0-1.371.023-1.664.27-.645.55-.61.62 2.894 5.19 1.969 2.579 3.34 4.266 3.54 4.36.257.129.374.129.632 0 .375-.176 6.55-8.32 6.656-8.777.059-.223 0-.399-.234-.668l-.317-.375h-2.66l-.035-3.41-.035-3.41-.281-.223c-.258-.211-.492-.223-3.434-.223h-3.152l-.282.293Zm5.333 4.805c0 2.144.046 3.304.128 3.504.176.375.657.539 1.536.539h.691l-2.063 2.718c-1.136 1.5-2.12 2.73-2.18 2.73-.058 0-1.042-1.218-2.19-2.694l-2.087-2.696.915-.058c1.5-.106 1.43.07 1.476-3.926l.035-3.34h3.739v3.223ZM61.567 36.14c-.375.294-.434.786-.434 3.973v3.153h-1.266c-1.37 0-1.699.117-1.91.668-.152.41-.129.433 3.305 5.074 3.129 4.207 3.305 4.394 3.926 4.066.152-.07 1.699-2.027 3.445-4.347 3.41-4.524 3.445-4.594 2.871-5.168-.27-.282-.363-.293-1.582-.293h-1.289v-6.692l-.293-.281-.281-.293h-3.153c-2.332 0-3.187.035-3.34.14Zm5.191 5.063c0 3.996-.07 3.809 1.336 3.926l.914.07-2.074 2.73c-1.137 1.5-2.11 2.696-2.168 2.66-.106-.058-4.102-5.308-4.102-5.378 0-.023.41-.07.903-.094 1.382-.094 1.324.094 1.324-3.914v-3.328h3.867v3.328Z"/><path d="M75.7 48.54a.878.878 0 0 0-.376.339c-.093.164-.129 4.945-.129 15.586v15.363h-38.32V64.734c0-10.066-.047-15.222-.117-15.515-.2-.727-.95-.914-1.465-.387l-.293.281v20.145c0 19.664 0 20.156.223 20.426.21.27.293.28 2.05.316l1.829.035v.434c0 .246.093.797.222 1.219.598 2.168 2.45 3.832 4.676 4.218 2.355.399 4.863-.82 5.965-2.906.422-.797.738-1.875.738-2.531v-.445h1.582l.153.902c.515 3.246 3.398 5.45 6.539 4.992 2.683-.387 4.968-2.836 4.968-5.332v-.563h7.735c4.254 0 7.734.036 7.734.083.023.714.317 1.875.656 2.578 1.723 3.597 6.457 4.418 9.258 1.629 1.031-1.043 1.535-2.11 1.746-3.739l.07-.55h1.395c1.535 0 1.91-.106 2.098-.575.34-.89.527-21.105.199-22.195-.211-.691-4.652-7.934-5.192-8.46a5.088 5.088 0 0 0-.949-.669c-.55-.27-.562-.27-6.14-.305l-5.602-.035v-8.883l-.305-.234c-.34-.27-.539-.293-.949-.129Zm12.503 11.437c.41.234.903.996 4.055 6.187l.984 1.63v7.112H76.953v-7.535c0-4.148.035-7.582.082-7.629.047-.047 2.484-.07 5.426-.047 5.133.036 5.344.047 5.742.282Zm4.922 18.27v1.581H76.953v-3.164h16.172v1.582Zm0 6.62v3.281h-2.109l-.247-.503c-.667-1.325-1.91-2.438-3.246-2.918-.82-.305-2.332-.399-3.222-.211-1.535.316-3.176 1.57-3.88 2.965l-.327.668H63.84l-.387-.727c-1.43-2.695-4.887-3.809-7.594-2.438-1.195.598-2.425 1.852-2.812 2.86-.106.305-.117.305-1.336.305h-1.23l-.387-.727c-1.465-2.777-5.075-3.844-7.875-2.344-.809.434-1.934 1.582-2.344 2.403l-.328.668h-2.672V81.585h56.25v3.281Zm-47.168 1.465c1.758.457 2.86 1.817 2.965 3.633.059 1.172-.223 2.016-.973 2.836-.785.89-1.547 1.242-2.777 1.3-.902.047-1.078.024-1.676-.257-1.23-.563-1.992-1.43-2.344-2.672-.574-2.074.715-4.277 2.86-4.852.726-.199 1.125-.199 1.945.012Zm13.945.223c.727.328 1.582 1.125 1.922 1.804 1.078 2.122.094 4.711-2.097 5.543-.868.329-2.391.27-3.141-.117-1.055-.539-1.934-1.605-2.18-2.648-.047-.2-.082-.668-.082-1.055.024-2.812 3.012-4.7 5.578-3.527Zm27.082-.059c1.196.54 2.004 1.5 2.344 2.813.48 1.886-.574 3.902-2.402 4.593-.926.352-2.39.282-3.235-.152-2.191-1.137-2.87-3.855-1.464-5.894.996-1.454 3.152-2.063 4.757-1.36Z"/><path d="M79.414 63.21c-.223.247-.234.388-.234 4.806v4.558l.293.282.28.292h4.524c4.36 0 4.524-.011 4.746-.234.223-.223.235-.387.235-2.473v-2.226l-1.36-2.367c-.75-1.301-1.476-2.485-1.605-2.637-.234-.258-.27-.258-3.434-.258-3.14 0-3.21 0-3.445.258Zm6.89 3.599 1.208 2.097-.035 1.219-.036 1.207-3.187.035-3.2.024v-6.68H85.099l1.207 2.098ZM38.41 55.875c-.234.305-.246.434-.246 4.98v4.664l.281.329.282.328h9.656l.281-.328.293-.34-.035-4.746-.035-4.746-.282-.223c-.257-.211-.527-.223-5.109-.223h-4.852l-.234.305Zm8.66 4.969v3.515H40.04V57.328H47.07v3.516ZM50.926 55.793l-.282.223V65.637l.27.27.27.269 4.476.035c2.461.023 4.653 0 4.863-.035.211-.035.493-.176.621-.305.212-.21.223-.422.223-4.957 0-4.605-.011-4.734-.246-5.039l-.234-.305h-4.852c-4.594 0-4.851.012-5.11.223Zm8.566 5.05v3.516H52.461V57.328H59.492v3.516ZM63.43 55.816l-.305.235v4.793c0 4.535.012 4.793.223 5.05l.222.282h9.774l.222-.282c.211-.257.223-.515.223-5.062 0-4.64-.012-4.805-.234-5.027-.223-.223-.387-.235-5.028-.235-4.664 0-4.793.012-5.097.246Zm8.578 5.051.023 3.492h-7.148V57.328l3.55.024 3.54.035.035 3.48ZM38.738 67.535a.942.942 0 0 0-.445.41c-.094.2-.129 1.7-.129 4.922v4.63l.293.28.281.293h4.793c4.559 0 4.817-.011 5.075-.222l.28-.223V68.004l-.269-.27-.27-.27-4.652-.023c-2.789-.011-4.77.024-4.957.094Zm8.332 5.262v3.516H40.04V69.28H47.07v3.516ZM51.172 67.559c-.574.293-.586.398-.563 5.32l.036 4.582.28.305.282.304h9.68l.234-.304c.234-.305.246-.434.246-4.993 0-2.824-.047-4.77-.117-4.898-.223-.422-.715-.469-5.32-.469-3.352 0-4.535.035-4.758.153Zm8.32 5.238v3.516H52.461V69.28H59.492v3.516ZM63.629 67.523a.878.878 0 0 0-.375.34c-.082.153-.129 1.84-.129 4.98 0 4.606.012 4.77.234 4.993.223.223.387.234 5.098.234s4.875-.011 5.098-.234c.222-.223.234-.387.234-4.992 0-2.871-.047-4.84-.117-4.969-.059-.117-.281-.27-.48-.34-.458-.152-9.176-.164-9.563-.012Zm8.379 5.239-.035 3.492-3.54.035-3.55.023V69.281h7.148l-.023 3.48Z"/></g><defs><clipPath id="clip0_116_327"><path fill="#fff" transform="translate(35 36)" d="M0 0h60v60H0z"/></clipPath></defs></svg>