<svg width="130" height="130" fill="none" xmlns="http://www.w3.org/2000/svg"><circle cx="65" cy="65" r="64" stroke="#FFBD00" stroke-width="2"/><g clip-path="url('#clip0_116_304')" fill="#03045E"><path d="M34.565 35.374c-.49.49-.49.954 0 1.444.374.36.413.373 1.753.373 1.753 0 2.243-.245 2.243-1.095 0-.851-.49-1.096-2.243-1.096-1.34 0-1.379.013-1.753.374ZM41.204 35.296c-.503.439-.503 1.16 0 1.586l.348.31h5.956c3.557 0 6.42.064 7.115.141 7.18.877 12.569 7.013 12.569 14.309 0 1.147.025 1.289.309 1.624.296.348.374.36 1.676.425l1.379.065-2.707 3.867C66.354 59.75 65.077 61.49 65 61.49c-.077 0-1.353-1.74-2.849-3.867l-2.707-3.867 1.38-.065c1.302-.064 1.379-.077 1.675-.425.297-.335.31-.464.31-1.934 0-2.63-.529-4.112-1.985-5.568-.967-.967-2.295-1.663-3.558-1.857-1.096-.18-6.446-.18-6.91-.012-.477.193-.683.49-.696 1.044 0 .309.09.541.271.709.245.219.567.244 3.713.322 4.009.077 4.434.18 5.568 1.289.877.85 1.263 1.753 1.367 3.132l.077 1.109H58.89c-1.096 0-1.882.051-2.05.155-.799.412-.799 1.057-.025 2.165.528.748.554.838.36.954-.128.065-3.119 1.792-6.651 3.842l-6.42 3.712-4.28-2.462c-2.358-1.366-4.33-2.514-4.382-2.565-.065-.052 3.03-1.908 6.845-4.112 3.828-2.218 7.077-4.138 7.232-4.28.412-.387.373-1.173-.065-1.521-.193-.155-.503-.27-.709-.27-.451 0-15.868 8.855-16.397 9.422-.412.438-.438.864-.103 1.302.142.168 2.346 1.521 4.899 3.004 2.565 1.482 4.653 2.72 4.653 2.758 0 .039-1.611 1.006-3.584 2.14-5.697 3.274-5.93 3.416-6.097 3.816-.206.515-.064.954.438 1.315.22.167 2.656 1.598 5.402 3.183l4.988 2.888.039 5.646c.039 5.44.052 5.646.296 5.891.142.142 4.99 3.004 10.764 6.355 8.405 4.873 10.596 6.085 10.957 6.085.361 0 2.552-1.212 10.957-6.085 5.775-3.351 10.622-6.213 10.764-6.355.245-.245.258-.451.296-5.89l.039-5.647 4.989-2.888c2.745-1.585 5.182-3.016 5.4-3.183.504-.361.645-.8.44-1.315-.181-.4 0-.297-5.711-3.597-2.179-1.25-3.97-2.32-3.97-2.359 0-.038 2.088-1.276 4.653-2.758 2.552-1.483 4.756-2.836 4.898-3.004.335-.438.31-.864-.103-1.302-.4-.412-21.037-12.4-21.527-12.49-.335-.065-2.785 1.224-3.159 1.675-.36.413-.309 1.186.104 1.508.49.387.85.335 1.972-.27l.992-.542 9.217 5.324c5.053 2.939 9.256 5.375 9.307 5.427.052.051-1.869 1.224-4.28 2.617l-4.382 2.54-6.42-3.713a974.418 974.418 0 0 0-6.651-3.842c-.194-.116-.168-.206.36-.954.684-.98.761-1.508.258-1.998-.296-.31-.36-.322-2.19-.322h-1.87v-.58c0-1.019-.374-3.12-.786-4.409-1.547-4.885-5.595-9.01-10.364-10.596-2.501-.825-2.463-.825-9.875-.876l-6.78-.052-.374.31Zm20.187 25.047c1.456 2.101 2.784 3.919 2.952 4.06.167.13.464.245.657.245.194 0 .49-.116.658-.245.167-.141 1.495-1.959 2.951-4.06 1.457-2.088 2.695-3.803 2.76-3.816.167 0 12.194 6.974 12.194 7.077 0 .039-4.177 2.501-9.282 5.453l-9.28 5.375-9.282-5.375c-5.105-2.952-9.269-5.414-9.243-5.479.039-.128 11.976-7.038 12.143-7.038.078 0 1.315 1.715 2.772 3.803Zm-7.967 9.926c5.092 2.952 9.256 5.4 9.256 5.44-.013.129-8.482 4.988-8.688 4.988-.271 0-18.64-10.686-18.537-10.79.116-.102 8.572-5 8.65-5 .025 0 4.215 2.41 9.32 5.362Zm36.777-2.9c2.346 1.353 4.293 2.5 4.344 2.539.104.103-18.279 10.79-18.55 10.79-.244 0-8.675-4.886-8.636-5.002.026-.103 18.382-10.777 18.524-10.79.039 0 1.985 1.109 4.318 2.462Zm-26.4 30.499c-.026.025-4.228-2.385-9.345-5.337l-9.307-5.389v-4.434c0-3.841.025-4.408.193-4.344.103.039 1.998 1.121 4.215 2.41 2.746 1.599 4.164 2.347 4.422 2.347.27.013 1.766-.787 5.091-2.72l4.706-2.72.038 10.067c.013 5.543.013 10.094-.013 10.12Zm7.193-17.416c3.275 1.895 4.757 2.681 5.028 2.669.257 0 1.675-.748 4.421-2.346 2.217-1.29 4.112-2.372 4.215-2.411.168-.064.194.503.194 4.344v4.434l-9.243 5.35c-5.079 2.94-9.281 5.376-9.346 5.388-.051.026-.103-4.511-.103-10.093 0-5.569.039-10.106.103-10.08.052.025 2.179 1.263 4.731 2.745Z"/><path d="M80.946 82.45c-.4.232-.606.941-.606 2.076 0 .76.064 1.199.232 1.52.425.851 1.43.851 1.856 0 .297-.567.322-2.384.052-3.029-.271-.657-.954-.902-1.534-.567ZM76.382 84.81c-.36.309-.36.322-.36 1.881 0 1.56 0 1.573.36 1.882.477.4 1.045.4 1.444-.012.31-.297.322-.387.322-1.792 0-.812-.038-1.573-.077-1.689-.103-.245-.709-.58-1.07-.58-.142 0-.425.142-.619.31ZM39.219 39.55c-.67.336-.774 1.148-.232 1.728l.27.296h4.796c4.666 0 4.808-.013 5.143-.27.245-.194.335-.387.335-.697 0-1.211-.026-1.224-5.44-1.224-3.39 0-4.627.038-4.872.167ZM43.653 43.946a.998.998 0 0 0-.541.58c-.168.464-.103.722.27 1.134.245.271.374.297 1.767.297 1.34 0 1.546-.026 1.856-.27.258-.207.335-.374.335-.735-.013-.929-.503-1.186-2.166-1.186-.644.013-1.289.077-1.52.18Z"/></g><defs><clipPath id="clip0_116_304"><path fill="#fff" transform="translate(32 35)" d="M0 0h66v66H0z"/></clipPath></defs></svg>