<svg width="130" height="130" fill="none" xmlns="http://www.w3.org/2000/svg"><circle cx="65" cy="65" r="64" stroke="#FFBD00" stroke-width="2"/><g clip-path="url('#clip0_116_318')"><path d="M53.078 40.451c-.641.21-1.74 1.335-1.937 2.002-.117.406-.157 4.11-.157 15.39v14.852l-1.334.76c-.746.405-2.225 1.36-3.285 2.106-1.06.746-1.976 1.36-2.028 1.36-.066 0-.406-.444-.785-.98-.72-1.034-1.1-1.27-1.662-1.008-.301.144-8.78 6.032-10.233 7.119-1.204.876-1.492.314 4.88 9.421 5.745 8.192 5.772 8.231 6.491 8.035.471-.118 10.744-7.367 10.927-7.694.236-.445.21-.641-.222-1.322l-.393-.628.589-.367c1.793-1.138 4.227-1.439 7.354-.916 2.447.42 4.58.393 6.32-.052 1.519-.392 22.718-8.087 23.595-8.571 1.282-.694 1.936-1.793 2.028-3.376.052-.956.013-1.152-.301-1.859-.367-.824-1.335-1.87-1.871-2.041l-.288-.092v-14.8c0-11.24-.04-14.93-.157-15.337-.21-.72-1.296-1.805-2.015-2.015-.733-.21-34.822-.21-35.516.013Zm12.563 4.018v2.093H53.079v-1.766c0-1.714.012-1.793.326-2.094l.314-.327h11.922v2.094Zm8.375 2.381v4.476l-1.361-1.335c-1.165-1.151-1.413-1.335-1.78-1.335-.366 0-.615.184-1.78 1.335l-1.36 1.335v-8.951h6.28v4.475Zm14.329-4.148c.314.301.327.38.327 2.094v1.767H76.109v-4.188h11.922l.314.327ZM65.64 51.47c0 2.826 0 2.826.327 3.14.196.21.458.328.733.328.366 0 .667-.236 2.303-1.859l1.871-1.858 1.871 1.858c1.636 1.623 1.937 1.858 2.303 1.858.275 0 .537-.117.733-.327.328-.314.328-.314.328-3.14v-2.814H88.671v23.529l-.419.091c-.235.053-1.282.42-2.33.799l-1.897.706h-3.703c-3.48 0-3.73-.013-4.03-.248-.55-.432-1.374-.629-6.727-1.57-7.079-1.244-7-1.23-9.356-1.23-2.29.012-4.279.3-6.111.876l-1.02.314V48.656H65.64v2.814Zm-3.599 21.395c1.767.157 12.445 2.055 12.903 2.29.785.419 1.256 1.453 1.034 2.303-.275.995-1.047 1.584-2.081 1.57-.327 0-3.075-.444-6.098-.98-3.01-.55-5.496-.97-5.522-.956-.066.079-.34 1.937-.288 1.99.157.143 11.41 2.053 12.117 2.053 1.492-.013 2.814-.837 3.547-2.211l.405-.759 5.365-1.95c4.698-1.7 5.431-1.937 5.941-1.884 1.767.196 2.434 2.368 1.113 3.599-.367.34-22.076 8.27-23.594 8.623-1.413.314-3.376.301-5.378-.065-3.468-.602-6.203-.223-8.676 1.23l-.72.432-3.245-4.646c-1.78-2.552-3.246-4.685-3.246-4.75 0-.157 3.573-2.657 4.816-3.35 2.395-1.374 5.339-2.29 8.113-2.539 1.61-.13 2.015-.13 3.494 0Zm-15.284 11.28c2.578 3.69 4.684 6.779 4.684 6.87 0 .079-1.439 1.165-3.206 2.408a616.15 616.15 0 0 0-4.213 2.958l-1.008.706-4.724-6.765c-2.604-3.716-4.737-6.818-4.75-6.896-.026-.131 8.126-5.941 8.375-5.968.078-.013 2.25 3.01 4.842 6.687Z" fill="#03045E"/></g><defs><clipPath id="clip0_116_318"><path fill="#fff" transform="translate(31 40)" d="M0 0h62v60H0z"/></clipPath></defs></svg>